<svg xmlns="http://www.w3.org/2000/svg" width="760" height="260" viewBox="0 0 760 260" role="img" aria-label="Coarse-grain final collapse">
  <rect width="760" height="260" fill="#f8faf7"/>
  <text x="34" y="24" font-family="Arial, sans-serif" font-size="15" fill="#22302d">Coarse-grain final collapse</text>
<line x1="71.38" y1="123.46" x2="294.47" y2="123.85" stroke="#25636a" stroke-opacity="0.22" stroke-width="1.2"/><line x1="71.38" y1="123.46" x2="307.41" y2="124.64" stroke="#25636a" stroke-opacity="0.22" stroke-width="1.2"/><line x1="131.12" y1="125.80" x2="294.47" y2="123.85" stroke="#25636a" stroke-opacity="0.22" stroke-width="1.2"/><line x1="131.12" y1="125.80" x2="307.41" y2="124.64" stroke="#25636a" stroke-opacity="0.22" stroke-width="1.2"/><line x1="131.12" y1="125.80" x2="232.63" y2="138.41" stroke="#25636a" stroke-opacity="0.22" stroke-width="1.2"/><line x1="131.12" y1="125.80" x2="375.48" y2="121.33" stroke="#25636a" stroke-opacity="0.22" stroke-width="1.2"/><line x1="87.54" y1="128.21" x2="104.33" y2="130.93" stroke="#25636a" stroke-opacity="0.22" stroke-width="1.2"/><line x1="129.71" y1="129.12" x2="294.47" y2="123.85" stroke="#25636a" stroke-opacity="0.22" stroke-width="1.2"/><line x1="129.71" y1="129.12" x2="307.41" y2="124.64" stroke="#25636a" stroke-opacity="0.22" stroke-width="1.2"/><line x1="104.33" y1="130.93" x2="120.92" y2="133.38" stroke="#25636a" stroke-opacity="0.22" stroke-width="1.2"/><line x1="137.61" y1="130.89" x2="294.47" y2="123.85" stroke="#25636a" stroke-opacity="0.22" stroke-width="1.2"/><line x1="137.61" y1="130.89" x2="307.41" y2="124.64" stroke="#25636a" stroke-opacity="0.22" stroke-width="1.2"/><line x1="148.64" y1="132.77" x2="307.41" y2="124.64" stroke="#25636a" stroke-opacity="0.22" stroke-width="1.2"/><line x1="294.47" y1="123.85" x2="375.48" y2="121.33" stroke="#25636a" stroke-opacity="0.22" stroke-width="1.2"/><line x1="294.47" y1="123.85" x2="442.77" y2="109.50" stroke="#25636a" stroke-opacity="0.22" stroke-width="1.2"/><line x1="294.47" y1="123.85" x2="471.52" y2="107.42" stroke="#25636a" stroke-opacity="0.22" stroke-width="1.2"/><line x1="294.47" y1="123.85" x2="431.85" y2="112.19" stroke="#25636a" stroke-opacity="0.22" stroke-width="1.2"/><line x1="294.47" y1="123.85" x2="477.38" y2="104.77" stroke="#25636a" stroke-opacity="0.22" stroke-width="1.2"/><line x1="294.47" y1="123.85" x2="495.38" y2="105.12" stroke="#25636a" stroke-opacity="0.22" stroke-width="1.2"/><line x1="294.47" y1="123.85" x2="508.99" y2="104.16" stroke="#25636a" stroke-opacity="0.22" stroke-width="1.2"/><line x1="294.47" y1="123.85" x2="535.60" y2="106.43" stroke="#25636a" stroke-opacity="0.22" stroke-width="1.2"/><line x1="220.96" y1="139.90" x2="237.75" y2="139.35" stroke="#25636a" stroke-opacity="0.22" stroke-width="1.2"/><line x1="307.41" y1="124.64" x2="375.48" y2="121.33" stroke="#25636a" stroke-opacity="0.22" stroke-width="1.2"/><line x1="307.41" y1="124.64" x2="442.77" y2="109.50" stroke="#25636a" stroke-opacity="0.22" stroke-width="1.2"/><line x1="307.41" y1="124.64" x2="471.52" y2="107.42" stroke="#25636a" stroke-opacity="0.22" stroke-width="1.2"/><line x1="307.41" y1="124.64" x2="431.85" y2="112.19" stroke="#25636a" stroke-opacity="0.22" stroke-width="1.2"/><line x1="307.41" y1="124.64" x2="477.38" y2="104.77" stroke="#25636a" stroke-opacity="0.22" stroke-width="1.2"/><line x1="307.41" y1="124.64" x2="495.38" y2="105.12" stroke="#25636a" stroke-opacity="0.22" stroke-width="1.2"/><line x1="307.41" y1="124.64" x2="508.99" y2="104.16" stroke="#25636a" stroke-opacity="0.22" stroke-width="1.2"/><line x1="307.41" y1="124.64" x2="535.60" y2="106.43" stroke="#25636a" stroke-opacity="0.22" stroke-width="1.2"/><line x1="237.75" y1="139.35" x2="255.48" y2="138.28" stroke="#25636a" stroke-opacity="0.22" stroke-width="1.2"/><line x1="255.48" y1="138.28" x2="273.26" y2="136.71" stroke="#25636a" stroke-opacity="0.22" stroke-width="1.2"/><line x1="273.26" y1="136.71" x2="291.05" y2="134.69" stroke="#25636a" stroke-opacity="0.22" stroke-width="1.2"/><line x1="283.23" y1="135.65" x2="300.01" y2="133.52" stroke="#25636a" stroke-opacity="0.22" stroke-width="1.2"/><line x1="291.05" y1="134.69" x2="307.71" y2="132.44" stroke="#25636a" stroke-opacity="0.22" stroke-width="1.2"/><line x1="300.01" y1="133.52" x2="316.61" y2="131.10" stroke="#25636a" stroke-opacity="0.22" stroke-width="1.2"/>
  <polyline points="71.38,123.46 50.89,121.65 59.79,123.29 131.12,125.80 77.58,126.49 87.54,128.21 129.71,129.12 104.33,130.93 137.61,130.89 120.92,133.38 148.64,132.77 139.84,135.78 148.74,136.74 157.63,137.59 166.53,138.32 175.42,138.92 294.47,123.85 193.21,139.73 202.11,139.93 211.00,140.00 220.96,139.90 307.41,124.64 237.75,139.35 246.58,138.92 255.48,138.28 264.37,137.59 273.26,136.71 283.23,135.65 291.05,134.69 300.01,133.52 307.71,132.44 316.61,131.10 326.63,129.52 335.53,128.03 344.42,126.49 353.32,124.91 362.21,123.29 375.48,121.33 381.07,119.80 389.96,118.15 397.85,116.70 406.75,115.09 415.58,113.52 424.48,111.98 433.37,110.50 441.13,109.25 451.16,107.74 460.05,106.45 467.81,105.44 442.77,109.50 471.52,107.42 431.85,112.19 505.59,101.62 495.38,105.12 522.38,100.64 508.99,104.16 538.97,100.10 550.07,100.02 557.89,100.07 565.72,100.26 575.68,100.61 535.60,106.43 593.47,101.68 603.44,102.52 611.26,103.26 620.22,104.25 630.12,105.43 637.95,106.48 645.77,107.57 655.74,109.08 664.63,110.48 673.53,111.98 683.49,113.70 690.18,114.89 699.14,116.52 625.68,114.59 718.00,120.00" fill="none" stroke="#7d8f86" stroke-width="3"/>
  <circle cx="71.38" cy="123.46" r="3.2" fill="#22302d"/><circle cx="59.79" cy="123.29" r="3.2" fill="#22302d"/><circle cx="77.58" cy="126.49" r="3.2" fill="#22302d"/><circle cx="129.71" cy="129.12" r="3.2" fill="#22302d"/><circle cx="137.61" cy="130.89" r="3.2" fill="#22302d"/><circle cx="148.64" cy="132.77" r="3.2" fill="#22302d"/><circle cx="148.74" cy="136.74" r="3.2" fill="#22302d"/><circle cx="166.53" cy="138.32" r="3.2" fill="#22302d"/><circle cx="294.47" cy="123.85" r="3.2" fill="#22302d"/><circle cx="202.11" cy="139.93" r="3.2" fill="#22302d"/><circle cx="220.96" cy="139.90" r="3.2" fill="#22302d"/><circle cx="237.75" cy="139.35" r="3.2" fill="#22302d"/><circle cx="255.48" cy="138.28" r="3.2" fill="#22302d"/><circle cx="273.26" cy="136.71" r="3.2" fill="#22302d"/><circle cx="291.05" cy="134.69" r="3.2" fill="#22302d"/><circle cx="307.71" cy="132.44" r="3.2" fill="#22302d"/><circle cx="326.63" cy="129.52" r="3.2" fill="#22302d"/><circle cx="344.42" cy="126.49" r="3.2" fill="#22302d"/><circle cx="362.21" cy="123.29" r="3.2" fill="#22302d"/><circle cx="381.07" cy="119.80" r="3.2" fill="#22302d"/><circle cx="397.85" cy="116.70" r="3.2" fill="#22302d"/><circle cx="415.58" cy="113.52" r="3.2" fill="#22302d"/><circle cx="433.37" cy="110.50" r="3.2" fill="#22302d"/><circle cx="451.16" cy="107.74" r="3.2" fill="#22302d"/><circle cx="467.81" cy="105.44" r="3.2" fill="#22302d"/><circle cx="471.52" cy="107.42" r="3.2" fill="#22302d"/><circle cx="505.59" cy="101.62" r="3.2" fill="#22302d"/><circle cx="522.38" cy="100.64" r="3.2" fill="#22302d"/><circle cx="538.97" cy="100.10" r="3.2" fill="#22302d"/><circle cx="557.89" cy="100.07" r="3.2" fill="#22302d"/><circle cx="575.68" cy="100.61" r="3.2" fill="#22302d"/><circle cx="593.47" cy="101.68" r="3.2" fill="#22302d"/><circle cx="611.26" cy="103.26" r="3.2" fill="#22302d"/><circle cx="630.12" cy="105.43" r="3.2" fill="#22302d"/><circle cx="645.77" cy="107.57" r="3.2" fill="#22302d"/><circle cx="664.63" cy="110.48" r="3.2" fill="#22302d"/><circle cx="683.49" cy="113.70" r="3.2" fill="#22302d"/><circle cx="699.14" cy="116.52" r="3.2" fill="#22302d"/><circle cx="718.00" cy="120.00" r="3.2" fill="#22302d"/>
  <text x="34" y="248" font-family="Arial, sans-serif" font-size="11" fill="#58635e">row: coord_001_pdb_1MBN_A_myoglobin | coarse beads, not atomic structure</text>
</svg>
