<svg xmlns="http://www.w3.org/2000/svg" width="760" height="260" viewBox="0 0 760 260" role="img" aria-label="native coordinate trace">
  <rect width="760" height="260" fill="#f8faf7"/>
  <text x="34" y="24" font-family="Arial, sans-serif" font-size="15" fill="#22302d">Native C-alpha Coordinate Trace</text>
  <line x1="43.20" y1="114.52" x2="127.85" y2="144.90" stroke="#326e8f" stroke-width="1" stroke-opacity="0.22"/><line x1="91.83" y1="101.34" x2="171.08" y2="81.85" stroke="#326e8f" stroke-width="1" stroke-opacity="0.22"/><line x1="91.83" y1="101.34" x2="189.09" y2="101.91" stroke="#326e8f" stroke-width="1" stroke-opacity="0.22"/><line x1="91.83" y1="101.34" x2="127.85" y2="144.90" stroke="#326e8f" stroke-width="1" stroke-opacity="0.22"/><line x1="91.83" y1="101.34" x2="210.70" y2="79.56" stroke="#326e8f" stroke-width="1" stroke-opacity="0.22"/><line x1="91.83" y1="101.34" x2="171.08" y2="93.89" stroke="#326e8f" stroke-width="1" stroke-opacity="0.22"/><line x1="91.83" y1="101.34" x2="198.09" y2="111.66" stroke="#326e8f" stroke-width="1" stroke-opacity="0.22"/><line x1="88.23" y1="90.45" x2="171.08" y2="81.85" stroke="#326e8f" stroke-width="1" stroke-opacity="0.22"/><line x1="88.23" y1="90.45" x2="189.09" y2="101.91" stroke="#326e8f" stroke-width="1" stroke-opacity="0.22"/><line x1="108.04" y1="94.46" x2="189.09" y2="101.91" stroke="#326e8f" stroke-width="1" stroke-opacity="0.22"/><line x1="108.04" y1="94.46" x2="221.51" y2="91.02" stroke="#326e8f" stroke-width="1" stroke-opacity="0.22"/><line x1="147.66" y1="76.70" x2="221.51" y2="91.02" stroke="#326e8f" stroke-width="1" stroke-opacity="0.22"/><line x1="147.66" y1="76.70" x2="259.33" y2="80.13" stroke="#326e8f" stroke-width="1" stroke-opacity="0.22"/><line x1="171.08" y1="81.85" x2="259.33" y2="80.13" stroke="#326e8f" stroke-width="1" stroke-opacity="0.22"/><line x1="171.08" y1="81.85" x2="266.53" y2="96.76" stroke="#326e8f" stroke-width="1" stroke-opacity="0.22"/><line x1="171.08" y1="81.85" x2="244.92" y2="45.74" stroke="#326e8f" stroke-width="1" stroke-opacity="0.22"/><line x1="171.08" y1="81.85" x2="284.54" y2="62.94" stroke="#326e8f" stroke-width="1" stroke-opacity="0.22"/><line x1="171.08" y1="81.85" x2="210.70" y2="79.56" stroke="#326e8f" stroke-width="1" stroke-opacity="0.22"/><line x1="189.09" y1="101.91" x2="266.53" y2="96.76" stroke="#326e8f" stroke-width="1" stroke-opacity="0.22"/><line x1="189.09" y1="101.91" x2="291.75" y2="108.79" stroke="#326e8f" stroke-width="1" stroke-opacity="0.22"/><line x1="189.09" y1="101.91" x2="163.87" y2="137.45" stroke="#326e8f" stroke-width="1" stroke-opacity="0.22"/><line x1="189.09" y1="101.91" x2="210.70" y2="79.56" stroke="#326e8f" stroke-width="1" stroke-opacity="0.22"/><line x1="221.51" y1="91.02" x2="291.75" y2="108.79" stroke="#326e8f" stroke-width="1" stroke-opacity="0.22"/><line x1="221.51" y1="91.02" x2="338.58" y2="95.61" stroke="#326e8f" stroke-width="1" stroke-opacity="0.22"/><line x1="259.33" y1="80.13" x2="338.58" y2="95.61" stroke="#326e8f" stroke-width="1" stroke-opacity="0.22"/><line x1="259.33" y1="80.13" x2="369.19" y2="92.74" stroke="#326e8f" stroke-width="1" stroke-opacity="0.22"/><line x1="259.33" y1="80.13" x2="244.92" y2="45.74" stroke="#326e8f" stroke-width="1" stroke-opacity="0.22"/><line x1="259.33" y1="80.13" x2="284.54" y2="62.94" stroke="#326e8f" stroke-width="1" stroke-opacity="0.22"/><line x1="259.33" y1="80.13" x2="210.70" y2="79.56" stroke="#326e8f" stroke-width="1" stroke-opacity="0.22"/><line x1="259.33" y1="80.13" x2="261.13" y2="90.45" stroke="#326e8f" stroke-width="1" stroke-opacity="0.22"/><line x1="266.53" y1="96.76" x2="369.19" y2="92.74" stroke="#326e8f" stroke-width="1" stroke-opacity="0.22"/><line x1="266.53" y1="96.76" x2="370.99" y2="114.52" stroke="#326e8f" stroke-width="1" stroke-opacity="0.22"/><line x1="266.53" y1="96.76" x2="252.13" y2="140.32" stroke="#326e8f" stroke-width="1" stroke-opacity="0.22"/><line x1="266.53" y1="96.76" x2="284.54" y2="62.94" stroke="#326e8f" stroke-width="1" stroke-opacity="0.22"/><line x1="266.53" y1="96.76" x2="210.70" y2="79.56" stroke="#326e8f" stroke-width="1" stroke-opacity="0.22"/><line x1="266.53" y1="96.76" x2="261.13" y2="90.45" stroke="#326e8f" stroke-width="1" stroke-opacity="0.22"/><line x1="266.53" y1="96.76" x2="198.09" y2="111.66" stroke="#326e8f" stroke-width="1" stroke-opacity="0.22"/><line x1="291.75" y1="108.79" x2="370.99" y2="114.52" stroke="#326e8f" stroke-width="1" stroke-opacity="0.22"/><line x1="291.75" y1="108.79" x2="401.61" y2="116.82" stroke="#326e8f" stroke-width="1" stroke-opacity="0.22"/><line x1="291.75" y1="108.79" x2="252.13" y2="140.32" stroke="#326e8f" stroke-width="1" stroke-opacity="0.22"/><line x1="291.75" y1="108.79" x2="253.93" y2="146.05" stroke="#326e8f" stroke-width="1" stroke-opacity="0.22"/><line x1="338.58" y1="95.61" x2="401.61" y2="116.82" stroke="#326e8f" stroke-width="1" stroke-opacity="0.22"/>
  <polyline points="43.20,114.52 91.83,101.34 88.23,90.45 108.04,94.46 147.66,76.70 171.08,81.85 189.09,101.91 221.51,91.02 259.33,80.13 266.53,96.76 291.75,108.79 338.58,95.61 369.19,92.74 370.99,114.52 401.61,116.82 448.44,103.06 455.64,113.95 464.65,131.15 522.28,121.98 554.70,127.13 516.88,140.89 563.71,147.77 583.52,127.13 518.68,121.40 506.07,139.17 563.71,135.73 540.29,115.67 477.26,119.68 502.47,135.16 547.50,122.55 500.67,106.50 457.45,120.26 504.27,129.43 527.69,109.94 466.45,101.34 434.03,118.54 477.26,130.57 426.83,144.33 419.62,150.63 484.46,158.66 480.86,168.40 437.63,181.01 480.86,187.89 520.48,202.79 563.71,202.22 574.51,181.01 570.91,176.43 639.35,179.29 642.95,161.52 666.37,144.90 680.77,127.13 660.96,117.39 722.20,122.55 711.39,143.76 650.16,143.76 669.97,135.16 724.00,148.34 687.98,166.68 669.97,177.00 619.54,189.61 588.92,170.12 599.73,164.96 569.11,183.30 520.48,179.29 502.47,159.23 500.67,170.12 457.45,185.60 416.02,170.12 419.62,155.22 403.41,171.27 345.78,177.57 331.37,156.37 334.97,151.21 300.75,168.98 248.52,160.38 252.13,140.32 253.93,146.05 194.49,156.37 163.87,137.45 127.85,144.90 109.84,164.39 160.27,171.84 131.46,187.89 171.08,203.37 226.91,195.91 201.70,187.32 169.28,203.94 225.11,216.55 257.53,199.35 208.90,194.20 208.90,214.83 277.34,215.40 280.94,196.49 228.71,201.07 244.92,222.28 313.36,224.00 342.18,203.94 302.55,194.20 302.55,174.71 259.33,159.23 223.31,147.20 257.53,131.72 313.36,139.74 282.74,139.17 271.94,118.54 334.97,115.67 363.79,125.41 320.57,113.95 349.38,96.18 416.02,100.20 390.81,105.93 370.99,85.87 421.42,75.55 462.85,88.73 430.43,84.15 432.23,62.94 498.87,64.09 515.08,73.83 475.46,63.51 475.46,42.30 450.24,36.00 416.02,54.34 378.20,53.77 343.98,36.00 280.94,36.57 244.92,45.74 284.54,62.94 289.95,62.94 223.31,64.66 210.70,79.56 261.13,90.45 234.12,88.16 171.08,93.89 198.09,111.66 226.91,116.82 172.88,114.52 144.06,127.13 189.09,143.18 180.08,138.60 111.64,140.32 109.84,160.38 160.27,168.98 124.25,160.95 66.62,170.70 95.43,190.18 124.25,187.89 61.21,185.02 36.00,202.22 90.03,211.96 88.23,203.94 138.66,189.61 131.46,167.83 127.85,158.09" fill="none" stroke="#7d8f86" stroke-width="2.6"/>
  <circle cx="43.20" cy="114.52" r="3" fill="#22302d"/><circle cx="108.04" cy="94.46" r="3" fill="#22302d"/><circle cx="189.09" cy="101.91" r="3" fill="#22302d"/><circle cx="266.53" cy="96.76" r="3" fill="#22302d"/><circle cx="369.19" cy="92.74" r="3" fill="#22302d"/><circle cx="448.44" cy="103.06" r="3" fill="#22302d"/><circle cx="522.28" cy="121.98" r="3" fill="#22302d"/><circle cx="563.71" cy="147.77" r="3" fill="#22302d"/><circle cx="506.07" cy="139.17" r="3" fill="#22302d"/><circle cx="477.26" cy="119.68" r="3" fill="#22302d"/><circle cx="500.67" cy="106.50" r="3" fill="#22302d"/><circle cx="527.69" cy="109.94" r="3" fill="#22302d"/><circle cx="477.26" cy="130.57" r="3" fill="#22302d"/><circle cx="484.46" cy="158.66" r="3" fill="#22302d"/><circle cx="480.86" cy="187.89" r="3" fill="#22302d"/><circle cx="574.51" cy="181.01" r="3" fill="#22302d"/><circle cx="642.95" cy="161.52" r="3" fill="#22302d"/><circle cx="660.96" cy="117.39" r="3" fill="#22302d"/><circle cx="650.16" cy="143.76" r="3" fill="#22302d"/><circle cx="687.98" cy="166.68" r="3" fill="#22302d"/><circle cx="588.92" cy="170.12" r="3" fill="#22302d"/><circle cx="520.48" cy="179.29" r="3" fill="#22302d"/><circle cx="457.45" cy="185.60" r="3" fill="#22302d"/><circle cx="403.41" cy="171.27" r="3" fill="#22302d"/><circle cx="334.97" cy="151.21" r="3" fill="#22302d"/><circle cx="252.13" cy="140.32" r="3" fill="#22302d"/><circle cx="163.87" cy="137.45" r="3" fill="#22302d"/><circle cx="160.27" cy="171.84" r="3" fill="#22302d"/><circle cx="226.91" cy="195.91" r="3" fill="#22302d"/><circle cx="225.11" cy="216.55" r="3" fill="#22302d"/><circle cx="208.90" cy="214.83" r="3" fill="#22302d"/><circle cx="228.71" cy="201.07" r="3" fill="#22302d"/><circle cx="342.18" cy="203.94" r="3" fill="#22302d"/><circle cx="259.33" cy="159.23" r="3" fill="#22302d"/><circle cx="313.36" cy="139.74" r="3" fill="#22302d"/><circle cx="334.97" cy="115.67" r="3" fill="#22302d"/><circle cx="349.38" cy="96.18" r="3" fill="#22302d"/><circle cx="370.99" cy="85.87" r="3" fill="#22302d"/><circle cx="430.43" cy="84.15" r="3" fill="#22302d"/><circle cx="515.08" cy="73.83" r="3" fill="#22302d"/><circle cx="450.24" cy="36.00" r="3" fill="#22302d"/><circle cx="343.98" cy="36.00" r="3" fill="#22302d"/><circle cx="284.54" cy="62.94" r="3" fill="#22302d"/><circle cx="210.70" cy="79.56" r="3" fill="#22302d"/><circle cx="171.08" cy="93.89" r="3" fill="#22302d"/><circle cx="172.88" cy="114.52" r="3" fill="#22302d"/><circle cx="180.08" cy="138.60" r="3" fill="#22302d"/><circle cx="160.27" cy="168.98" r="3" fill="#22302d"/><circle cx="95.43" cy="190.18" r="3" fill="#22302d"/><circle cx="36.00" cy="202.22" r="3" fill="#22302d"/><circle cx="138.66" cy="189.61" r="3" fill="#22302d"/>
  <text x="34" y="248" font-family="Arial, sans-serif" font-size="11" fill="#58635e">row: coord_001_pdb_1MBN_A_myoglobin | projected coordinates, not full atomic folding</text>
</svg>
