<svg xmlns="http://www.w3.org/2000/svg" width="420" height="420" viewBox="0 0 420 420" role="img" aria-label="Sequence-only predicted contact candidates">
  <rect width="420" height="420" fill="#f8faf7"/>
  <text x="34" y="22" font-family="Arial, sans-serif" font-size="14" fill="#22302d">Sequence-only predicted contact candidates</text>
  <line x1="34" y1="34" x2="34" y2="386" stroke="#9aa69f"/>
  <line x1="34" y1="386" x2="386" y2="386" stroke="#9aa69f"/>
  <line x1="34" y1="34" x2="386" y2="386" stroke="#cfd8d2" stroke-dasharray="4 4"/>
  <circle cx="34.00" cy="71.05" r="2.2" fill="#c44b3a"/><circle cx="71.05" cy="34.00" r="2.2" fill="#c44b3a" opacity="0.58"/><circle cx="34.00" cy="80.32" r="2.2" fill="#c44b3a"/><circle cx="80.32" cy="34.00" r="2.2" fill="#c44b3a" opacity="0.58"/><circle cx="34.00" cy="108.11" r="2.2" fill="#c44b3a"/><circle cx="108.11" cy="34.00" r="2.2" fill="#c44b3a" opacity="0.58"/><circle cx="34.00" cy="131.26" r="2.2" fill="#c44b3a"/><circle cx="131.26" cy="34.00" r="2.2" fill="#c44b3a" opacity="0.58"/><circle cx="47.89" cy="108.11" r="2.2" fill="#c44b3a"/><circle cx="108.11" cy="47.89" r="2.2" fill="#c44b3a" opacity="0.58"/><circle cx="47.89" cy="131.26" r="2.2" fill="#c44b3a"/><circle cx="131.26" cy="47.89" r="2.2" fill="#c44b3a" opacity="0.58"/><circle cx="47.89" cy="138.21" r="2.2" fill="#c44b3a"/><circle cx="138.21" cy="47.89" r="2.2" fill="#c44b3a" opacity="0.58"/><circle cx="47.89" cy="205.37" r="2.2" fill="#c44b3a"/><circle cx="205.37" cy="47.89" r="2.2" fill="#c44b3a" opacity="0.58"/><circle cx="47.89" cy="260.95" r="2.2" fill="#c44b3a"/><circle cx="260.95" cy="47.89" r="2.2" fill="#c44b3a" opacity="0.58"/><circle cx="57.16" cy="66.42" r="2.2" fill="#c44b3a"/><circle cx="66.42" cy="57.16" r="2.2" fill="#c44b3a" opacity="0.58"/><circle cx="61.79" cy="108.11" r="2.2" fill="#c44b3a"/><circle cx="108.11" cy="61.79" r="2.2" fill="#c44b3a" opacity="0.58"/><circle cx="61.79" cy="131.26" r="2.2" fill="#c44b3a"/><circle cx="131.26" cy="61.79" r="2.2" fill="#c44b3a" opacity="0.58"/><circle cx="61.79" cy="270.21" r="2.2" fill="#c44b3a"/><circle cx="270.21" cy="61.79" r="2.2" fill="#c44b3a" opacity="0.58"/><circle cx="66.42" cy="75.68" r="2.2" fill="#c44b3a"/><circle cx="75.68" cy="66.42" r="2.2" fill="#c44b3a" opacity="0.58"/><circle cx="71.05" cy="108.11" r="2.2" fill="#c44b3a"/><circle cx="108.11" cy="71.05" r="2.2" fill="#c44b3a" opacity="0.58"/><circle cx="71.05" cy="131.26" r="2.2" fill="#c44b3a"/><circle cx="131.26" cy="71.05" r="2.2" fill="#c44b3a" opacity="0.58"/><circle cx="71.05" cy="270.21" r="2.2" fill="#c44b3a"/><circle cx="270.21" cy="71.05" r="2.2" fill="#c44b3a" opacity="0.58"/><circle cx="80.32" cy="131.26" r="2.2" fill="#c44b3a"/><circle cx="131.26" cy="80.32" r="2.2" fill="#c44b3a" opacity="0.58"/><circle cx="80.32" cy="270.21" r="2.2" fill="#c44b3a"/><circle cx="270.21" cy="80.32" r="2.2" fill="#c44b3a" opacity="0.58"/><circle cx="108.11" cy="205.37" r="2.2" fill="#c44b3a"/><circle cx="205.37" cy="108.11" r="2.2" fill="#c44b3a" opacity="0.58"/><circle cx="108.11" cy="260.95" r="2.2" fill="#c44b3a"/><circle cx="260.95" cy="108.11" r="2.2" fill="#c44b3a" opacity="0.58"/><circle cx="108.11" cy="265.58" r="2.2" fill="#c44b3a"/><circle cx="265.58" cy="108.11" r="2.2" fill="#c44b3a" opacity="0.58"/><circle cx="108.11" cy="270.21" r="2.2" fill="#c44b3a"/><circle cx="270.21" cy="108.11" r="2.2" fill="#c44b3a" opacity="0.58"/><circle cx="108.11" cy="277.16" r="2.2" fill="#c44b3a"/><circle cx="277.16" cy="108.11" r="2.2" fill="#c44b3a" opacity="0.58"/><circle cx="108.11" cy="279.47" r="2.2" fill="#c44b3a"/><circle cx="279.47" cy="108.11" r="2.2" fill="#c44b3a" opacity="0.58"/><circle cx="108.11" cy="288.74" r="2.2" fill="#c44b3a"/><circle cx="288.74" cy="108.11" r="2.2" fill="#c44b3a" opacity="0.58"/><circle cx="108.11" cy="316.53" r="2.2" fill="#c44b3a"/><circle cx="316.53" cy="108.11" r="2.2" fill="#c44b3a" opacity="0.58"/><circle cx="126.63" cy="135.89" r="2.2" fill="#c44b3a"/><circle cx="135.89" cy="126.63" r="2.2" fill="#c44b3a" opacity="0.58"/><circle cx="131.26" cy="205.37" r="2.2" fill="#c44b3a"/><circle cx="205.37" cy="131.26" r="2.2" fill="#c44b3a" opacity="0.58"/><circle cx="131.26" cy="260.95" r="2.2" fill="#c44b3a"/><circle cx="260.95" cy="131.26" r="2.2" fill="#c44b3a" opacity="0.58"/><circle cx="131.26" cy="265.58" r="2.2" fill="#c44b3a"/><circle cx="265.58" cy="131.26" r="2.2" fill="#c44b3a" opacity="0.58"/><circle cx="131.26" cy="270.21" r="2.2" fill="#c44b3a"/><circle cx="270.21" cy="131.26" r="2.2" fill="#c44b3a" opacity="0.58"/><circle cx="131.26" cy="277.16" r="2.2" fill="#c44b3a"/><circle cx="277.16" cy="131.26" r="2.2" fill="#c44b3a" opacity="0.58"/><circle cx="131.26" cy="279.47" r="2.2" fill="#c44b3a"/><circle cx="279.47" cy="131.26" r="2.2" fill="#c44b3a" opacity="0.58"/><circle cx="131.26" cy="288.74" r="2.2" fill="#c44b3a"/><circle cx="288.74" cy="131.26" r="2.2" fill="#c44b3a" opacity="0.58"/><circle cx="131.26" cy="316.53" r="2.2" fill="#c44b3a"/><circle cx="316.53" cy="131.26" r="2.2" fill="#c44b3a" opacity="0.58"/><circle cx="135.89" cy="145.16" r="2.2" fill="#c44b3a"/><circle cx="145.16" cy="135.89" r="2.2" fill="#c44b3a" opacity="0.58"/><circle cx="145.16" cy="154.42" r="2.2" fill="#c44b3a"/><circle cx="154.42" cy="145.16" r="2.2" fill="#c44b3a" opacity="0.58"/><circle cx="154.42" cy="163.68" r="2.2" fill="#c44b3a"/><circle cx="163.68" cy="154.42" r="2.2" fill="#c44b3a" opacity="0.58"/><circle cx="159.05" cy="168.32" r="2.2" fill="#c44b3a"/><circle cx="168.32" cy="159.05" r="2.2" fill="#c44b3a" opacity="0.58"/><circle cx="163.68" cy="172.95" r="2.2" fill="#c44b3a"/><circle cx="172.95" cy="163.68" r="2.2" fill="#c44b3a" opacity="0.58"/><circle cx="168.32" cy="177.58" r="2.2" fill="#c44b3a"/><circle cx="177.58" cy="168.32" r="2.2" fill="#c44b3a" opacity="0.58"/><circle cx="205.37" cy="270.21" r="2.2" fill="#c44b3a"/><circle cx="270.21" cy="205.37" r="2.2" fill="#c44b3a" opacity="0.58"/><circle cx="205.37" cy="316.53" r="2.2" fill="#c44b3a"/><circle cx="316.53" cy="205.37" r="2.2" fill="#c44b3a" opacity="0.58"/><circle cx="205.37" cy="381.37" r="2.2" fill="#c44b3a"/><circle cx="381.37" cy="205.37" r="2.2" fill="#c44b3a" opacity="0.58"/><circle cx="210.00" cy="219.26" r="2.2" fill="#c44b3a"/><circle cx="219.26" cy="210.00" r="2.2" fill="#c44b3a" opacity="0.58"/><circle cx="214.63" cy="223.89" r="2.2" fill="#c44b3a"/><circle cx="223.89" cy="214.63" r="2.2" fill="#c44b3a" opacity="0.58"/><circle cx="219.26" cy="228.53" r="2.2" fill="#c44b3a"/><circle cx="228.53" cy="219.26" r="2.2" fill="#c44b3a" opacity="0.58"/><circle cx="223.89" cy="233.16" r="2.2" fill="#c44b3a"/><circle cx="233.16" cy="223.89" r="2.2" fill="#c44b3a" opacity="0.58"/><circle cx="228.53" cy="237.79" r="2.2" fill="#c44b3a"/><circle cx="237.79" cy="228.53" r="2.2" fill="#c44b3a" opacity="0.58"/><circle cx="233.16" cy="242.42" r="2.2" fill="#c44b3a"/><circle cx="242.42" cy="233.16" r="2.2" fill="#c44b3a" opacity="0.58"/><circle cx="237.79" cy="247.05" r="2.2" fill="#c44b3a"/><circle cx="247.05" cy="237.79" r="2.2" fill="#c44b3a" opacity="0.58"/><circle cx="247.05" cy="256.32" r="2.2" fill="#c44b3a"/><circle cx="256.32" cy="247.05" r="2.2" fill="#c44b3a" opacity="0.58"/><circle cx="260.95" cy="316.53" r="2.2" fill="#c44b3a"/><circle cx="316.53" cy="260.95" r="2.2" fill="#c44b3a" opacity="0.58"/><circle cx="260.95" cy="381.37" r="2.2" fill="#c44b3a"/><circle cx="381.37" cy="260.95" r="2.2" fill="#c44b3a" opacity="0.58"/><circle cx="265.58" cy="316.53" r="2.2" fill="#c44b3a"/><circle cx="316.53" cy="265.58" r="2.2" fill="#c44b3a" opacity="0.58"/><circle cx="265.58" cy="381.37" r="2.2" fill="#c44b3a"/><circle cx="381.37" cy="265.58" r="2.2" fill="#c44b3a" opacity="0.58"/><circle cx="270.21" cy="316.53" r="2.2" fill="#c44b3a"/><circle cx="316.53" cy="270.21" r="2.2" fill="#c44b3a" opacity="0.58"/><circle cx="270.21" cy="351.26" r="2.2" fill="#c44b3a"/><circle cx="351.26" cy="270.21" r="2.2" fill="#c44b3a" opacity="0.58"/><circle cx="270.21" cy="369.79" r="2.2" fill="#c44b3a"/><circle cx="369.79" cy="270.21" r="2.2" fill="#c44b3a" opacity="0.58"/><circle cx="270.21" cy="381.37" r="2.2" fill="#c44b3a"/><circle cx="381.37" cy="270.21" r="2.2" fill="#c44b3a" opacity="0.58"/><circle cx="274.84" cy="284.11" r="2.2" fill="#c44b3a"/><circle cx="284.11" cy="274.84" r="2.2" fill="#c44b3a" opacity="0.58"/><circle cx="279.47" cy="316.53" r="2.2" fill="#c44b3a"/><circle cx="316.53" cy="279.47" r="2.2" fill="#c44b3a" opacity="0.58"/><circle cx="279.47" cy="381.37" r="2.2" fill="#c44b3a"/><circle cx="381.37" cy="279.47" r="2.2" fill="#c44b3a" opacity="0.58"/><circle cx="284.11" cy="293.37" r="2.2" fill="#c44b3a"/><circle cx="293.37" cy="284.11" r="2.2" fill="#c44b3a" opacity="0.58"/><circle cx="288.74" cy="381.37" r="2.2" fill="#c44b3a"/><circle cx="381.37" cy="288.74" r="2.2" fill="#c44b3a" opacity="0.58"/><circle cx="298.00" cy="307.26" r="2.2" fill="#c44b3a"/><circle cx="307.26" cy="298.00" r="2.2" fill="#c44b3a" opacity="0.58"/><circle cx="316.53" cy="369.79" r="2.2" fill="#c44b3a"/><circle cx="369.79" cy="316.53" r="2.2" fill="#c44b3a" opacity="0.58"/><circle cx="316.53" cy="381.37" r="2.2" fill="#c44b3a"/><circle cx="381.37" cy="316.53" r="2.2" fill="#c44b3a" opacity="0.58"/><circle cx="325.79" cy="335.05" r="2.2" fill="#c44b3a"/><circle cx="335.05" cy="325.79" r="2.2" fill="#c44b3a" opacity="0.58"/><circle cx="335.05" cy="344.32" r="2.2" fill="#c44b3a"/><circle cx="344.32" cy="335.05" r="2.2" fill="#c44b3a" opacity="0.58"/><circle cx="339.68" cy="348.95" r="2.2" fill="#c44b3a"/><circle cx="348.95" cy="339.68" r="2.2" fill="#c44b3a" opacity="0.58"/><circle cx="344.32" cy="353.58" r="2.2" fill="#c44b3a"/><circle cx="353.58" cy="344.32" r="2.2" fill="#c44b3a" opacity="0.58"/><circle cx="353.58" cy="362.84" r="2.2" fill="#c44b3a"/><circle cx="362.84" cy="353.58" r="2.2" fill="#c44b3a" opacity="0.58"/><circle cx="362.84" cy="372.11" r="2.2" fill="#c44b3a"/><circle cx="372.11" cy="362.84" r="2.2" fill="#c44b3a" opacity="0.58"/><circle cx="367.47" cy="376.74" r="2.2" fill="#c44b3a"/><circle cx="376.74" cy="367.47" r="2.2" fill="#c44b3a" opacity="0.58"/>
  <text x="34" y="412" font-family="Arial, sans-serif" font-size="11" fill="#58635e">row: coord_001_pdb_1MBN_A_myoglobin | contacts: 76</text>
</svg>
