<svg xmlns="http://www.w3.org/2000/svg" width="760" height="260" viewBox="0 0 760 260" role="img" aria-label="Coarse-grain final collapse">
  <rect width="760" height="260" fill="#f8faf7"/>
  <text x="34" y="24" font-family="Arial, sans-serif" font-size="15" fill="#22302d">Coarse-grain final collapse</text>
<line x1="66.82" y1="124.54" x2="108.65" y2="131.50" stroke="#25636a" stroke-opacity="0.22" stroke-width="1.2"/><line x1="100.07" y1="130.22" x2="139.08" y2="135.63" stroke="#25636a" stroke-opacity="0.22" stroke-width="1.2"/><line x1="108.65" y1="131.50" x2="150.00" y2="136.79" stroke="#25636a" stroke-opacity="0.22" stroke-width="1.2"/><line x1="122.23" y1="133.50" x2="164.06" y2="137.95" stroke="#25636a" stroke-opacity="0.22" stroke-width="1.2"/><line x1="182.57" y1="131.44" x2="431.85" y2="111.07" stroke="#25636a" stroke-opacity="0.22" stroke-width="1.2"/><line x1="182.57" y1="131.44" x2="562.53" y2="114.81" stroke="#25636a" stroke-opacity="0.22" stroke-width="1.2"/><line x1="164.06" y1="137.95" x2="205.41" y2="139.86" stroke="#25636a" stroke-opacity="0.22" stroke-width="1.2"/><line x1="279.87" y1="129.97" x2="431.85" y2="111.07" stroke="#25636a" stroke-opacity="0.22" stroke-width="1.2"/><line x1="279.87" y1="129.97" x2="474.85" y2="106.76" stroke="#25636a" stroke-opacity="0.22" stroke-width="1.2"/><line x1="279.87" y1="129.97" x2="550.14" y2="107.62" stroke="#25636a" stroke-opacity="0.22" stroke-width="1.2"/><line x1="279.87" y1="129.97" x2="574.48" y2="107.43" stroke="#25636a" stroke-opacity="0.22" stroke-width="1.2"/><line x1="279.87" y1="129.97" x2="562.53" y2="114.81" stroke="#25636a" stroke-opacity="0.22" stroke-width="1.2"/><line x1="290.51" y1="131.13" x2="431.85" y2="111.07" stroke="#25636a" stroke-opacity="0.22" stroke-width="1.2"/><line x1="290.51" y1="131.13" x2="474.85" y2="106.76" stroke="#25636a" stroke-opacity="0.22" stroke-width="1.2"/><line x1="290.51" y1="131.13" x2="550.14" y2="107.62" stroke="#25636a" stroke-opacity="0.22" stroke-width="1.2"/><line x1="290.51" y1="131.13" x2="574.48" y2="107.43" stroke="#25636a" stroke-opacity="0.22" stroke-width="1.2"/><line x1="290.51" y1="131.13" x2="562.53" y2="114.81" stroke="#25636a" stroke-opacity="0.22" stroke-width="1.2"/><line x1="221.97" y1="139.80" x2="263.80" y2="137.47" stroke="#25636a" stroke-opacity="0.22" stroke-width="1.2"/><line x1="233.05" y1="139.49" x2="274.88" y2="136.42" stroke="#25636a" stroke-opacity="0.22" stroke-width="1.2"/><line x1="263.80" y1="137.47" x2="305.15" y2="132.73" stroke="#25636a" stroke-opacity="0.22" stroke-width="1.2"/><line x1="274.88" y1="136.42" x2="316.23" y2="131.10" stroke="#25636a" stroke-opacity="0.22" stroke-width="1.2"/><line x1="312.23" y1="132.60" x2="431.85" y2="111.07" stroke="#25636a" stroke-opacity="0.22" stroke-width="1.2"/><line x1="312.23" y1="132.60" x2="562.53" y2="114.81" stroke="#25636a" stroke-opacity="0.22" stroke-width="1.2"/><line x1="332.79" y1="128.47" x2="371.80" y2="121.50" stroke="#25636a" stroke-opacity="0.22" stroke-width="1.2"/><line x1="375.30" y1="122.09" x2="550.14" y2="107.62" stroke="#25636a" stroke-opacity="0.22" stroke-width="1.2"/><line x1="465.77" y1="105.77" x2="504.78" y2="101.75" stroke="#25636a" stroke-opacity="0.22" stroke-width="1.2"/><line x1="431.85" y1="111.07" x2="562.53" y2="114.81" stroke="#25636a" stroke-opacity="0.22" stroke-width="1.2"/><line x1="474.85" y1="106.76" x2="660.98" y2="111.66" stroke="#25636a" stroke-opacity="0.22" stroke-width="1.2"/><line x1="532.27" y1="100.34" x2="571.27" y2="100.52" stroke="#25636a" stroke-opacity="0.22" stroke-width="1.2"/><line x1="643.09" y1="107.22" x2="682.09" y2="113.49" stroke="#25636a" stroke-opacity="0.22" stroke-width="1.2"/><line x1="654.17" y1="108.86" x2="693.18" y2="115.46" stroke="#25636a" stroke-opacity="0.22" stroke-width="1.2"/>
  <polyline points="42.00,120.00 53.08,122.06 66.82,124.54 75.25,126.08 86.33,128.01 100.07,130.22 108.65,131.50 122.23,133.50 182.57,131.44 139.08,135.63 150.00,136.79 164.06,137.95 279.87,129.97 186.07,139.47 290.51,131.13 205.41,139.86 221.97,139.80 233.05,139.49 241.48,139.20 252.56,138.53 263.80,137.47 274.88,136.42 312.23,132.60 296.89,133.96 305.15,132.73 316.23,131.10 332.79,128.47 341.21,127.06 352.30,125.09 375.30,122.09 371.80,121.50 385.54,118.97 396.62,116.92 407.70,114.91 418.79,112.94 429.87,111.06 440.95,109.27 452.03,107.59 465.77,105.77 474.20,104.64 431.85,111.07 474.85,106.76 504.78,101.75 518.52,100.80 532.27,100.34 540.69,100.06 551.77,100.01 562.85,100.17 571.27,100.52 585.02,101.11 596.10,101.89 550.14,107.62 574.48,107.43 629.34,105.32 643.09,107.22 654.17,108.86 562.53,114.81 660.98,111.66 682.09,113.49 693.18,115.46 706.92,117.94 718.00,120.00" fill="none" stroke="#7d8f86" stroke-width="3"/>
  <circle cx="42.00" cy="120.00" r="3.2" fill="#22302d"/><circle cx="53.08" cy="122.06" r="3.2" fill="#22302d"/><circle cx="66.82" cy="124.54" r="3.2" fill="#22302d"/><circle cx="75.25" cy="126.08" r="3.2" fill="#22302d"/><circle cx="86.33" cy="128.01" r="3.2" fill="#22302d"/><circle cx="100.07" cy="130.22" r="3.2" fill="#22302d"/><circle cx="108.65" cy="131.50" r="3.2" fill="#22302d"/><circle cx="122.23" cy="133.50" r="3.2" fill="#22302d"/><circle cx="182.57" cy="131.44" r="3.2" fill="#22302d"/><circle cx="139.08" cy="135.63" r="3.2" fill="#22302d"/><circle cx="150.00" cy="136.79" r="3.2" fill="#22302d"/><circle cx="164.06" cy="137.95" r="3.2" fill="#22302d"/><circle cx="279.87" cy="129.97" r="3.2" fill="#22302d"/><circle cx="186.07" cy="139.47" r="3.2" fill="#22302d"/><circle cx="290.51" cy="131.13" r="3.2" fill="#22302d"/><circle cx="205.41" cy="139.86" r="3.2" fill="#22302d"/><circle cx="221.97" cy="139.80" r="3.2" fill="#22302d"/><circle cx="233.05" cy="139.49" r="3.2" fill="#22302d"/><circle cx="241.48" cy="139.20" r="3.2" fill="#22302d"/><circle cx="252.56" cy="138.53" r="3.2" fill="#22302d"/><circle cx="263.80" cy="137.47" r="3.2" fill="#22302d"/><circle cx="274.88" cy="136.42" r="3.2" fill="#22302d"/><circle cx="312.23" cy="132.60" r="3.2" fill="#22302d"/><circle cx="296.89" cy="133.96" r="3.2" fill="#22302d"/><circle cx="305.15" cy="132.73" r="3.2" fill="#22302d"/><circle cx="316.23" cy="131.10" r="3.2" fill="#22302d"/><circle cx="332.79" cy="128.47" r="3.2" fill="#22302d"/><circle cx="341.21" cy="127.06" r="3.2" fill="#22302d"/><circle cx="352.30" cy="125.09" r="3.2" fill="#22302d"/><circle cx="375.30" cy="122.09" r="3.2" fill="#22302d"/><circle cx="371.80" cy="121.50" r="3.2" fill="#22302d"/><circle cx="385.54" cy="118.97" r="3.2" fill="#22302d"/><circle cx="396.62" cy="116.92" r="3.2" fill="#22302d"/><circle cx="407.70" cy="114.91" r="3.2" fill="#22302d"/><circle cx="418.79" cy="112.94" r="3.2" fill="#22302d"/><circle cx="429.87" cy="111.06" r="3.2" fill="#22302d"/><circle cx="440.95" cy="109.27" r="3.2" fill="#22302d"/><circle cx="452.03" cy="107.59" r="3.2" fill="#22302d"/><circle cx="465.77" cy="105.77" r="3.2" fill="#22302d"/><circle cx="474.20" cy="104.64" r="3.2" fill="#22302d"/><circle cx="431.85" cy="111.07" r="3.2" fill="#22302d"/><circle cx="474.85" cy="106.76" r="3.2" fill="#22302d"/><circle cx="504.78" cy="101.75" r="3.2" fill="#22302d"/><circle cx="518.52" cy="100.80" r="3.2" fill="#22302d"/><circle cx="532.27" cy="100.34" r="3.2" fill="#22302d"/><circle cx="540.69" cy="100.06" r="3.2" fill="#22302d"/><circle cx="551.77" cy="100.01" r="3.2" fill="#22302d"/><circle cx="562.85" cy="100.17" r="3.2" fill="#22302d"/><circle cx="571.27" cy="100.52" r="3.2" fill="#22302d"/><circle cx="585.02" cy="101.11" r="3.2" fill="#22302d"/><circle cx="596.10" cy="101.89" r="3.2" fill="#22302d"/><circle cx="550.14" cy="107.62" r="3.2" fill="#22302d"/><circle cx="574.48" cy="107.43" r="3.2" fill="#22302d"/><circle cx="629.34" cy="105.32" r="3.2" fill="#22302d"/><circle cx="643.09" cy="107.22" r="3.2" fill="#22302d"/><circle cx="654.17" cy="108.86" r="3.2" fill="#22302d"/><circle cx="562.53" cy="114.81" r="3.2" fill="#22302d"/><circle cx="660.98" cy="111.66" r="3.2" fill="#22302d"/><circle cx="682.09" cy="113.49" r="3.2" fill="#22302d"/><circle cx="693.18" cy="115.46" r="3.2" fill="#22302d"/><circle cx="706.92" cy="117.94" r="3.2" fill="#22302d"/><circle cx="718.00" cy="120.00" r="3.2" fill="#22302d"/>
  <text x="34" y="248" font-family="Arial, sans-serif" font-size="11" fill="#58635e">row: visual_005_beta_sh3 | coarse beads, not atomic structure</text>
</svg>
