<svg xmlns="http://www.w3.org/2000/svg" width="420" height="420" viewBox="0 0 420 420" role="img" aria-label="contact map overlay">
  <rect width="420" height="420" fill="#f8faf7"/>
  <text x="34" y="22" font-family="Arial, sans-serif" font-size="14" fill="#22302d">Contact map overlay</text>
  <line x1="34" y1="34" x2="34" y2="386" stroke="#9aa69f"/>
  <line x1="34" y1="386" x2="386" y2="386" stroke="#9aa69f"/>
  <line x1="34" y1="34" x2="386" y2="386" stroke="#cfd8d2" stroke-dasharray="4 4"/>
  <circle cx="45.54" cy="68.62" r="2.0" fill="#c44b3a" opacity="0.88"/><circle cx="68.62" cy="45.54" r="2.0" fill="#c44b3a" opacity="0.46"/><circle cx="51.31" cy="149.41" r="2.4" fill="#294f9b" opacity="0.88"/><circle cx="149.41" cy="51.31" r="2.4" fill="#294f9b" opacity="0.46"/><circle cx="57.08" cy="143.64" r="2.4" fill="#294f9b" opacity="0.88"/><circle cx="143.64" cy="57.08" r="2.4" fill="#294f9b" opacity="0.46"/><circle cx="57.08" cy="207.11" r="2.4" fill="#294f9b" opacity="0.88"/><circle cx="207.11" cy="57.08" r="2.4" fill="#294f9b" opacity="0.46"/><circle cx="62.85" cy="85.93" r="2.0" fill="#c44b3a" opacity="0.88"/><circle cx="85.93" cy="62.85" r="2.0" fill="#c44b3a" opacity="0.46"/><circle cx="62.85" cy="137.87" r="2.4" fill="#294f9b" opacity="0.88"/><circle cx="137.87" cy="62.85" r="2.4" fill="#294f9b" opacity="0.46"/><circle cx="68.62" cy="91.70" r="2.0" fill="#c44b3a" opacity="0.88"/><circle cx="91.70" cy="68.62" r="2.0" fill="#c44b3a" opacity="0.46"/><circle cx="68.62" cy="132.10" r="2.4" fill="#294f9b" opacity="0.88"/><circle cx="132.10" cy="68.62" r="2.4" fill="#294f9b" opacity="0.46"/><circle cx="74.39" cy="97.48" r="2.0" fill="#c44b3a" opacity="0.88"/><circle cx="97.48" cy="74.39" r="2.0" fill="#c44b3a" opacity="0.46"/><circle cx="74.39" cy="126.33" r="2.4" fill="#294f9b" opacity="0.88"/><circle cx="126.33" cy="74.39" r="2.4" fill="#294f9b" opacity="0.46"/><circle cx="80.16" cy="120.56" r="2.4" fill="#294f9b" opacity="0.88"/><circle cx="120.56" cy="80.16" r="2.4" fill="#294f9b" opacity="0.46"/><circle cx="80.16" cy="264.82" r="2.0" fill="#c44b3a" opacity="0.88"/><circle cx="264.82" cy="80.16" r="2.0" fill="#c44b3a" opacity="0.46"/><circle cx="80.16" cy="357.15" r="2.0" fill="#c44b3a" opacity="0.88"/><circle cx="357.15" cy="80.16" r="2.0" fill="#c44b3a" opacity="0.46"/><circle cx="97.48" cy="120.56" r="2.0" fill="#c44b3a" opacity="0.88"/><circle cx="120.56" cy="97.48" r="2.0" fill="#c44b3a" opacity="0.46"/><circle cx="103.25" cy="264.82" r="2.0" fill="#c44b3a" opacity="0.88"/><circle cx="264.82" cy="103.25" r="2.0" fill="#c44b3a" opacity="0.46"/><circle cx="103.25" cy="270.59" r="2.0" fill="#c44b3a" opacity="0.88"/><circle cx="270.59" cy="103.25" r="2.0" fill="#c44b3a" opacity="0.46"/><circle cx="103.25" cy="328.30" r="2.0" fill="#c44b3a" opacity="0.88"/><circle cx="328.30" cy="103.25" r="2.0" fill="#c44b3a" opacity="0.46"/><circle cx="103.25" cy="334.07" r="2.0" fill="#c44b3a" opacity="0.88"/><circle cx="334.07" cy="103.25" r="2.0" fill="#c44b3a" opacity="0.46"/><circle cx="103.25" cy="357.15" r="2.0" fill="#c44b3a" opacity="0.88"/><circle cx="357.15" cy="103.25" r="2.0" fill="#c44b3a" opacity="0.46"/><circle cx="114.79" cy="264.82" r="2.0" fill="#c44b3a" opacity="0.88"/><circle cx="264.82" cy="114.79" r="2.0" fill="#c44b3a" opacity="0.46"/><circle cx="114.79" cy="270.59" r="2.0" fill="#c44b3a" opacity="0.88"/><circle cx="270.59" cy="114.79" r="2.0" fill="#c44b3a" opacity="0.46"/><circle cx="114.79" cy="328.30" r="2.0" fill="#c44b3a" opacity="0.88"/><circle cx="328.30" cy="114.79" r="2.0" fill="#c44b3a" opacity="0.46"/><circle cx="114.79" cy="334.07" r="2.0" fill="#c44b3a" opacity="0.88"/><circle cx="334.07" cy="114.79" r="2.0" fill="#c44b3a" opacity="0.46"/><circle cx="114.79" cy="357.15" r="2.0" fill="#c44b3a" opacity="0.88"/><circle cx="357.15" cy="114.79" r="2.0" fill="#c44b3a" opacity="0.46"/><circle cx="120.56" cy="224.43" r="2.4" fill="#294f9b" opacity="0.88"/><circle cx="224.43" cy="120.56" r="2.4" fill="#294f9b" opacity="0.46"/><circle cx="126.33" cy="149.41" r="2.0" fill="#c44b3a" opacity="0.88"/><circle cx="149.41" cy="126.33" r="2.0" fill="#c44b3a" opacity="0.46"/><circle cx="126.33" cy="218.66" r="2.4" fill="#294f9b" opacity="0.88"/><circle cx="218.66" cy="126.33" r="2.4" fill="#294f9b" opacity="0.46"/><circle cx="132.10" cy="155.18" r="2.0" fill="#c44b3a" opacity="0.88"/><circle cx="155.18" cy="132.10" r="2.0" fill="#c44b3a" opacity="0.46"/><circle cx="132.10" cy="212.89" r="2.4" fill="#294f9b" opacity="0.88"/><circle cx="212.89" cy="132.10" r="2.4" fill="#294f9b" opacity="0.46"/><circle cx="137.87" cy="207.11" r="2.4" fill="#294f9b" opacity="0.88"/><circle cx="207.11" cy="137.87" r="2.4" fill="#294f9b" opacity="0.46"/><circle cx="143.64" cy="201.34" r="2.4" fill="#294f9b" opacity="0.88"/><circle cx="201.34" cy="143.64" r="2.4" fill="#294f9b" opacity="0.46"/><circle cx="143.64" cy="293.67" r="2.4" fill="#294f9b" opacity="0.88"/><circle cx="293.67" cy="143.64" r="2.4" fill="#294f9b" opacity="0.46"/><circle cx="149.41" cy="172.49" r="2.0" fill="#c44b3a" opacity="0.88"/><circle cx="172.49" cy="149.41" r="2.0" fill="#c44b3a" opacity="0.46"/><circle cx="149.41" cy="195.57" r="2.4" fill="#294f9b" opacity="0.88"/><circle cx="195.57" cy="149.41" r="2.4" fill="#294f9b" opacity="0.46"/><circle cx="155.18" cy="178.26" r="2.0" fill="#c44b3a" opacity="0.88"/><circle cx="178.26" cy="155.18" r="2.0" fill="#c44b3a" opacity="0.46"/><circle cx="160.95" cy="264.82" r="2.0" fill="#c44b3a" opacity="0.88"/><circle cx="264.82" cy="160.95" r="2.0" fill="#c44b3a" opacity="0.46"/><circle cx="160.95" cy="357.15" r="2.0" fill="#c44b3a" opacity="0.88"/><circle cx="357.15" cy="160.95" r="2.0" fill="#c44b3a" opacity="0.46"/><circle cx="184.03" cy="207.11" r="2.0" fill="#c44b3a" opacity="0.88"/><circle cx="207.11" cy="184.03" r="2.0" fill="#c44b3a" opacity="0.46"/><circle cx="195.57" cy="299.44" r="2.4" fill="#294f9b" opacity="0.88"/><circle cx="299.44" cy="195.57" r="2.4" fill="#294f9b" opacity="0.46"/><circle cx="201.34" cy="293.67" r="2.4" fill="#294f9b" opacity="0.88"/><circle cx="293.67" cy="201.34" r="2.4" fill="#294f9b" opacity="0.46"/><circle cx="201.34" cy="328.30" r="2.0" fill="#c44b3a" opacity="0.88"/><circle cx="328.30" cy="201.34" r="2.0" fill="#c44b3a" opacity="0.46"/><circle cx="207.11" cy="287.90" r="2.4" fill="#294f9b" opacity="0.88"/><circle cx="287.90" cy="207.11" r="2.4" fill="#294f9b" opacity="0.46"/><circle cx="212.89" cy="282.13" r="2.4" fill="#294f9b" opacity="0.88"/><circle cx="282.13" cy="212.89" r="2.4" fill="#294f9b" opacity="0.46"/><circle cx="218.66" cy="276.36" r="2.4" fill="#294f9b" opacity="0.88"/><circle cx="276.36" cy="218.66" r="2.4" fill="#294f9b" opacity="0.46"/><circle cx="224.43" cy="270.59" r="2.4" fill="#294f9b" opacity="0.88"/><circle cx="270.59" cy="224.43" r="2.4" fill="#294f9b" opacity="0.46"/><circle cx="253.28" cy="276.36" r="2.0" fill="#c44b3a" opacity="0.88"/><circle cx="276.36" cy="253.28" r="2.0" fill="#c44b3a" opacity="0.46"/><circle cx="264.82" cy="357.15" r="2.0" fill="#c44b3a" opacity="0.88"/><circle cx="357.15" cy="264.82" r="2.0" fill="#c44b3a" opacity="0.46"/><circle cx="270.59" cy="362.92" r="2.0" fill="#c44b3a" opacity="0.88"/><circle cx="362.92" cy="270.59" r="2.0" fill="#c44b3a" opacity="0.46"/><circle cx="270.59" cy="374.46" r="2.4" fill="#294f9b" opacity="0.88"/><circle cx="374.46" cy="270.59" r="2.4" fill="#294f9b" opacity="0.46"/><circle cx="276.36" cy="368.69" r="2.4" fill="#294f9b" opacity="0.88"/><circle cx="368.69" cy="276.36" r="2.4" fill="#294f9b" opacity="0.46"/><circle cx="282.13" cy="362.92" r="2.4" fill="#294f9b" opacity="0.88"/><circle cx="362.92" cy="282.13" r="2.4" fill="#294f9b" opacity="0.46"/><circle cx="287.90" cy="310.98" r="2.0" fill="#c44b3a" opacity="0.88"/><circle cx="310.98" cy="287.90" r="2.0" fill="#c44b3a" opacity="0.46"/><circle cx="287.90" cy="357.15" r="2.4" fill="#294f9b" opacity="0.88"/><circle cx="357.15" cy="287.90" r="2.4" fill="#294f9b" opacity="0.46"/><circle cx="293.67" cy="351.38" r="2.4" fill="#294f9b" opacity="0.88"/><circle cx="351.38" cy="293.67" r="2.4" fill="#294f9b" opacity="0.46"/><circle cx="299.44" cy="345.61" r="2.4" fill="#294f9b" opacity="0.88"/><circle cx="345.61" cy="299.44" r="2.4" fill="#294f9b" opacity="0.46"/><circle cx="345.61" cy="368.69" r="2.0" fill="#c44b3a" opacity="0.88"/><circle cx="368.69" cy="345.61" r="2.0" fill="#c44b3a" opacity="0.46"/><circle cx="351.38" cy="374.46" r="2.0" fill="#c44b3a" opacity="0.88"/><circle cx="374.46" cy="351.38" r="2.0" fill="#c44b3a" opacity="0.46"/>
  <g font-family="Arial, sans-serif" font-size="11" fill="#34423d">
    <rect x="34" y="372" width="250" height="32" fill="#ffffff" stroke="#d5ddd5"/>
    <circle cx="46" cy="384" r="4" fill="#218a5a"/><text x="56" y="388">native + predicted</text>
    <circle cx="156" cy="384" r="4" fill="#294f9b"/><text x="166" y="388">native only</text>
    <circle cx="236" cy="384" r="4" fill="#c44b3a"/><text x="246" y="388">predicted only</text>
  </g>
  <text x="34" y="412" font-family="Arial, sans-serif" font-size="11" fill="#58635e">row: visual_005_beta_sh3</text>
</svg>
