<svg xmlns="http://www.w3.org/2000/svg" width="420" height="420" viewBox="0 0 420 420" role="img" aria-label="Sequence-only predicted contact candidates">
  <rect width="420" height="420" fill="#f8faf7"/>
  <text x="34" y="22" font-family="Arial, sans-serif" font-size="14" fill="#22302d">Sequence-only predicted contact candidates</text>
  <line x1="34" y1="34" x2="34" y2="386" stroke="#9aa69f"/>
  <line x1="34" y1="386" x2="386" y2="386" stroke="#9aa69f"/>
  <line x1="34" y1="34" x2="386" y2="386" stroke="#cfd8d2" stroke-dasharray="4 4"/>
  <circle cx="45.54" cy="68.62" r="2.2" fill="#c44b3a"/><circle cx="68.62" cy="45.54" r="2.2" fill="#c44b3a" opacity="0.58"/><circle cx="62.85" cy="85.93" r="2.2" fill="#c44b3a"/><circle cx="85.93" cy="62.85" r="2.2" fill="#c44b3a" opacity="0.58"/><circle cx="68.62" cy="91.70" r="2.2" fill="#c44b3a"/><circle cx="91.70" cy="68.62" r="2.2" fill="#c44b3a" opacity="0.58"/><circle cx="74.39" cy="97.48" r="2.2" fill="#c44b3a"/><circle cx="97.48" cy="74.39" r="2.2" fill="#c44b3a" opacity="0.58"/><circle cx="80.16" cy="264.82" r="2.2" fill="#c44b3a"/><circle cx="264.82" cy="80.16" r="2.2" fill="#c44b3a" opacity="0.58"/><circle cx="80.16" cy="357.15" r="2.2" fill="#c44b3a"/><circle cx="357.15" cy="80.16" r="2.2" fill="#c44b3a" opacity="0.58"/><circle cx="97.48" cy="120.56" r="2.2" fill="#c44b3a"/><circle cx="120.56" cy="97.48" r="2.2" fill="#c44b3a" opacity="0.58"/><circle cx="103.25" cy="264.82" r="2.2" fill="#c44b3a"/><circle cx="264.82" cy="103.25" r="2.2" fill="#c44b3a" opacity="0.58"/><circle cx="103.25" cy="270.59" r="2.2" fill="#c44b3a"/><circle cx="270.59" cy="103.25" r="2.2" fill="#c44b3a" opacity="0.58"/><circle cx="103.25" cy="328.30" r="2.2" fill="#c44b3a"/><circle cx="328.30" cy="103.25" r="2.2" fill="#c44b3a" opacity="0.58"/><circle cx="103.25" cy="334.07" r="2.2" fill="#c44b3a"/><circle cx="334.07" cy="103.25" r="2.2" fill="#c44b3a" opacity="0.58"/><circle cx="103.25" cy="357.15" r="2.2" fill="#c44b3a"/><circle cx="357.15" cy="103.25" r="2.2" fill="#c44b3a" opacity="0.58"/><circle cx="114.79" cy="264.82" r="2.2" fill="#c44b3a"/><circle cx="264.82" cy="114.79" r="2.2" fill="#c44b3a" opacity="0.58"/><circle cx="114.79" cy="270.59" r="2.2" fill="#c44b3a"/><circle cx="270.59" cy="114.79" r="2.2" fill="#c44b3a" opacity="0.58"/><circle cx="114.79" cy="328.30" r="2.2" fill="#c44b3a"/><circle cx="328.30" cy="114.79" r="2.2" fill="#c44b3a" opacity="0.58"/><circle cx="114.79" cy="334.07" r="2.2" fill="#c44b3a"/><circle cx="334.07" cy="114.79" r="2.2" fill="#c44b3a" opacity="0.58"/><circle cx="114.79" cy="357.15" r="2.2" fill="#c44b3a"/><circle cx="357.15" cy="114.79" r="2.2" fill="#c44b3a" opacity="0.58"/><circle cx="126.33" cy="149.41" r="2.2" fill="#c44b3a"/><circle cx="149.41" cy="126.33" r="2.2" fill="#c44b3a" opacity="0.58"/><circle cx="132.10" cy="155.18" r="2.2" fill="#c44b3a"/><circle cx="155.18" cy="132.10" r="2.2" fill="#c44b3a" opacity="0.58"/><circle cx="149.41" cy="172.49" r="2.2" fill="#c44b3a"/><circle cx="172.49" cy="149.41" r="2.2" fill="#c44b3a" opacity="0.58"/><circle cx="155.18" cy="178.26" r="2.2" fill="#c44b3a"/><circle cx="178.26" cy="155.18" r="2.2" fill="#c44b3a" opacity="0.58"/><circle cx="160.95" cy="264.82" r="2.2" fill="#c44b3a"/><circle cx="264.82" cy="160.95" r="2.2" fill="#c44b3a" opacity="0.58"/><circle cx="160.95" cy="357.15" r="2.2" fill="#c44b3a"/><circle cx="357.15" cy="160.95" r="2.2" fill="#c44b3a" opacity="0.58"/><circle cx="184.03" cy="207.11" r="2.2" fill="#c44b3a"/><circle cx="207.11" cy="184.03" r="2.2" fill="#c44b3a" opacity="0.58"/><circle cx="201.34" cy="328.30" r="2.2" fill="#c44b3a"/><circle cx="328.30" cy="201.34" r="2.2" fill="#c44b3a" opacity="0.58"/><circle cx="253.28" cy="276.36" r="2.2" fill="#c44b3a"/><circle cx="276.36" cy="253.28" r="2.2" fill="#c44b3a" opacity="0.58"/><circle cx="264.82" cy="357.15" r="2.2" fill="#c44b3a"/><circle cx="357.15" cy="264.82" r="2.2" fill="#c44b3a" opacity="0.58"/><circle cx="270.59" cy="362.92" r="2.2" fill="#c44b3a"/><circle cx="362.92" cy="270.59" r="2.2" fill="#c44b3a" opacity="0.58"/><circle cx="287.90" cy="310.98" r="2.2" fill="#c44b3a"/><circle cx="310.98" cy="287.90" r="2.2" fill="#c44b3a" opacity="0.58"/><circle cx="345.61" cy="368.69" r="2.2" fill="#c44b3a"/><circle cx="368.69" cy="345.61" r="2.2" fill="#c44b3a" opacity="0.58"/><circle cx="351.38" cy="374.46" r="2.2" fill="#c44b3a"/><circle cx="374.46" cy="351.38" r="2.2" fill="#c44b3a" opacity="0.58"/>
  <text x="34" y="412" font-family="Arial, sans-serif" font-size="11" fill="#58635e">row: visual_005_beta_sh3 | contacts: 31</text>
</svg>
