<svg xmlns="http://www.w3.org/2000/svg" width="420" height="420" viewBox="0 0 420 420" role="img" aria-label="Coordinate-derived C-alpha native contacts">
  <rect width="420" height="420" fill="#f8faf7"/>
  <text x="34" y="22" font-family="Arial, sans-serif" font-size="14" fill="#22302d">Coordinate-derived C-alpha native contacts</text>
  <line x1="34" y1="34" x2="34" y2="386" stroke="#9aa69f"/>
  <line x1="34" y1="386" x2="386" y2="386" stroke="#9aa69f"/>
  <line x1="34" y1="34" x2="386" y2="386" stroke="#cfd8d2" stroke-dasharray="4 4"/>
  <circle cx="34.00" cy="41.18" r="2.2" fill="#294f9b"/><circle cx="41.18" cy="34.00" r="2.2" fill="#294f9b" opacity="0.58"/><circle cx="34.00" cy="43.58" r="2.2" fill="#294f9b"/><circle cx="43.58" cy="34.00" r="2.2" fill="#294f9b" opacity="0.58"/><circle cx="36.39" cy="43.58" r="2.2" fill="#294f9b"/><circle cx="43.58" cy="36.39" r="2.2" fill="#294f9b" opacity="0.58"/><circle cx="36.39" cy="45.97" r="2.2" fill="#294f9b"/><circle cx="45.97" cy="36.39" r="2.2" fill="#294f9b" opacity="0.58"/><circle cx="38.79" cy="45.97" r="2.2" fill="#294f9b"/><circle cx="45.97" cy="38.79" r="2.2" fill="#294f9b" opacity="0.58"/><circle cx="38.79" cy="48.37" r="2.2" fill="#294f9b"/><circle cx="48.37" cy="38.79" r="2.2" fill="#294f9b" opacity="0.58"/><circle cx="41.18" cy="48.37" r="2.2" fill="#294f9b"/><circle cx="48.37" cy="41.18" r="2.2" fill="#294f9b" opacity="0.58"/><circle cx="41.18" cy="50.76" r="2.2" fill="#294f9b"/><circle cx="50.76" cy="41.18" r="2.2" fill="#294f9b" opacity="0.58"/><circle cx="43.58" cy="50.76" r="2.2" fill="#294f9b"/><circle cx="50.76" cy="43.58" r="2.2" fill="#294f9b" opacity="0.58"/><circle cx="43.58" cy="53.16" r="2.2" fill="#294f9b"/><circle cx="53.16" cy="43.58" r="2.2" fill="#294f9b" opacity="0.58"/><circle cx="45.97" cy="53.16" r="2.2" fill="#294f9b"/><circle cx="53.16" cy="45.97" r="2.2" fill="#294f9b" opacity="0.58"/><circle cx="45.97" cy="55.55" r="2.2" fill="#294f9b"/><circle cx="55.55" cy="45.97" r="2.2" fill="#294f9b" opacity="0.58"/><circle cx="48.37" cy="55.55" r="2.2" fill="#294f9b"/><circle cx="55.55" cy="48.37" r="2.2" fill="#294f9b" opacity="0.58"/><circle cx="48.37" cy="57.95" r="2.2" fill="#294f9b"/><circle cx="57.95" cy="48.37" r="2.2" fill="#294f9b" opacity="0.58"/><circle cx="50.76" cy="57.95" r="2.2" fill="#294f9b"/><circle cx="57.95" cy="50.76" r="2.2" fill="#294f9b" opacity="0.58"/><circle cx="50.76" cy="60.34" r="2.2" fill="#294f9b"/><circle cx="60.34" cy="50.76" r="2.2" fill="#294f9b" opacity="0.58"/><circle cx="53.16" cy="60.34" r="2.2" fill="#294f9b"/><circle cx="60.34" cy="53.16" r="2.2" fill="#294f9b" opacity="0.58"/><circle cx="53.16" cy="62.73" r="2.2" fill="#294f9b"/><circle cx="62.73" cy="53.16" r="2.2" fill="#294f9b" opacity="0.58"/><circle cx="53.16" cy="189.65" r="2.2" fill="#294f9b"/><circle cx="189.65" cy="53.16" r="2.2" fill="#294f9b" opacity="0.58"/><circle cx="55.55" cy="62.73" r="2.2" fill="#294f9b"/><circle cx="62.73" cy="55.55" r="2.2" fill="#294f9b" opacity="0.58"/><circle cx="55.55" cy="65.13" r="2.2" fill="#294f9b"/><circle cx="65.13" cy="55.55" r="2.2" fill="#294f9b" opacity="0.58"/><circle cx="55.55" cy="180.07" r="2.2" fill="#294f9b"/><circle cx="180.07" cy="55.55" r="2.2" fill="#294f9b" opacity="0.58"/><circle cx="57.95" cy="65.13" r="2.2" fill="#294f9b"/><circle cx="65.13" cy="57.95" r="2.2" fill="#294f9b" opacity="0.58"/><circle cx="57.95" cy="67.52" r="2.2" fill="#294f9b"/><circle cx="67.52" cy="57.95" r="2.2" fill="#294f9b" opacity="0.58"/><circle cx="60.34" cy="67.52" r="2.2" fill="#294f9b"/><circle cx="67.52" cy="60.34" r="2.2" fill="#294f9b" opacity="0.58"/><circle cx="60.34" cy="69.92" r="2.2" fill="#294f9b"/><circle cx="69.92" cy="60.34" r="2.2" fill="#294f9b" opacity="0.58"/><circle cx="62.73" cy="69.92" r="2.2" fill="#294f9b"/><circle cx="69.92" cy="62.73" r="2.2" fill="#294f9b" opacity="0.58"/><circle cx="62.73" cy="72.31" r="2.2" fill="#294f9b"/><circle cx="72.31" cy="62.73" r="2.2" fill="#294f9b" opacity="0.58"/><circle cx="62.73" cy="180.07" r="2.2" fill="#294f9b"/><circle cx="180.07" cy="62.73" r="2.2" fill="#294f9b" opacity="0.58"/><circle cx="62.73" cy="187.25" r="2.2" fill="#294f9b"/><circle cx="187.25" cy="62.73" r="2.2" fill="#294f9b" opacity="0.58"/><circle cx="65.13" cy="72.31" r="2.2" fill="#294f9b"/><circle cx="72.31" cy="65.13" r="2.2" fill="#294f9b" opacity="0.58"/><circle cx="65.13" cy="74.71" r="2.2" fill="#294f9b"/><circle cx="74.71" cy="65.13" r="2.2" fill="#294f9b" opacity="0.58"/><circle cx="65.13" cy="79.50" r="2.2" fill="#294f9b"/><circle cx="79.50" cy="65.13" r="2.2" fill="#294f9b" opacity="0.58"/><circle cx="67.52" cy="74.71" r="2.2" fill="#294f9b"/><circle cx="74.71" cy="67.52" r="2.2" fill="#294f9b" opacity="0.58"/><circle cx="67.52" cy="108.23" r="2.2" fill="#294f9b"/><circle cx="108.23" cy="67.52" r="2.2" fill="#294f9b" opacity="0.58"/><circle cx="69.92" cy="89.07" r="2.2" fill="#294f9b"/><circle cx="89.07" cy="69.92" r="2.2" fill="#294f9b" opacity="0.58"/><circle cx="69.92" cy="98.65" r="2.2" fill="#294f9b"/><circle cx="98.65" cy="69.92" r="2.2" fill="#294f9b" opacity="0.58"/><circle cx="69.92" cy="101.05" r="2.2" fill="#294f9b"/><circle cx="101.05" cy="69.92" r="2.2" fill="#294f9b" opacity="0.58"/><circle cx="69.92" cy="108.23" r="2.2" fill="#294f9b"/><circle cx="108.23" cy="69.92" r="2.2" fill="#294f9b" opacity="0.58"/><circle cx="72.31" cy="79.50" r="2.2" fill="#294f9b"/><circle cx="79.50" cy="72.31" r="2.2" fill="#294f9b" opacity="0.58"/><circle cx="72.31" cy="81.89" r="2.2" fill="#294f9b"/><circle cx="81.89" cy="72.31" r="2.2" fill="#294f9b" opacity="0.58"/><circle cx="72.31" cy="84.29" r="2.2" fill="#294f9b"/><circle cx="84.29" cy="72.31" r="2.2" fill="#294f9b" opacity="0.58"/><circle cx="72.31" cy="86.68" r="2.2" fill="#294f9b"/><circle cx="86.68" cy="72.31" r="2.2" fill="#294f9b" opacity="0.58"/><circle cx="72.31" cy="89.07" r="2.2" fill="#294f9b"/><circle cx="89.07" cy="72.31" r="2.2" fill="#294f9b" opacity="0.58"/><circle cx="72.31" cy="91.47" r="2.2" fill="#294f9b"/><circle cx="91.47" cy="72.31" r="2.2" fill="#294f9b" opacity="0.58"/><circle cx="72.31" cy="98.65" r="2.2" fill="#294f9b"/><circle cx="98.65" cy="72.31" r="2.2" fill="#294f9b" opacity="0.58"/><circle cx="74.71" cy="89.07" r="2.2" fill="#294f9b"/><circle cx="89.07" cy="74.71" r="2.2" fill="#294f9b" opacity="0.58"/><circle cx="74.71" cy="98.65" r="2.2" fill="#294f9b"/><circle cx="98.65" cy="74.71" r="2.2" fill="#294f9b" opacity="0.58"/><circle cx="79.50" cy="86.68" r="2.2" fill="#294f9b"/><circle cx="86.68" cy="79.50" r="2.2" fill="#294f9b" opacity="0.58"/><circle cx="84.29" cy="177.67" r="2.2" fill="#294f9b"/><circle cx="177.67" cy="84.29" r="2.2" fill="#294f9b" opacity="0.58"/><circle cx="84.29" cy="180.07" r="2.2" fill="#294f9b"/><circle cx="180.07" cy="84.29" r="2.2" fill="#294f9b" opacity="0.58"/><circle cx="86.68" cy="172.88" r="2.2" fill="#294f9b"/><circle cx="172.88" cy="86.68" r="2.2" fill="#294f9b" opacity="0.58"/><circle cx="86.68" cy="175.28" r="2.2" fill="#294f9b"/><circle cx="175.28" cy="86.68" r="2.2" fill="#294f9b" opacity="0.58"/><circle cx="86.68" cy="177.67" r="2.2" fill="#294f9b"/><circle cx="177.67" cy="86.68" r="2.2" fill="#294f9b" opacity="0.58"/><circle cx="86.68" cy="180.07" r="2.2" fill="#294f9b"/><circle cx="180.07" cy="86.68" r="2.2" fill="#294f9b" opacity="0.58"/><circle cx="89.07" cy="98.65" r="2.2" fill="#294f9b"/><circle cx="98.65" cy="89.07" r="2.2" fill="#294f9b" opacity="0.58"/><circle cx="89.07" cy="101.05" r="2.2" fill="#294f9b"/><circle cx="101.05" cy="89.07" r="2.2" fill="#294f9b" opacity="0.58"/><circle cx="89.07" cy="172.88" r="2.2" fill="#294f9b"/><circle cx="172.88" cy="89.07" r="2.2" fill="#294f9b" opacity="0.58"/><circle cx="89.07" cy="175.28" r="2.2" fill="#294f9b"/><circle cx="175.28" cy="89.07" r="2.2" fill="#294f9b" opacity="0.58"/><circle cx="89.07" cy="177.67" r="2.2" fill="#294f9b"/><circle cx="177.67" cy="89.07" r="2.2" fill="#294f9b" opacity="0.58"/><circle cx="91.47" cy="98.65" r="2.2" fill="#294f9b"/><circle cx="98.65" cy="91.47" r="2.2" fill="#294f9b" opacity="0.58"/><circle cx="91.47" cy="101.05" r="2.2" fill="#294f9b"/><circle cx="101.05" cy="91.47" r="2.2" fill="#294f9b" opacity="0.58"/><circle cx="91.47" cy="148.94" r="2.2" fill="#294f9b"/><circle cx="148.94" cy="91.47" r="2.2" fill="#294f9b" opacity="0.58"/><circle cx="91.47" cy="170.49" r="2.2" fill="#294f9b"/><circle cx="170.49" cy="91.47" r="2.2" fill="#294f9b" opacity="0.58"/><circle cx="91.47" cy="172.88" r="2.2" fill="#294f9b"/><circle cx="172.88" cy="91.47" r="2.2" fill="#294f9b" opacity="0.58"/><circle cx="91.47" cy="175.28" r="2.2" fill="#294f9b"/><circle cx="175.28" cy="91.47" r="2.2" fill="#294f9b" opacity="0.58"/><circle cx="93.86" cy="101.05" r="2.2" fill="#294f9b"/><circle cx="101.05" cy="93.86" r="2.2" fill="#294f9b" opacity="0.58"/><circle cx="93.86" cy="103.44" r="2.2" fill="#294f9b"/><circle cx="103.44" cy="93.86" r="2.2" fill="#294f9b" opacity="0.58"/><circle cx="93.86" cy="132.18" r="2.2" fill="#294f9b"/><circle cx="132.18" cy="93.86" r="2.2" fill="#294f9b" opacity="0.58"/><circle cx="93.86" cy="139.36" r="2.2" fill="#294f9b"/><circle cx="139.36" cy="93.86" r="2.2" fill="#294f9b" opacity="0.58"/><circle cx="93.86" cy="141.76" r="2.2" fill="#294f9b"/><circle cx="141.76" cy="93.86" r="2.2" fill="#294f9b" opacity="0.58"/><circle cx="93.86" cy="148.94" r="2.2" fill="#294f9b"/><circle cx="148.94" cy="93.86" r="2.2" fill="#294f9b" opacity="0.58"/><circle cx="93.86" cy="172.88" r="2.2" fill="#294f9b"/><circle cx="172.88" cy="93.86" r="2.2" fill="#294f9b" opacity="0.58"/><circle cx="96.26" cy="103.44" r="2.2" fill="#294f9b"/><circle cx="103.44" cy="96.26" r="2.2" fill="#294f9b" opacity="0.58"/><circle cx="96.26" cy="105.84" r="2.2" fill="#294f9b"/><circle cx="105.84" cy="96.26" r="2.2" fill="#294f9b" opacity="0.58"/><circle cx="98.65" cy="105.84" r="2.2" fill="#294f9b"/><circle cx="105.84" cy="98.65" r="2.2" fill="#294f9b" opacity="0.58"/><circle cx="98.65" cy="108.23" r="2.2" fill="#294f9b"/><circle cx="108.23" cy="98.65" r="2.2" fill="#294f9b" opacity="0.58"/><circle cx="101.05" cy="108.23" r="2.2" fill="#294f9b"/><circle cx="108.23" cy="101.05" r="2.2" fill="#294f9b" opacity="0.58"/><circle cx="101.05" cy="110.63" r="2.2" fill="#294f9b"/><circle cx="110.63" cy="101.05" r="2.2" fill="#294f9b" opacity="0.58"/><circle cx="101.05" cy="139.36" r="2.2" fill="#294f9b"/><circle cx="139.36" cy="101.05" r="2.2" fill="#294f9b" opacity="0.58"/><circle cx="103.44" cy="110.63" r="2.2" fill="#294f9b"/><circle cx="110.63" cy="103.44" r="2.2" fill="#294f9b" opacity="0.58"/><circle cx="103.44" cy="113.02" r="2.2" fill="#294f9b"/><circle cx="113.02" cy="103.44" r="2.2" fill="#294f9b" opacity="0.58"/><circle cx="103.44" cy="124.99" r="2.2" fill="#294f9b"/><circle cx="124.99" cy="103.44" r="2.2" fill="#294f9b" opacity="0.58"/><circle cx="103.44" cy="127.39" r="2.2" fill="#294f9b"/><circle cx="127.39" cy="103.44" r="2.2" fill="#294f9b" opacity="0.58"/><circle cx="103.44" cy="139.36" r="2.2" fill="#294f9b"/><circle cx="139.36" cy="103.44" r="2.2" fill="#294f9b" opacity="0.58"/><circle cx="105.84" cy="113.02" r="2.2" fill="#294f9b"/><circle cx="113.02" cy="105.84" r="2.2" fill="#294f9b" opacity="0.58"/><circle cx="105.84" cy="115.41" r="2.2" fill="#294f9b"/><circle cx="115.41" cy="105.84" r="2.2" fill="#294f9b" opacity="0.58"/><circle cx="108.23" cy="115.41" r="2.2" fill="#294f9b"/><circle cx="115.41" cy="108.23" r="2.2" fill="#294f9b" opacity="0.58"/><circle cx="108.23" cy="117.81" r="2.2" fill="#294f9b"/><circle cx="117.81" cy="108.23" r="2.2" fill="#294f9b" opacity="0.58"/><circle cx="110.63" cy="117.81" r="2.2" fill="#294f9b"/><circle cx="117.81" cy="110.63" r="2.2" fill="#294f9b" opacity="0.58"/><circle cx="110.63" cy="120.20" r="2.2" fill="#294f9b"/><circle cx="120.20" cy="110.63" r="2.2" fill="#294f9b" opacity="0.58"/><circle cx="110.63" cy="122.60" r="2.2" fill="#294f9b"/><circle cx="122.60" cy="110.63" r="2.2" fill="#294f9b" opacity="0.58"/><circle cx="110.63" cy="124.99" r="2.2" fill="#294f9b"/><circle cx="124.99" cy="110.63" r="2.2" fill="#294f9b" opacity="0.58"/><circle cx="110.63" cy="127.39" r="2.2" fill="#294f9b"/><circle cx="127.39" cy="110.63" r="2.2" fill="#294f9b" opacity="0.58"/><circle cx="113.02" cy="120.20" r="2.2" fill="#294f9b"/><circle cx="120.20" cy="113.02" r="2.2" fill="#294f9b" opacity="0.58"/><circle cx="113.02" cy="122.60" r="2.2" fill="#294f9b"/><circle cx="122.60" cy="113.02" r="2.2" fill="#294f9b" opacity="0.58"/><circle cx="113.02" cy="124.99" r="2.2" fill="#294f9b"/><circle cx="124.99" cy="113.02" r="2.2" fill="#294f9b" opacity="0.58"/><circle cx="113.02" cy="127.39" r="2.2" fill="#294f9b"/><circle cx="127.39" cy="113.02" r="2.2" fill="#294f9b" opacity="0.58"/><circle cx="115.41" cy="122.60" r="2.2" fill="#294f9b"/><circle cx="122.60" cy="115.41" r="2.2" fill="#294f9b" opacity="0.58"/><circle cx="127.39" cy="134.57" r="2.2" fill="#294f9b"/><circle cx="134.57" cy="127.39" r="2.2" fill="#294f9b" opacity="0.58"/><circle cx="127.39" cy="136.97" r="2.2" fill="#294f9b"/><circle cx="136.97" cy="127.39" r="2.2" fill="#294f9b" opacity="0.58"/><circle cx="127.39" cy="139.36" r="2.2" fill="#294f9b"/><circle cx="139.36" cy="127.39" r="2.2" fill="#294f9b" opacity="0.58"/><circle cx="129.78" cy="136.97" r="2.2" fill="#294f9b"/><circle cx="136.97" cy="129.78" r="2.2" fill="#294f9b" opacity="0.58"/><circle cx="129.78" cy="139.36" r="2.2" fill="#294f9b"/><circle cx="139.36" cy="129.78" r="2.2" fill="#294f9b" opacity="0.58"/><circle cx="132.18" cy="139.36" r="2.2" fill="#294f9b"/><circle cx="139.36" cy="132.18" r="2.2" fill="#294f9b" opacity="0.58"/><circle cx="132.18" cy="141.76" r="2.2" fill="#294f9b"/><circle cx="141.76" cy="132.18" r="2.2" fill="#294f9b" opacity="0.58"/><circle cx="134.57" cy="141.76" r="2.2" fill="#294f9b"/><circle cx="141.76" cy="134.57" r="2.2" fill="#294f9b" opacity="0.58"/><circle cx="134.57" cy="144.15" r="2.2" fill="#294f9b"/><circle cx="144.15" cy="134.57" r="2.2" fill="#294f9b" opacity="0.58"/><circle cx="136.97" cy="144.15" r="2.2" fill="#294f9b"/><circle cx="144.15" cy="136.97" r="2.2" fill="#294f9b" opacity="0.58"/><circle cx="136.97" cy="146.54" r="2.2" fill="#294f9b"/><circle cx="146.54" cy="136.97" r="2.2" fill="#294f9b" opacity="0.58"/><circle cx="139.36" cy="146.54" r="2.2" fill="#294f9b"/><circle cx="146.54" cy="139.36" r="2.2" fill="#294f9b" opacity="0.58"/><circle cx="139.36" cy="148.94" r="2.2" fill="#294f9b"/><circle cx="148.94" cy="139.36" r="2.2" fill="#294f9b" opacity="0.58"/><circle cx="141.76" cy="148.94" r="2.2" fill="#294f9b"/><circle cx="148.94" cy="141.76" r="2.2" fill="#294f9b" opacity="0.58"/><circle cx="141.76" cy="151.33" r="2.2" fill="#294f9b"/><circle cx="151.33" cy="141.76" r="2.2" fill="#294f9b" opacity="0.58"/><circle cx="144.15" cy="151.33" r="2.2" fill="#294f9b"/><circle cx="151.33" cy="144.15" r="2.2" fill="#294f9b" opacity="0.58"/><circle cx="144.15" cy="153.73" r="2.2" fill="#294f9b"/><circle cx="153.73" cy="144.15" r="2.2" fill="#294f9b" opacity="0.58"/><circle cx="146.54" cy="153.73" r="2.2" fill="#294f9b"/><circle cx="153.73" cy="146.54" r="2.2" fill="#294f9b" opacity="0.58"/><circle cx="146.54" cy="156.12" r="2.2" fill="#294f9b"/><circle cx="156.12" cy="146.54" r="2.2" fill="#294f9b" opacity="0.58"/><circle cx="148.94" cy="156.12" r="2.2" fill="#294f9b"/><circle cx="156.12" cy="148.94" r="2.2" fill="#294f9b" opacity="0.58"/><circle cx="148.94" cy="158.52" r="2.2" fill="#294f9b"/><circle cx="158.52" cy="148.94" r="2.2" fill="#294f9b" opacity="0.58"/><circle cx="148.94" cy="170.49" r="2.2" fill="#294f9b"/><circle cx="170.49" cy="148.94" r="2.2" fill="#294f9b" opacity="0.58"/><circle cx="148.94" cy="172.88" r="2.2" fill="#294f9b"/><circle cx="172.88" cy="148.94" r="2.2" fill="#294f9b" opacity="0.58"/><circle cx="148.94" cy="175.28" r="2.2" fill="#294f9b"/><circle cx="175.28" cy="148.94" r="2.2" fill="#294f9b" opacity="0.58"/><circle cx="151.33" cy="158.52" r="2.2" fill="#294f9b"/><circle cx="158.52" cy="151.33" r="2.2" fill="#294f9b" opacity="0.58"/><circle cx="151.33" cy="160.91" r="2.2" fill="#294f9b"/><circle cx="160.91" cy="151.33" r="2.2" fill="#294f9b" opacity="0.58"/><circle cx="151.33" cy="165.70" r="2.2" fill="#294f9b"/><circle cx="165.70" cy="151.33" r="2.2" fill="#294f9b" opacity="0.58"/><circle cx="151.33" cy="170.49" r="2.2" fill="#294f9b"/><circle cx="170.49" cy="151.33" r="2.2" fill="#294f9b" opacity="0.58"/><circle cx="153.73" cy="160.91" r="2.2" fill="#294f9b"/><circle cx="160.91" cy="153.73" r="2.2" fill="#294f9b" opacity="0.58"/><circle cx="156.12" cy="175.28" r="2.2" fill="#294f9b"/><circle cx="175.28" cy="156.12" r="2.2" fill="#294f9b" opacity="0.58"/><circle cx="156.12" cy="184.86" r="2.2" fill="#294f9b"/><circle cx="184.86" cy="156.12" r="2.2" fill="#294f9b" opacity="0.58"/><circle cx="156.12" cy="187.25" r="2.2" fill="#294f9b"/><circle cx="187.25" cy="156.12" r="2.2" fill="#294f9b" opacity="0.58"/><circle cx="156.12" cy="194.44" r="2.2" fill="#294f9b"/><circle cx="194.44" cy="156.12" r="2.2" fill="#294f9b" opacity="0.58"/><circle cx="158.52" cy="165.70" r="2.2" fill="#294f9b"/><circle cx="165.70" cy="158.52" r="2.2" fill="#294f9b" opacity="0.58"/><circle cx="158.52" cy="168.10" r="2.2" fill="#294f9b"/><circle cx="168.10" cy="158.52" r="2.2" fill="#294f9b" opacity="0.58"/><circle cx="158.52" cy="170.49" r="2.2" fill="#294f9b"/><circle cx="170.49" cy="158.52" r="2.2" fill="#294f9b" opacity="0.58"/><circle cx="158.52" cy="172.88" r="2.2" fill="#294f9b"/><circle cx="172.88" cy="158.52" r="2.2" fill="#294f9b" opacity="0.58"/><circle cx="158.52" cy="175.28" r="2.2" fill="#294f9b"/><circle cx="175.28" cy="158.52" r="2.2" fill="#294f9b" opacity="0.58"/><circle cx="158.52" cy="184.86" r="2.2" fill="#294f9b"/><circle cx="184.86" cy="158.52" r="2.2" fill="#294f9b" opacity="0.58"/><circle cx="160.91" cy="184.86" r="2.2" fill="#294f9b"/><circle cx="184.86" cy="160.91" r="2.2" fill="#294f9b" opacity="0.58"/><circle cx="165.70" cy="172.88" r="2.2" fill="#294f9b"/><circle cx="172.88" cy="165.70" r="2.2" fill="#294f9b" opacity="0.58"/><circle cx="175.28" cy="184.86" r="2.2" fill="#294f9b"/><circle cx="184.86" cy="175.28" r="2.2" fill="#294f9b" opacity="0.58"/><circle cx="175.28" cy="187.25" r="2.2" fill="#294f9b"/><circle cx="187.25" cy="175.28" r="2.2" fill="#294f9b" opacity="0.58"/><circle cx="177.67" cy="184.86" r="2.2" fill="#294f9b"/><circle cx="184.86" cy="177.67" r="2.2" fill="#294f9b" opacity="0.58"/><circle cx="177.67" cy="187.25" r="2.2" fill="#294f9b"/><circle cx="187.25" cy="177.67" r="2.2" fill="#294f9b" opacity="0.58"/><circle cx="180.07" cy="187.25" r="2.2" fill="#294f9b"/><circle cx="187.25" cy="180.07" r="2.2" fill="#294f9b" opacity="0.58"/><circle cx="180.07" cy="189.65" r="2.2" fill="#294f9b"/><circle cx="189.65" cy="180.07" r="2.2" fill="#294f9b" opacity="0.58"/><circle cx="182.46" cy="189.65" r="2.2" fill="#294f9b"/><circle cx="189.65" cy="182.46" r="2.2" fill="#294f9b" opacity="0.58"/><circle cx="182.46" cy="192.04" r="2.2" fill="#294f9b"/><circle cx="192.04" cy="182.46" r="2.2" fill="#294f9b" opacity="0.58"/><circle cx="184.86" cy="192.04" r="2.2" fill="#294f9b"/><circle cx="192.04" cy="184.86" r="2.2" fill="#294f9b" opacity="0.58"/><circle cx="184.86" cy="194.44" r="2.2" fill="#294f9b"/><circle cx="194.44" cy="184.86" r="2.2" fill="#294f9b" opacity="0.58"/><circle cx="187.25" cy="194.44" r="2.2" fill="#294f9b"/><circle cx="194.44" cy="187.25" r="2.2" fill="#294f9b" opacity="0.58"/><circle cx="187.25" cy="196.83" r="2.2" fill="#294f9b"/><circle cx="196.83" cy="187.25" r="2.2" fill="#294f9b" opacity="0.58"/><circle cx="189.65" cy="196.83" r="2.2" fill="#294f9b"/><circle cx="196.83" cy="189.65" r="2.2" fill="#294f9b" opacity="0.58"/><circle cx="189.65" cy="199.22" r="2.2" fill="#294f9b"/><circle cx="199.22" cy="189.65" r="2.2" fill="#294f9b" opacity="0.58"/><circle cx="192.04" cy="199.22" r="2.2" fill="#294f9b"/><circle cx="199.22" cy="192.04" r="2.2" fill="#294f9b" opacity="0.58"/><circle cx="192.04" cy="201.62" r="2.2" fill="#294f9b"/><circle cx="201.62" cy="192.04" r="2.2" fill="#294f9b" opacity="0.58"/><circle cx="194.44" cy="201.62" r="2.2" fill="#294f9b"/><circle cx="201.62" cy="194.44" r="2.2" fill="#294f9b" opacity="0.58"/><circle cx="194.44" cy="204.01" r="2.2" fill="#294f9b"/><circle cx="204.01" cy="194.44" r="2.2" fill="#294f9b" opacity="0.58"/><circle cx="196.83" cy="204.01" r="2.2" fill="#294f9b"/><circle cx="204.01" cy="196.83" r="2.2" fill="#294f9b" opacity="0.58"/><circle cx="196.83" cy="206.41" r="2.2" fill="#294f9b"/><circle cx="206.41" cy="196.83" r="2.2" fill="#294f9b" opacity="0.58"/><circle cx="199.22" cy="206.41" r="2.2" fill="#294f9b"/><circle cx="206.41" cy="199.22" r="2.2" fill="#294f9b" opacity="0.58"/><circle cx="199.22" cy="208.80" r="2.2" fill="#294f9b"/><circle cx="208.80" cy="199.22" r="2.2" fill="#294f9b" opacity="0.58"/><circle cx="201.62" cy="208.80" r="2.2" fill="#294f9b"/><circle cx="208.80" cy="201.62" r="2.2" fill="#294f9b" opacity="0.58"/><circle cx="201.62" cy="211.20" r="2.2" fill="#294f9b"/><circle cx="211.20" cy="201.62" r="2.2" fill="#294f9b" opacity="0.58"/><circle cx="204.01" cy="211.20" r="2.2" fill="#294f9b"/><circle cx="211.20" cy="204.01" r="2.2" fill="#294f9b" opacity="0.58"/><circle cx="204.01" cy="213.59" r="2.2" fill="#294f9b"/><circle cx="213.59" cy="204.01" r="2.2" fill="#294f9b" opacity="0.58"/><circle cx="206.41" cy="213.59" r="2.2" fill="#294f9b"/><circle cx="213.59" cy="206.41" r="2.2" fill="#294f9b" opacity="0.58"/><circle cx="206.41" cy="215.99" r="2.2" fill="#294f9b"/><circle cx="215.99" cy="206.41" r="2.2" fill="#294f9b" opacity="0.58"/><circle cx="208.80" cy="215.99" r="2.2" fill="#294f9b"/><circle cx="215.99" cy="208.80" r="2.2" fill="#294f9b" opacity="0.58"/><circle cx="208.80" cy="218.38" r="2.2" fill="#294f9b"/><circle cx="218.38" cy="208.80" r="2.2" fill="#294f9b" opacity="0.58"/><circle cx="211.20" cy="218.38" r="2.2" fill="#294f9b"/><circle cx="218.38" cy="211.20" r="2.2" fill="#294f9b" opacity="0.58"/><circle cx="211.20" cy="220.78" r="2.2" fill="#294f9b"/><circle cx="220.78" cy="211.20" r="2.2" fill="#294f9b" opacity="0.58"/><circle cx="213.59" cy="220.78" r="2.2" fill="#294f9b"/><circle cx="220.78" cy="213.59" r="2.2" fill="#294f9b" opacity="0.58"/><circle cx="213.59" cy="223.17" r="2.2" fill="#294f9b"/><circle cx="223.17" cy="213.59" r="2.2" fill="#294f9b" opacity="0.58"/><circle cx="215.99" cy="223.17" r="2.2" fill="#294f9b"/><circle cx="223.17" cy="215.99" r="2.2" fill="#294f9b" opacity="0.58"/><circle cx="215.99" cy="225.56" r="2.2" fill="#294f9b"/><circle cx="225.56" cy="215.99" r="2.2" fill="#294f9b" opacity="0.58"/><circle cx="218.38" cy="225.56" r="2.2" fill="#294f9b"/><circle cx="225.56" cy="218.38" r="2.2" fill="#294f9b" opacity="0.58"/><circle cx="218.38" cy="227.96" r="2.2" fill="#294f9b"/><circle cx="227.96" cy="218.38" r="2.2" fill="#294f9b" opacity="0.58"/><circle cx="220.78" cy="227.96" r="2.2" fill="#294f9b"/><circle cx="227.96" cy="220.78" r="2.2" fill="#294f9b" opacity="0.58"/><circle cx="220.78" cy="230.35" r="2.2" fill="#294f9b"/><circle cx="230.35" cy="220.78" r="2.2" fill="#294f9b" opacity="0.58"/><circle cx="223.17" cy="230.35" r="2.2" fill="#294f9b"/><circle cx="230.35" cy="223.17" r="2.2" fill="#294f9b" opacity="0.58"/><circle cx="223.17" cy="232.75" r="2.2" fill="#294f9b"/><circle cx="232.75" cy="223.17" r="2.2" fill="#294f9b" opacity="0.58"/><circle cx="225.56" cy="232.75" r="2.2" fill="#294f9b"/><circle cx="232.75" cy="225.56" r="2.2" fill="#294f9b" opacity="0.58"/><circle cx="225.56" cy="235.14" r="2.2" fill="#294f9b"/><circle cx="235.14" cy="225.56" r="2.2" fill="#294f9b" opacity="0.58"/><circle cx="227.96" cy="235.14" r="2.2" fill="#294f9b"/><circle cx="235.14" cy="227.96" r="2.2" fill="#294f9b" opacity="0.58"/><circle cx="227.96" cy="237.54" r="2.2" fill="#294f9b"/><circle cx="237.54" cy="227.96" r="2.2" fill="#294f9b" opacity="0.58"/><circle cx="227.96" cy="364.45" r="2.2" fill="#294f9b"/><circle cx="364.45" cy="227.96" r="2.2" fill="#294f9b" opacity="0.58"/><circle cx="227.96" cy="371.63" r="2.2" fill="#294f9b"/><circle cx="371.63" cy="227.96" r="2.2" fill="#294f9b" opacity="0.58"/><circle cx="230.35" cy="237.54" r="2.2" fill="#294f9b"/><circle cx="237.54" cy="230.35" r="2.2" fill="#294f9b" opacity="0.58"/><circle cx="230.35" cy="239.93" r="2.2" fill="#294f9b"/><circle cx="239.93" cy="230.35" r="2.2" fill="#294f9b" opacity="0.58"/><circle cx="230.35" cy="354.87" r="2.2" fill="#294f9b"/><circle cx="354.87" cy="230.35" r="2.2" fill="#294f9b" opacity="0.58"/><circle cx="232.75" cy="239.93" r="2.2" fill="#294f9b"/><circle cx="239.93" cy="232.75" r="2.2" fill="#294f9b" opacity="0.58"/><circle cx="232.75" cy="242.33" r="2.2" fill="#294f9b"/><circle cx="242.33" cy="232.75" r="2.2" fill="#294f9b" opacity="0.58"/><circle cx="235.14" cy="242.33" r="2.2" fill="#294f9b"/><circle cx="242.33" cy="235.14" r="2.2" fill="#294f9b" opacity="0.58"/><circle cx="235.14" cy="244.72" r="2.2" fill="#294f9b"/><circle cx="244.72" cy="235.14" r="2.2" fill="#294f9b" opacity="0.58"/><circle cx="237.54" cy="244.72" r="2.2" fill="#294f9b"/><circle cx="244.72" cy="237.54" r="2.2" fill="#294f9b" opacity="0.58"/><circle cx="237.54" cy="247.12" r="2.2" fill="#294f9b"/><circle cx="247.12" cy="237.54" r="2.2" fill="#294f9b" opacity="0.58"/><circle cx="237.54" cy="354.87" r="2.2" fill="#294f9b"/><circle cx="354.87" cy="237.54" r="2.2" fill="#294f9b" opacity="0.58"/><circle cx="237.54" cy="362.05" r="2.2" fill="#294f9b"/><circle cx="362.05" cy="237.54" r="2.2" fill="#294f9b" opacity="0.58"/><circle cx="239.93" cy="247.12" r="2.2" fill="#294f9b"/><circle cx="247.12" cy="239.93" r="2.2" fill="#294f9b" opacity="0.58"/><circle cx="239.93" cy="249.51" r="2.2" fill="#294f9b"/><circle cx="249.51" cy="239.93" r="2.2" fill="#294f9b" opacity="0.58"/><circle cx="239.93" cy="254.30" r="2.2" fill="#294f9b"/><circle cx="254.30" cy="239.93" r="2.2" fill="#294f9b" opacity="0.58"/><circle cx="242.33" cy="249.51" r="2.2" fill="#294f9b"/><circle cx="249.51" cy="242.33" r="2.2" fill="#294f9b" opacity="0.58"/><circle cx="244.72" cy="263.88" r="2.2" fill="#294f9b"/><circle cx="263.88" cy="244.72" r="2.2" fill="#294f9b" opacity="0.58"/><circle cx="244.72" cy="273.46" r="2.2" fill="#294f9b"/><circle cx="273.46" cy="244.72" r="2.2" fill="#294f9b" opacity="0.58"/><circle cx="244.72" cy="275.85" r="2.2" fill="#294f9b"/><circle cx="275.85" cy="244.72" r="2.2" fill="#294f9b" opacity="0.58"/><circle cx="244.72" cy="283.03" r="2.2" fill="#294f9b"/><circle cx="283.03" cy="244.72" r="2.2" fill="#294f9b" opacity="0.58"/><circle cx="247.12" cy="254.30" r="2.2" fill="#294f9b"/><circle cx="254.30" cy="247.12" r="2.2" fill="#294f9b" opacity="0.58"/><circle cx="247.12" cy="256.69" r="2.2" fill="#294f9b"/><circle cx="256.69" cy="247.12" r="2.2" fill="#294f9b" opacity="0.58"/><circle cx="247.12" cy="259.09" r="2.2" fill="#294f9b"/><circle cx="259.09" cy="247.12" r="2.2" fill="#294f9b" opacity="0.58"/><circle cx="247.12" cy="261.48" r="2.2" fill="#294f9b"/><circle cx="261.48" cy="247.12" r="2.2" fill="#294f9b" opacity="0.58"/><circle cx="247.12" cy="263.88" r="2.2" fill="#294f9b"/><circle cx="263.88" cy="247.12" r="2.2" fill="#294f9b" opacity="0.58"/><circle cx="247.12" cy="266.27" r="2.2" fill="#294f9b"/><circle cx="266.27" cy="247.12" r="2.2" fill="#294f9b" opacity="0.58"/><circle cx="247.12" cy="273.46" r="2.2" fill="#294f9b"/><circle cx="273.46" cy="247.12" r="2.2" fill="#294f9b" opacity="0.58"/><circle cx="249.51" cy="263.88" r="2.2" fill="#294f9b"/><circle cx="263.88" cy="249.51" r="2.2" fill="#294f9b" opacity="0.58"/><circle cx="249.51" cy="273.46" r="2.2" fill="#294f9b"/><circle cx="273.46" cy="249.51" r="2.2" fill="#294f9b" opacity="0.58"/><circle cx="254.30" cy="261.48" r="2.2" fill="#294f9b"/><circle cx="261.48" cy="254.30" r="2.2" fill="#294f9b" opacity="0.58"/><circle cx="259.09" cy="352.48" r="2.2" fill="#294f9b"/><circle cx="352.48" cy="259.09" r="2.2" fill="#294f9b" opacity="0.58"/><circle cx="259.09" cy="354.87" r="2.2" fill="#294f9b"/><circle cx="354.87" cy="259.09" r="2.2" fill="#294f9b" opacity="0.58"/><circle cx="261.48" cy="347.69" r="2.2" fill="#294f9b"/><circle cx="347.69" cy="261.48" r="2.2" fill="#294f9b" opacity="0.58"/><circle cx="261.48" cy="350.08" r="2.2" fill="#294f9b"/><circle cx="350.08" cy="261.48" r="2.2" fill="#294f9b" opacity="0.58"/><circle cx="261.48" cy="352.48" r="2.2" fill="#294f9b"/><circle cx="352.48" cy="261.48" r="2.2" fill="#294f9b" opacity="0.58"/><circle cx="261.48" cy="354.87" r="2.2" fill="#294f9b"/><circle cx="354.87" cy="261.48" r="2.2" fill="#294f9b" opacity="0.58"/><circle cx="263.88" cy="273.46" r="2.2" fill="#294f9b"/><circle cx="273.46" cy="263.88" r="2.2" fill="#294f9b" opacity="0.58"/><circle cx="263.88" cy="275.85" r="2.2" fill="#294f9b"/><circle cx="275.85" cy="263.88" r="2.2" fill="#294f9b" opacity="0.58"/><circle cx="263.88" cy="347.69" r="2.2" fill="#294f9b"/><circle cx="347.69" cy="263.88" r="2.2" fill="#294f9b" opacity="0.58"/><circle cx="263.88" cy="350.08" r="2.2" fill="#294f9b"/><circle cx="350.08" cy="263.88" r="2.2" fill="#294f9b" opacity="0.58"/><circle cx="263.88" cy="352.48" r="2.2" fill="#294f9b"/><circle cx="352.48" cy="263.88" r="2.2" fill="#294f9b" opacity="0.58"/><circle cx="266.27" cy="273.46" r="2.2" fill="#294f9b"/><circle cx="273.46" cy="266.27" r="2.2" fill="#294f9b" opacity="0.58"/><circle cx="266.27" cy="275.85" r="2.2" fill="#294f9b"/><circle cx="275.85" cy="266.27" r="2.2" fill="#294f9b" opacity="0.58"/><circle cx="266.27" cy="345.29" r="2.2" fill="#294f9b"/><circle cx="345.29" cy="266.27" r="2.2" fill="#294f9b" opacity="0.58"/><circle cx="266.27" cy="347.69" r="2.2" fill="#294f9b"/><circle cx="347.69" cy="266.27" r="2.2" fill="#294f9b" opacity="0.58"/><circle cx="266.27" cy="350.08" r="2.2" fill="#294f9b"/><circle cx="350.08" cy="266.27" r="2.2" fill="#294f9b" opacity="0.58"/><circle cx="268.67" cy="275.85" r="2.2" fill="#294f9b"/><circle cx="275.85" cy="268.67" r="2.2" fill="#294f9b" opacity="0.58"/><circle cx="268.67" cy="278.24" r="2.2" fill="#294f9b"/><circle cx="278.24" cy="268.67" r="2.2" fill="#294f9b" opacity="0.58"/><circle cx="268.67" cy="306.98" r="2.2" fill="#294f9b"/><circle cx="306.98" cy="268.67" r="2.2" fill="#294f9b" opacity="0.58"/><circle cx="268.67" cy="314.16" r="2.2" fill="#294f9b"/><circle cx="314.16" cy="268.67" r="2.2" fill="#294f9b" opacity="0.58"/><circle cx="268.67" cy="316.56" r="2.2" fill="#294f9b"/><circle cx="316.56" cy="268.67" r="2.2" fill="#294f9b" opacity="0.58"/><circle cx="268.67" cy="323.74" r="2.2" fill="#294f9b"/><circle cx="323.74" cy="268.67" r="2.2" fill="#294f9b" opacity="0.58"/><circle cx="268.67" cy="347.69" r="2.2" fill="#294f9b"/><circle cx="347.69" cy="268.67" r="2.2" fill="#294f9b" opacity="0.58"/><circle cx="271.06" cy="278.24" r="2.2" fill="#294f9b"/><circle cx="278.24" cy="271.06" r="2.2" fill="#294f9b" opacity="0.58"/><circle cx="271.06" cy="280.64" r="2.2" fill="#294f9b"/><circle cx="280.64" cy="271.06" r="2.2" fill="#294f9b" opacity="0.58"/><circle cx="273.46" cy="280.64" r="2.2" fill="#294f9b"/><circle cx="280.64" cy="273.46" r="2.2" fill="#294f9b" opacity="0.58"/><circle cx="273.46" cy="283.03" r="2.2" fill="#294f9b"/><circle cx="283.03" cy="273.46" r="2.2" fill="#294f9b" opacity="0.58"/><circle cx="275.85" cy="283.03" r="2.2" fill="#294f9b"/><circle cx="283.03" cy="275.85" r="2.2" fill="#294f9b" opacity="0.58"/><circle cx="275.85" cy="285.43" r="2.2" fill="#294f9b"/><circle cx="285.43" cy="275.85" r="2.2" fill="#294f9b" opacity="0.58"/><circle cx="275.85" cy="314.16" r="2.2" fill="#294f9b"/><circle cx="314.16" cy="275.85" r="2.2" fill="#294f9b" opacity="0.58"/><circle cx="278.24" cy="285.43" r="2.2" fill="#294f9b"/><circle cx="285.43" cy="278.24" r="2.2" fill="#294f9b" opacity="0.58"/><circle cx="278.24" cy="287.82" r="2.2" fill="#294f9b"/><circle cx="287.82" cy="278.24" r="2.2" fill="#294f9b" opacity="0.58"/><circle cx="278.24" cy="299.80" r="2.2" fill="#294f9b"/><circle cx="299.80" cy="278.24" r="2.2" fill="#294f9b" opacity="0.58"/><circle cx="278.24" cy="302.19" r="2.2" fill="#294f9b"/><circle cx="302.19" cy="278.24" r="2.2" fill="#294f9b" opacity="0.58"/><circle cx="278.24" cy="304.59" r="2.2" fill="#294f9b"/><circle cx="304.59" cy="278.24" r="2.2" fill="#294f9b" opacity="0.58"/><circle cx="278.24" cy="306.98" r="2.2" fill="#294f9b"/><circle cx="306.98" cy="278.24" r="2.2" fill="#294f9b" opacity="0.58"/><circle cx="278.24" cy="314.16" r="2.2" fill="#294f9b"/><circle cx="314.16" cy="278.24" r="2.2" fill="#294f9b" opacity="0.58"/><circle cx="280.64" cy="287.82" r="2.2" fill="#294f9b"/><circle cx="287.82" cy="280.64" r="2.2" fill="#294f9b" opacity="0.58"/><circle cx="280.64" cy="290.22" r="2.2" fill="#294f9b"/><circle cx="290.22" cy="280.64" r="2.2" fill="#294f9b" opacity="0.58"/><circle cx="283.03" cy="290.22" r="2.2" fill="#294f9b"/><circle cx="290.22" cy="283.03" r="2.2" fill="#294f9b" opacity="0.58"/><circle cx="283.03" cy="292.61" r="2.2" fill="#294f9b"/><circle cx="292.61" cy="283.03" r="2.2" fill="#294f9b" opacity="0.58"/><circle cx="285.43" cy="292.61" r="2.2" fill="#294f9b"/><circle cx="292.61" cy="285.43" r="2.2" fill="#294f9b" opacity="0.58"/><circle cx="285.43" cy="295.01" r="2.2" fill="#294f9b"/><circle cx="295.01" cy="285.43" r="2.2" fill="#294f9b" opacity="0.58"/><circle cx="285.43" cy="297.40" r="2.2" fill="#294f9b"/><circle cx="297.40" cy="285.43" r="2.2" fill="#294f9b" opacity="0.58"/><circle cx="285.43" cy="299.80" r="2.2" fill="#294f9b"/><circle cx="299.80" cy="285.43" r="2.2" fill="#294f9b" opacity="0.58"/><circle cx="285.43" cy="302.19" r="2.2" fill="#294f9b"/><circle cx="302.19" cy="285.43" r="2.2" fill="#294f9b" opacity="0.58"/><circle cx="287.82" cy="295.01" r="2.2" fill="#294f9b"/><circle cx="295.01" cy="287.82" r="2.2" fill="#294f9b" opacity="0.58"/><circle cx="287.82" cy="297.40" r="2.2" fill="#294f9b"/><circle cx="297.40" cy="287.82" r="2.2" fill="#294f9b" opacity="0.58"/><circle cx="287.82" cy="299.80" r="2.2" fill="#294f9b"/><circle cx="299.80" cy="287.82" r="2.2" fill="#294f9b" opacity="0.58"/><circle cx="287.82" cy="302.19" r="2.2" fill="#294f9b"/><circle cx="302.19" cy="287.82" r="2.2" fill="#294f9b" opacity="0.58"/><circle cx="290.22" cy="297.40" r="2.2" fill="#294f9b"/><circle cx="297.40" cy="290.22" r="2.2" fill="#294f9b" opacity="0.58"/><circle cx="302.19" cy="309.37" r="2.2" fill="#294f9b"/><circle cx="309.37" cy="302.19" r="2.2" fill="#294f9b" opacity="0.58"/><circle cx="302.19" cy="311.77" r="2.2" fill="#294f9b"/><circle cx="311.77" cy="302.19" r="2.2" fill="#294f9b" opacity="0.58"/><circle cx="302.19" cy="314.16" r="2.2" fill="#294f9b"/><circle cx="314.16" cy="302.19" r="2.2" fill="#294f9b" opacity="0.58"/><circle cx="304.59" cy="311.77" r="2.2" fill="#294f9b"/><circle cx="311.77" cy="304.59" r="2.2" fill="#294f9b" opacity="0.58"/><circle cx="304.59" cy="314.16" r="2.2" fill="#294f9b"/><circle cx="314.16" cy="304.59" r="2.2" fill="#294f9b" opacity="0.58"/><circle cx="306.98" cy="314.16" r="2.2" fill="#294f9b"/><circle cx="314.16" cy="306.98" r="2.2" fill="#294f9b" opacity="0.58"/><circle cx="306.98" cy="316.56" r="2.2" fill="#294f9b"/><circle cx="316.56" cy="306.98" r="2.2" fill="#294f9b" opacity="0.58"/><circle cx="309.37" cy="316.56" r="2.2" fill="#294f9b"/><circle cx="316.56" cy="309.37" r="2.2" fill="#294f9b" opacity="0.58"/><circle cx="309.37" cy="318.95" r="2.2" fill="#294f9b"/><circle cx="318.95" cy="309.37" r="2.2" fill="#294f9b" opacity="0.58"/><circle cx="311.77" cy="318.95" r="2.2" fill="#294f9b"/><circle cx="318.95" cy="311.77" r="2.2" fill="#294f9b" opacity="0.58"/><circle cx="311.77" cy="321.35" r="2.2" fill="#294f9b"/><circle cx="321.35" cy="311.77" r="2.2" fill="#294f9b" opacity="0.58"/><circle cx="314.16" cy="321.35" r="2.2" fill="#294f9b"/><circle cx="321.35" cy="314.16" r="2.2" fill="#294f9b" opacity="0.58"/><circle cx="314.16" cy="323.74" r="2.2" fill="#294f9b"/><circle cx="323.74" cy="314.16" r="2.2" fill="#294f9b" opacity="0.58"/><circle cx="316.56" cy="323.74" r="2.2" fill="#294f9b"/><circle cx="323.74" cy="316.56" r="2.2" fill="#294f9b" opacity="0.58"/><circle cx="316.56" cy="326.14" r="2.2" fill="#294f9b"/><circle cx="326.14" cy="316.56" r="2.2" fill="#294f9b" opacity="0.58"/><circle cx="318.95" cy="326.14" r="2.2" fill="#294f9b"/><circle cx="326.14" cy="318.95" r="2.2" fill="#294f9b" opacity="0.58"/><circle cx="318.95" cy="328.53" r="2.2" fill="#294f9b"/><circle cx="328.53" cy="318.95" r="2.2" fill="#294f9b" opacity="0.58"/><circle cx="321.35" cy="328.53" r="2.2" fill="#294f9b"/><circle cx="328.53" cy="321.35" r="2.2" fill="#294f9b" opacity="0.58"/><circle cx="321.35" cy="330.93" r="2.2" fill="#294f9b"/><circle cx="330.93" cy="321.35" r="2.2" fill="#294f9b" opacity="0.58"/><circle cx="323.74" cy="330.93" r="2.2" fill="#294f9b"/><circle cx="330.93" cy="323.74" r="2.2" fill="#294f9b" opacity="0.58"/><circle cx="323.74" cy="333.32" r="2.2" fill="#294f9b"/><circle cx="333.32" cy="323.74" r="2.2" fill="#294f9b" opacity="0.58"/><circle cx="323.74" cy="345.29" r="2.2" fill="#294f9b"/><circle cx="345.29" cy="323.74" r="2.2" fill="#294f9b" opacity="0.58"/><circle cx="323.74" cy="347.69" r="2.2" fill="#294f9b"/><circle cx="347.69" cy="323.74" r="2.2" fill="#294f9b" opacity="0.58"/><circle cx="323.74" cy="350.08" r="2.2" fill="#294f9b"/><circle cx="350.08" cy="323.74" r="2.2" fill="#294f9b" opacity="0.58"/><circle cx="326.14" cy="333.32" r="2.2" fill="#294f9b"/><circle cx="333.32" cy="326.14" r="2.2" fill="#294f9b" opacity="0.58"/><circle cx="326.14" cy="340.50" r="2.2" fill="#294f9b"/><circle cx="340.50" cy="326.14" r="2.2" fill="#294f9b" opacity="0.58"/><circle cx="326.14" cy="345.29" r="2.2" fill="#294f9b"/><circle cx="345.29" cy="326.14" r="2.2" fill="#294f9b" opacity="0.58"/><circle cx="330.93" cy="350.08" r="2.2" fill="#294f9b"/><circle cx="350.08" cy="330.93" r="2.2" fill="#294f9b" opacity="0.58"/><circle cx="330.93" cy="359.66" r="2.2" fill="#294f9b"/><circle cx="359.66" cy="330.93" r="2.2" fill="#294f9b" opacity="0.58"/><circle cx="330.93" cy="362.05" r="2.2" fill="#294f9b"/><circle cx="362.05" cy="330.93" r="2.2" fill="#294f9b" opacity="0.58"/><circle cx="330.93" cy="366.84" r="2.2" fill="#294f9b"/><circle cx="366.84" cy="330.93" r="2.2" fill="#294f9b" opacity="0.58"/><circle cx="330.93" cy="369.24" r="2.2" fill="#294f9b"/><circle cx="369.24" cy="330.93" r="2.2" fill="#294f9b" opacity="0.58"/><circle cx="333.32" cy="340.50" r="2.2" fill="#294f9b"/><circle cx="340.50" cy="333.32" r="2.2" fill="#294f9b" opacity="0.58"/><circle cx="333.32" cy="342.90" r="2.2" fill="#294f9b"/><circle cx="342.90" cy="333.32" r="2.2" fill="#294f9b" opacity="0.58"/><circle cx="333.32" cy="345.29" r="2.2" fill="#294f9b"/><circle cx="345.29" cy="333.32" r="2.2" fill="#294f9b" opacity="0.58"/><circle cx="333.32" cy="347.69" r="2.2" fill="#294f9b"/><circle cx="347.69" cy="333.32" r="2.2" fill="#294f9b" opacity="0.58"/><circle cx="333.32" cy="350.08" r="2.2" fill="#294f9b"/><circle cx="350.08" cy="333.32" r="2.2" fill="#294f9b" opacity="0.58"/><circle cx="333.32" cy="359.66" r="2.2" fill="#294f9b"/><circle cx="359.66" cy="333.32" r="2.2" fill="#294f9b" opacity="0.58"/><circle cx="335.71" cy="359.66" r="2.2" fill="#294f9b"/><circle cx="359.66" cy="335.71" r="2.2" fill="#294f9b" opacity="0.58"/><circle cx="340.50" cy="347.69" r="2.2" fill="#294f9b"/><circle cx="347.69" cy="340.50" r="2.2" fill="#294f9b" opacity="0.58"/><circle cx="350.08" cy="357.27" r="2.2" fill="#294f9b"/><circle cx="357.27" cy="350.08" r="2.2" fill="#294f9b" opacity="0.58"/><circle cx="350.08" cy="359.66" r="2.2" fill="#294f9b"/><circle cx="359.66" cy="350.08" r="2.2" fill="#294f9b" opacity="0.58"/><circle cx="350.08" cy="362.05" r="2.2" fill="#294f9b"/><circle cx="362.05" cy="350.08" r="2.2" fill="#294f9b" opacity="0.58"/><circle cx="352.48" cy="359.66" r="2.2" fill="#294f9b"/><circle cx="359.66" cy="352.48" r="2.2" fill="#294f9b" opacity="0.58"/><circle cx="352.48" cy="362.05" r="2.2" fill="#294f9b"/><circle cx="362.05" cy="352.48" r="2.2" fill="#294f9b" opacity="0.58"/><circle cx="354.87" cy="362.05" r="2.2" fill="#294f9b"/><circle cx="362.05" cy="354.87" r="2.2" fill="#294f9b" opacity="0.58"/><circle cx="354.87" cy="364.45" r="2.2" fill="#294f9b"/><circle cx="364.45" cy="354.87" r="2.2" fill="#294f9b" opacity="0.58"/><circle cx="357.27" cy="364.45" r="2.2" fill="#294f9b"/><circle cx="364.45" cy="357.27" r="2.2" fill="#294f9b" opacity="0.58"/><circle cx="357.27" cy="366.84" r="2.2" fill="#294f9b"/><circle cx="366.84" cy="357.27" r="2.2" fill="#294f9b" opacity="0.58"/><circle cx="359.66" cy="366.84" r="2.2" fill="#294f9b"/><circle cx="366.84" cy="359.66" r="2.2" fill="#294f9b" opacity="0.58"/><circle cx="359.66" cy="369.24" r="2.2" fill="#294f9b"/><circle cx="369.24" cy="359.66" r="2.2" fill="#294f9b" opacity="0.58"/><circle cx="362.05" cy="369.24" r="2.2" fill="#294f9b"/><circle cx="369.24" cy="362.05" r="2.2" fill="#294f9b" opacity="0.58"/><circle cx="362.05" cy="371.63" r="2.2" fill="#294f9b"/><circle cx="371.63" cy="362.05" r="2.2" fill="#294f9b" opacity="0.58"/><circle cx="364.45" cy="371.63" r="2.2" fill="#294f9b"/><circle cx="371.63" cy="364.45" r="2.2" fill="#294f9b" opacity="0.58"/><circle cx="364.45" cy="374.03" r="2.2" fill="#294f9b"/><circle cx="374.03" cy="364.45" r="2.2" fill="#294f9b" opacity="0.58"/><circle cx="364.45" cy="376.42" r="2.2" fill="#294f9b"/><circle cx="376.42" cy="364.45" r="2.2" fill="#294f9b" opacity="0.58"/><circle cx="366.84" cy="374.03" r="2.2" fill="#294f9b"/><circle cx="374.03" cy="366.84" r="2.2" fill="#294f9b" opacity="0.58"/><circle cx="366.84" cy="376.42" r="2.2" fill="#294f9b"/><circle cx="376.42" cy="366.84" r="2.2" fill="#294f9b" opacity="0.58"/><circle cx="369.24" cy="376.42" r="2.2" fill="#294f9b"/><circle cx="376.42" cy="369.24" r="2.2" fill="#294f9b" opacity="0.58"/>
  <text x="34" y="412" font-family="Arial, sans-serif" font-size="11" fill="#58635e">row: coord_008_pdb_1CLL_A_calmodulin | contacts: 327</text>
</svg>
