<svg xmlns="http://www.w3.org/2000/svg" width="760" height="260" viewBox="0 0 760 260" role="img" aria-label="native coordinate trace">
  <rect width="760" height="260" fill="#f8faf7"/>
  <text x="34" y="24" font-family="Arial, sans-serif" font-size="15" fill="#22302d">Native C-alpha Coordinate Trace</text>
  <line x1="55.31" y1="124.68" x2="90.90" y2="139.16" stroke="#326e8f" stroke-width="1" stroke-opacity="0.22"/><line x1="55.31" y1="124.68" x2="118.81" y2="140.75" stroke="#326e8f" stroke-width="1" stroke-opacity="0.22"/><line x1="52.07" y1="135.69" x2="118.81" y2="140.75" stroke="#326e8f" stroke-width="1" stroke-opacity="0.22"/><line x1="52.07" y1="135.69" x2="98.14" y2="153.04" stroke="#326e8f" stroke-width="1" stroke-opacity="0.22"/><line x1="36.00" y1="142.45" x2="98.14" y2="153.04" stroke="#326e8f" stroke-width="1" stroke-opacity="0.22"/><line x1="36.00" y1="142.45" x2="117.83" y2="155.48" stroke="#326e8f" stroke-width="1" stroke-opacity="0.22"/><line x1="90.90" y1="139.16" x2="117.83" y2="155.48" stroke="#326e8f" stroke-width="1" stroke-opacity="0.22"/><line x1="90.90" y1="139.16" x2="177.70" y2="152.61" stroke="#326e8f" stroke-width="1" stroke-opacity="0.22"/><line x1="118.81" y1="140.75" x2="177.70" y2="152.61" stroke="#326e8f" stroke-width="1" stroke-opacity="0.22"/><line x1="118.81" y1="140.75" x2="174.24" y2="159.97" stroke="#326e8f" stroke-width="1" stroke-opacity="0.22"/><line x1="98.14" y1="153.04" x2="174.24" y2="159.97" stroke="#326e8f" stroke-width="1" stroke-opacity="0.22"/><line x1="98.14" y1="153.04" x2="150.17" y2="170.05" stroke="#326e8f" stroke-width="1" stroke-opacity="0.22"/><line x1="117.83" y1="155.48" x2="150.17" y2="170.05" stroke="#326e8f" stroke-width="1" stroke-opacity="0.22"/><line x1="117.83" y1="155.48" x2="198.94" y2="168.93" stroke="#326e8f" stroke-width="1" stroke-opacity="0.22"/><line x1="177.70" y1="152.61" x2="198.94" y2="168.93" stroke="#326e8f" stroke-width="1" stroke-opacity="0.22"/><line x1="177.70" y1="152.61" x2="239.26" y2="169.81" stroke="#326e8f" stroke-width="1" stroke-opacity="0.22"/><line x1="174.24" y1="159.97" x2="239.26" y2="169.81" stroke="#326e8f" stroke-width="1" stroke-opacity="0.22"/><line x1="174.24" y1="159.97" x2="207.81" y2="180.22" stroke="#326e8f" stroke-width="1" stroke-opacity="0.22"/><line x1="174.24" y1="159.97" x2="148.31" y2="165.04" stroke="#326e8f" stroke-width="1" stroke-opacity="0.22"/><line x1="150.17" y1="170.05" x2="207.81" y2="180.22" stroke="#326e8f" stroke-width="1" stroke-opacity="0.22"/><line x1="150.17" y1="170.05" x2="210.10" y2="186.76" stroke="#326e8f" stroke-width="1" stroke-opacity="0.22"/><line x1="150.17" y1="170.05" x2="116.37" y2="183.24" stroke="#326e8f" stroke-width="1" stroke-opacity="0.22"/><line x1="198.94" y1="168.93" x2="210.10" y2="186.76" stroke="#326e8f" stroke-width="1" stroke-opacity="0.22"/><line x1="198.94" y1="168.93" x2="273.39" y2="186.46" stroke="#326e8f" stroke-width="1" stroke-opacity="0.22"/><line x1="239.26" y1="169.81" x2="273.39" y2="186.46" stroke="#326e8f" stroke-width="1" stroke-opacity="0.22"/><line x1="239.26" y1="169.81" x2="271.68" y2="193.71" stroke="#326e8f" stroke-width="1" stroke-opacity="0.22"/><line x1="207.81" y1="180.22" x2="271.68" y2="193.71" stroke="#326e8f" stroke-width="1" stroke-opacity="0.22"/><line x1="207.81" y1="180.22" x2="221.47" y2="201.39" stroke="#326e8f" stroke-width="1" stroke-opacity="0.22"/><line x1="207.81" y1="180.22" x2="116.37" y2="183.24" stroke="#326e8f" stroke-width="1" stroke-opacity="0.22"/><line x1="207.81" y1="180.22" x2="178.93" y2="176.37" stroke="#326e8f" stroke-width="1" stroke-opacity="0.22"/><line x1="210.10" y1="186.76" x2="221.47" y2="201.39" stroke="#326e8f" stroke-width="1" stroke-opacity="0.22"/><line x1="210.10" y1="186.76" x2="254.52" y2="208.82" stroke="#326e8f" stroke-width="1" stroke-opacity="0.22"/><line x1="210.10" y1="186.76" x2="159.64" y2="208.62" stroke="#326e8f" stroke-width="1" stroke-opacity="0.22"/><line x1="273.39" y1="186.46" x2="254.52" y2="208.82" stroke="#326e8f" stroke-width="1" stroke-opacity="0.22"/><line x1="273.39" y1="186.46" x2="375.21" y2="197.27" stroke="#326e8f" stroke-width="1" stroke-opacity="0.22"/><line x1="271.68" y1="193.71" x2="215.55" y2="204.77" stroke="#326e8f" stroke-width="1" stroke-opacity="0.22"/><line x1="271.68" y1="193.71" x2="302.15" y2="212.39" stroke="#326e8f" stroke-width="1" stroke-opacity="0.22"/><line x1="271.68" y1="193.71" x2="325.60" y2="203.22" stroke="#326e8f" stroke-width="1" stroke-opacity="0.22"/><line x1="271.68" y1="193.71" x2="375.21" y2="197.27" stroke="#326e8f" stroke-width="1" stroke-opacity="0.22"/><line x1="221.47" y1="201.39" x2="159.64" y2="208.62" stroke="#326e8f" stroke-width="1" stroke-opacity="0.22"/><line x1="221.47" y1="201.39" x2="123.10" y2="214.61" stroke="#326e8f" stroke-width="1" stroke-opacity="0.22"/><line x1="221.47" y1="201.39" x2="113.65" y2="203.38" stroke="#326e8f" stroke-width="1" stroke-opacity="0.22"/>
  <polyline points="55.31,124.68 52.07,135.69 36.00,142.45 90.90,139.16 118.81,140.75 98.14,153.04 117.83,155.48 177.70,152.61 174.24,159.97 150.17,170.05 198.94,168.93 239.26,169.81 207.81,180.22 210.10,186.76 273.39,186.46 271.68,193.71 221.47,201.39 254.52,208.82 207.56,217.13 159.64,208.62 123.10,214.61 113.65,203.38 154.24,205.96 215.55,204.77 243.23,215.13 300.19,216.62 322.67,222.09 302.15,212.39 325.60,203.22 378.75,210.48 385.12,210.19 375.21,197.27 420.64,195.04 462.07,203.12 454.87,196.58 472.73,186.13 528.36,191.46 506.23,194.84 501.25,207.53 466.80,207.47 458.03,218.38 401.07,224.00 401.53,219.26 410.12,206.99 366.36,208.92 324.90,212.47 335.70,201.72 326.30,194.01 269.69,199.50 254.55,199.77 260.95,186.81 219.01,184.67 178.83,194.78 131.44,189.57 91.83,199.98 137.77,208.62 123.23,216.56 184.06,217.10 182.59,210.52 175.09,198.24 124.75,194.71 116.37,183.24 86.56,176.77 133.65,180.08 178.93,176.37 148.31,165.04 144.39,161.65 205.43,164.42 223.81,158.64 193.37,147.78 217.03,147.15 273.89,149.44 266.68,139.55 251.34,130.77 303.63,134.19 341.88,133.48 320.78,121.19 335.50,118.34 394.72,122.63 407.93,116.14 385.73,104.94 424.07,105.90 472.04,109.84 461.82,99.22 464.66,91.11 517.63,97.23 545.36,94.27 530.84,81.60 557.36,81.25 608.50,88.05 631.30,78.20 684.07,84.82 657.45,96.63 701.62,102.40 654.16,108.95 652.27,101.95 628.74,90.73 671.14,83.23 660.36,73.27 677.14,64.67 637.15,70.20 589.05,70.41 600.84,57.76 600.44,53.63 544.83,59.45 520.04,54.88 534.13,42.51 505.00,44.94 454.90,48.76 455.39,37.27 483.19,41.58 538.70,36.00 564.52,44.21 620.12,43.13 662.37,52.83 648.13,56.46 586.59,57.43 600.46,64.73 640.42,72.37 593.42,74.95 555.10,78.22 598.85,86.47 611.13,91.71 550.76,94.71 549.57,102.21 609.70,106.41 606.84,119.17 664.66,123.04 689.49,112.08 724.00,108.68 701.65,96.39 668.12,97.40 611.34,102.07 609.08,112.33 556.28,115.87 539.81,124.62 543.88,115.46 512.93,107.05 463.56,115.10 462.13,117.12 457.46,104.11 417.15,102.96 375.23,112.43 382.51,112.47" fill="none" stroke="#7d8f86" stroke-width="2.6"/>
  <circle cx="55.31" cy="124.68" r="3" fill="#22302d"/><circle cx="90.90" cy="139.16" r="3" fill="#22302d"/><circle cx="117.83" cy="155.48" r="3" fill="#22302d"/><circle cx="150.17" cy="170.05" r="3" fill="#22302d"/><circle cx="207.81" cy="180.22" r="3" fill="#22302d"/><circle cx="271.68" cy="193.71" r="3" fill="#22302d"/><circle cx="207.56" cy="217.13" r="3" fill="#22302d"/><circle cx="113.65" cy="203.38" r="3" fill="#22302d"/><circle cx="243.23" cy="215.13" r="3" fill="#22302d"/><circle cx="302.15" cy="212.39" r="3" fill="#22302d"/><circle cx="385.12" cy="210.19" r="3" fill="#22302d"/><circle cx="462.07" cy="203.12" r="3" fill="#22302d"/><circle cx="528.36" cy="191.46" r="3" fill="#22302d"/><circle cx="466.80" cy="207.47" r="3" fill="#22302d"/><circle cx="401.53" cy="219.26" r="3" fill="#22302d"/><circle cx="324.90" cy="212.47" r="3" fill="#22302d"/><circle cx="269.69" cy="199.50" r="3" fill="#22302d"/><circle cx="219.01" cy="184.67" r="3" fill="#22302d"/><circle cx="91.83" cy="199.98" r="3" fill="#22302d"/><circle cx="184.06" cy="217.10" r="3" fill="#22302d"/><circle cx="124.75" cy="194.71" r="3" fill="#22302d"/><circle cx="133.65" cy="180.08" r="3" fill="#22302d"/><circle cx="144.39" cy="161.65" r="3" fill="#22302d"/><circle cx="193.37" cy="147.78" r="3" fill="#22302d"/><circle cx="266.68" cy="139.55" r="3" fill="#22302d"/><circle cx="341.88" cy="133.48" r="3" fill="#22302d"/><circle cx="394.72" cy="122.63" r="3" fill="#22302d"/><circle cx="424.07" cy="105.90" r="3" fill="#22302d"/><circle cx="464.66" cy="91.11" r="3" fill="#22302d"/><circle cx="530.84" cy="81.60" r="3" fill="#22302d"/><circle cx="631.30" cy="78.20" r="3" fill="#22302d"/><circle cx="701.62" cy="102.40" r="3" fill="#22302d"/><circle cx="628.74" cy="90.73" r="3" fill="#22302d"/><circle cx="677.14" cy="64.67" r="3" fill="#22302d"/><circle cx="600.84" cy="57.76" r="3" fill="#22302d"/><circle cx="520.04" cy="54.88" r="3" fill="#22302d"/><circle cx="454.90" cy="48.76" r="3" fill="#22302d"/><circle cx="538.70" cy="36.00" r="3" fill="#22302d"/><circle cx="662.37" cy="52.83" r="3" fill="#22302d"/><circle cx="600.46" cy="64.73" r="3" fill="#22302d"/><circle cx="555.10" cy="78.22" r="3" fill="#22302d"/><circle cx="550.76" cy="94.71" r="3" fill="#22302d"/><circle cx="606.84" cy="119.17" r="3" fill="#22302d"/><circle cx="724.00" cy="108.68" r="3" fill="#22302d"/><circle cx="611.34" cy="102.07" r="3" fill="#22302d"/><circle cx="539.81" cy="124.62" r="3" fill="#22302d"/><circle cx="463.56" cy="115.10" r="3" fill="#22302d"/><circle cx="417.15" cy="102.96" r="3" fill="#22302d"/>
  <text x="34" y="248" font-family="Arial, sans-serif" font-size="11" fill="#58635e">row: coord_008_pdb_1CLL_A_calmodulin | projected coordinates, not full atomic folding</text>
</svg>
