<svg xmlns="http://www.w3.org/2000/svg" width="420" height="420" viewBox="0 0 420 420" role="img" aria-label="Repaired sequence-only contact candidates">
  <rect width="420" height="420" fill="#f8faf7"/>
  <text x="34" y="22" font-family="Arial, sans-serif" font-size="14" fill="#22302d">Repaired sequence-only contact candidates</text>
  <line x1="34" y1="34" x2="34" y2="386" stroke="#9aa69f"/>
  <line x1="34" y1="386" x2="386" y2="386" stroke="#9aa69f"/>
  <line x1="34" y1="34" x2="386" y2="386" stroke="#cfd8d2" stroke-dasharray="4 4"/>
  <circle cx="34.00" cy="38.06" r="2.2" fill="#c44b3a"/><circle cx="38.06" cy="34.00" r="2.2" fill="#c44b3a" opacity="0.58"/><circle cx="42.12" cy="62.40" r="2.2" fill="#c44b3a"/><circle cx="62.40" cy="42.12" r="2.2" fill="#c44b3a" opacity="0.58"/><circle cx="42.12" cy="63.42" r="2.2" fill="#c44b3a"/><circle cx="63.42" cy="42.12" r="2.2" fill="#c44b3a" opacity="0.58"/><circle cx="42.12" cy="68.49" r="2.2" fill="#c44b3a"/><circle cx="68.49" cy="42.12" r="2.2" fill="#c44b3a" opacity="0.58"/><circle cx="42.12" cy="70.52" r="2.2" fill="#c44b3a"/><circle cx="70.52" cy="42.12" r="2.2" fill="#c44b3a" opacity="0.58"/><circle cx="42.12" cy="76.61" r="2.2" fill="#c44b3a"/><circle cx="76.61" cy="42.12" r="2.2" fill="#c44b3a" opacity="0.58"/><circle cx="42.12" cy="78.63" r="2.2" fill="#c44b3a"/><circle cx="78.63" cy="42.12" r="2.2" fill="#c44b3a" opacity="0.58"/><circle cx="42.12" cy="85.73" r="2.2" fill="#c44b3a"/><circle cx="85.73" cy="42.12" r="2.2" fill="#c44b3a" opacity="0.58"/><circle cx="42.12" cy="89.79" r="2.2" fill="#c44b3a"/><circle cx="89.79" cy="42.12" r="2.2" fill="#c44b3a" opacity="0.58"/><circle cx="42.12" cy="93.85" r="2.2" fill="#c44b3a"/><circle cx="93.85" cy="42.12" r="2.2" fill="#c44b3a" opacity="0.58"/><circle cx="42.12" cy="94.86" r="2.2" fill="#c44b3a"/><circle cx="94.86" cy="42.12" r="2.2" fill="#c44b3a" opacity="0.58"/><circle cx="42.12" cy="96.89" r="2.2" fill="#c44b3a"/><circle cx="96.89" cy="42.12" r="2.2" fill="#c44b3a" opacity="0.58"/><circle cx="42.12" cy="108.05" r="2.2" fill="#c44b3a"/><circle cx="108.05" cy="42.12" r="2.2" fill="#c44b3a" opacity="0.58"/><circle cx="42.12" cy="109.07" r="2.2" fill="#c44b3a"/><circle cx="109.07" cy="42.12" r="2.2" fill="#c44b3a" opacity="0.58"/><circle cx="42.12" cy="115.15" r="2.2" fill="#c44b3a"/><circle cx="115.15" cy="42.12" r="2.2" fill="#c44b3a" opacity="0.58"/><circle cx="42.12" cy="119.21" r="2.2" fill="#c44b3a"/><circle cx="119.21" cy="42.12" r="2.2" fill="#c44b3a" opacity="0.58"/><circle cx="42.12" cy="121.24" r="2.2" fill="#c44b3a"/><circle cx="121.24" cy="42.12" r="2.2" fill="#c44b3a" opacity="0.58"/><circle cx="42.12" cy="122.25" r="2.2" fill="#c44b3a"/><circle cx="122.25" cy="42.12" r="2.2" fill="#c44b3a" opacity="0.58"/><circle cx="42.12" cy="125.30" r="2.2" fill="#c44b3a"/><circle cx="125.30" cy="42.12" r="2.2" fill="#c44b3a" opacity="0.58"/><circle cx="44.14" cy="62.40" r="2.2" fill="#c44b3a"/><circle cx="62.40" cy="44.14" r="2.2" fill="#c44b3a" opacity="0.58"/><circle cx="44.14" cy="68.49" r="2.2" fill="#c44b3a"/><circle cx="68.49" cy="44.14" r="2.2" fill="#c44b3a" opacity="0.58"/><circle cx="44.14" cy="70.52" r="2.2" fill="#c44b3a"/><circle cx="70.52" cy="44.14" r="2.2" fill="#c44b3a" opacity="0.58"/><circle cx="44.14" cy="76.61" r="2.2" fill="#c44b3a"/><circle cx="76.61" cy="44.14" r="2.2" fill="#c44b3a" opacity="0.58"/><circle cx="44.14" cy="78.63" r="2.2" fill="#c44b3a"/><circle cx="78.63" cy="44.14" r="2.2" fill="#c44b3a" opacity="0.58"/><circle cx="44.14" cy="119.21" r="2.2" fill="#c44b3a"/><circle cx="119.21" cy="44.14" r="2.2" fill="#c44b3a" opacity="0.58"/><circle cx="44.14" cy="125.30" r="2.2" fill="#c44b3a"/><circle cx="125.30" cy="44.14" r="2.2" fill="#c44b3a" opacity="0.58"/><circle cx="46.17" cy="62.40" r="2.2" fill="#c44b3a"/><circle cx="62.40" cy="46.17" r="2.2" fill="#c44b3a" opacity="0.58"/><circle cx="46.17" cy="63.42" r="2.2" fill="#c44b3a"/><circle cx="63.42" cy="46.17" r="2.2" fill="#c44b3a" opacity="0.58"/><circle cx="46.17" cy="68.49" r="2.2" fill="#c44b3a"/><circle cx="68.49" cy="46.17" r="2.2" fill="#c44b3a" opacity="0.58"/><circle cx="46.17" cy="70.52" r="2.2" fill="#c44b3a"/><circle cx="70.52" cy="46.17" r="2.2" fill="#c44b3a" opacity="0.58"/><circle cx="46.17" cy="76.61" r="2.2" fill="#c44b3a"/><circle cx="76.61" cy="46.17" r="2.2" fill="#c44b3a" opacity="0.58"/><circle cx="46.17" cy="78.63" r="2.2" fill="#c44b3a"/><circle cx="78.63" cy="46.17" r="2.2" fill="#c44b3a" opacity="0.58"/><circle cx="46.17" cy="85.73" r="2.2" fill="#c44b3a"/><circle cx="85.73" cy="46.17" r="2.2" fill="#c44b3a" opacity="0.58"/><circle cx="46.17" cy="89.79" r="2.2" fill="#c44b3a"/><circle cx="89.79" cy="46.17" r="2.2" fill="#c44b3a" opacity="0.58"/><circle cx="46.17" cy="93.85" r="2.2" fill="#c44b3a"/><circle cx="93.85" cy="46.17" r="2.2" fill="#c44b3a" opacity="0.58"/><circle cx="46.17" cy="94.86" r="2.2" fill="#c44b3a"/><circle cx="94.86" cy="46.17" r="2.2" fill="#c44b3a" opacity="0.58"/><circle cx="46.17" cy="96.89" r="2.2" fill="#c44b3a"/><circle cx="96.89" cy="46.17" r="2.2" fill="#c44b3a" opacity="0.58"/><circle cx="46.17" cy="108.05" r="2.2" fill="#c44b3a"/><circle cx="108.05" cy="46.17" r="2.2" fill="#c44b3a" opacity="0.58"/><circle cx="46.17" cy="109.07" r="2.2" fill="#c44b3a"/><circle cx="109.07" cy="46.17" r="2.2" fill="#c44b3a" opacity="0.58"/><circle cx="46.17" cy="115.15" r="2.2" fill="#c44b3a"/><circle cx="115.15" cy="46.17" r="2.2" fill="#c44b3a" opacity="0.58"/><circle cx="46.17" cy="119.21" r="2.2" fill="#c44b3a"/><circle cx="119.21" cy="46.17" r="2.2" fill="#c44b3a" opacity="0.58"/><circle cx="46.17" cy="121.24" r="2.2" fill="#c44b3a"/><circle cx="121.24" cy="46.17" r="2.2" fill="#c44b3a" opacity="0.58"/><circle cx="46.17" cy="122.25" r="2.2" fill="#c44b3a"/><circle cx="122.25" cy="46.17" r="2.2" fill="#c44b3a" opacity="0.58"/><circle cx="46.17" cy="125.30" r="2.2" fill="#c44b3a"/><circle cx="125.30" cy="46.17" r="2.2" fill="#c44b3a" opacity="0.58"/><circle cx="46.17" cy="137.47" r="2.2" fill="#c44b3a"/><circle cx="137.47" cy="46.17" r="2.2" fill="#c44b3a" opacity="0.58"/><circle cx="46.17" cy="139.50" r="2.2" fill="#c44b3a"/><circle cx="139.50" cy="46.17" r="2.2" fill="#c44b3a" opacity="0.58"/><circle cx="52.26" cy="68.49" r="2.2" fill="#c44b3a"/><circle cx="68.49" cy="52.26" r="2.2" fill="#c44b3a" opacity="0.58"/><circle cx="52.26" cy="70.52" r="2.2" fill="#c44b3a"/><circle cx="70.52" cy="52.26" r="2.2" fill="#c44b3a" opacity="0.58"/><circle cx="52.26" cy="76.61" r="2.2" fill="#c44b3a"/><circle cx="76.61" cy="52.26" r="2.2" fill="#c44b3a" opacity="0.58"/><circle cx="52.26" cy="78.63" r="2.2" fill="#c44b3a"/><circle cx="78.63" cy="52.26" r="2.2" fill="#c44b3a" opacity="0.58"/><circle cx="52.26" cy="119.21" r="2.2" fill="#c44b3a"/><circle cx="119.21" cy="52.26" r="2.2" fill="#c44b3a" opacity="0.58"/><circle cx="52.26" cy="125.30" r="2.2" fill="#c44b3a"/><circle cx="125.30" cy="52.26" r="2.2" fill="#c44b3a" opacity="0.58"/><circle cx="54.29" cy="58.35" r="2.2" fill="#c44b3a"/><circle cx="58.35" cy="54.29" r="2.2" fill="#c44b3a" opacity="0.58"/><circle cx="62.40" cy="78.63" r="2.2" fill="#c44b3a"/><circle cx="78.63" cy="62.40" r="2.2" fill="#c44b3a" opacity="0.58"/><circle cx="62.40" cy="85.73" r="2.2" fill="#c44b3a"/><circle cx="85.73" cy="62.40" r="2.2" fill="#c44b3a" opacity="0.58"/><circle cx="62.40" cy="89.79" r="2.2" fill="#c44b3a"/><circle cx="89.79" cy="62.40" r="2.2" fill="#c44b3a" opacity="0.58"/><circle cx="62.40" cy="93.85" r="2.2" fill="#c44b3a"/><circle cx="93.85" cy="62.40" r="2.2" fill="#c44b3a" opacity="0.58"/><circle cx="62.40" cy="94.86" r="2.2" fill="#c44b3a"/><circle cx="94.86" cy="62.40" r="2.2" fill="#c44b3a" opacity="0.58"/><circle cx="62.40" cy="96.89" r="2.2" fill="#c44b3a"/><circle cx="96.89" cy="62.40" r="2.2" fill="#c44b3a" opacity="0.58"/><circle cx="62.40" cy="108.05" r="2.2" fill="#c44b3a"/><circle cx="108.05" cy="62.40" r="2.2" fill="#c44b3a" opacity="0.58"/><circle cx="62.40" cy="109.07" r="2.2" fill="#c44b3a"/><circle cx="109.07" cy="62.40" r="2.2" fill="#c44b3a" opacity="0.58"/><circle cx="62.40" cy="115.15" r="2.2" fill="#c44b3a"/><circle cx="115.15" cy="62.40" r="2.2" fill="#c44b3a" opacity="0.58"/><circle cx="62.40" cy="119.21" r="2.2" fill="#c44b3a"/><circle cx="119.21" cy="62.40" r="2.2" fill="#c44b3a" opacity="0.58"/><circle cx="62.40" cy="121.24" r="2.2" fill="#c44b3a"/><circle cx="121.24" cy="62.40" r="2.2" fill="#c44b3a" opacity="0.58"/><circle cx="62.40" cy="122.25" r="2.2" fill="#c44b3a"/><circle cx="122.25" cy="62.40" r="2.2" fill="#c44b3a" opacity="0.58"/><circle cx="62.40" cy="125.30" r="2.2" fill="#c44b3a"/><circle cx="125.30" cy="62.40" r="2.2" fill="#c44b3a" opacity="0.58"/><circle cx="62.40" cy="130.37" r="2.2" fill="#c44b3a"/><circle cx="130.37" cy="62.40" r="2.2" fill="#c44b3a" opacity="0.58"/><circle cx="62.40" cy="136.46" r="2.2" fill="#c44b3a"/><circle cx="136.46" cy="62.40" r="2.2" fill="#c44b3a" opacity="0.58"/><circle cx="62.40" cy="137.47" r="2.2" fill="#c44b3a"/><circle cx="137.47" cy="62.40" r="2.2" fill="#c44b3a" opacity="0.58"/><circle cx="62.40" cy="139.50" r="2.2" fill="#c44b3a"/><circle cx="139.50" cy="62.40" r="2.2" fill="#c44b3a" opacity="0.58"/><circle cx="62.40" cy="149.64" r="2.2" fill="#c44b3a"/><circle cx="149.64" cy="62.40" r="2.2" fill="#c44b3a" opacity="0.58"/><circle cx="68.49" cy="85.73" r="2.2" fill="#c44b3a"/><circle cx="85.73" cy="68.49" r="2.2" fill="#c44b3a" opacity="0.58"/><circle cx="68.49" cy="89.79" r="2.2" fill="#c44b3a"/><circle cx="89.79" cy="68.49" r="2.2" fill="#c44b3a" opacity="0.58"/><circle cx="68.49" cy="93.85" r="2.2" fill="#c44b3a"/><circle cx="93.85" cy="68.49" r="2.2" fill="#c44b3a" opacity="0.58"/><circle cx="68.49" cy="94.86" r="2.2" fill="#c44b3a"/><circle cx="94.86" cy="68.49" r="2.2" fill="#c44b3a" opacity="0.58"/><circle cx="68.49" cy="96.89" r="2.2" fill="#c44b3a"/><circle cx="96.89" cy="68.49" r="2.2" fill="#c44b3a" opacity="0.58"/><circle cx="68.49" cy="108.05" r="2.2" fill="#c44b3a"/><circle cx="108.05" cy="68.49" r="2.2" fill="#c44b3a" opacity="0.58"/><circle cx="68.49" cy="109.07" r="2.2" fill="#c44b3a"/><circle cx="109.07" cy="68.49" r="2.2" fill="#c44b3a" opacity="0.58"/><circle cx="68.49" cy="115.15" r="2.2" fill="#c44b3a"/><circle cx="115.15" cy="68.49" r="2.2" fill="#c44b3a" opacity="0.58"/><circle cx="68.49" cy="119.21" r="2.2" fill="#c44b3a"/><circle cx="119.21" cy="68.49" r="2.2" fill="#c44b3a" opacity="0.58"/><circle cx="68.49" cy="121.24" r="2.2" fill="#c44b3a"/><circle cx="121.24" cy="68.49" r="2.2" fill="#c44b3a" opacity="0.58"/><circle cx="68.49" cy="122.25" r="2.2" fill="#c44b3a"/><circle cx="122.25" cy="68.49" r="2.2" fill="#c44b3a" opacity="0.58"/><circle cx="68.49" cy="125.30" r="2.2" fill="#c44b3a"/><circle cx="125.30" cy="68.49" r="2.2" fill="#c44b3a" opacity="0.58"/><circle cx="68.49" cy="130.37" r="2.2" fill="#c44b3a"/><circle cx="130.37" cy="68.49" r="2.2" fill="#c44b3a" opacity="0.58"/><circle cx="68.49" cy="136.46" r="2.2" fill="#c44b3a"/><circle cx="136.46" cy="68.49" r="2.2" fill="#c44b3a" opacity="0.58"/><circle cx="68.49" cy="137.47" r="2.2" fill="#c44b3a"/><circle cx="137.47" cy="68.49" r="2.2" fill="#c44b3a" opacity="0.58"/><circle cx="68.49" cy="139.50" r="2.2" fill="#c44b3a"/><circle cx="139.50" cy="68.49" r="2.2" fill="#c44b3a" opacity="0.58"/><circle cx="68.49" cy="149.64" r="2.2" fill="#c44b3a"/><circle cx="149.64" cy="68.49" r="2.2" fill="#c44b3a" opacity="0.58"/><circle cx="70.52" cy="89.79" r="2.2" fill="#c44b3a"/><circle cx="89.79" cy="70.52" r="2.2" fill="#c44b3a" opacity="0.58"/><circle cx="70.52" cy="93.85" r="2.2" fill="#c44b3a"/><circle cx="93.85" cy="70.52" r="2.2" fill="#c44b3a" opacity="0.58"/>
  <text x="34" y="412" font-family="Arial, sans-serif" font-size="11" fill="#58635e">row: visual_011_membrane_rhodopsin | contacts: 90</text>
</svg>
