<svg xmlns="http://www.w3.org/2000/svg" width="760" height="260" viewBox="0 0 760 260" role="img" aria-label="Coarse-grain final collapse">
  <rect width="760" height="260" fill="#f8faf7"/>
  <text x="34" y="24" font-family="Arial, sans-serif" font-size="15" fill="#22302d">Coarse-grain final collapse</text>
<line x1="97.46" y1="121.31" x2="375.53" y2="117.94" stroke="#25636a" stroke-opacity="0.22" stroke-width="1.2"/><line x1="84.12" y1="127.56" x2="133.19" y2="134.79" stroke="#25636a" stroke-opacity="0.22" stroke-width="1.2"/><line x1="179.67" y1="125.68" x2="313.96" y2="129.29" stroke="#25636a" stroke-opacity="0.22" stroke-width="1.2"/><line x1="179.67" y1="125.68" x2="363.68" y2="120.56" stroke="#25636a" stroke-opacity="0.22" stroke-width="1.2"/><line x1="179.67" y1="125.68" x2="375.53" y2="117.94" stroke="#25636a" stroke-opacity="0.22" stroke-width="1.2"/><line x1="179.67" y1="125.68" x2="390.00" y2="115.99" stroke="#25636a" stroke-opacity="0.22" stroke-width="1.2"/><line x1="179.67" y1="125.68" x2="537.60" y2="101.78" stroke="#25636a" stroke-opacity="0.22" stroke-width="1.2"/><line x1="110.12" y1="131.74" x2="159.19" y2="137.49" stroke="#25636a" stroke-opacity="0.22" stroke-width="1.2"/><line x1="123.12" y1="133.59" x2="168.88" y2="138.37" stroke="#25636a" stroke-opacity="0.22" stroke-width="1.2"/><line x1="133.19" y1="134.79" x2="185.01" y2="139.14" stroke="#25636a" stroke-opacity="0.22" stroke-width="1.2"/><line x1="159.19" y1="137.49" x2="211.01" y2="139.71" stroke="#25636a" stroke-opacity="0.22" stroke-width="1.2"/><line x1="185.01" y1="139.14" x2="237.00" y2="139.14" stroke="#25636a" stroke-opacity="0.22" stroke-width="1.2"/><line x1="211.01" y1="139.71" x2="259.68" y2="137.84" stroke="#25636a" stroke-opacity="0.22" stroke-width="1.2"/><line x1="237.00" y1="139.14" x2="285.68" y2="135.24" stroke="#25636a" stroke-opacity="0.22" stroke-width="1.2"/><line x1="253.12" y1="138.37" x2="298.88" y2="133.59" stroke="#25636a" stroke-opacity="0.22" stroke-width="1.2"/><line x1="375.53" y1="117.94" x2="635.29" y2="109.23" stroke="#25636a" stroke-opacity="0.22" stroke-width="1.2"/><line x1="435.12" y1="110.28" x2="484.19" y2="103.74" stroke="#25636a" stroke-opacity="0.22" stroke-width="1.2"/><line x1="484.19" y1="103.74" x2="536.01" y2="100.43" stroke="#25636a" stroke-opacity="0.22" stroke-width="1.2"/><line x1="500.12" y1="102.15" x2="549.19" y2="100.27" stroke="#25636a" stroke-opacity="0.22" stroke-width="1.2"/><line x1="536.01" y1="100.43" x2="588.00" y2="101.57" stroke="#25636a" stroke-opacity="0.22" stroke-width="1.2"/><line x1="549.19" y1="100.27" x2="597.69" y2="102.16" stroke="#25636a" stroke-opacity="0.22" stroke-width="1.2"/><line x1="588.00" y1="101.57" x2="640.00" y2="106.94" stroke="#25636a" stroke-opacity="0.22" stroke-width="1.2"/><line x1="617.12" y1="103.97" x2="666.19" y2="110.86" stroke="#25636a" stroke-opacity="0.22" stroke-width="1.2"/><line x1="640.00" y1="106.94" x2="688.68" y2="114.69" stroke="#25636a" stroke-opacity="0.22" stroke-width="1.2"/><line x1="666.19" y1="110.86" x2="714.69" y2="119.42" stroke="#25636a" stroke-opacity="0.22" stroke-width="1.2"/><line x1="97.46" y1="121.31" x2="422.82" y2="109.45" stroke="#25636a" stroke-opacity="0.22" stroke-width="1.2"/>
  <polyline points="42.00,120.00 97.46,121.31 68.00,124.79 84.12,127.56 179.67,125.68 110.12,131.74 123.12,133.59 133.19,134.79 146.00,136.46 159.19,137.49 168.88,138.37 185.01,139.14 198.00,139.85 211.01,139.71 224.00,139.85 237.00,139.14 253.12,138.37 259.68,137.84 276.00,136.46 285.68,135.24 298.88,133.59 315.00,131.36 313.96,129.29 341.00,127.09 354.00,124.79 367.00,122.41 363.68,120.56 375.53,117.94 390.00,115.99 419.00,112.91 435.12,110.28 422.82,109.45 458.00,106.74 471.00,105.03 484.19,103.74 500.12,102.15 510.00,101.30 523.00,100.58 536.01,100.43 549.19,100.27 537.60,101.78 575.00,100.58 588.00,101.57 597.69,102.16 617.12,103.97 627.00,105.03 640.00,106.94 635.29,109.23 666.19,110.86 679.00,112.91 688.68,114.69 705.00,117.59 714.69,119.42" fill="none" stroke="#7d8f86" stroke-width="3"/>
  <circle cx="42.00" cy="120.00" r="3.2" fill="#22302d"/><circle cx="97.46" cy="121.31" r="3.2" fill="#22302d"/><circle cx="68.00" cy="124.79" r="3.2" fill="#22302d"/><circle cx="84.12" cy="127.56" r="3.2" fill="#22302d"/><circle cx="179.67" cy="125.68" r="3.2" fill="#22302d"/><circle cx="110.12" cy="131.74" r="3.2" fill="#22302d"/><circle cx="123.12" cy="133.59" r="3.2" fill="#22302d"/><circle cx="133.19" cy="134.79" r="3.2" fill="#22302d"/><circle cx="146.00" cy="136.46" r="3.2" fill="#22302d"/><circle cx="159.19" cy="137.49" r="3.2" fill="#22302d"/><circle cx="168.88" cy="138.37" r="3.2" fill="#22302d"/><circle cx="185.01" cy="139.14" r="3.2" fill="#22302d"/><circle cx="198.00" cy="139.85" r="3.2" fill="#22302d"/><circle cx="211.01" cy="139.71" r="3.2" fill="#22302d"/><circle cx="224.00" cy="139.85" r="3.2" fill="#22302d"/><circle cx="237.00" cy="139.14" r="3.2" fill="#22302d"/><circle cx="253.12" cy="138.37" r="3.2" fill="#22302d"/><circle cx="259.68" cy="137.84" r="3.2" fill="#22302d"/><circle cx="276.00" cy="136.46" r="3.2" fill="#22302d"/><circle cx="285.68" cy="135.24" r="3.2" fill="#22302d"/><circle cx="298.88" cy="133.59" r="3.2" fill="#22302d"/><circle cx="315.00" cy="131.36" r="3.2" fill="#22302d"/><circle cx="313.96" cy="129.29" r="3.2" fill="#22302d"/><circle cx="341.00" cy="127.09" r="3.2" fill="#22302d"/><circle cx="354.00" cy="124.79" r="3.2" fill="#22302d"/><circle cx="367.00" cy="122.41" r="3.2" fill="#22302d"/><circle cx="363.68" cy="120.56" r="3.2" fill="#22302d"/><circle cx="375.53" cy="117.94" r="3.2" fill="#22302d"/><circle cx="390.00" cy="115.99" r="3.2" fill="#22302d"/><circle cx="419.00" cy="112.91" r="3.2" fill="#22302d"/><circle cx="435.12" cy="110.28" r="3.2" fill="#22302d"/><circle cx="422.82" cy="109.45" r="3.2" fill="#22302d"/><circle cx="458.00" cy="106.74" r="3.2" fill="#22302d"/><circle cx="471.00" cy="105.03" r="3.2" fill="#22302d"/><circle cx="484.19" cy="103.74" r="3.2" fill="#22302d"/><circle cx="500.12" cy="102.15" r="3.2" fill="#22302d"/><circle cx="510.00" cy="101.30" r="3.2" fill="#22302d"/><circle cx="523.00" cy="100.58" r="3.2" fill="#22302d"/><circle cx="536.01" cy="100.43" r="3.2" fill="#22302d"/><circle cx="549.19" cy="100.27" r="3.2" fill="#22302d"/><circle cx="537.60" cy="101.78" r="3.2" fill="#22302d"/><circle cx="575.00" cy="100.58" r="3.2" fill="#22302d"/><circle cx="588.00" cy="101.57" r="3.2" fill="#22302d"/><circle cx="597.69" cy="102.16" r="3.2" fill="#22302d"/><circle cx="617.12" cy="103.97" r="3.2" fill="#22302d"/><circle cx="627.00" cy="105.03" r="3.2" fill="#22302d"/><circle cx="640.00" cy="106.94" r="3.2" fill="#22302d"/><circle cx="635.29" cy="109.23" r="3.2" fill="#22302d"/><circle cx="666.19" cy="110.86" r="3.2" fill="#22302d"/><circle cx="679.00" cy="112.91" r="3.2" fill="#22302d"/><circle cx="688.68" cy="114.69" r="3.2" fill="#22302d"/><circle cx="705.00" cy="117.59" r="3.2" fill="#22302d"/><circle cx="714.69" cy="119.42" r="3.2" fill="#22302d"/>
  <text x="34" y="248" font-family="Arial, sans-serif" font-size="11" fill="#58635e">row: visual_002_alpha_gab | coarse beads, not atomic structure</text>
</svg>
