<svg xmlns="http://www.w3.org/2000/svg" width="420" height="420" viewBox="0 0 420 420" role="img" aria-label="Sequence-only predicted contact candidates">
  <rect width="420" height="420" fill="#f8faf7"/>
  <text x="34" y="22" font-family="Arial, sans-serif" font-size="14" fill="#22302d">Sequence-only predicted contact candidates</text>
  <line x1="34" y1="34" x2="34" y2="386" stroke="#9aa69f"/>
  <line x1="34" y1="386" x2="386" y2="386" stroke="#9aa69f"/>
  <line x1="34" y1="34" x2="386" y2="386" stroke="#cfd8d2" stroke-dasharray="4 4"/>
  <circle cx="40.77" cy="216.77" r="2.2" fill="#c44b3a"/><circle cx="216.77" cy="40.77" r="2.2" fill="#c44b3a" opacity="0.58"/><circle cx="40.77" cy="243.85" r="2.2" fill="#c44b3a"/><circle cx="243.85" cy="40.77" r="2.2" fill="#c44b3a" opacity="0.58"/><circle cx="54.31" cy="81.38" r="2.2" fill="#c44b3a"/><circle cx="81.38" cy="54.31" r="2.2" fill="#c44b3a" opacity="0.58"/><circle cx="61.08" cy="182.92" r="2.2" fill="#c44b3a"/><circle cx="182.92" cy="61.08" r="2.2" fill="#c44b3a" opacity="0.58"/><circle cx="61.08" cy="210.00" r="2.2" fill="#c44b3a"/><circle cx="210.00" cy="61.08" r="2.2" fill="#c44b3a" opacity="0.58"/><circle cx="61.08" cy="216.77" r="2.2" fill="#c44b3a"/><circle cx="216.77" cy="61.08" r="2.2" fill="#c44b3a" opacity="0.58"/><circle cx="61.08" cy="223.54" r="2.2" fill="#c44b3a"/><circle cx="223.54" cy="61.08" r="2.2" fill="#c44b3a" opacity="0.58"/><circle cx="61.08" cy="304.77" r="2.2" fill="#c44b3a"/><circle cx="304.77" cy="61.08" r="2.2" fill="#c44b3a" opacity="0.58"/><circle cx="67.85" cy="94.92" r="2.2" fill="#c44b3a"/><circle cx="94.92" cy="67.85" r="2.2" fill="#c44b3a" opacity="0.58"/><circle cx="74.62" cy="101.69" r="2.2" fill="#c44b3a"/><circle cx="101.69" cy="74.62" r="2.2" fill="#c44b3a" opacity="0.58"/><circle cx="81.38" cy="108.46" r="2.2" fill="#c44b3a"/><circle cx="108.46" cy="81.38" r="2.2" fill="#c44b3a" opacity="0.58"/><circle cx="94.92" cy="122.00" r="2.2" fill="#c44b3a"/><circle cx="122.00" cy="94.92" r="2.2" fill="#c44b3a" opacity="0.58"/><circle cx="108.46" cy="135.54" r="2.2" fill="#c44b3a"/><circle cx="135.54" cy="108.46" r="2.2" fill="#c44b3a" opacity="0.58"/><circle cx="122.00" cy="149.08" r="2.2" fill="#c44b3a"/><circle cx="149.08" cy="122.00" r="2.2" fill="#c44b3a" opacity="0.58"/><circle cx="135.54" cy="162.62" r="2.2" fill="#c44b3a"/><circle cx="162.62" cy="135.54" r="2.2" fill="#c44b3a" opacity="0.58"/><circle cx="142.31" cy="169.38" r="2.2" fill="#c44b3a"/><circle cx="169.38" cy="142.31" r="2.2" fill="#c44b3a" opacity="0.58"/><circle cx="216.77" cy="352.15" r="2.2" fill="#c44b3a"/><circle cx="352.15" cy="216.77" r="2.2" fill="#c44b3a" opacity="0.58"/><circle cx="237.08" cy="264.15" r="2.2" fill="#c44b3a"/><circle cx="264.15" cy="237.08" r="2.2" fill="#c44b3a" opacity="0.58"/><circle cx="264.15" cy="291.23" r="2.2" fill="#c44b3a"/><circle cx="291.23" cy="264.15" r="2.2" fill="#c44b3a" opacity="0.58"/><circle cx="270.92" cy="298.00" r="2.2" fill="#c44b3a"/><circle cx="298.00" cy="270.92" r="2.2" fill="#c44b3a" opacity="0.58"/><circle cx="291.23" cy="318.31" r="2.2" fill="#c44b3a"/><circle cx="318.31" cy="291.23" r="2.2" fill="#c44b3a" opacity="0.58"/><circle cx="298.00" cy="325.08" r="2.2" fill="#c44b3a"/><circle cx="325.08" cy="298.00" r="2.2" fill="#c44b3a" opacity="0.58"/><circle cx="318.31" cy="345.38" r="2.2" fill="#c44b3a"/><circle cx="345.38" cy="318.31" r="2.2" fill="#c44b3a" opacity="0.58"/><circle cx="331.85" cy="358.92" r="2.2" fill="#c44b3a"/><circle cx="358.92" cy="331.85" r="2.2" fill="#c44b3a" opacity="0.58"/><circle cx="345.38" cy="372.46" r="2.2" fill="#c44b3a"/><circle cx="372.46" cy="345.38" r="2.2" fill="#c44b3a" opacity="0.58"/><circle cx="358.92" cy="386.00" r="2.2" fill="#c44b3a"/><circle cx="386.00" cy="358.92" r="2.2" fill="#c44b3a" opacity="0.58"/>
  <text x="34" y="412" font-family="Arial, sans-serif" font-size="11" fill="#58635e">row: visual_002_alpha_gab | contacts: 26</text>
</svg>
