<svg xmlns="http://www.w3.org/2000/svg" width="420" height="420" viewBox="0 0 420 420" role="img" aria-label="Repaired sequence-only contact candidates">
  <rect width="420" height="420" fill="#f8faf7"/>
  <text x="34" y="22" font-family="Arial, sans-serif" font-size="14" fill="#22302d">Repaired sequence-only contact candidates</text>
  <line x1="34" y1="34" x2="34" y2="386" stroke="#9aa69f"/>
  <line x1="34" y1="386" x2="386" y2="386" stroke="#9aa69f"/>
  <line x1="34" y1="34" x2="386" y2="386" stroke="#cfd8d2" stroke-dasharray="4 4"/>
  <circle cx="38.79" cy="48.37" r="2.2" fill="#c44b3a"/><circle cx="48.37" cy="38.79" r="2.2" fill="#c44b3a" opacity="0.58"/><circle cx="45.97" cy="93.86" r="2.2" fill="#c44b3a"/><circle cx="93.86" cy="45.97" r="2.2" fill="#c44b3a" opacity="0.58"/><circle cx="48.37" cy="57.95" r="2.2" fill="#c44b3a"/><circle cx="57.95" cy="48.37" r="2.2" fill="#c44b3a" opacity="0.58"/><circle cx="53.16" cy="96.26" r="2.2" fill="#c44b3a"/><circle cx="96.26" cy="53.16" r="2.2" fill="#c44b3a" opacity="0.58"/><circle cx="53.16" cy="115.41" r="2.2" fill="#c44b3a"/><circle cx="115.41" cy="53.16" r="2.2" fill="#c44b3a" opacity="0.58"/><circle cx="53.16" cy="163.31" r="2.2" fill="#c44b3a"/><circle cx="163.31" cy="53.16" r="2.2" fill="#c44b3a" opacity="0.58"/><circle cx="53.16" cy="182.46" r="2.2" fill="#c44b3a"/><circle cx="182.46" cy="53.16" r="2.2" fill="#c44b3a" opacity="0.58"/><circle cx="53.16" cy="187.25" r="2.2" fill="#c44b3a"/><circle cx="187.25" cy="53.16" r="2.2" fill="#c44b3a" opacity="0.58"/><circle cx="53.16" cy="235.14" r="2.2" fill="#c44b3a"/><circle cx="235.14" cy="53.16" r="2.2" fill="#c44b3a" opacity="0.58"/><circle cx="53.16" cy="244.72" r="2.2" fill="#c44b3a"/><circle cx="244.72" cy="53.16" r="2.2" fill="#c44b3a" opacity="0.58"/><circle cx="53.16" cy="268.67" r="2.2" fill="#c44b3a"/><circle cx="268.67" cy="53.16" r="2.2" fill="#c44b3a" opacity="0.58"/><circle cx="57.95" cy="67.52" r="2.2" fill="#c44b3a"/><circle cx="67.52" cy="57.95" r="2.2" fill="#c44b3a" opacity="0.58"/><circle cx="60.34" cy="117.81" r="2.2" fill="#c44b3a"/><circle cx="117.81" cy="60.34" r="2.2" fill="#c44b3a" opacity="0.58"/><circle cx="77.10" cy="115.41" r="2.2" fill="#c44b3a"/><circle cx="115.41" cy="77.10" r="2.2" fill="#c44b3a" opacity="0.58"/><circle cx="77.10" cy="163.31" r="2.2" fill="#c44b3a"/><circle cx="163.31" cy="77.10" r="2.2" fill="#c44b3a" opacity="0.58"/><circle cx="77.10" cy="182.46" r="2.2" fill="#c44b3a"/><circle cx="182.46" cy="77.10" r="2.2" fill="#c44b3a" opacity="0.58"/><circle cx="77.10" cy="187.25" r="2.2" fill="#c44b3a"/><circle cx="187.25" cy="77.10" r="2.2" fill="#c44b3a" opacity="0.58"/><circle cx="77.10" cy="194.44" r="2.2" fill="#c44b3a"/><circle cx="194.44" cy="77.10" r="2.2" fill="#c44b3a" opacity="0.58"/><circle cx="77.10" cy="235.14" r="2.2" fill="#c44b3a"/><circle cx="235.14" cy="77.10" r="2.2" fill="#c44b3a" opacity="0.58"/><circle cx="77.10" cy="244.72" r="2.2" fill="#c44b3a"/><circle cx="244.72" cy="77.10" r="2.2" fill="#c44b3a" opacity="0.58"/><circle cx="77.10" cy="249.51" r="2.2" fill="#c44b3a"/><circle cx="249.51" cy="77.10" r="2.2" fill="#c44b3a" opacity="0.58"/><circle cx="77.10" cy="251.90" r="2.2" fill="#c44b3a"/><circle cx="251.90" cy="77.10" r="2.2" fill="#c44b3a" opacity="0.58"/><circle cx="77.10" cy="268.67" r="2.2" fill="#c44b3a"/><circle cx="268.67" cy="77.10" r="2.2" fill="#c44b3a" opacity="0.58"/><circle cx="89.07" cy="136.97" r="2.2" fill="#c44b3a"/><circle cx="136.97" cy="89.07" r="2.2" fill="#c44b3a" opacity="0.58"/><circle cx="96.26" cy="163.31" r="2.2" fill="#c44b3a"/><circle cx="163.31" cy="96.26" r="2.2" fill="#c44b3a" opacity="0.58"/><circle cx="96.26" cy="182.46" r="2.2" fill="#c44b3a"/><circle cx="182.46" cy="96.26" r="2.2" fill="#c44b3a" opacity="0.58"/><circle cx="96.26" cy="187.25" r="2.2" fill="#c44b3a"/><circle cx="187.25" cy="96.26" r="2.2" fill="#c44b3a" opacity="0.58"/><circle cx="96.26" cy="235.14" r="2.2" fill="#c44b3a"/><circle cx="235.14" cy="96.26" r="2.2" fill="#c44b3a" opacity="0.58"/><circle cx="96.26" cy="244.72" r="2.2" fill="#c44b3a"/><circle cx="244.72" cy="96.26" r="2.2" fill="#c44b3a" opacity="0.58"/><circle cx="96.26" cy="268.67" r="2.2" fill="#c44b3a"/><circle cx="268.67" cy="96.26" r="2.2" fill="#c44b3a" opacity="0.58"/><circle cx="115.41" cy="187.25" r="2.2" fill="#c44b3a"/><circle cx="187.25" cy="115.41" r="2.2" fill="#c44b3a" opacity="0.58"/><circle cx="115.41" cy="244.72" r="2.2" fill="#c44b3a"/><circle cx="244.72" cy="115.41" r="2.2" fill="#c44b3a" opacity="0.58"/><circle cx="115.41" cy="268.67" r="2.2" fill="#c44b3a"/><circle cx="268.67" cy="115.41" r="2.2" fill="#c44b3a" opacity="0.58"/><circle cx="120.20" cy="129.78" r="2.2" fill="#c44b3a"/><circle cx="129.78" cy="120.20" r="2.2" fill="#c44b3a" opacity="0.58"/><circle cx="129.78" cy="139.36" r="2.2" fill="#c44b3a"/><circle cx="139.36" cy="129.78" r="2.2" fill="#c44b3a" opacity="0.58"/><circle cx="132.18" cy="180.07" r="2.2" fill="#c44b3a"/><circle cx="180.07" cy="132.18" r="2.2" fill="#c44b3a" opacity="0.58"/><circle cx="139.36" cy="148.94" r="2.2" fill="#c44b3a"/><circle cx="148.94" cy="139.36" r="2.2" fill="#c44b3a" opacity="0.58"/><circle cx="144.15" cy="153.73" r="2.2" fill="#c44b3a"/><circle cx="153.73" cy="144.15" r="2.2" fill="#c44b3a" opacity="0.58"/><circle cx="151.33" cy="208.80" r="2.2" fill="#c44b3a"/><circle cx="208.80" cy="151.33" r="2.2" fill="#c44b3a" opacity="0.58"/><circle cx="163.31" cy="244.72" r="2.2" fill="#c44b3a"/><circle cx="244.72" cy="163.31" r="2.2" fill="#c44b3a" opacity="0.58"/><circle cx="163.31" cy="268.67" r="2.2" fill="#c44b3a"/><circle cx="268.67" cy="163.31" r="2.2" fill="#c44b3a" opacity="0.58"/><circle cx="163.31" cy="369.24" r="2.2" fill="#c44b3a"/><circle cx="369.24" cy="163.31" r="2.2" fill="#c44b3a" opacity="0.58"/><circle cx="175.28" cy="223.17" r="2.2" fill="#c44b3a"/><circle cx="223.17" cy="175.28" r="2.2" fill="#c44b3a" opacity="0.58"/><circle cx="182.46" cy="244.72" r="2.2" fill="#c44b3a"/><circle cx="244.72" cy="182.46" r="2.2" fill="#c44b3a" opacity="0.58"/><circle cx="182.46" cy="268.67" r="2.2" fill="#c44b3a"/><circle cx="268.67" cy="182.46" r="2.2" fill="#c44b3a" opacity="0.58"/><circle cx="182.46" cy="369.24" r="2.2" fill="#c44b3a"/><circle cx="369.24" cy="182.46" r="2.2" fill="#c44b3a" opacity="0.58"/><circle cx="187.25" cy="235.14" r="2.2" fill="#c44b3a"/><circle cx="235.14" cy="187.25" r="2.2" fill="#c44b3a" opacity="0.58"/><circle cx="187.25" cy="244.72" r="2.2" fill="#c44b3a"/><circle cx="244.72" cy="187.25" r="2.2" fill="#c44b3a" opacity="0.58"/><circle cx="187.25" cy="249.51" r="2.2" fill="#c44b3a"/><circle cx="249.51" cy="187.25" r="2.2" fill="#c44b3a" opacity="0.58"/><circle cx="187.25" cy="251.90" r="2.2" fill="#c44b3a"/><circle cx="251.90" cy="187.25" r="2.2" fill="#c44b3a" opacity="0.58"/><circle cx="187.25" cy="268.67" r="2.2" fill="#c44b3a"/><circle cx="268.67" cy="187.25" r="2.2" fill="#c44b3a" opacity="0.58"/><circle cx="187.25" cy="321.35" r="2.2" fill="#c44b3a"/><circle cx="321.35" cy="187.25" r="2.2" fill="#c44b3a" opacity="0.58"/><circle cx="187.25" cy="330.93" r="2.2" fill="#c44b3a"/><circle cx="330.93" cy="187.25" r="2.2" fill="#c44b3a" opacity="0.58"/><circle cx="187.25" cy="362.05" r="2.2" fill="#c44b3a"/><circle cx="362.05" cy="187.25" r="2.2" fill="#c44b3a" opacity="0.58"/><circle cx="187.25" cy="369.24" r="2.2" fill="#c44b3a"/><circle cx="369.24" cy="187.25" r="2.2" fill="#c44b3a" opacity="0.58"/><circle cx="192.04" cy="201.62" r="2.2" fill="#c44b3a"/><circle cx="201.62" cy="192.04" r="2.2" fill="#c44b3a" opacity="0.58"/><circle cx="196.83" cy="206.41" r="2.2" fill="#c44b3a"/><circle cx="206.41" cy="196.83" r="2.2" fill="#c44b3a" opacity="0.58"/><circle cx="201.62" cy="211.20" r="2.2" fill="#c44b3a"/><circle cx="211.20" cy="201.62" r="2.2" fill="#c44b3a" opacity="0.58"/><circle cx="206.41" cy="215.99" r="2.2" fill="#c44b3a"/><circle cx="215.99" cy="206.41" r="2.2" fill="#c44b3a" opacity="0.58"/><circle cx="218.38" cy="266.27" r="2.2" fill="#c44b3a"/><circle cx="266.27" cy="218.38" r="2.2" fill="#c44b3a" opacity="0.58"/><circle cx="230.35" cy="239.93" r="2.2" fill="#c44b3a"/><circle cx="239.93" cy="230.35" r="2.2" fill="#c44b3a" opacity="0.58"/><circle cx="235.14" cy="369.24" r="2.2" fill="#c44b3a"/><circle cx="369.24" cy="235.14" r="2.2" fill="#c44b3a" opacity="0.58"/><circle cx="242.33" cy="299.80" r="2.2" fill="#c44b3a"/><circle cx="299.80" cy="242.33" r="2.2" fill="#c44b3a" opacity="0.58"/><circle cx="244.72" cy="321.35" r="2.2" fill="#c44b3a"/><circle cx="321.35" cy="244.72" r="2.2" fill="#c44b3a" opacity="0.58"/><circle cx="244.72" cy="330.93" r="2.2" fill="#c44b3a"/><circle cx="330.93" cy="244.72" r="2.2" fill="#c44b3a" opacity="0.58"/><circle cx="244.72" cy="362.05" r="2.2" fill="#c44b3a"/><circle cx="362.05" cy="244.72" r="2.2" fill="#c44b3a" opacity="0.58"/><circle cx="244.72" cy="369.24" r="2.2" fill="#c44b3a"/><circle cx="369.24" cy="244.72" r="2.2" fill="#c44b3a" opacity="0.58"/><circle cx="249.51" cy="369.24" r="2.2" fill="#c44b3a"/><circle cx="369.24" cy="249.51" r="2.2" fill="#c44b3a" opacity="0.58"/><circle cx="261.48" cy="309.37" r="2.2" fill="#c44b3a"/><circle cx="309.37" cy="261.48" r="2.2" fill="#c44b3a" opacity="0.58"/><circle cx="268.67" cy="321.35" r="2.2" fill="#c44b3a"/><circle cx="321.35" cy="268.67" r="2.2" fill="#c44b3a" opacity="0.58"/><circle cx="268.67" cy="330.93" r="2.2" fill="#c44b3a"/><circle cx="330.93" cy="268.67" r="2.2" fill="#c44b3a" opacity="0.58"/><circle cx="268.67" cy="362.05" r="2.2" fill="#c44b3a"/><circle cx="362.05" cy="268.67" r="2.2" fill="#c44b3a" opacity="0.58"/><circle cx="268.67" cy="369.24" r="2.2" fill="#c44b3a"/><circle cx="369.24" cy="268.67" r="2.2" fill="#c44b3a" opacity="0.58"/><circle cx="278.24" cy="287.82" r="2.2" fill="#c44b3a"/><circle cx="287.82" cy="278.24" r="2.2" fill="#c44b3a" opacity="0.58"/><circle cx="283.03" cy="292.61" r="2.2" fill="#c44b3a"/><circle cx="292.61" cy="283.03" r="2.2" fill="#c44b3a" opacity="0.58"/><circle cx="304.59" cy="352.48" r="2.2" fill="#c44b3a"/><circle cx="352.48" cy="304.59" r="2.2" fill="#c44b3a" opacity="0.58"/><circle cx="306.98" cy="316.56" r="2.2" fill="#c44b3a"/><circle cx="316.56" cy="306.98" r="2.2" fill="#c44b3a" opacity="0.58"/><circle cx="316.56" cy="326.14" r="2.2" fill="#c44b3a"/><circle cx="326.14" cy="316.56" r="2.2" fill="#c44b3a" opacity="0.58"/><circle cx="321.35" cy="369.24" r="2.2" fill="#c44b3a"/><circle cx="369.24" cy="321.35" r="2.2" fill="#c44b3a" opacity="0.58"/><circle cx="326.14" cy="335.71" r="2.2" fill="#c44b3a"/><circle cx="335.71" cy="326.14" r="2.2" fill="#c44b3a" opacity="0.58"/><circle cx="330.93" cy="369.24" r="2.2" fill="#c44b3a"/><circle cx="369.24" cy="330.93" r="2.2" fill="#c44b3a" opacity="0.58"/><circle cx="354.87" cy="364.45" r="2.2" fill="#c44b3a"/><circle cx="364.45" cy="354.87" r="2.2" fill="#c44b3a" opacity="0.58"/><circle cx="364.45" cy="374.03" r="2.2" fill="#c44b3a"/><circle cx="374.03" cy="364.45" r="2.2" fill="#c44b3a" opacity="0.58"/><circle cx="374.03" cy="383.61" r="2.2" fill="#c44b3a"/><circle cx="383.61" cy="374.03" r="2.2" fill="#c44b3a" opacity="0.58"/>
  <text x="34" y="412" font-family="Arial, sans-serif" font-size="11" fill="#58635e">row: visual_012_arch_calmodulin | contacts: 84</text>
</svg>
