<svg xmlns="http://www.w3.org/2000/svg" width="760" height="260" viewBox="0 0 760 260" role="img" aria-label="Repaired coarse-grain final collapse">
  <rect width="760" height="260" fill="#f8faf7"/>
  <text x="34" y="24" font-family="Arial, sans-serif" font-size="15" fill="#22302d">Repaired coarse-grain final collapse</text>
<line x1="44.62" y1="120.47" x2="85.77" y2="127.84" stroke="#25636a" stroke-opacity="0.22" stroke-width="1.2"/><line x1="77.33" y1="126.41" x2="118.48" y2="132.93" stroke="#25636a" stroke-opacity="0.22" stroke-width="1.2"/><line x1="85.77" y1="127.84" x2="129.24" y2="134.35" stroke="#25636a" stroke-opacity="0.22" stroke-width="1.2"/><line x1="118.48" y1="132.93" x2="177.64" y2="136.24" stroke="#25636a" stroke-opacity="0.22" stroke-width="1.2"/><line x1="129.24" y1="134.35" x2="170.06" y2="138.47" stroke="#25636a" stroke-opacity="0.22" stroke-width="1.2"/><line x1="177.64" y1="136.24" x2="205.55" y2="139.77" stroke="#25636a" stroke-opacity="0.22" stroke-width="1.2"/><line x1="277.07" y1="130.52" x2="407.02" y2="112.36" stroke="#25636a" stroke-opacity="0.22" stroke-width="1.2"/><line x1="277.07" y1="130.52" x2="522.47" y2="104.71" stroke="#25636a" stroke-opacity="0.22" stroke-width="1.2"/><line x1="277.07" y1="130.52" x2="556.70" y2="105.77" stroke="#25636a" stroke-opacity="0.22" stroke-width="1.2"/><line x1="277.07" y1="130.52" x2="573.56" y2="110.47" stroke="#25636a" stroke-opacity="0.22" stroke-width="1.2"/><line x1="281.52" y1="131.10" x2="522.47" y2="104.71" stroke="#25636a" stroke-opacity="0.22" stroke-width="1.2"/><line x1="205.55" y1="139.77" x2="249.16" y2="138.56" stroke="#25636a" stroke-opacity="0.22" stroke-width="1.2"/><line x1="229.97" y1="139.60" x2="271.12" y2="136.80" stroke="#25636a" stroke-opacity="0.22" stroke-width="1.2"/><line x1="249.16" y1="138.56" x2="306.02" y2="132.35" stroke="#25636a" stroke-opacity="0.22" stroke-width="1.2"/><line x1="271.12" y1="136.80" x2="298.89" y2="131.64" stroke="#25636a" stroke-opacity="0.22" stroke-width="1.2"/><line x1="306.02" y1="132.35" x2="333.60" y2="128.30" stroke="#25636a" stroke-opacity="0.22" stroke-width="1.2"/><line x1="306.29" y1="132.61" x2="347.45" y2="125.90" stroke="#25636a" stroke-opacity="0.22" stroke-width="1.2"/><line x1="347.45" y1="125.90" x2="388.13" y2="118.48" stroke="#25636a" stroke-opacity="0.22" stroke-width="1.2"/><line x1="371.71" y1="121.54" x2="412.87" y2="114.04" stroke="#25636a" stroke-opacity="0.22" stroke-width="1.2"/><line x1="412.87" y1="114.04" x2="453.55" y2="107.42" stroke="#25636a" stroke-opacity="0.22" stroke-width="1.2"/><line x1="407.02" y1="112.36" x2="573.56" y2="110.47" stroke="#25636a" stroke-opacity="0.22" stroke-width="1.2"/><line x1="480.75" y1="103.97" x2="519.13" y2="100.85" stroke="#25636a" stroke-opacity="0.22" stroke-width="1.2"/><line x1="500.21" y1="103.16" x2="551.83" y2="100.10" stroke="#25636a" stroke-opacity="0.22" stroke-width="1.2"/><line x1="578.87" y1="100.85" x2="617.25" y2="103.97" stroke="#25636a" stroke-opacity="0.22" stroke-width="1.2"/><line x1="281.52" y1="131.10" x2="422.47" y2="112.95" stroke="#25636a" stroke-opacity="0.22" stroke-width="1.2"/><line x1="277.07" y1="130.52" x2="422.47" y2="112.95" stroke="#25636a" stroke-opacity="0.22" stroke-width="1.2"/><line x1="281.52" y1="131.10" x2="573.56" y2="110.47" stroke="#25636a" stroke-opacity="0.22" stroke-width="1.2"/><line x1="422.47" y1="112.95" x2="573.56" y2="110.47" stroke="#25636a" stroke-opacity="0.22" stroke-width="1.2"/><line x1="306.02" y1="132.35" x2="500.21" y2="103.16" stroke="#25636a" stroke-opacity="0.22" stroke-width="1.2"/><line x1="281.52" y1="131.10" x2="407.02" y2="112.36" stroke="#25636a" stroke-opacity="0.22" stroke-width="1.2"/><line x1="281.52" y1="131.10" x2="556.70" y2="105.77" stroke="#25636a" stroke-opacity="0.22" stroke-width="1.2"/><line x1="109.43" y1="129.83" x2="298.89" y2="131.64" stroke="#25636a" stroke-opacity="0.22" stroke-width="1.2"/><line x1="177.64" y1="136.24" x2="407.91" y2="113.65" stroke="#25636a" stroke-opacity="0.22" stroke-width="1.2"/><line x1="502.12" y1="103.92" x2="694.01" y2="117.08" stroke="#25636a" stroke-opacity="0.22" stroke-width="1.2"/><line x1="75.51" y1="121.41" x2="407.02" y2="112.36" stroke="#25636a" stroke-opacity="0.22" stroke-width="1.2"/>
  <polyline points="44.62,120.47 75.51,121.41 63.81,124.03 77.33,126.41 85.77,127.84 109.43,129.83 107.42,131.43 118.48,132.93 129.24,134.35 140.13,135.82 151.03,136.97 177.64,136.24 170.06,138.47 277.07,130.52 281.52,131.10 205.55,139.77 216.45,139.97 229.97,139.60 238.26,139.36 249.16,138.56 260.06,137.96 271.12,136.80 281.87,135.82 306.02,132.35 306.29,132.61 298.89,131.64 325.48,129.71 333.60,128.30 347.45,125.90 358.19,124.03 371.71,121.54 380.00,120.00 388.13,118.48 401.81,115.97 412.87,114.04 407.91,113.65 422.47,112.95 407.02,112.36 453.55,107.42 467.23,105.50 480.75,103.97 502.12,103.92 499.94,102.04 500.21,103.16 519.13,100.85 532.65,100.23 543.55,100.03 551.83,100.10 522.47,104.71 578.87,100.85 587.16,101.24 556.70,105.77 608.97,103.03 617.25,103.97 630.77,105.50 573.56,110.47 652.58,108.57 663.48,110.29 674.39,112.11 685.29,114.01 696.19,115.97 694.01,117.08 718.00,120.00" fill="none" stroke="#7d8f86" stroke-width="3"/>
  <circle cx="44.62" cy="120.47" r="3.2" fill="#22302d"/><circle cx="75.51" cy="121.41" r="3.2" fill="#22302d"/><circle cx="63.81" cy="124.03" r="3.2" fill="#22302d"/><circle cx="77.33" cy="126.41" r="3.2" fill="#22302d"/><circle cx="85.77" cy="127.84" r="3.2" fill="#22302d"/><circle cx="109.43" cy="129.83" r="3.2" fill="#22302d"/><circle cx="107.42" cy="131.43" r="3.2" fill="#22302d"/><circle cx="118.48" cy="132.93" r="3.2" fill="#22302d"/><circle cx="129.24" cy="134.35" r="3.2" fill="#22302d"/><circle cx="140.13" cy="135.82" r="3.2" fill="#22302d"/><circle cx="151.03" cy="136.97" r="3.2" fill="#22302d"/><circle cx="177.64" cy="136.24" r="3.2" fill="#22302d"/><circle cx="170.06" cy="138.47" r="3.2" fill="#22302d"/><circle cx="277.07" cy="130.52" r="3.2" fill="#22302d"/><circle cx="281.52" cy="131.10" r="3.2" fill="#22302d"/><circle cx="205.55" cy="139.77" r="3.2" fill="#22302d"/><circle cx="216.45" cy="139.97" r="3.2" fill="#22302d"/><circle cx="229.97" cy="139.60" r="3.2" fill="#22302d"/><circle cx="238.26" cy="139.36" r="3.2" fill="#22302d"/><circle cx="249.16" cy="138.56" r="3.2" fill="#22302d"/><circle cx="260.06" cy="137.96" r="3.2" fill="#22302d"/><circle cx="271.12" cy="136.80" r="3.2" fill="#22302d"/><circle cx="281.87" cy="135.82" r="3.2" fill="#22302d"/><circle cx="306.02" cy="132.35" r="3.2" fill="#22302d"/><circle cx="306.29" cy="132.61" r="3.2" fill="#22302d"/><circle cx="298.89" cy="131.64" r="3.2" fill="#22302d"/><circle cx="325.48" cy="129.71" r="3.2" fill="#22302d"/><circle cx="333.60" cy="128.30" r="3.2" fill="#22302d"/><circle cx="347.45" cy="125.90" r="3.2" fill="#22302d"/><circle cx="358.19" cy="124.03" r="3.2" fill="#22302d"/><circle cx="371.71" cy="121.54" r="3.2" fill="#22302d"/><circle cx="380.00" cy="120.00" r="3.2" fill="#22302d"/><circle cx="388.13" cy="118.48" r="3.2" fill="#22302d"/><circle cx="401.81" cy="115.97" r="3.2" fill="#22302d"/><circle cx="412.87" cy="114.04" r="3.2" fill="#22302d"/><circle cx="407.91" cy="113.65" r="3.2" fill="#22302d"/><circle cx="422.47" cy="112.95" r="3.2" fill="#22302d"/><circle cx="407.02" cy="112.36" r="3.2" fill="#22302d"/><circle cx="453.55" cy="107.42" r="3.2" fill="#22302d"/><circle cx="467.23" cy="105.50" r="3.2" fill="#22302d"/><circle cx="480.75" cy="103.97" r="3.2" fill="#22302d"/><circle cx="502.12" cy="103.92" r="3.2" fill="#22302d"/><circle cx="499.94" cy="102.04" r="3.2" fill="#22302d"/><circle cx="500.21" cy="103.16" r="3.2" fill="#22302d"/><circle cx="519.13" cy="100.85" r="3.2" fill="#22302d"/><circle cx="532.65" cy="100.23" r="3.2" fill="#22302d"/><circle cx="543.55" cy="100.03" r="3.2" fill="#22302d"/><circle cx="551.83" cy="100.10" r="3.2" fill="#22302d"/><circle cx="522.47" cy="104.71" r="3.2" fill="#22302d"/><circle cx="578.87" cy="100.85" r="3.2" fill="#22302d"/><circle cx="587.16" cy="101.24" r="3.2" fill="#22302d"/><circle cx="556.70" cy="105.77" r="3.2" fill="#22302d"/><circle cx="608.97" cy="103.03" r="3.2" fill="#22302d"/><circle cx="617.25" cy="103.97" r="3.2" fill="#22302d"/><circle cx="630.77" cy="105.50" r="3.2" fill="#22302d"/><circle cx="573.56" cy="110.47" r="3.2" fill="#22302d"/><circle cx="652.58" cy="108.57" r="3.2" fill="#22302d"/><circle cx="663.48" cy="110.29" r="3.2" fill="#22302d"/><circle cx="674.39" cy="112.11" r="3.2" fill="#22302d"/><circle cx="685.29" cy="114.01" r="3.2" fill="#22302d"/><circle cx="696.19" cy="115.97" r="3.2" fill="#22302d"/><circle cx="694.01" cy="117.08" r="3.2" fill="#22302d"/><circle cx="718.00" cy="120.00" r="3.2" fill="#22302d"/>
  <text x="34" y="248" font-family="Arial, sans-serif" font-size="11" fill="#58635e">row: visual_001_alpha_rop | coarse beads, not atomic structure</text>
</svg>
