<svg xmlns="http://www.w3.org/2000/svg" width="760" height="260" viewBox="0 0 760 260" role="img" aria-label="Coarse-grain final collapse">
  <rect width="760" height="260" fill="#f8faf7"/>
  <text x="34" y="24" font-family="Arial, sans-serif" font-size="15" fill="#22302d">Coarse-grain final collapse</text>
<line x1="134.00" y1="123.21" x2="232.71" y2="132.86" stroke="#25636a" stroke-opacity="0.22" stroke-width="1.2"/><line x1="134.00" y1="123.21" x2="260.12" y2="132.03" stroke="#25636a" stroke-opacity="0.22" stroke-width="1.2"/><line x1="134.00" y1="123.21" x2="346.96" y2="117.26" stroke="#25636a" stroke-opacity="0.22" stroke-width="1.2"/><line x1="134.00" y1="123.21" x2="425.56" y2="113.14" stroke="#25636a" stroke-opacity="0.22" stroke-width="1.2"/><line x1="73.15" y1="125.70" x2="100.89" y2="130.36" stroke="#25636a" stroke-opacity="0.22" stroke-width="1.2"/><line x1="190.14" y1="125.29" x2="232.71" y2="132.86" stroke="#25636a" stroke-opacity="0.22" stroke-width="1.2"/><line x1="190.14" y1="125.29" x2="228.77" y2="135.93" stroke="#25636a" stroke-opacity="0.22" stroke-width="1.2"/><line x1="190.14" y1="125.29" x2="299.15" y2="129.80" stroke="#25636a" stroke-opacity="0.22" stroke-width="1.2"/><line x1="190.14" y1="125.29" x2="260.12" y2="132.03" stroke="#25636a" stroke-opacity="0.22" stroke-width="1.2"/><line x1="190.14" y1="125.29" x2="270.74" y2="134.03" stroke="#25636a" stroke-opacity="0.22" stroke-width="1.2"/><line x1="190.14" y1="125.29" x2="346.96" y2="117.26" stroke="#25636a" stroke-opacity="0.22" stroke-width="1.2"/><line x1="190.14" y1="125.29" x2="425.56" y2="113.14" stroke="#25636a" stroke-opacity="0.22" stroke-width="1.2"/><line x1="190.14" y1="125.29" x2="527.76" y2="106.78" stroke="#25636a" stroke-opacity="0.22" stroke-width="1.2"/><line x1="245.05" y1="123.27" x2="299.15" y2="129.80" stroke="#25636a" stroke-opacity="0.22" stroke-width="1.2"/><line x1="245.05" y1="123.27" x2="238.54" y2="138.23" stroke="#25636a" stroke-opacity="0.22" stroke-width="1.2"/><line x1="245.05" y1="123.27" x2="260.12" y2="132.03" stroke="#25636a" stroke-opacity="0.22" stroke-width="1.2"/><line x1="245.05" y1="123.27" x2="270.74" y2="134.03" stroke="#25636a" stroke-opacity="0.22" stroke-width="1.2"/><line x1="245.05" y1="123.27" x2="342.62" y2="124.06" stroke="#25636a" stroke-opacity="0.22" stroke-width="1.2"/><line x1="245.05" y1="123.27" x2="346.96" y2="117.26" stroke="#25636a" stroke-opacity="0.22" stroke-width="1.2"/><line x1="245.05" y1="123.27" x2="449.27" y2="106.99" stroke="#25636a" stroke-opacity="0.22" stroke-width="1.2"/><line x1="245.05" y1="123.27" x2="425.56" y2="113.14" stroke="#25636a" stroke-opacity="0.22" stroke-width="1.2"/><line x1="245.05" y1="123.27" x2="544.04" y2="104.42" stroke="#25636a" stroke-opacity="0.22" stroke-width="1.2"/><line x1="245.05" y1="123.27" x2="624.37" y2="113.84" stroke="#25636a" stroke-opacity="0.22" stroke-width="1.2"/><line x1="100.89" y1="130.36" x2="128.30" y2="134.35" stroke="#25636a" stroke-opacity="0.22" stroke-width="1.2"/><line x1="109.89" y1="131.77" x2="135.76" y2="135.28" stroke="#25636a" stroke-opacity="0.22" stroke-width="1.2"/><line x1="117.24" y1="132.84" x2="144.98" y2="136.28" stroke="#25636a" stroke-opacity="0.22" stroke-width="1.2"/><line x1="167.02" y1="130.77" x2="260.12" y2="132.03" stroke="#25636a" stroke-opacity="0.22" stroke-width="1.2"/><line x1="167.02" y1="130.77" x2="346.96" y2="117.26" stroke="#25636a" stroke-opacity="0.22" stroke-width="1.2"/><line x1="167.02" y1="130.77" x2="425.56" y2="113.14" stroke="#25636a" stroke-opacity="0.22" stroke-width="1.2"/><line x1="144.98" y1="136.28" x2="174.27" y2="138.76" stroke="#25636a" stroke-opacity="0.22" stroke-width="1.2"/><line x1="174.27" y1="138.76" x2="201.78" y2="139.88" stroke="#25636a" stroke-opacity="0.22" stroke-width="1.2"/><line x1="232.71" y1="132.86" x2="346.96" y2="117.26" stroke="#25636a" stroke-opacity="0.22" stroke-width="1.2"/><line x1="232.71" y1="132.86" x2="425.56" y2="113.14" stroke="#25636a" stroke-opacity="0.22" stroke-width="1.2"/><line x1="232.71" y1="132.86" x2="527.76" y2="106.78" stroke="#25636a" stroke-opacity="0.22" stroke-width="1.2"/><line x1="228.77" y1="135.93" x2="346.96" y2="117.26" stroke="#25636a" stroke-opacity="0.22" stroke-width="1.2"/><line x1="228.77" y1="135.93" x2="425.56" y2="113.14" stroke="#25636a" stroke-opacity="0.22" stroke-width="1.2"/>
  <polyline points="42.00,120.00 49.35,121.36 56.70,122.72 134.00,123.21 73.15,125.70 190.14,125.29 245.05,123.27 93.43,129.20 100.89,130.36 109.89,131.77 117.24,132.84 167.02,130.77 128.30,134.35 135.76,135.28 144.98,136.28 152.22,137.09 159.57,137.76 166.91,138.34 174.27,138.76 181.61,139.26 188.96,139.58 232.71,132.86 201.78,139.88 228.77,135.93 218.35,139.95 225.70,139.81 299.15,129.80 242.15,139.13 238.54,138.23 260.12,132.03 262.43,137.76 268.02,137.22 277.13,136.34 284.48,135.51 270.74,134.03 299.17,133.65 306.52,132.62 313.87,131.53 321.22,130.39 328.57,129.20 335.91,127.97 343.26,126.70 350.61,125.40 357.96,124.07 342.62,124.06 372.65,121.36 380.00,120.00 387.35,118.64 394.70,117.28 402.04,115.93 409.39,114.60 416.74,113.30 424.09,112.03 431.43,110.80 438.78,109.61 446.13,108.47 453.48,107.38 346.96,117.26 468.17,105.38 475.52,104.49 449.27,106.99 490.22,102.91 497.57,102.24 504.91,101.66 512.26,101.15 519.61,100.74 526.96,100.42 534.30,100.19 541.65,100.05 549.00,100.00 556.35,100.05 563.70,100.19 571.04,100.42 425.56,113.14 544.04,104.42 527.76,106.78 600.43,102.24 607.78,102.91 615.13,103.66 622.48,104.49 629.83,105.38 637.17,106.35 644.52,107.38 651.87,108.47 659.22,109.61 666.57,110.80 624.37,113.84 681.26,113.30 688.61,114.60 695.96,115.93 703.30,117.28 710.65,118.64 718.00,120.00" fill="none" stroke="#7d8f86" stroke-width="3"/>
  <circle cx="42.00" cy="120.00" r="3.2" fill="#22302d"/><circle cx="56.70" cy="122.72" r="3.2" fill="#22302d"/><circle cx="73.15" cy="125.70" r="3.2" fill="#22302d"/><circle cx="245.05" cy="123.27" r="3.2" fill="#22302d"/><circle cx="100.89" cy="130.36" r="3.2" fill="#22302d"/><circle cx="117.24" cy="132.84" r="3.2" fill="#22302d"/><circle cx="128.30" cy="134.35" r="3.2" fill="#22302d"/><circle cx="144.98" cy="136.28" r="3.2" fill="#22302d"/><circle cx="159.57" cy="137.76" r="3.2" fill="#22302d"/><circle cx="174.27" cy="138.76" r="3.2" fill="#22302d"/><circle cx="188.96" cy="139.58" r="3.2" fill="#22302d"/><circle cx="201.78" cy="139.88" r="3.2" fill="#22302d"/><circle cx="218.35" cy="139.95" r="3.2" fill="#22302d"/><circle cx="299.15" cy="129.80" r="3.2" fill="#22302d"/><circle cx="238.54" cy="138.23" r="3.2" fill="#22302d"/><circle cx="262.43" cy="137.76" r="3.2" fill="#22302d"/><circle cx="277.13" cy="136.34" r="3.2" fill="#22302d"/><circle cx="270.74" cy="134.03" r="3.2" fill="#22302d"/><circle cx="306.52" cy="132.62" r="3.2" fill="#22302d"/><circle cx="321.22" cy="130.39" r="3.2" fill="#22302d"/><circle cx="335.91" cy="127.97" r="3.2" fill="#22302d"/><circle cx="350.61" cy="125.40" r="3.2" fill="#22302d"/><circle cx="342.62" cy="124.06" r="3.2" fill="#22302d"/><circle cx="380.00" cy="120.00" r="3.2" fill="#22302d"/><circle cx="394.70" cy="117.28" r="3.2" fill="#22302d"/><circle cx="409.39" cy="114.60" r="3.2" fill="#22302d"/><circle cx="424.09" cy="112.03" r="3.2" fill="#22302d"/><circle cx="438.78" cy="109.61" r="3.2" fill="#22302d"/><circle cx="453.48" cy="107.38" r="3.2" fill="#22302d"/><circle cx="468.17" cy="105.38" r="3.2" fill="#22302d"/><circle cx="449.27" cy="106.99" r="3.2" fill="#22302d"/><circle cx="497.57" cy="102.24" r="3.2" fill="#22302d"/><circle cx="512.26" cy="101.15" r="3.2" fill="#22302d"/><circle cx="526.96" cy="100.42" r="3.2" fill="#22302d"/><circle cx="541.65" cy="100.05" r="3.2" fill="#22302d"/><circle cx="556.35" cy="100.05" r="3.2" fill="#22302d"/><circle cx="571.04" cy="100.42" r="3.2" fill="#22302d"/><circle cx="544.04" cy="104.42" r="3.2" fill="#22302d"/><circle cx="600.43" cy="102.24" r="3.2" fill="#22302d"/><circle cx="615.13" cy="103.66" r="3.2" fill="#22302d"/><circle cx="629.83" cy="105.38" r="3.2" fill="#22302d"/><circle cx="644.52" cy="107.38" r="3.2" fill="#22302d"/><circle cx="659.22" cy="109.61" r="3.2" fill="#22302d"/><circle cx="624.37" cy="113.84" r="3.2" fill="#22302d"/><circle cx="688.61" cy="114.60" r="3.2" fill="#22302d"/><circle cx="703.30" cy="117.28" r="3.2" fill="#22302d"/><circle cx="718.00" cy="120.00" r="3.2" fill="#22302d"/>
  <text x="34" y="248" font-family="Arial, sans-serif" font-size="11" fill="#58635e">row: visual_003_alpha_cytochrome | coarse beads, not atomic structure</text>
</svg>
