<svg xmlns="http://www.w3.org/2000/svg" width="420" height="420" viewBox="0 0 420 420" role="img" aria-label="Sequence-only predicted contact candidates">
  <rect width="420" height="420" fill="#f8faf7"/>
  <text x="34" y="22" font-family="Arial, sans-serif" font-size="14" fill="#22302d">Sequence-only predicted contact candidates</text>
  <line x1="34" y1="34" x2="34" y2="386" stroke="#9aa69f"/>
  <line x1="34" y1="386" x2="386" y2="386" stroke="#9aa69f"/>
  <line x1="34" y1="34" x2="386" y2="386" stroke="#cfd8d2" stroke-dasharray="4 4"/>
  <circle cx="45.48" cy="114.35" r="2.2" fill="#c44b3a"/><circle cx="114.35" cy="45.48" r="2.2" fill="#c44b3a" opacity="0.58"/><circle cx="45.48" cy="144.96" r="2.2" fill="#c44b3a"/><circle cx="144.96" cy="45.48" r="2.2" fill="#c44b3a" opacity="0.58"/><circle cx="45.48" cy="252.09" r="2.2" fill="#c44b3a"/><circle cx="252.09" cy="45.48" r="2.2" fill="#c44b3a" opacity="0.58"/><circle cx="45.48" cy="313.30" r="2.2" fill="#c44b3a"/><circle cx="313.30" cy="45.48" r="2.2" fill="#c44b3a" opacity="0.58"/><circle cx="49.30" cy="64.61" r="2.2" fill="#c44b3a"/><circle cx="64.61" cy="49.30" r="2.2" fill="#c44b3a" opacity="0.58"/><circle cx="53.13" cy="114.35" r="2.2" fill="#c44b3a"/><circle cx="114.35" cy="53.13" r="2.2" fill="#c44b3a" opacity="0.58"/><circle cx="53.13" cy="122.00" r="2.2" fill="#c44b3a"/><circle cx="122.00" cy="53.13" r="2.2" fill="#c44b3a" opacity="0.58"/><circle cx="53.13" cy="133.48" r="2.2" fill="#c44b3a"/><circle cx="133.48" cy="53.13" r="2.2" fill="#c44b3a" opacity="0.58"/><circle cx="53.13" cy="144.96" r="2.2" fill="#c44b3a"/><circle cx="144.96" cy="53.13" r="2.2" fill="#c44b3a" opacity="0.58"/><circle cx="53.13" cy="164.09" r="2.2" fill="#c44b3a"/><circle cx="164.09" cy="53.13" r="2.2" fill="#c44b3a" opacity="0.58"/><circle cx="53.13" cy="252.09" r="2.2" fill="#c44b3a"/><circle cx="252.09" cy="53.13" r="2.2" fill="#c44b3a" opacity="0.58"/><circle cx="53.13" cy="313.30" r="2.2" fill="#c44b3a"/><circle cx="313.30" cy="53.13" r="2.2" fill="#c44b3a" opacity="0.58"/><circle cx="53.13" cy="320.96" r="2.2" fill="#c44b3a"/><circle cx="320.96" cy="53.13" r="2.2" fill="#c44b3a" opacity="0.58"/><circle cx="56.96" cy="133.48" r="2.2" fill="#c44b3a"/><circle cx="133.48" cy="56.96" r="2.2" fill="#c44b3a" opacity="0.58"/><circle cx="56.96" cy="141.13" r="2.2" fill="#c44b3a"/><circle cx="141.13" cy="56.96" r="2.2" fill="#c44b3a" opacity="0.58"/><circle cx="56.96" cy="144.96" r="2.2" fill="#c44b3a"/><circle cx="144.96" cy="56.96" r="2.2" fill="#c44b3a" opacity="0.58"/><circle cx="56.96" cy="164.09" r="2.2" fill="#c44b3a"/><circle cx="164.09" cy="56.96" r="2.2" fill="#c44b3a" opacity="0.58"/><circle cx="56.96" cy="202.35" r="2.2" fill="#c44b3a"/><circle cx="202.35" cy="56.96" r="2.2" fill="#c44b3a" opacity="0.58"/><circle cx="56.96" cy="252.09" r="2.2" fill="#c44b3a"/><circle cx="252.09" cy="56.96" r="2.2" fill="#c44b3a" opacity="0.58"/><circle cx="56.96" cy="263.57" r="2.2" fill="#c44b3a"/><circle cx="263.57" cy="56.96" r="2.2" fill="#c44b3a" opacity="0.58"/><circle cx="56.96" cy="313.30" r="2.2" fill="#c44b3a"/><circle cx="313.30" cy="56.96" r="2.2" fill="#c44b3a" opacity="0.58"/><circle cx="56.96" cy="317.13" r="2.2" fill="#c44b3a"/><circle cx="317.13" cy="56.96" r="2.2" fill="#c44b3a" opacity="0.58"/><circle cx="56.96" cy="363.04" r="2.2" fill="#c44b3a"/><circle cx="363.04" cy="56.96" r="2.2" fill="#c44b3a" opacity="0.58"/><circle cx="64.61" cy="79.91" r="2.2" fill="#c44b3a"/><circle cx="79.91" cy="64.61" r="2.2" fill="#c44b3a" opacity="0.58"/><circle cx="68.43" cy="83.74" r="2.2" fill="#c44b3a"/><circle cx="83.74" cy="68.43" r="2.2" fill="#c44b3a" opacity="0.58"/><circle cx="72.26" cy="87.57" r="2.2" fill="#c44b3a"/><circle cx="87.57" cy="72.26" r="2.2" fill="#c44b3a" opacity="0.58"/><circle cx="76.09" cy="144.96" r="2.2" fill="#c44b3a"/><circle cx="144.96" cy="76.09" r="2.2" fill="#c44b3a" opacity="0.58"/><circle cx="76.09" cy="252.09" r="2.2" fill="#c44b3a"/><circle cx="252.09" cy="76.09" r="2.2" fill="#c44b3a" opacity="0.58"/><circle cx="76.09" cy="313.30" r="2.2" fill="#c44b3a"/><circle cx="313.30" cy="76.09" r="2.2" fill="#c44b3a" opacity="0.58"/><circle cx="87.57" cy="102.87" r="2.2" fill="#c44b3a"/><circle cx="102.87" cy="87.57" r="2.2" fill="#c44b3a" opacity="0.58"/><circle cx="102.87" cy="118.17" r="2.2" fill="#c44b3a"/><circle cx="118.17" cy="102.87" r="2.2" fill="#c44b3a" opacity="0.58"/><circle cx="114.35" cy="252.09" r="2.2" fill="#c44b3a"/><circle cx="252.09" cy="114.35" r="2.2" fill="#c44b3a" opacity="0.58"/><circle cx="114.35" cy="313.30" r="2.2" fill="#c44b3a"/><circle cx="313.30" cy="114.35" r="2.2" fill="#c44b3a" opacity="0.58"/><circle cx="114.35" cy="320.96" r="2.2" fill="#c44b3a"/><circle cx="320.96" cy="114.35" r="2.2" fill="#c44b3a" opacity="0.58"/><circle cx="122.00" cy="252.09" r="2.2" fill="#c44b3a"/><circle cx="252.09" cy="122.00" r="2.2" fill="#c44b3a" opacity="0.58"/><circle cx="122.00" cy="313.30" r="2.2" fill="#c44b3a"/><circle cx="313.30" cy="122.00" r="2.2" fill="#c44b3a" opacity="0.58"/><circle cx="133.48" cy="202.35" r="2.2" fill="#c44b3a"/><circle cx="202.35" cy="133.48" r="2.2" fill="#c44b3a" opacity="0.58"/><circle cx="133.48" cy="252.09" r="2.2" fill="#c44b3a"/><circle cx="252.09" cy="133.48" r="2.2" fill="#c44b3a" opacity="0.58"/><circle cx="133.48" cy="263.57" r="2.2" fill="#c44b3a"/><circle cx="263.57" cy="133.48" r="2.2" fill="#c44b3a" opacity="0.58"/><circle cx="133.48" cy="313.30" r="2.2" fill="#c44b3a"/><circle cx="313.30" cy="133.48" r="2.2" fill="#c44b3a" opacity="0.58"/><circle cx="133.48" cy="317.13" r="2.2" fill="#c44b3a"/><circle cx="317.13" cy="133.48" r="2.2" fill="#c44b3a" opacity="0.58"/><circle cx="133.48" cy="363.04" r="2.2" fill="#c44b3a"/><circle cx="363.04" cy="133.48" r="2.2" fill="#c44b3a" opacity="0.58"/><circle cx="137.30" cy="152.61" r="2.2" fill="#c44b3a"/><circle cx="152.61" cy="137.30" r="2.2" fill="#c44b3a" opacity="0.58"/><circle cx="144.96" cy="252.09" r="2.2" fill="#c44b3a"/><circle cx="252.09" cy="144.96" r="2.2" fill="#c44b3a" opacity="0.58"/><circle cx="144.96" cy="313.30" r="2.2" fill="#c44b3a"/><circle cx="313.30" cy="144.96" r="2.2" fill="#c44b3a" opacity="0.58"/><circle cx="144.96" cy="320.96" r="2.2" fill="#c44b3a"/><circle cx="320.96" cy="144.96" r="2.2" fill="#c44b3a" opacity="0.58"/>
  <text x="34" y="412" font-family="Arial, sans-serif" font-size="11" fill="#58635e">row: visual_003_alpha_cytochrome | contacts: 46</text>
</svg>
