<svg xmlns="http://www.w3.org/2000/svg" width="420" height="420" viewBox="0 0 420 420" role="img" aria-label="Locked coarse native contact target">
  <rect width="420" height="420" fill="#f8faf7"/>
  <text x="34" y="22" font-family="Arial, sans-serif" font-size="14" fill="#22302d">Locked coarse native contact target</text>
  <line x1="34" y1="34" x2="34" y2="386" stroke="#9aa69f"/>
  <line x1="34" y1="386" x2="386" y2="386" stroke="#9aa69f"/>
  <line x1="34" y1="34" x2="386" y2="386" stroke="#cfd8d2" stroke-dasharray="4 4"/>
  <circle cx="47.54" cy="74.62" r="2.2" fill="#294f9b"/><circle cx="74.62" cy="47.54" r="2.2" fill="#294f9b" opacity="0.58"/><circle cx="67.85" cy="203.23" r="2.2" fill="#294f9b"/><circle cx="203.23" cy="67.85" r="2.2" fill="#294f9b" opacity="0.58"/><circle cx="74.62" cy="101.69" r="2.2" fill="#294f9b"/><circle cx="101.69" cy="74.62" r="2.2" fill="#294f9b" opacity="0.58"/><circle cx="101.69" cy="128.77" r="2.2" fill="#294f9b"/><circle cx="128.77" cy="101.69" r="2.2" fill="#294f9b" opacity="0.58"/><circle cx="115.23" cy="142.31" r="2.2" fill="#294f9b"/><circle cx="142.31" cy="115.23" r="2.2" fill="#294f9b" opacity="0.58"/><circle cx="128.77" cy="155.85" r="2.2" fill="#294f9b"/><circle cx="155.85" cy="128.77" r="2.2" fill="#294f9b" opacity="0.58"/><circle cx="142.31" cy="169.38" r="2.2" fill="#294f9b"/><circle cx="169.38" cy="142.31" r="2.2" fill="#294f9b" opacity="0.58"/><circle cx="155.85" cy="182.92" r="2.2" fill="#294f9b"/><circle cx="182.92" cy="155.85" r="2.2" fill="#294f9b" opacity="0.58"/><circle cx="169.38" cy="196.46" r="2.2" fill="#294f9b"/><circle cx="196.46" cy="169.38" r="2.2" fill="#294f9b" opacity="0.58"/><circle cx="189.69" cy="325.08" r="2.2" fill="#294f9b"/><circle cx="325.08" cy="189.69" r="2.2" fill="#294f9b" opacity="0.58"/><circle cx="210.00" cy="237.08" r="2.2" fill="#294f9b"/><circle cx="237.08" cy="210.00" r="2.2" fill="#294f9b" opacity="0.58"/><circle cx="237.08" cy="264.15" r="2.2" fill="#294f9b"/><circle cx="264.15" cy="237.08" r="2.2" fill="#294f9b" opacity="0.58"/><circle cx="264.15" cy="291.23" r="2.2" fill="#294f9b"/><circle cx="291.23" cy="264.15" r="2.2" fill="#294f9b" opacity="0.58"/><circle cx="291.23" cy="318.31" r="2.2" fill="#294f9b"/><circle cx="318.31" cy="291.23" r="2.2" fill="#294f9b" opacity="0.58"/><circle cx="304.77" cy="331.85" r="2.2" fill="#294f9b"/><circle cx="331.85" cy="304.77" r="2.2" fill="#294f9b" opacity="0.58"/><circle cx="318.31" cy="345.38" r="2.2" fill="#294f9b"/><circle cx="345.38" cy="318.31" r="2.2" fill="#294f9b" opacity="0.58"/><circle cx="331.85" cy="358.92" r="2.2" fill="#294f9b"/><circle cx="358.92" cy="331.85" r="2.2" fill="#294f9b" opacity="0.58"/><circle cx="345.38" cy="372.46" r="2.2" fill="#294f9b"/><circle cx="372.46" cy="345.38" r="2.2" fill="#294f9b" opacity="0.58"/>
  <text x="34" y="412" font-family="Arial, sans-serif" font-size="11" fill="#58635e">row: visual_002_alpha_gab | contacts: 18</text>
</svg>
