<svg xmlns="http://www.w3.org/2000/svg" width="760" height="260" viewBox="0 0 760 260" role="img" aria-label="Repaired coarse-grain final collapse">
  <rect width="760" height="260" fill="#f8faf7"/>
  <text x="34" y="24" font-family="Arial, sans-serif" font-size="15" fill="#22302d">Repaired coarse-grain final collapse</text>
<line x1="240.73" y1="116.74" x2="479.80" y2="107.69" stroke="#25636a" stroke-opacity="0.22" stroke-width="1.2"/><line x1="240.73" y1="116.74" x2="533.57" y2="106.40" stroke="#25636a" stroke-opacity="0.22" stroke-width="1.2"/><line x1="76.88" y1="125.80" x2="116.22" y2="130.31" stroke="#25636a" stroke-opacity="0.22" stroke-width="1.2"/><line x1="151.15" y1="136.94" x2="180.88" y2="138.22" stroke="#25636a" stroke-opacity="0.22" stroke-width="1.2"/><line x1="179.39" y1="138.00" x2="201.29" y2="138.88" stroke="#25636a" stroke-opacity="0.22" stroke-width="1.2"/><line x1="225.34" y1="139.77" x2="254.36" y2="138.35" stroke="#25636a" stroke-opacity="0.22" stroke-width="1.2"/><line x1="377.62" y1="125.13" x2="401.43" y2="114.02" stroke="#25636a" stroke-opacity="0.22" stroke-width="1.2"/><line x1="377.62" y1="125.13" x2="446.40" y2="110.08" stroke="#25636a" stroke-opacity="0.22" stroke-width="1.2"/><line x1="377.62" y1="125.13" x2="476.17" y2="105.12" stroke="#25636a" stroke-opacity="0.22" stroke-width="1.2"/><line x1="377.62" y1="125.13" x2="479.80" y2="107.69" stroke="#25636a" stroke-opacity="0.22" stroke-width="1.2"/><line x1="377.62" y1="125.13" x2="560.24" y2="102.60" stroke="#25636a" stroke-opacity="0.22" stroke-width="1.2"/><line x1="377.62" y1="125.13" x2="533.57" y2="106.40" stroke="#25636a" stroke-opacity="0.22" stroke-width="1.2"/><line x1="377.62" y1="125.13" x2="593.26" y2="104.74" stroke="#25636a" stroke-opacity="0.22" stroke-width="1.2"/><line x1="377.62" y1="125.13" x2="640.81" y2="110.82" stroke="#25636a" stroke-opacity="0.22" stroke-width="1.2"/><line x1="377.62" y1="125.13" x2="688.48" y2="118.93" stroke="#25636a" stroke-opacity="0.22" stroke-width="1.2"/><line x1="240.06" y1="137.98" x2="297.89" y2="132.64" stroke="#25636a" stroke-opacity="0.22" stroke-width="1.2"/><line x1="297.89" y1="132.64" x2="308.38" y2="131.37" stroke="#25636a" stroke-opacity="0.22" stroke-width="1.2"/><line x1="305.03" y1="131.89" x2="338.90" y2="127.42" stroke="#25636a" stroke-opacity="0.22" stroke-width="1.2"/><line x1="307.55" y1="129.02" x2="361.53" y2="123.40" stroke="#25636a" stroke-opacity="0.22" stroke-width="1.2"/><line x1="338.90" y1="127.42" x2="376.47" y2="121.04" stroke="#25636a" stroke-opacity="0.22" stroke-width="1.2"/><line x1="359.67" y1="122.10" x2="479.80" y2="107.69" stroke="#25636a" stroke-opacity="0.22" stroke-width="1.2"/><line x1="359.67" y1="122.10" x2="533.57" y2="106.40" stroke="#25636a" stroke-opacity="0.22" stroke-width="1.2"/><line x1="376.47" y1="121.04" x2="400.09" y2="116.11" stroke="#25636a" stroke-opacity="0.22" stroke-width="1.2"/><line x1="392.91" y1="117.89" x2="415.87" y2="113.48" stroke="#25636a" stroke-opacity="0.22" stroke-width="1.2"/><line x1="415.87" y1="113.48" x2="452.10" y2="107.61" stroke="#25636a" stroke-opacity="0.22" stroke-width="1.2"/><line x1="425.45" y1="110.23" x2="533.57" y2="106.40" stroke="#25636a" stroke-opacity="0.22" stroke-width="1.2"/><line x1="455.34" y1="106.04" x2="533.57" y2="106.40" stroke="#25636a" stroke-opacity="0.22" stroke-width="1.2"/><line x1="479.80" y1="107.69" x2="645.45" y2="113.62" stroke="#25636a" stroke-opacity="0.22" stroke-width="1.2"/><line x1="596.32" y1="101.95" x2="625.34" y2="104.87" stroke="#25636a" stroke-opacity="0.22" stroke-width="1.2"/><line x1="637.54" y1="106.43" x2="668.66" y2="111.19" stroke="#25636a" stroke-opacity="0.22" stroke-width="1.2"/><line x1="668.66" y1="111.19" x2="699.41" y2="116.58" stroke="#25636a" stroke-opacity="0.22" stroke-width="1.2"/><line x1="240.73" y1="116.74" x2="359.67" y2="122.10" stroke="#25636a" stroke-opacity="0.22" stroke-width="1.2"/><line x1="240.73" y1="116.74" x2="425.45" y2="110.23" stroke="#25636a" stroke-opacity="0.22" stroke-width="1.2"/><line x1="240.73" y1="116.74" x2="455.34" y2="106.04" stroke="#25636a" stroke-opacity="0.22" stroke-width="1.2"/><line x1="240.73" y1="116.74" x2="478.39" y2="103.64" stroke="#25636a" stroke-opacity="0.22" stroke-width="1.2"/><line x1="240.73" y1="116.74" x2="531.42" y2="101.10" stroke="#25636a" stroke-opacity="0.22" stroke-width="1.2"/>
  <polyline points="42.00,120.00 50.24,121.53 240.73,116.74 76.88,125.80 95.54,127.26 99.06,128.84 97.17,129.47 116.22,130.31 111.94,131.89 163.89,131.82 124.44,133.87 143.84,134.55 140.93,135.91 151.15,136.94 168.47,136.67 170.45,137.48 179.39,138.00 180.88,138.22 190.10,138.67 207.98,137.47 201.29,138.88 215.12,139.99 225.34,139.77 377.62,125.13 239.85,139.29 240.06,137.98 254.36,138.35 255.68,137.28 277.68,135.42 297.89,132.64 279.28,133.58 287.66,133.14 305.03,131.89 308.38,131.37 324.50,128.83 307.55,129.02 338.90,127.42 334.33,126.46 359.67,122.10 361.53,123.40 376.47,121.04 393.31,118.45 392.91,117.89 395.00,117.55 400.09,116.11 397.26,116.12 415.87,113.48 401.43,114.02 425.45,110.23 446.40,110.08 452.10,107.61 462.44,106.13 455.34,106.04 478.93,104.09 483.22,103.77 476.17,105.12 478.39,103.64 491.65,104.10 512.02,101.81 530.18,102.36 479.80,107.69 534.99,101.21 531.42,101.10 561.37,100.13 569.61,100.37 560.24,102.60 586.10,101.18 596.32,101.95 533.57,106.40 593.26,104.74 619.07,104.09 625.34,104.87 637.54,106.43 631.20,107.45 652.05,108.49 640.81,110.82 668.66,111.19 676.78,112.52 645.45,113.62 682.86,114.61 699.41,116.58 688.48,118.93 718.00,120.00" fill="none" stroke="#7d8f86" stroke-width="3"/>
  <circle cx="42.00" cy="120.00" r="3.2" fill="#22302d"/><circle cx="240.73" cy="116.74" r="3.2" fill="#22302d"/><circle cx="95.54" cy="127.26" r="3.2" fill="#22302d"/><circle cx="97.17" cy="129.47" r="3.2" fill="#22302d"/><circle cx="111.94" cy="131.89" r="3.2" fill="#22302d"/><circle cx="124.44" cy="133.87" r="3.2" fill="#22302d"/><circle cx="140.93" cy="135.91" r="3.2" fill="#22302d"/><circle cx="168.47" cy="136.67" r="3.2" fill="#22302d"/><circle cx="179.39" cy="138.00" r="3.2" fill="#22302d"/><circle cx="190.10" cy="138.67" r="3.2" fill="#22302d"/><circle cx="201.29" cy="138.88" r="3.2" fill="#22302d"/><circle cx="225.34" cy="139.77" r="3.2" fill="#22302d"/><circle cx="239.85" cy="139.29" r="3.2" fill="#22302d"/><circle cx="254.36" cy="138.35" r="3.2" fill="#22302d"/><circle cx="277.68" cy="135.42" r="3.2" fill="#22302d"/><circle cx="279.28" cy="133.58" r="3.2" fill="#22302d"/><circle cx="305.03" cy="131.89" r="3.2" fill="#22302d"/><circle cx="324.50" cy="128.83" r="3.2" fill="#22302d"/><circle cx="338.90" cy="127.42" r="3.2" fill="#22302d"/><circle cx="359.67" cy="122.10" r="3.2" fill="#22302d"/><circle cx="376.47" cy="121.04" r="3.2" fill="#22302d"/><circle cx="392.91" cy="117.89" r="3.2" fill="#22302d"/><circle cx="400.09" cy="116.11" r="3.2" fill="#22302d"/><circle cx="415.87" cy="113.48" r="3.2" fill="#22302d"/><circle cx="425.45" cy="110.23" r="3.2" fill="#22302d"/><circle cx="452.10" cy="107.61" r="3.2" fill="#22302d"/><circle cx="455.34" cy="106.04" r="3.2" fill="#22302d"/><circle cx="483.22" cy="103.77" r="3.2" fill="#22302d"/><circle cx="478.39" cy="103.64" r="3.2" fill="#22302d"/><circle cx="512.02" cy="101.81" r="3.2" fill="#22302d"/><circle cx="479.80" cy="107.69" r="3.2" fill="#22302d"/><circle cx="531.42" cy="101.10" r="3.2" fill="#22302d"/><circle cx="569.61" cy="100.37" r="3.2" fill="#22302d"/><circle cx="586.10" cy="101.18" r="3.2" fill="#22302d"/><circle cx="533.57" cy="106.40" r="3.2" fill="#22302d"/><circle cx="619.07" cy="104.09" r="3.2" fill="#22302d"/><circle cx="637.54" cy="106.43" r="3.2" fill="#22302d"/><circle cx="652.05" cy="108.49" r="3.2" fill="#22302d"/><circle cx="668.66" cy="111.19" r="3.2" fill="#22302d"/><circle cx="645.45" cy="113.62" r="3.2" fill="#22302d"/><circle cx="699.41" cy="116.58" r="3.2" fill="#22302d"/><circle cx="718.00" cy="120.00" r="3.2" fill="#22302d"/>
  <text x="34" y="248" font-family="Arial, sans-serif" font-size="11" fill="#58635e">row: visual_009_mixed_ci2 | coarse beads, not atomic structure</text>
</svg>
