<svg xmlns="http://www.w3.org/2000/svg" width="420" height="420" viewBox="0 0 420 420" role="img" aria-label="Locked coarse native contact target">
  <rect width="420" height="420" fill="#f8faf7"/>
  <text x="34" y="22" font-family="Arial, sans-serif" font-size="14" fill="#22302d">Locked coarse native contact target</text>
  <line x1="34" y1="34" x2="34" y2="386" stroke="#9aa69f"/>
  <line x1="34" y1="386" x2="386" y2="386" stroke="#9aa69f"/>
  <line x1="34" y1="34" x2="386" y2="386" stroke="#cfd8d2" stroke-dasharray="4 4"/>
  <circle cx="38.69" cy="57.47" r="2.2" fill="#294f9b"/><circle cx="57.47" cy="38.69" r="2.2" fill="#294f9b" opacity="0.58"/><circle cx="52.77" cy="71.55" r="2.2" fill="#294f9b"/><circle cx="71.55" cy="52.77" r="2.2" fill="#294f9b" opacity="0.58"/><circle cx="66.85" cy="85.63" r="2.2" fill="#294f9b"/><circle cx="85.63" cy="66.85" r="2.2" fill="#294f9b" opacity="0.58"/><circle cx="66.85" cy="198.27" r="2.2" fill="#294f9b"/><circle cx="198.27" cy="66.85" r="2.2" fill="#294f9b" opacity="0.58"/><circle cx="80.93" cy="99.71" r="2.2" fill="#294f9b"/><circle cx="99.71" cy="80.93" r="2.2" fill="#294f9b" opacity="0.58"/><circle cx="95.01" cy="113.79" r="2.2" fill="#294f9b"/><circle cx="113.79" cy="95.01" r="2.2" fill="#294f9b" opacity="0.58"/><circle cx="109.09" cy="127.87" r="2.2" fill="#294f9b"/><circle cx="127.87" cy="109.09" r="2.2" fill="#294f9b" opacity="0.58"/><circle cx="123.17" cy="141.95" r="2.2" fill="#294f9b"/><circle cx="141.95" cy="123.17" r="2.2" fill="#294f9b" opacity="0.58"/><circle cx="137.25" cy="156.03" r="2.2" fill="#294f9b"/><circle cx="156.03" cy="137.25" r="2.2" fill="#294f9b" opacity="0.58"/><circle cx="146.64" cy="231.12" r="2.2" fill="#294f9b"/><circle cx="231.12" cy="146.64" r="2.2" fill="#294f9b" opacity="0.58"/><circle cx="151.33" cy="170.11" r="2.2" fill="#294f9b"/><circle cx="170.11" cy="151.33" r="2.2" fill="#294f9b" opacity="0.58"/><circle cx="151.33" cy="226.43" r="2.2" fill="#294f9b"/><circle cx="226.43" cy="151.33" r="2.2" fill="#294f9b" opacity="0.58"/><circle cx="156.03" cy="221.73" r="2.2" fill="#294f9b"/><circle cx="221.73" cy="156.03" r="2.2" fill="#294f9b" opacity="0.58"/><circle cx="160.72" cy="217.04" r="2.2" fill="#294f9b"/><circle cx="217.04" cy="160.72" r="2.2" fill="#294f9b" opacity="0.58"/><circle cx="165.41" cy="184.19" r="2.2" fill="#294f9b"/><circle cx="184.19" cy="165.41" r="2.2" fill="#294f9b" opacity="0.58"/><circle cx="165.41" cy="212.35" r="2.2" fill="#294f9b"/><circle cx="212.35" cy="165.41" r="2.2" fill="#294f9b" opacity="0.58"/><circle cx="170.11" cy="301.52" r="2.2" fill="#294f9b"/><circle cx="301.52" cy="170.11" r="2.2" fill="#294f9b" opacity="0.58"/><circle cx="179.49" cy="198.27" r="2.2" fill="#294f9b"/><circle cx="198.27" cy="179.49" r="2.2" fill="#294f9b" opacity="0.58"/><circle cx="193.57" cy="212.35" r="2.2" fill="#294f9b"/><circle cx="212.35" cy="193.57" r="2.2" fill="#294f9b" opacity="0.58"/><circle cx="212.35" cy="296.83" r="2.2" fill="#294f9b"/><circle cx="296.83" cy="212.35" r="2.2" fill="#294f9b" opacity="0.58"/><circle cx="217.04" cy="292.13" r="2.2" fill="#294f9b"/><circle cx="292.13" cy="217.04" r="2.2" fill="#294f9b" opacity="0.58"/><circle cx="221.73" cy="287.44" r="2.2" fill="#294f9b"/><circle cx="287.44" cy="221.73" r="2.2" fill="#294f9b" opacity="0.58"/><circle cx="226.43" cy="282.75" r="2.2" fill="#294f9b"/><circle cx="282.75" cy="226.43" r="2.2" fill="#294f9b" opacity="0.58"/><circle cx="231.12" cy="278.05" r="2.2" fill="#294f9b"/><circle cx="278.05" cy="231.12" r="2.2" fill="#294f9b" opacity="0.58"/>
  <text x="34" y="412" font-family="Arial, sans-serif" font-size="11" fill="#58635e">row: visual_008_mixed_ubiquitin | contacts: 24</text>
</svg>
