<svg xmlns="http://www.w3.org/2000/svg" width="760" height="260" viewBox="0 0 760 260" role="img" aria-label="Repaired coarse-grain final collapse">
  <rect width="760" height="260" fill="#f8faf7"/>
  <text x="34" y="24" font-family="Arial, sans-serif" font-size="15" fill="#22302d">Repaired coarse-grain final collapse</text>
<line x1="53.18" y1="122.06" x2="101.68" y2="128.98" stroke="#25636a" stroke-opacity="0.22" stroke-width="1.2"/><line x1="147.42" y1="120.86" x2="373.87" y2="115.40" stroke="#25636a" stroke-opacity="0.22" stroke-width="1.2"/><line x1="147.42" y1="120.86" x2="434.09" y2="110.34" stroke="#25636a" stroke-opacity="0.22" stroke-width="1.2"/><line x1="200.82" y1="123.21" x2="245.20" y2="136.05" stroke="#25636a" stroke-opacity="0.22" stroke-width="1.2"/><line x1="200.82" y1="123.21" x2="309.81" y2="129.74" stroke="#25636a" stroke-opacity="0.22" stroke-width="1.2"/><line x1="200.82" y1="123.21" x2="316.72" y2="125.37" stroke="#25636a" stroke-opacity="0.22" stroke-width="1.2"/><line x1="200.82" y1="123.21" x2="403.04" y2="114.03" stroke="#25636a" stroke-opacity="0.22" stroke-width="1.2"/><line x1="200.82" y1="123.21" x2="373.87" y2="115.40" stroke="#25636a" stroke-opacity="0.22" stroke-width="1.2"/><line x1="200.82" y1="123.21" x2="434.09" y2="110.34" stroke="#25636a" stroke-opacity="0.22" stroke-width="1.2"/><line x1="200.82" y1="123.21" x2="634.27" y2="111.12" stroke="#25636a" stroke-opacity="0.22" stroke-width="1.2"/><line x1="167.26" y1="125.07" x2="373.87" y2="115.40" stroke="#25636a" stroke-opacity="0.22" stroke-width="1.2"/><line x1="167.26" y1="125.07" x2="434.09" y2="110.34" stroke="#25636a" stroke-opacity="0.22" stroke-width="1.2"/><line x1="134.30" y1="135.08" x2="174.55" y2="137.22" stroke="#25636a" stroke-opacity="0.22" stroke-width="1.2"/><line x1="203.36" y1="131.79" x2="373.87" y2="115.40" stroke="#25636a" stroke-opacity="0.22" stroke-width="1.2"/><line x1="203.36" y1="131.79" x2="434.09" y2="110.34" stroke="#25636a" stroke-opacity="0.22" stroke-width="1.2"/><line x1="229.10" y1="133.75" x2="373.87" y2="115.40" stroke="#25636a" stroke-opacity="0.22" stroke-width="1.2"/><line x1="229.10" y1="133.75" x2="434.09" y2="110.34" stroke="#25636a" stroke-opacity="0.22" stroke-width="1.2"/><line x1="242.88" y1="134.50" x2="373.87" y2="115.40" stroke="#25636a" stroke-opacity="0.22" stroke-width="1.2"/><line x1="242.88" y1="134.50" x2="434.09" y2="110.34" stroke="#25636a" stroke-opacity="0.22" stroke-width="1.2"/><line x1="261.14" y1="136.98" x2="283.20" y2="135.61" stroke="#25636a" stroke-opacity="0.22" stroke-width="1.2"/><line x1="278.51" y1="136.14" x2="298.61" y2="131.14" stroke="#25636a" stroke-opacity="0.22" stroke-width="1.2"/><line x1="301.88" y1="132.62" x2="327.90" y2="128.49" stroke="#25636a" stroke-opacity="0.22" stroke-width="1.2"/><line x1="428.96" y1="113.12" x2="430.49" y2="110.94" stroke="#25636a" stroke-opacity="0.22" stroke-width="1.2"/><line x1="373.87" y1="115.40" x2="467.37" y2="109.49" stroke="#25636a" stroke-opacity="0.22" stroke-width="1.2"/><line x1="430.49" y1="110.94" x2="496.64" y2="104.47" stroke="#25636a" stroke-opacity="0.22" stroke-width="1.2"/><line x1="496.64" y1="104.47" x2="517.41" y2="100.93" stroke="#25636a" stroke-opacity="0.22" stroke-width="1.2"/><line x1="602.99" y1="102.52" x2="637.01" y2="106.41" stroke="#25636a" stroke-opacity="0.22" stroke-width="1.2"/><line x1="612.00" y1="103.38" x2="646.02" y2="107.68" stroke="#25636a" stroke-opacity="0.22" stroke-width="1.2"/><line x1="637.01" y1="106.41" x2="670.64" y2="111.52" stroke="#25636a" stroke-opacity="0.22" stroke-width="1.2"/><line x1="646.02" y1="107.68" x2="679.65" y2="113.06" stroke="#25636a" stroke-opacity="0.22" stroke-width="1.2"/><line x1="657.07" y1="109.30" x2="688.80" y2="114.66" stroke="#25636a" stroke-opacity="0.22" stroke-width="1.2"/><line x1="373.87" y1="115.40" x2="434.09" y2="110.34" stroke="#25636a" stroke-opacity="0.22" stroke-width="1.2"/><line x1="147.42" y1="120.86" x2="242.88" y2="134.50" stroke="#25636a" stroke-opacity="0.22" stroke-width="1.2"/><line x1="147.42" y1="120.86" x2="467.37" y2="109.49" stroke="#25636a" stroke-opacity="0.22" stroke-width="1.2"/><line x1="167.26" y1="125.07" x2="242.88" y2="134.50" stroke="#25636a" stroke-opacity="0.22" stroke-width="1.2"/><line x1="167.26" y1="125.07" x2="467.37" y2="109.49" stroke="#25636a" stroke-opacity="0.22" stroke-width="1.2"/>
  <polyline points="42.00,120.00 53.18,122.06 147.42,120.86 200.82,123.21 167.26,125.07 101.68,128.98 102.03,130.24 126.35,130.84 117.89,132.82 125.69,133.96 134.30,135.08 152.35,135.26 203.36,131.79 159.17,137.72 174.55,137.22 183.38,137.95 229.10,133.75 197.21,138.65 204.14,138.74 228.87,136.78 225.44,138.53 231.28,139.65 242.88,134.50 261.14,136.98 258.32,138.10 245.20,136.05 278.51,136.14 283.20,135.61 301.88,132.62 309.81,129.74 298.61,131.14 319.30,129.76 327.90,128.49 334.53,127.19 349.57,124.80 316.72,125.37 366.48,122.51 375.49,120.84 384.51,119.16 393.52,117.49 402.99,116.04 428.96,113.12 415.45,113.51 403.04,114.03 373.87,115.40 430.49,110.94 451.66,108.08 465.63,105.71 474.64,104.59 496.64,104.47 492.67,102.68 501.68,101.90 510.69,101.25 517.41,100.93 523.80,100.85 531.77,100.69 535.71,100.99 531.93,102.61 434.09,110.34 563.88,101.38 467.37,109.49 581.42,102.30 602.99,102.52 612.00,103.38 618.85,104.07 627.87,105.14 637.01,106.41 646.02,107.68 657.07,109.30 634.27,111.12 670.64,111.52 679.65,113.06 688.80,114.66 686.99,115.89 708.99,118.33 718.00,120.00" fill="none" stroke="#7d8f86" stroke-width="3"/>
  <circle cx="42.00" cy="120.00" r="3.2" fill="#22302d"/><circle cx="147.42" cy="120.86" r="3.2" fill="#22302d"/><circle cx="167.26" cy="125.07" r="3.2" fill="#22302d"/><circle cx="102.03" cy="130.24" r="3.2" fill="#22302d"/><circle cx="117.89" cy="132.82" r="3.2" fill="#22302d"/><circle cx="134.30" cy="135.08" r="3.2" fill="#22302d"/><circle cx="203.36" cy="131.79" r="3.2" fill="#22302d"/><circle cx="174.55" cy="137.22" r="3.2" fill="#22302d"/><circle cx="229.10" cy="133.75" r="3.2" fill="#22302d"/><circle cx="204.14" cy="138.74" r="3.2" fill="#22302d"/><circle cx="225.44" cy="138.53" r="3.2" fill="#22302d"/><circle cx="242.88" cy="134.50" r="3.2" fill="#22302d"/><circle cx="258.32" cy="138.10" r="3.2" fill="#22302d"/><circle cx="278.51" cy="136.14" r="3.2" fill="#22302d"/><circle cx="301.88" cy="132.62" r="3.2" fill="#22302d"/><circle cx="298.61" cy="131.14" r="3.2" fill="#22302d"/><circle cx="327.90" cy="128.49" r="3.2" fill="#22302d"/><circle cx="349.57" cy="124.80" r="3.2" fill="#22302d"/><circle cx="366.48" cy="122.51" r="3.2" fill="#22302d"/><circle cx="384.51" cy="119.16" r="3.2" fill="#22302d"/><circle cx="402.99" cy="116.04" r="3.2" fill="#22302d"/><circle cx="415.45" cy="113.51" r="3.2" fill="#22302d"/><circle cx="373.87" cy="115.40" r="3.2" fill="#22302d"/><circle cx="451.66" cy="108.08" r="3.2" fill="#22302d"/><circle cx="474.64" cy="104.59" r="3.2" fill="#22302d"/><circle cx="492.67" cy="102.68" r="3.2" fill="#22302d"/><circle cx="510.69" cy="101.25" r="3.2" fill="#22302d"/><circle cx="523.80" cy="100.85" r="3.2" fill="#22302d"/><circle cx="535.71" cy="100.99" r="3.2" fill="#22302d"/><circle cx="434.09" cy="110.34" r="3.2" fill="#22302d"/><circle cx="467.37" cy="109.49" r="3.2" fill="#22302d"/><circle cx="602.99" cy="102.52" r="3.2" fill="#22302d"/><circle cx="618.85" cy="104.07" r="3.2" fill="#22302d"/><circle cx="637.01" cy="106.41" r="3.2" fill="#22302d"/><circle cx="657.07" cy="109.30" r="3.2" fill="#22302d"/><circle cx="670.64" cy="111.52" r="3.2" fill="#22302d"/><circle cx="688.80" cy="114.66" r="3.2" fill="#22302d"/><circle cx="708.99" cy="118.33" r="3.2" fill="#22302d"/>
  <text x="34" y="248" font-family="Arial, sans-serif" font-size="11" fill="#58635e">row: visual_008_mixed_ubiquitin | coarse beads, not atomic structure</text>
</svg>
