<svg xmlns="http://www.w3.org/2000/svg" width="760" height="260" viewBox="0 0 760 260" role="img" aria-label="Coarse-grain final collapse">
  <rect width="760" height="260" fill="#f8faf7"/>
  <text x="34" y="24" font-family="Arial, sans-serif" font-size="15" fill="#22302d">Coarse-grain final collapse</text>
<line x1="42.47" y1="120.09" x2="49.32" y2="121.36" stroke="#25636a" stroke-opacity="0.22" stroke-width="1.2"/><line x1="133.56" y1="132.68" x2="163.58" y2="134.89" stroke="#25636a" stroke-opacity="0.22" stroke-width="1.2"/><line x1="133.56" y1="132.68" x2="94.43" y2="129.32" stroke="#25636a" stroke-opacity="0.22" stroke-width="1.2"/><line x1="133.56" y1="132.68" x2="163.20" y2="135.07" stroke="#25636a" stroke-opacity="0.22" stroke-width="1.2"/><line x1="133.56" y1="132.68" x2="107.25" y2="131.15" stroke="#25636a" stroke-opacity="0.22" stroke-width="1.2"/><line x1="133.56" y1="132.68" x2="112.61" y2="131.98" stroke="#25636a" stroke-opacity="0.22" stroke-width="1.2"/><line x1="133.56" y1="132.68" x2="114.72" y2="132.25" stroke="#25636a" stroke-opacity="0.22" stroke-width="1.2"/><line x1="133.56" y1="132.68" x2="129.40" y2="134.19" stroke="#25636a" stroke-opacity="0.22" stroke-width="1.2"/><line x1="133.56" y1="132.68" x2="134.14" y2="134.67" stroke="#25636a" stroke-opacity="0.22" stroke-width="1.2"/><line x1="133.56" y1="132.68" x2="140.64" y2="135.33" stroke="#25636a" stroke-opacity="0.22" stroke-width="1.2"/><line x1="133.56" y1="132.68" x2="145.19" y2="135.85" stroke="#25636a" stroke-opacity="0.22" stroke-width="1.2"/><line x1="133.56" y1="132.68" x2="148.97" y2="136.20" stroke="#25636a" stroke-opacity="0.22" stroke-width="1.2"/><line x1="133.56" y1="132.68" x2="166.45" y2="137.36" stroke="#25636a" stroke-opacity="0.22" stroke-width="1.2"/><line x1="133.56" y1="132.68" x2="168.93" y2="137.54" stroke="#25636a" stroke-opacity="0.22" stroke-width="1.2"/><line x1="133.56" y1="132.68" x2="179.00" y2="137.94" stroke="#25636a" stroke-opacity="0.22" stroke-width="1.2"/><line x1="133.56" y1="132.68" x2="174.39" y2="136.90" stroke="#25636a" stroke-opacity="0.22" stroke-width="1.2"/><line x1="133.56" y1="132.68" x2="190.09" y2="138.25" stroke="#25636a" stroke-opacity="0.22" stroke-width="1.2"/><line x1="133.56" y1="132.68" x2="192.67" y2="138.34" stroke="#25636a" stroke-opacity="0.22" stroke-width="1.2"/><line x1="133.56" y1="132.68" x2="186.02" y2="137.23" stroke="#25636a" stroke-opacity="0.22" stroke-width="1.2"/><line x1="90.13" y1="127.41" x2="163.58" y2="134.89" stroke="#25636a" stroke-opacity="0.22" stroke-width="1.2"/><line x1="90.13" y1="127.41" x2="163.20" y2="135.07" stroke="#25636a" stroke-opacity="0.22" stroke-width="1.2"/><line x1="90.13" y1="127.41" x2="107.25" y2="131.15" stroke="#25636a" stroke-opacity="0.22" stroke-width="1.2"/><line x1="90.13" y1="127.41" x2="112.61" y2="131.98" stroke="#25636a" stroke-opacity="0.22" stroke-width="1.2"/><line x1="90.13" y1="127.41" x2="114.72" y2="132.25" stroke="#25636a" stroke-opacity="0.22" stroke-width="1.2"/><line x1="90.13" y1="127.41" x2="174.39" y2="136.90" stroke="#25636a" stroke-opacity="0.22" stroke-width="1.2"/><line x1="90.13" y1="127.41" x2="186.02" y2="137.23" stroke="#25636a" stroke-opacity="0.22" stroke-width="1.2"/><line x1="144.79" y1="133.39" x2="163.58" y2="134.89" stroke="#25636a" stroke-opacity="0.22" stroke-width="1.2"/><line x1="144.79" y1="133.39" x2="94.43" y2="129.32" stroke="#25636a" stroke-opacity="0.22" stroke-width="1.2"/><line x1="144.79" y1="133.39" x2="163.20" y2="135.07" stroke="#25636a" stroke-opacity="0.22" stroke-width="1.2"/><line x1="144.79" y1="133.39" x2="107.25" y2="131.15" stroke="#25636a" stroke-opacity="0.22" stroke-width="1.2"/><line x1="144.79" y1="133.39" x2="112.61" y2="131.98" stroke="#25636a" stroke-opacity="0.22" stroke-width="1.2"/><line x1="144.79" y1="133.39" x2="114.72" y2="132.25" stroke="#25636a" stroke-opacity="0.22" stroke-width="1.2"/><line x1="144.79" y1="133.39" x2="129.40" y2="134.19" stroke="#25636a" stroke-opacity="0.22" stroke-width="1.2"/><line x1="144.79" y1="133.39" x2="134.14" y2="134.67" stroke="#25636a" stroke-opacity="0.22" stroke-width="1.2"/><line x1="144.79" y1="133.39" x2="140.64" y2="135.33" stroke="#25636a" stroke-opacity="0.22" stroke-width="1.2"/><line x1="144.79" y1="133.39" x2="145.19" y2="135.85" stroke="#25636a" stroke-opacity="0.22" stroke-width="1.2"/>
  <polyline points="42.47,120.09 51.74,121.81 90.13,127.41 71.22,125.37 81.43,127.17 90.70,128.75 100.44,130.34 110.18,131.84 119.93,133.25 129.67,134.55 139.41,135.73 134.14,134.67 145.19,135.85 168.63,138.47 178.37,139.09 188.11,139.55 179.00,137.94 207.59,139.99 186.02,137.23 216.49,139.06 236.81,139.43 246.55,138.92 256.29,138.25 266.03,137.44 275.78,136.48 285.52,135.39 295.26,134.17 305.00,132.84 314.74,131.40 324.48,129.87 334.22,128.26 343.96,126.58 353.70,124.84 363.44,123.07 373.18,121.27 382.92,119.46 392.66,117.65 402.40,115.87 412.14,114.11 421.88,112.41 431.63,110.77 441.37,109.20 451.11,107.72 460.85,106.35 470.59,105.08 480.33,103.94 490.07,102.93 499.81,102.05 509.55,101.33 519.29,100.76 529.03,100.34 538.77,100.09 548.51,100.00 558.25,100.07 567.99,100.31 577.73,100.71 587.48,101.27 597.22,101.98 606.96,102.83 616.70,103.83 626.44,104.96 636.18,106.21 645.92,107.58 655.66,109.05 665.40,110.61 675.14,112.24 684.88,113.94 694.62,115.69 704.36,117.47 714.10,119.28" fill="none" stroke="#7d8f86" stroke-width="3"/>
  <circle cx="42.47" cy="120.09" r="3.2" fill="#22302d"/><circle cx="59.53" cy="123.24" r="3.2" fill="#22302d"/><circle cx="97.06" cy="128.80" r="3.2" fill="#22302d"/><circle cx="94.60" cy="129.39" r="3.2" fill="#22302d"/><circle cx="107.25" cy="131.15" r="3.2" fill="#22302d"/><circle cx="129.67" cy="134.55" r="3.2" fill="#22302d"/><circle cx="147.20" cy="136.59" r="3.2" fill="#22302d"/><circle cx="164.73" cy="138.18" r="3.2" fill="#22302d"/><circle cx="182.27" cy="139.29" r="3.2" fill="#22302d"/><circle cx="199.80" cy="139.89" r="3.2" fill="#22302d"/><circle cx="186.02" cy="137.23" r="3.2" fill="#22302d"/><circle cx="234.86" cy="139.51" r="3.2" fill="#22302d"/><circle cx="252.40" cy="138.54" r="3.2" fill="#22302d"/><circle cx="269.93" cy="137.07" r="3.2" fill="#22302d"/><circle cx="287.46" cy="135.16" r="3.2" fill="#22302d"/><circle cx="305.00" cy="132.84" r="3.2" fill="#22302d"/><circle cx="322.53" cy="130.18" r="3.2" fill="#22302d"/><circle cx="340.06" cy="127.25" r="3.2" fill="#22302d"/><circle cx="357.60" cy="124.13" r="3.2" fill="#22302d"/><circle cx="375.13" cy="120.91" r="3.2" fill="#22302d"/><circle cx="392.66" cy="117.65" r="3.2" fill="#22302d"/><circle cx="410.20" cy="114.46" r="3.2" fill="#22302d"/><circle cx="427.73" cy="111.42" r="3.2" fill="#22302d"/><circle cx="445.26" cy="108.60" r="3.2" fill="#22302d"/><circle cx="462.80" cy="106.08" r="3.2" fill="#22302d"/><circle cx="480.33" cy="103.94" r="3.2" fill="#22302d"/><circle cx="497.86" cy="102.22" r="3.2" fill="#22302d"/><circle cx="515.39" cy="100.97" r="3.2" fill="#22302d"/><circle cx="532.93" cy="100.22" r="3.2" fill="#22302d"/><circle cx="550.46" cy="100.00" r="3.2" fill="#22302d"/><circle cx="567.99" cy="100.31" r="3.2" fill="#22302d"/><circle cx="585.53" cy="101.14" r="3.2" fill="#22302d"/><circle cx="603.06" cy="102.47" r="3.2" fill="#22302d"/><circle cx="620.59" cy="104.27" r="3.2" fill="#22302d"/><circle cx="638.13" cy="106.48" r="3.2" fill="#22302d"/><circle cx="655.66" cy="109.05" r="3.2" fill="#22302d"/><circle cx="673.19" cy="111.91" r="3.2" fill="#22302d"/><circle cx="690.73" cy="114.98" r="3.2" fill="#22302d"/><circle cx="708.26" cy="118.19" r="3.2" fill="#22302d"/>
  <text x="34" y="248" font-family="Arial, sans-serif" font-size="11" fill="#58635e">row: visual_011_membrane_rhodopsin | coarse beads, not atomic structure</text>
</svg>
