<svg xmlns="http://www.w3.org/2000/svg" width="420" height="420" viewBox="0 0 420 420" role="img" aria-label="contact map overlay">
  <rect width="420" height="420" fill="#f8faf7"/>
  <text x="34" y="22" font-family="Arial, sans-serif" font-size="14" fill="#22302d">Contact map overlay</text>
  <line x1="34" y1="34" x2="34" y2="386" stroke="#9aa69f"/>
  <line x1="34" y1="386" x2="386" y2="386" stroke="#9aa69f"/>
  <line x1="34" y1="34" x2="386" y2="386" stroke="#cfd8d2" stroke-dasharray="4 4"/>
  <circle cx="34.00" cy="38.06" r="2.8" fill="#218a5a" opacity="0.88"/><circle cx="38.06" cy="34.00" r="2.8" fill="#218a5a" opacity="0.46"/><circle cx="38.06" cy="42.12" r="2.4" fill="#294f9b" opacity="0.88"/><circle cx="42.12" cy="38.06" r="2.4" fill="#294f9b" opacity="0.46"/><circle cx="39.07" cy="59.36" r="2.4" fill="#294f9b" opacity="0.88"/><circle cx="59.36" cy="39.07" r="2.4" fill="#294f9b" opacity="0.46"/><circle cx="42.12" cy="62.40" r="2.0" fill="#c44b3a" opacity="0.88"/><circle cx="62.40" cy="42.12" r="2.0" fill="#c44b3a" opacity="0.46"/><circle cx="42.12" cy="63.42" r="2.0" fill="#c44b3a" opacity="0.88"/><circle cx="63.42" cy="42.12" r="2.0" fill="#c44b3a" opacity="0.46"/><circle cx="42.12" cy="68.49" r="2.0" fill="#c44b3a" opacity="0.88"/><circle cx="68.49" cy="42.12" r="2.0" fill="#c44b3a" opacity="0.46"/><circle cx="42.12" cy="70.52" r="2.0" fill="#c44b3a" opacity="0.88"/><circle cx="70.52" cy="42.12" r="2.0" fill="#c44b3a" opacity="0.46"/><circle cx="42.12" cy="76.61" r="2.0" fill="#c44b3a" opacity="0.88"/><circle cx="76.61" cy="42.12" r="2.0" fill="#c44b3a" opacity="0.46"/><circle cx="42.12" cy="78.63" r="2.0" fill="#c44b3a" opacity="0.88"/><circle cx="78.63" cy="42.12" r="2.0" fill="#c44b3a" opacity="0.46"/><circle cx="42.12" cy="85.73" r="2.0" fill="#c44b3a" opacity="0.88"/><circle cx="85.73" cy="42.12" r="2.0" fill="#c44b3a" opacity="0.46"/><circle cx="42.12" cy="89.79" r="2.0" fill="#c44b3a" opacity="0.88"/><circle cx="89.79" cy="42.12" r="2.0" fill="#c44b3a" opacity="0.46"/><circle cx="42.12" cy="93.85" r="2.0" fill="#c44b3a" opacity="0.88"/><circle cx="93.85" cy="42.12" r="2.0" fill="#c44b3a" opacity="0.46"/><circle cx="42.12" cy="94.86" r="2.0" fill="#c44b3a" opacity="0.88"/><circle cx="94.86" cy="42.12" r="2.0" fill="#c44b3a" opacity="0.46"/><circle cx="42.12" cy="96.89" r="2.0" fill="#c44b3a" opacity="0.88"/><circle cx="96.89" cy="42.12" r="2.0" fill="#c44b3a" opacity="0.46"/><circle cx="42.12" cy="108.05" r="2.0" fill="#c44b3a" opacity="0.88"/><circle cx="108.05" cy="42.12" r="2.0" fill="#c44b3a" opacity="0.46"/><circle cx="42.12" cy="109.07" r="2.0" fill="#c44b3a" opacity="0.88"/><circle cx="109.07" cy="42.12" r="2.0" fill="#c44b3a" opacity="0.46"/><circle cx="42.12" cy="115.15" r="2.0" fill="#c44b3a" opacity="0.88"/><circle cx="115.15" cy="42.12" r="2.0" fill="#c44b3a" opacity="0.46"/><circle cx="42.12" cy="119.21" r="2.0" fill="#c44b3a" opacity="0.88"/><circle cx="119.21" cy="42.12" r="2.0" fill="#c44b3a" opacity="0.46"/><circle cx="42.12" cy="121.24" r="2.0" fill="#c44b3a" opacity="0.88"/><circle cx="121.24" cy="42.12" r="2.0" fill="#c44b3a" opacity="0.46"/><circle cx="42.12" cy="122.25" r="2.0" fill="#c44b3a" opacity="0.88"/><circle cx="122.25" cy="42.12" r="2.0" fill="#c44b3a" opacity="0.46"/><circle cx="42.12" cy="125.30" r="2.0" fill="#c44b3a" opacity="0.88"/><circle cx="125.30" cy="42.12" r="2.0" fill="#c44b3a" opacity="0.46"/><circle cx="44.14" cy="62.40" r="2.0" fill="#c44b3a" opacity="0.88"/><circle cx="62.40" cy="44.14" r="2.0" fill="#c44b3a" opacity="0.46"/><circle cx="44.14" cy="68.49" r="2.0" fill="#c44b3a" opacity="0.88"/><circle cx="68.49" cy="44.14" r="2.0" fill="#c44b3a" opacity="0.46"/><circle cx="44.14" cy="70.52" r="2.0" fill="#c44b3a" opacity="0.88"/><circle cx="70.52" cy="44.14" r="2.0" fill="#c44b3a" opacity="0.46"/><circle cx="44.14" cy="76.61" r="2.0" fill="#c44b3a" opacity="0.88"/><circle cx="76.61" cy="44.14" r="2.0" fill="#c44b3a" opacity="0.46"/><circle cx="44.14" cy="78.63" r="2.0" fill="#c44b3a" opacity="0.88"/><circle cx="78.63" cy="44.14" r="2.0" fill="#c44b3a" opacity="0.46"/><circle cx="44.14" cy="119.21" r="2.0" fill="#c44b3a" opacity="0.88"/><circle cx="119.21" cy="44.14" r="2.0" fill="#c44b3a" opacity="0.46"/><circle cx="44.14" cy="125.30" r="2.0" fill="#c44b3a" opacity="0.88"/><circle cx="125.30" cy="44.14" r="2.0" fill="#c44b3a" opacity="0.46"/><circle cx="45.16" cy="49.22" r="2.4" fill="#294f9b" opacity="0.88"/><circle cx="49.22" cy="45.16" r="2.4" fill="#294f9b" opacity="0.46"/><circle cx="45.16" cy="69.50" r="2.4" fill="#294f9b" opacity="0.88"/><circle cx="69.50" cy="45.16" r="2.4" fill="#294f9b" opacity="0.46"/><circle cx="46.17" cy="62.40" r="2.0" fill="#c44b3a" opacity="0.88"/><circle cx="62.40" cy="46.17" r="2.0" fill="#c44b3a" opacity="0.46"/><circle cx="46.17" cy="63.42" r="2.0" fill="#c44b3a" opacity="0.88"/><circle cx="63.42" cy="46.17" r="2.0" fill="#c44b3a" opacity="0.46"/><circle cx="46.17" cy="68.49" r="2.0" fill="#c44b3a" opacity="0.88"/><circle cx="68.49" cy="46.17" r="2.0" fill="#c44b3a" opacity="0.46"/><circle cx="46.17" cy="70.52" r="2.0" fill="#c44b3a" opacity="0.88"/><circle cx="70.52" cy="46.17" r="2.0" fill="#c44b3a" opacity="0.46"/><circle cx="46.17" cy="76.61" r="2.0" fill="#c44b3a" opacity="0.88"/><circle cx="76.61" cy="46.17" r="2.0" fill="#c44b3a" opacity="0.46"/><circle cx="46.17" cy="78.63" r="2.0" fill="#c44b3a" opacity="0.88"/><circle cx="78.63" cy="46.17" r="2.0" fill="#c44b3a" opacity="0.46"/><circle cx="46.17" cy="85.73" r="2.0" fill="#c44b3a" opacity="0.88"/><circle cx="85.73" cy="46.17" r="2.0" fill="#c44b3a" opacity="0.46"/><circle cx="46.17" cy="89.79" r="2.0" fill="#c44b3a" opacity="0.88"/><circle cx="89.79" cy="46.17" r="2.0" fill="#c44b3a" opacity="0.46"/><circle cx="46.17" cy="93.85" r="2.0" fill="#c44b3a" opacity="0.88"/><circle cx="93.85" cy="46.17" r="2.0" fill="#c44b3a" opacity="0.46"/><circle cx="46.17" cy="94.86" r="2.0" fill="#c44b3a" opacity="0.88"/><circle cx="94.86" cy="46.17" r="2.0" fill="#c44b3a" opacity="0.46"/><circle cx="46.17" cy="96.89" r="2.0" fill="#c44b3a" opacity="0.88"/><circle cx="96.89" cy="46.17" r="2.0" fill="#c44b3a" opacity="0.46"/><circle cx="46.17" cy="108.05" r="2.0" fill="#c44b3a" opacity="0.88"/><circle cx="108.05" cy="46.17" r="2.0" fill="#c44b3a" opacity="0.46"/><circle cx="46.17" cy="109.07" r="2.0" fill="#c44b3a" opacity="0.88"/><circle cx="109.07" cy="46.17" r="2.0" fill="#c44b3a" opacity="0.46"/><circle cx="46.17" cy="115.15" r="2.0" fill="#c44b3a" opacity="0.88"/><circle cx="115.15" cy="46.17" r="2.0" fill="#c44b3a" opacity="0.46"/><circle cx="46.17" cy="119.21" r="2.0" fill="#c44b3a" opacity="0.88"/><circle cx="119.21" cy="46.17" r="2.0" fill="#c44b3a" opacity="0.46"/><circle cx="46.17" cy="121.24" r="2.0" fill="#c44b3a" opacity="0.88"/><circle cx="121.24" cy="46.17" r="2.0" fill="#c44b3a" opacity="0.46"/><circle cx="46.17" cy="122.25" r="2.0" fill="#c44b3a" opacity="0.88"/><circle cx="122.25" cy="46.17" r="2.0" fill="#c44b3a" opacity="0.46"/><circle cx="46.17" cy="125.30" r="2.0" fill="#c44b3a" opacity="0.88"/><circle cx="125.30" cy="46.17" r="2.0" fill="#c44b3a" opacity="0.46"/><circle cx="46.17" cy="137.47" r="2.0" fill="#c44b3a" opacity="0.88"/><circle cx="137.47" cy="46.17" r="2.0" fill="#c44b3a" opacity="0.46"/><circle cx="46.17" cy="139.50" r="2.0" fill="#c44b3a" opacity="0.88"/><circle cx="139.50" cy="46.17" r="2.0" fill="#c44b3a" opacity="0.46"/><circle cx="50.23" cy="54.29" r="2.4" fill="#294f9b" opacity="0.88"/><circle cx="54.29" cy="50.23" r="2.4" fill="#294f9b" opacity="0.46"/><circle cx="52.26" cy="68.49" r="2.0" fill="#c44b3a" opacity="0.88"/><circle cx="68.49" cy="52.26" r="2.0" fill="#c44b3a" opacity="0.46"/><circle cx="52.26" cy="70.52" r="2.0" fill="#c44b3a" opacity="0.88"/><circle cx="70.52" cy="52.26" r="2.0" fill="#c44b3a" opacity="0.46"/><circle cx="52.26" cy="76.61" r="2.0" fill="#c44b3a" opacity="0.88"/><circle cx="76.61" cy="52.26" r="2.0" fill="#c44b3a" opacity="0.46"/><circle cx="52.26" cy="78.63" r="2.0" fill="#c44b3a" opacity="0.88"/><circle cx="78.63" cy="52.26" r="2.0" fill="#c44b3a" opacity="0.46"/><circle cx="52.26" cy="119.21" r="2.0" fill="#c44b3a" opacity="0.88"/><circle cx="119.21" cy="52.26" r="2.0" fill="#c44b3a" opacity="0.46"/><circle cx="52.26" cy="125.30" r="2.0" fill="#c44b3a" opacity="0.88"/><circle cx="125.30" cy="52.26" r="2.0" fill="#c44b3a" opacity="0.46"/><circle cx="54.29" cy="58.35" r="2.8" fill="#218a5a" opacity="0.88"/><circle cx="58.35" cy="54.29" r="2.8" fill="#218a5a" opacity="0.46"/><circle cx="55.30" cy="59.36" r="2.4" fill="#294f9b" opacity="0.88"/><circle cx="59.36" cy="55.30" r="2.4" fill="#294f9b" opacity="0.46"/><circle cx="57.33" cy="77.62" r="2.4" fill="#294f9b" opacity="0.88"/><circle cx="77.62" cy="57.33" r="2.4" fill="#294f9b" opacity="0.46"/><circle cx="58.35" cy="62.40" r="2.4" fill="#294f9b" opacity="0.88"/><circle cx="62.40" cy="58.35" r="2.4" fill="#294f9b" opacity="0.46"/><circle cx="60.37" cy="64.43" r="2.4" fill="#294f9b" opacity="0.88"/><circle cx="64.43" cy="60.37" r="2.4" fill="#294f9b" opacity="0.46"/><circle cx="62.40" cy="66.46" r="2.4" fill="#294f9b" opacity="0.88"/><circle cx="66.46" cy="62.40" r="2.4" fill="#294f9b" opacity="0.46"/><circle cx="62.40" cy="78.63" r="2.0" fill="#c44b3a" opacity="0.88"/><circle cx="78.63" cy="62.40" r="2.0" fill="#c44b3a" opacity="0.46"/><circle cx="62.40" cy="85.73" r="2.0" fill="#c44b3a" opacity="0.88"/><circle cx="85.73" cy="62.40" r="2.0" fill="#c44b3a" opacity="0.46"/><circle cx="62.40" cy="89.79" r="2.0" fill="#c44b3a" opacity="0.88"/><circle cx="89.79" cy="62.40" r="2.0" fill="#c44b3a" opacity="0.46"/><circle cx="62.40" cy="93.85" r="2.0" fill="#c44b3a" opacity="0.88"/><circle cx="93.85" cy="62.40" r="2.0" fill="#c44b3a" opacity="0.46"/><circle cx="62.40" cy="94.86" r="2.0" fill="#c44b3a" opacity="0.88"/><circle cx="94.86" cy="62.40" r="2.0" fill="#c44b3a" opacity="0.46"/><circle cx="62.40" cy="96.89" r="2.0" fill="#c44b3a" opacity="0.88"/><circle cx="96.89" cy="62.40" r="2.0" fill="#c44b3a" opacity="0.46"/><circle cx="62.40" cy="108.05" r="2.0" fill="#c44b3a" opacity="0.88"/><circle cx="108.05" cy="62.40" r="2.0" fill="#c44b3a" opacity="0.46"/><circle cx="62.40" cy="109.07" r="2.0" fill="#c44b3a" opacity="0.88"/><circle cx="109.07" cy="62.40" r="2.0" fill="#c44b3a" opacity="0.46"/><circle cx="62.40" cy="115.15" r="2.0" fill="#c44b3a" opacity="0.88"/><circle cx="115.15" cy="62.40" r="2.0" fill="#c44b3a" opacity="0.46"/><circle cx="62.40" cy="119.21" r="2.0" fill="#c44b3a" opacity="0.88"/><circle cx="119.21" cy="62.40" r="2.0" fill="#c44b3a" opacity="0.46"/><circle cx="62.40" cy="121.24" r="2.0" fill="#c44b3a" opacity="0.88"/><circle cx="121.24" cy="62.40" r="2.0" fill="#c44b3a" opacity="0.46"/><circle cx="62.40" cy="122.25" r="2.0" fill="#c44b3a" opacity="0.88"/><circle cx="122.25" cy="62.40" r="2.0" fill="#c44b3a" opacity="0.46"/><circle cx="62.40" cy="125.30" r="2.0" fill="#c44b3a" opacity="0.88"/><circle cx="125.30" cy="62.40" r="2.0" fill="#c44b3a" opacity="0.46"/><circle cx="62.40" cy="130.37" r="2.0" fill="#c44b3a" opacity="0.88"/><circle cx="130.37" cy="62.40" r="2.0" fill="#c44b3a" opacity="0.46"/><circle cx="62.40" cy="136.46" r="2.0" fill="#c44b3a" opacity="0.88"/><circle cx="136.46" cy="62.40" r="2.0" fill="#c44b3a" opacity="0.46"/><circle cx="62.40" cy="137.47" r="2.0" fill="#c44b3a" opacity="0.88"/><circle cx="137.47" cy="62.40" r="2.0" fill="#c44b3a" opacity="0.46"/><circle cx="62.40" cy="139.50" r="2.0" fill="#c44b3a" opacity="0.88"/><circle cx="139.50" cy="62.40" r="2.0" fill="#c44b3a" opacity="0.46"/><circle cx="62.40" cy="149.64" r="2.0" fill="#c44b3a" opacity="0.88"/><circle cx="149.64" cy="62.40" r="2.0" fill="#c44b3a" opacity="0.46"/><circle cx="66.46" cy="70.52" r="2.4" fill="#294f9b" opacity="0.88"/><circle cx="70.52" cy="66.46" r="2.4" fill="#294f9b" opacity="0.46"/><circle cx="68.49" cy="85.73" r="2.0" fill="#c44b3a" opacity="0.88"/><circle cx="85.73" cy="68.49" r="2.0" fill="#c44b3a" opacity="0.46"/><circle cx="68.49" cy="89.79" r="2.0" fill="#c44b3a" opacity="0.88"/><circle cx="89.79" cy="68.49" r="2.0" fill="#c44b3a" opacity="0.46"/><circle cx="68.49" cy="93.85" r="2.0" fill="#c44b3a" opacity="0.88"/><circle cx="93.85" cy="68.49" r="2.0" fill="#c44b3a" opacity="0.46"/><circle cx="68.49" cy="94.86" r="2.0" fill="#c44b3a" opacity="0.88"/><circle cx="94.86" cy="68.49" r="2.0" fill="#c44b3a" opacity="0.46"/><circle cx="68.49" cy="96.89" r="2.0" fill="#c44b3a" opacity="0.88"/><circle cx="96.89" cy="68.49" r="2.0" fill="#c44b3a" opacity="0.46"/><circle cx="68.49" cy="108.05" r="2.0" fill="#c44b3a" opacity="0.88"/><circle cx="108.05" cy="68.49" r="2.0" fill="#c44b3a" opacity="0.46"/><circle cx="68.49" cy="109.07" r="2.0" fill="#c44b3a" opacity="0.88"/><circle cx="109.07" cy="68.49" r="2.0" fill="#c44b3a" opacity="0.46"/><circle cx="68.49" cy="115.15" r="2.0" fill="#c44b3a" opacity="0.88"/><circle cx="115.15" cy="68.49" r="2.0" fill="#c44b3a" opacity="0.46"/><circle cx="68.49" cy="119.21" r="2.0" fill="#c44b3a" opacity="0.88"/><circle cx="119.21" cy="68.49" r="2.0" fill="#c44b3a" opacity="0.46"/><circle cx="68.49" cy="121.24" r="2.0" fill="#c44b3a" opacity="0.88"/><circle cx="121.24" cy="68.49" r="2.0" fill="#c44b3a" opacity="0.46"/><circle cx="68.49" cy="122.25" r="2.0" fill="#c44b3a" opacity="0.88"/><circle cx="122.25" cy="68.49" r="2.0" fill="#c44b3a" opacity="0.46"/><circle cx="68.49" cy="125.30" r="2.0" fill="#c44b3a" opacity="0.88"/><circle cx="125.30" cy="68.49" r="2.0" fill="#c44b3a" opacity="0.46"/><circle cx="68.49" cy="130.37" r="2.0" fill="#c44b3a" opacity="0.88"/><circle cx="130.37" cy="68.49" r="2.0" fill="#c44b3a" opacity="0.46"/><circle cx="68.49" cy="136.46" r="2.0" fill="#c44b3a" opacity="0.88"/><circle cx="136.46" cy="68.49" r="2.0" fill="#c44b3a" opacity="0.46"/><circle cx="68.49" cy="137.47" r="2.0" fill="#c44b3a" opacity="0.88"/><circle cx="137.47" cy="68.49" r="2.0" fill="#c44b3a" opacity="0.46"/><circle cx="68.49" cy="139.50" r="2.0" fill="#c44b3a" opacity="0.88"/><circle cx="139.50" cy="68.49" r="2.0" fill="#c44b3a" opacity="0.46"/><circle cx="68.49" cy="149.64" r="2.0" fill="#c44b3a" opacity="0.88"/><circle cx="149.64" cy="68.49" r="2.0" fill="#c44b3a" opacity="0.46"/><circle cx="70.52" cy="74.58" r="2.4" fill="#294f9b" opacity="0.88"/><circle cx="74.58" cy="70.52" r="2.4" fill="#294f9b" opacity="0.46"/><circle cx="70.52" cy="89.79" r="2.0" fill="#c44b3a" opacity="0.88"/><circle cx="89.79" cy="70.52" r="2.0" fill="#c44b3a" opacity="0.46"/><circle cx="70.52" cy="93.85" r="2.0" fill="#c44b3a" opacity="0.88"/><circle cx="93.85" cy="70.52" r="2.0" fill="#c44b3a" opacity="0.46"/><circle cx="74.58" cy="78.63" r="2.4" fill="#294f9b" opacity="0.88"/><circle cx="78.63" cy="74.58" r="2.4" fill="#294f9b" opacity="0.46"/><circle cx="75.59" cy="95.88" r="2.4" fill="#294f9b" opacity="0.88"/><circle cx="95.88" cy="75.59" r="2.4" fill="#294f9b" opacity="0.46"/><circle cx="78.63" cy="82.69" r="2.4" fill="#294f9b" opacity="0.88"/><circle cx="82.69" cy="78.63" r="2.4" fill="#294f9b" opacity="0.46"/><circle cx="82.69" cy="86.75" r="2.4" fill="#294f9b" opacity="0.88"/><circle cx="86.75" cy="82.69" r="2.4" fill="#294f9b" opacity="0.46"/><circle cx="83.71" cy="87.76" r="2.4" fill="#294f9b" opacity="0.88"/><circle cx="87.76" cy="83.71" r="2.4" fill="#294f9b" opacity="0.46"/><circle cx="83.71" cy="108.05" r="2.4" fill="#294f9b" opacity="0.88"/><circle cx="108.05" cy="83.71" r="2.4" fill="#294f9b" opacity="0.46"/><circle cx="86.75" cy="90.81" r="2.4" fill="#294f9b" opacity="0.88"/><circle cx="90.81" cy="86.75" r="2.4" fill="#294f9b" opacity="0.46"/><circle cx="88.78" cy="92.84" r="2.4" fill="#294f9b" opacity="0.88"/><circle cx="92.84" cy="88.78" r="2.4" fill="#294f9b" opacity="0.46"/><circle cx="90.81" cy="94.86" r="2.4" fill="#294f9b" opacity="0.88"/><circle cx="94.86" cy="90.81" r="2.4" fill="#294f9b" opacity="0.46"/><circle cx="93.85" cy="97.91" r="2.4" fill="#294f9b" opacity="0.88"/><circle cx="97.91" cy="93.85" r="2.4" fill="#294f9b" opacity="0.46"/><circle cx="93.85" cy="114.14" r="2.4" fill="#294f9b" opacity="0.88"/><circle cx="114.14" cy="93.85" r="2.4" fill="#294f9b" opacity="0.46"/><circle cx="94.86" cy="98.92" r="2.4" fill="#294f9b" opacity="0.88"/><circle cx="98.92" cy="94.86" r="2.4" fill="#294f9b" opacity="0.46"/><circle cx="98.92" cy="102.98" r="2.4" fill="#294f9b" opacity="0.88"/><circle cx="102.98" cy="98.92" r="2.4" fill="#294f9b" opacity="0.46"/><circle cx="102.98" cy="107.04" r="2.4" fill="#294f9b" opacity="0.88"/><circle cx="107.04" cy="102.98" r="2.4" fill="#294f9b" opacity="0.46"/><circle cx="107.04" cy="111.10" r="2.4" fill="#294f9b" opacity="0.88"/><circle cx="111.10" cy="107.04" r="2.4" fill="#294f9b" opacity="0.46"/><circle cx="111.10" cy="115.15" r="2.4" fill="#294f9b" opacity="0.88"/><circle cx="115.15" cy="111.10" r="2.4" fill="#294f9b" opacity="0.46"/><circle cx="112.11" cy="132.40" r="2.4" fill="#294f9b" opacity="0.88"/><circle cx="132.40" cy="112.11" r="2.4" fill="#294f9b" opacity="0.46"/><circle cx="122.25" cy="126.31" r="2.4" fill="#294f9b" opacity="0.88"/><circle cx="126.31" cy="122.25" r="2.4" fill="#294f9b" opacity="0.46"/><circle cx="122.25" cy="146.60" r="2.4" fill="#294f9b" opacity="0.88"/><circle cx="146.60" cy="122.25" r="2.4" fill="#294f9b" opacity="0.46"/><circle cx="127.33" cy="131.38" r="2.4" fill="#294f9b" opacity="0.88"/><circle cx="131.38" cy="127.33" r="2.4" fill="#294f9b" opacity="0.46"/><circle cx="130.37" cy="150.66" r="2.4" fill="#294f9b" opacity="0.88"/><circle cx="150.66" cy="130.37" r="2.4" fill="#294f9b" opacity="0.46"/><circle cx="132.40" cy="136.46" r="2.4" fill="#294f9b" opacity="0.88"/><circle cx="136.46" cy="132.40" r="2.4" fill="#294f9b" opacity="0.46"/><circle cx="137.47" cy="141.53" r="2.4" fill="#294f9b" opacity="0.88"/><circle cx="141.53" cy="137.47" r="2.4" fill="#294f9b" opacity="0.46"/><circle cx="143.56" cy="147.61" r="2.4" fill="#294f9b" opacity="0.88"/><circle cx="147.61" cy="143.56" r="2.4" fill="#294f9b" opacity="0.46"/><circle cx="147.61" cy="151.67" r="2.4" fill="#294f9b" opacity="0.88"/><circle cx="151.67" cy="147.61" r="2.4" fill="#294f9b" opacity="0.46"/><circle cx="148.63" cy="168.92" r="2.4" fill="#294f9b" opacity="0.88"/><circle cx="168.92" cy="148.63" r="2.4" fill="#294f9b" opacity="0.46"/><circle cx="151.67" cy="155.73" r="2.4" fill="#294f9b" opacity="0.88"/><circle cx="155.73" cy="151.67" r="2.4" fill="#294f9b" opacity="0.46"/><circle cx="155.73" cy="159.79" r="2.4" fill="#294f9b" opacity="0.88"/><circle cx="159.79" cy="155.73" r="2.4" fill="#294f9b" opacity="0.46"/><circle cx="159.79" cy="163.84" r="2.4" fill="#294f9b" opacity="0.88"/><circle cx="163.84" cy="159.79" r="2.4" fill="#294f9b" opacity="0.46"/><circle cx="160.80" cy="164.86" r="2.4" fill="#294f9b" opacity="0.88"/><circle cx="164.86" cy="160.80" r="2.4" fill="#294f9b" opacity="0.46"/><circle cx="160.80" cy="185.15" r="2.4" fill="#294f9b" opacity="0.88"/><circle cx="185.15" cy="160.80" r="2.4" fill="#294f9b" opacity="0.46"/><circle cx="165.87" cy="169.93" r="2.4" fill="#294f9b" opacity="0.88"/><circle cx="169.93" cy="165.87" r="2.4" fill="#294f9b" opacity="0.46"/><circle cx="166.89" cy="187.18" r="2.4" fill="#294f9b" opacity="0.88"/><circle cx="187.18" cy="166.89" r="2.4" fill="#294f9b" opacity="0.46"/><circle cx="170.95" cy="175.00" r="2.4" fill="#294f9b" opacity="0.88"/><circle cx="175.00" cy="170.95" r="2.4" fill="#294f9b" opacity="0.46"/><circle cx="171.96" cy="176.02" r="2.4" fill="#294f9b" opacity="0.88"/><circle cx="176.02" cy="171.96" r="2.4" fill="#294f9b" opacity="0.46"/><circle cx="176.02" cy="180.07" r="2.4" fill="#294f9b" opacity="0.88"/><circle cx="180.07" cy="176.02" r="2.4" fill="#294f9b" opacity="0.46"/><circle cx="184.13" cy="188.19" r="2.4" fill="#294f9b" opacity="0.88"/><circle cx="188.19" cy="184.13" r="2.4" fill="#294f9b" opacity="0.46"/><circle cx="185.15" cy="205.44" r="2.4" fill="#294f9b" opacity="0.88"/><circle cx="205.44" cy="185.15" r="2.4" fill="#294f9b" opacity="0.46"/><circle cx="188.19" cy="192.25" r="2.4" fill="#294f9b" opacity="0.88"/><circle cx="192.25" cy="188.19" r="2.4" fill="#294f9b" opacity="0.46"/><circle cx="196.31" cy="200.36" r="2.4" fill="#294f9b" opacity="0.88"/><circle cx="200.36" cy="196.31" r="2.4" fill="#294f9b" opacity="0.46"/><circle cx="199.35" cy="203.41" r="2.4" fill="#294f9b" opacity="0.88"/><circle cx="203.41" cy="199.35" r="2.4" fill="#294f9b" opacity="0.46"/><circle cx="199.35" cy="223.69" r="2.4" fill="#294f9b" opacity="0.88"/><circle cx="223.69" cy="199.35" r="2.4" fill="#294f9b" opacity="0.46"/><circle cx="200.36" cy="204.42" r="2.4" fill="#294f9b" opacity="0.88"/><circle cx="204.42" cy="200.36" r="2.4" fill="#294f9b" opacity="0.46"/><circle cx="203.41" cy="223.69" r="2.4" fill="#294f9b" opacity="0.88"/><circle cx="223.69" cy="203.41" r="2.4" fill="#294f9b" opacity="0.46"/><circle cx="204.42" cy="208.48" r="2.4" fill="#294f9b" opacity="0.88"/><circle cx="208.48" cy="204.42" r="2.4" fill="#294f9b" opacity="0.46"/><circle cx="208.48" cy="212.54" r="2.4" fill="#294f9b" opacity="0.88"/><circle cx="212.54" cy="208.48" r="2.4" fill="#294f9b" opacity="0.46"/><circle cx="209.49" cy="213.55" r="2.4" fill="#294f9b" opacity="0.88"/><circle cx="213.55" cy="209.49" r="2.4" fill="#294f9b" opacity="0.46"/><circle cx="212.54" cy="216.59" r="2.4" fill="#294f9b" opacity="0.88"/><circle cx="216.59" cy="212.54" r="2.4" fill="#294f9b" opacity="0.46"/><circle cx="214.56" cy="218.62" r="2.4" fill="#294f9b" opacity="0.88"/><circle cx="218.62" cy="214.56" r="2.4" fill="#294f9b" opacity="0.46"/><circle cx="216.59" cy="220.65" r="2.4" fill="#294f9b" opacity="0.88"/><circle cx="220.65" cy="216.59" r="2.4" fill="#294f9b" opacity="0.46"/><circle cx="221.67" cy="241.95" r="2.4" fill="#294f9b" opacity="0.88"/><circle cx="241.95" cy="221.67" r="2.4" fill="#294f9b" opacity="0.46"/><circle cx="228.77" cy="232.82" r="2.4" fill="#294f9b" opacity="0.88"/><circle cx="232.82" cy="228.77" r="2.4" fill="#294f9b" opacity="0.46"/><circle cx="232.82" cy="236.88" r="2.4" fill="#294f9b" opacity="0.88"/><circle cx="236.88" cy="232.82" r="2.4" fill="#294f9b" opacity="0.46"/><circle cx="236.88" cy="240.94" r="2.4" fill="#294f9b" opacity="0.88"/><circle cx="240.94" cy="236.88" r="2.4" fill="#294f9b" opacity="0.46"/><circle cx="237.90" cy="241.95" r="2.4" fill="#294f9b" opacity="0.88"/><circle cx="241.95" cy="237.90" r="2.4" fill="#294f9b" opacity="0.46"/><circle cx="237.90" cy="262.24" r="2.4" fill="#294f9b" opacity="0.88"/><circle cx="262.24" cy="237.90" r="2.4" fill="#294f9b" opacity="0.46"/><circle cx="239.93" cy="260.21" r="2.4" fill="#294f9b" opacity="0.88"/><circle cx="260.21" cy="239.93" r="2.4" fill="#294f9b" opacity="0.46"/><circle cx="242.97" cy="247.03" r="2.4" fill="#294f9b" opacity="0.88"/><circle cx="247.03" cy="242.97" r="2.4" fill="#294f9b" opacity="0.46"/><circle cx="248.04" cy="252.10" r="2.4" fill="#294f9b" opacity="0.88"/><circle cx="252.10" cy="248.04" r="2.4" fill="#294f9b" opacity="0.46"/><circle cx="253.11" cy="257.17" r="2.4" fill="#294f9b" opacity="0.88"/><circle cx="257.17" cy="253.11" r="2.4" fill="#294f9b" opacity="0.46"/><circle cx="257.17" cy="261.23" r="2.4" fill="#294f9b" opacity="0.88"/><circle cx="261.23" cy="257.17" r="2.4" fill="#294f9b" opacity="0.46"/><circle cx="258.18" cy="278.47" r="2.4" fill="#294f9b" opacity="0.88"/><circle cx="278.47" cy="258.18" r="2.4" fill="#294f9b" opacity="0.46"/><circle cx="261.23" cy="265.29" r="2.4" fill="#294f9b" opacity="0.88"/><circle cx="265.29" cy="261.23" r="2.4" fill="#294f9b" opacity="0.46"/><circle cx="265.29" cy="269.34" r="2.4" fill="#294f9b" opacity="0.88"/><circle cx="269.34" cy="265.29" r="2.4" fill="#294f9b" opacity="0.46"/><circle cx="269.34" cy="273.40" r="2.4" fill="#294f9b" opacity="0.88"/><circle cx="273.40" cy="269.34" r="2.4" fill="#294f9b" opacity="0.46"/><circle cx="273.40" cy="277.46" r="2.4" fill="#294f9b" opacity="0.88"/><circle cx="277.46" cy="273.40" r="2.4" fill="#294f9b" opacity="0.46"/><circle cx="276.44" cy="280.50" r="2.4" fill="#294f9b" opacity="0.88"/><circle cx="280.50" cy="276.44" r="2.4" fill="#294f9b" opacity="0.46"/><circle cx="276.44" cy="296.73" r="2.4" fill="#294f9b" opacity="0.88"/><circle cx="296.73" cy="276.44" r="2.4" fill="#294f9b" opacity="0.46"/><circle cx="276.44" cy="300.79" r="2.4" fill="#294f9b" opacity="0.88"/><circle cx="300.79" cy="276.44" r="2.4" fill="#294f9b" opacity="0.46"/><circle cx="277.46" cy="281.52" r="2.4" fill="#294f9b" opacity="0.88"/><circle cx="281.52" cy="277.46" r="2.4" fill="#294f9b" opacity="0.46"/><circle cx="281.52" cy="285.57" r="2.4" fill="#294f9b" opacity="0.88"/><circle cx="285.57" cy="281.52" r="2.4" fill="#294f9b" opacity="0.46"/><circle cx="285.57" cy="289.63" r="2.4" fill="#294f9b" opacity="0.88"/><circle cx="289.63" cy="285.57" r="2.4" fill="#294f9b" opacity="0.46"/><circle cx="286.59" cy="290.65" r="2.4" fill="#294f9b" opacity="0.88"/><circle cx="290.65" cy="286.59" r="2.4" fill="#294f9b" opacity="0.46"/><circle cx="289.63" cy="293.69" r="2.4" fill="#294f9b" opacity="0.88"/><circle cx="293.69" cy="289.63" r="2.4" fill="#294f9b" opacity="0.46"/><circle cx="291.66" cy="295.72" r="2.4" fill="#294f9b" opacity="0.88"/><circle cx="295.72" cy="291.66" r="2.4" fill="#294f9b" opacity="0.46"/><circle cx="293.69" cy="297.75" r="2.4" fill="#294f9b" opacity="0.88"/><circle cx="297.75" cy="293.69" r="2.4" fill="#294f9b" opacity="0.46"/><circle cx="294.70" cy="314.99" r="2.4" fill="#294f9b" opacity="0.88"/><circle cx="314.99" cy="294.70" r="2.4" fill="#294f9b" opacity="0.46"/><circle cx="301.80" cy="305.86" r="2.4" fill="#294f9b" opacity="0.88"/><circle cx="305.86" cy="301.80" r="2.4" fill="#294f9b" opacity="0.46"/><circle cx="305.86" cy="309.92" r="2.4" fill="#294f9b" opacity="0.88"/><circle cx="309.92" cy="305.86" r="2.4" fill="#294f9b" opacity="0.46"/><circle cx="312.96" cy="333.25" r="2.4" fill="#294f9b" opacity="0.88"/><circle cx="333.25" cy="312.96" r="2.4" fill="#294f9b" opacity="0.46"/><circle cx="314.99" cy="319.05" r="2.4" fill="#294f9b" opacity="0.88"/><circle cx="319.05" cy="314.99" r="2.4" fill="#294f9b" opacity="0.46"/><circle cx="314.99" cy="339.34" r="2.4" fill="#294f9b" opacity="0.88"/><circle cx="339.34" cy="314.99" r="2.4" fill="#294f9b" opacity="0.46"/><circle cx="320.06" cy="324.12" r="2.4" fill="#294f9b" opacity="0.88"/><circle cx="324.12" cy="320.06" r="2.4" fill="#294f9b" opacity="0.46"/><circle cx="325.14" cy="329.19" r="2.4" fill="#294f9b" opacity="0.88"/><circle cx="329.19" cy="325.14" r="2.4" fill="#294f9b" opacity="0.46"/><circle cx="330.21" cy="334.27" r="2.4" fill="#294f9b" opacity="0.88"/><circle cx="334.27" cy="330.21" r="2.4" fill="#294f9b" opacity="0.46"/><circle cx="331.22" cy="351.51" r="2.4" fill="#294f9b" opacity="0.88"/><circle cx="351.51" cy="331.22" r="2.4" fill="#294f9b" opacity="0.46"/><circle cx="342.38" cy="346.44" r="2.4" fill="#294f9b" opacity="0.88"/><circle cx="346.44" cy="342.38" r="2.4" fill="#294f9b" opacity="0.46"/><circle cx="346.44" cy="350.50" r="2.4" fill="#294f9b" opacity="0.88"/><circle cx="350.50" cy="346.44" r="2.4" fill="#294f9b" opacity="0.46"/><circle cx="349.48" cy="369.77" r="2.4" fill="#294f9b" opacity="0.88"/><circle cx="369.77" cy="349.48" r="2.4" fill="#294f9b" opacity="0.46"/><circle cx="350.50" cy="354.55" r="2.4" fill="#294f9b" opacity="0.88"/><circle cx="354.55" cy="350.50" r="2.4" fill="#294f9b" opacity="0.46"/><circle cx="353.54" cy="357.60" r="2.4" fill="#294f9b" opacity="0.88"/><circle cx="357.60" cy="353.54" r="2.4" fill="#294f9b" opacity="0.46"/><circle cx="353.54" cy="377.88" r="2.4" fill="#294f9b" opacity="0.88"/><circle cx="377.88" cy="353.54" r="2.4" fill="#294f9b" opacity="0.46"/><circle cx="354.55" cy="358.61" r="2.4" fill="#294f9b" opacity="0.88"/><circle cx="358.61" cy="354.55" r="2.4" fill="#294f9b" opacity="0.46"/><circle cx="358.61" cy="362.67" r="2.4" fill="#294f9b" opacity="0.88"/><circle cx="362.67" cy="358.61" r="2.4" fill="#294f9b" opacity="0.46"/><circle cx="362.67" cy="366.73" r="2.4" fill="#294f9b" opacity="0.88"/><circle cx="366.73" cy="362.67" r="2.4" fill="#294f9b" opacity="0.46"/><circle cx="363.68" cy="367.74" r="2.4" fill="#294f9b" opacity="0.88"/><circle cx="367.74" cy="363.68" r="2.4" fill="#294f9b" opacity="0.46"/><circle cx="366.73" cy="370.78" r="2.4" fill="#294f9b" opacity="0.88"/><circle cx="370.78" cy="366.73" r="2.4" fill="#294f9b" opacity="0.46"/><circle cx="368.76" cy="372.81" r="2.4" fill="#294f9b" opacity="0.88"/><circle cx="372.81" cy="368.76" r="2.4" fill="#294f9b" opacity="0.46"/><circle cx="370.78" cy="374.84" r="2.4" fill="#294f9b" opacity="0.88"/><circle cx="374.84" cy="370.78" r="2.4" fill="#294f9b" opacity="0.46"/><circle cx="374.84" cy="378.90" r="2.4" fill="#294f9b" opacity="0.88"/><circle cx="378.90" cy="374.84" r="2.4" fill="#294f9b" opacity="0.46"/><circle cx="378.90" cy="382.96" r="2.4" fill="#294f9b" opacity="0.88"/><circle cx="382.96" cy="378.90" r="2.4" fill="#294f9b" opacity="0.46"/>
  <g font-family="Arial, sans-serif" font-size="11" fill="#34423d">
    <rect x="34" y="372" width="250" height="32" fill="#ffffff" stroke="#d5ddd5"/>
    <circle cx="46" cy="384" r="4" fill="#218a5a"/><text x="56" y="388">native + predicted</text>
    <circle cx="156" cy="384" r="4" fill="#294f9b"/><text x="166" y="388">native only</text>
    <circle cx="236" cy="384" r="4" fill="#c44b3a"/><text x="246" y="388">predicted only</text>
  </g>
  <text x="34" y="412" font-family="Arial, sans-serif" font-size="11" fill="#58635e">row: visual_011_membrane_rhodopsin</text>
</svg>
