<svg xmlns="http://www.w3.org/2000/svg" width="760" height="260" viewBox="0 0 760 260" role="img" aria-label="Coarse-grain final collapse">
  <rect width="760" height="260" fill="#f8faf7"/>
  <text x="34" y="24" font-family="Arial, sans-serif" font-size="15" fill="#22302d">Coarse-grain final collapse</text>
<line x1="240.73" y1="116.74" x2="497.35" y2="105.28" stroke="#25636a" stroke-opacity="0.22" stroke-width="1.2"/><line x1="240.73" y1="116.74" x2="533.57" y2="106.40" stroke="#25636a" stroke-opacity="0.22" stroke-width="1.2"/><line x1="68.71" y1="124.90" x2="97.73" y2="129.88" stroke="#25636a" stroke-opacity="0.22" stroke-width="1.2"/><line x1="151.15" y1="136.94" x2="180.17" y2="139.14" stroke="#25636a" stroke-opacity="0.22" stroke-width="1.2"/><line x1="175.88" y1="138.89" x2="204.90" y2="139.92" stroke="#25636a" stroke-opacity="0.22" stroke-width="1.2"/><line x1="225.34" y1="139.77" x2="254.36" y2="138.35" stroke="#25636a" stroke-opacity="0.22" stroke-width="1.2"/><line x1="376.41" y1="125.66" x2="401.43" y2="114.02" stroke="#25636a" stroke-opacity="0.22" stroke-width="1.2"/><line x1="376.41" y1="125.66" x2="433.80" y2="110.26" stroke="#25636a" stroke-opacity="0.22" stroke-width="1.2"/><line x1="376.41" y1="125.66" x2="481.03" y2="104.45" stroke="#25636a" stroke-opacity="0.22" stroke-width="1.2"/><line x1="376.41" y1="125.66" x2="497.35" y2="105.28" stroke="#25636a" stroke-opacity="0.22" stroke-width="1.2"/><line x1="376.41" y1="125.66" x2="560.24" y2="102.60" stroke="#25636a" stroke-opacity="0.22" stroke-width="1.2"/><line x1="376.41" y1="125.66" x2="533.57" y2="106.40" stroke="#25636a" stroke-opacity="0.22" stroke-width="1.2"/><line x1="376.41" y1="125.66" x2="593.26" y2="104.74" stroke="#25636a" stroke-opacity="0.22" stroke-width="1.2"/><line x1="376.41" y1="125.66" x2="640.81" y2="110.82" stroke="#25636a" stroke-opacity="0.22" stroke-width="1.2"/><line x1="376.41" y1="125.66" x2="688.48" y2="118.93" stroke="#25636a" stroke-opacity="0.22" stroke-width="1.2"/><line x1="250.08" y1="138.65" x2="281.19" y2="135.81" stroke="#25636a" stroke-opacity="0.22" stroke-width="1.2"/><line x1="281.19" y1="135.81" x2="311.95" y2="131.78" stroke="#25636a" stroke-opacity="0.22" stroke-width="1.2"/><line x1="307.78" y1="132.41" x2="338.90" y2="127.42" stroke="#25636a" stroke-opacity="0.22" stroke-width="1.2"/><line x1="332.52" y1="128.53" x2="361.53" y2="123.40" stroke="#25636a" stroke-opacity="0.22" stroke-width="1.2"/><line x1="338.90" y1="127.42" x2="371.76" y2="121.52" stroke="#25636a" stroke-opacity="0.22" stroke-width="1.2"/><line x1="359.67" y1="122.10" x2="497.35" y2="105.28" stroke="#25636a" stroke-opacity="0.22" stroke-width="1.2"/><line x1="359.67" y1="122.10" x2="533.57" y2="106.40" stroke="#25636a" stroke-opacity="0.22" stroke-width="1.2"/><line x1="371.76" y1="121.52" x2="402.63" y2="115.83" stroke="#25636a" stroke-opacity="0.22" stroke-width="1.2"/><line x1="390.22" y1="118.11" x2="421.34" y2="112.54" stroke="#25636a" stroke-opacity="0.22" stroke-width="1.2"/><line x1="421.34" y1="112.54" x2="452.10" y2="107.61" stroke="#25636a" stroke-opacity="0.22" stroke-width="1.2"/><line x1="425.45" y1="110.23" x2="533.57" y2="106.40" stroke="#25636a" stroke-opacity="0.22" stroke-width="1.2"/><line x1="455.34" y1="106.04" x2="533.57" y2="106.40" stroke="#25636a" stroke-opacity="0.22" stroke-width="1.2"/><line x1="497.35" y1="105.28" x2="645.45" y2="113.62" stroke="#25636a" stroke-opacity="0.22" stroke-width="1.2"/><line x1="596.32" y1="101.95" x2="625.34" y2="104.87" stroke="#25636a" stroke-opacity="0.22" stroke-width="1.2"/><line x1="637.54" y1="106.43" x2="668.66" y2="111.19" stroke="#25636a" stroke-opacity="0.22" stroke-width="1.2"/><line x1="668.66" y1="111.19" x2="699.41" y2="116.58" stroke="#25636a" stroke-opacity="0.22" stroke-width="1.2"/><line x1="240.73" y1="116.74" x2="359.67" y2="122.10" stroke="#25636a" stroke-opacity="0.22" stroke-width="1.2"/><line x1="240.73" y1="116.74" x2="425.45" y2="110.23" stroke="#25636a" stroke-opacity="0.22" stroke-width="1.2"/><line x1="240.73" y1="116.74" x2="455.34" y2="106.04" stroke="#25636a" stroke-opacity="0.22" stroke-width="1.2"/><line x1="240.73" y1="116.74" x2="483.73" y2="102.79" stroke="#25636a" stroke-opacity="0.22" stroke-width="1.2"/><line x1="240.73" y1="116.74" x2="531.42" y2="101.10" stroke="#25636a" stroke-opacity="0.22" stroke-width="1.2"/>
  <polyline points="42.00,120.00 50.24,121.53 240.73,116.74 68.71,124.90 74.98,126.03 83.22,127.48 91.46,128.87 97.73,129.88 107.95,131.51 164.31,131.46 124.44,133.87 132.68,134.93 140.93,135.91 151.15,136.94 157.41,137.57 165.66,138.25 175.88,138.89 180.17,139.14 190.39,139.63 198.63,139.87 204.90,139.92 215.12,139.99 225.34,139.77 376.41,125.66 239.85,139.29 250.08,138.65 254.36,138.35 255.68,137.28 272.83,136.79 281.19,135.81 289.32,134.93 287.21,133.82 307.78,132.41 311.95,131.78 322.29,130.22 332.52,128.53 338.90,127.42 334.33,126.46 359.67,122.10 361.53,123.40 371.76,121.52 380.00,120.00 390.22,118.11 396.49,116.95 402.63,115.83 412.98,113.97 421.34,112.54 401.43,114.02 425.45,110.23 433.80,110.26 452.10,107.61 462.44,106.13 455.34,106.04 478.93,104.09 487.17,103.21 481.03,104.45 483.73,102.79 511.90,101.18 520.15,100.71 528.39,100.37 497.35,105.28 544.88,100.01 531.42,101.10 561.37,100.13 569.61,100.37 560.24,102.60 586.10,101.18 596.32,101.95 533.57,106.40 593.26,104.74 619.07,104.09 625.34,104.87 637.54,106.43 643.80,107.28 652.05,108.49 640.81,110.82 668.66,111.19 676.78,112.52 645.45,113.62 693.27,115.44 699.41,116.58 688.48,118.93 718.00,120.00" fill="none" stroke="#7d8f86" stroke-width="3"/>
  <circle cx="42.00" cy="120.00" r="3.2" fill="#22302d"/><circle cx="240.73" cy="116.74" r="3.2" fill="#22302d"/><circle cx="74.98" cy="126.03" r="3.2" fill="#22302d"/><circle cx="91.46" cy="128.87" r="3.2" fill="#22302d"/><circle cx="107.95" cy="131.51" r="3.2" fill="#22302d"/><circle cx="124.44" cy="133.87" r="3.2" fill="#22302d"/><circle cx="140.93" cy="135.91" r="3.2" fill="#22302d"/><circle cx="157.41" cy="137.57" r="3.2" fill="#22302d"/><circle cx="175.88" cy="138.89" r="3.2" fill="#22302d"/><circle cx="190.39" cy="139.63" r="3.2" fill="#22302d"/><circle cx="204.90" cy="139.92" r="3.2" fill="#22302d"/><circle cx="225.34" cy="139.77" r="3.2" fill="#22302d"/><circle cx="239.85" cy="139.29" r="3.2" fill="#22302d"/><circle cx="254.36" cy="138.35" r="3.2" fill="#22302d"/><circle cx="272.83" cy="136.79" r="3.2" fill="#22302d"/><circle cx="289.32" cy="134.93" r="3.2" fill="#22302d"/><circle cx="307.78" cy="132.41" r="3.2" fill="#22302d"/><circle cx="322.29" cy="130.22" r="3.2" fill="#22302d"/><circle cx="338.90" cy="127.42" r="3.2" fill="#22302d"/><circle cx="359.67" cy="122.10" r="3.2" fill="#22302d"/><circle cx="371.76" cy="121.52" r="3.2" fill="#22302d"/><circle cx="390.22" cy="118.11" r="3.2" fill="#22302d"/><circle cx="402.63" cy="115.83" r="3.2" fill="#22302d"/><circle cx="421.34" cy="112.54" r="3.2" fill="#22302d"/><circle cx="425.45" cy="110.23" r="3.2" fill="#22302d"/><circle cx="452.10" cy="107.61" r="3.2" fill="#22302d"/><circle cx="455.34" cy="106.04" r="3.2" fill="#22302d"/><circle cx="487.17" cy="103.21" r="3.2" fill="#22302d"/><circle cx="483.73" cy="102.79" r="3.2" fill="#22302d"/><circle cx="520.15" cy="100.71" r="3.2" fill="#22302d"/><circle cx="497.35" cy="105.28" r="3.2" fill="#22302d"/><circle cx="531.42" cy="101.10" r="3.2" fill="#22302d"/><circle cx="569.61" cy="100.37" r="3.2" fill="#22302d"/><circle cx="586.10" cy="101.18" r="3.2" fill="#22302d"/><circle cx="533.57" cy="106.40" r="3.2" fill="#22302d"/><circle cx="619.07" cy="104.09" r="3.2" fill="#22302d"/><circle cx="637.54" cy="106.43" r="3.2" fill="#22302d"/><circle cx="652.05" cy="108.49" r="3.2" fill="#22302d"/><circle cx="668.66" cy="111.19" r="3.2" fill="#22302d"/><circle cx="645.45" cy="113.62" r="3.2" fill="#22302d"/><circle cx="699.41" cy="116.58" r="3.2" fill="#22302d"/><circle cx="718.00" cy="120.00" r="3.2" fill="#22302d"/>
  <text x="34" y="248" font-family="Arial, sans-serif" font-size="11" fill="#58635e">row: visual_009_mixed_ci2 | coarse beads, not atomic structure</text>
</svg>
