<svg xmlns="http://www.w3.org/2000/svg" width="420" height="420" viewBox="0 0 420 420" role="img" aria-label="contact map overlay">
  <rect width="420" height="420" fill="#f8faf7"/>
  <text x="34" y="22" font-family="Arial, sans-serif" font-size="14" fill="#22302d">Contact map overlay</text>
  <line x1="34" y1="34" x2="34" y2="386" stroke="#9aa69f"/>
  <line x1="34" y1="386" x2="386" y2="386" stroke="#9aa69f"/>
  <line x1="34" y1="34" x2="386" y2="386" stroke="#cfd8d2" stroke-dasharray="4 4"/>
  <circle cx="38.29" cy="55.46" r="2.4" fill="#294f9b" opacity="0.88"/><circle cx="55.46" cy="38.29" r="2.4" fill="#294f9b" opacity="0.46"/><circle cx="42.59" cy="197.12" r="2.0" fill="#c44b3a" opacity="0.88"/><circle cx="197.12" cy="42.59" r="2.0" fill="#c44b3a" opacity="0.46"/><circle cx="42.59" cy="240.05" r="2.0" fill="#c44b3a" opacity="0.88"/><circle cx="240.05" cy="42.59" r="2.0" fill="#c44b3a" opacity="0.46"/><circle cx="42.59" cy="257.22" r="2.0" fill="#c44b3a" opacity="0.88"/><circle cx="257.22" cy="42.59" r="2.0" fill="#c44b3a" opacity="0.46"/><circle cx="42.59" cy="274.39" r="2.0" fill="#c44b3a" opacity="0.88"/><circle cx="274.39" cy="42.59" r="2.0" fill="#c44b3a" opacity="0.46"/><circle cx="42.59" cy="291.56" r="2.0" fill="#c44b3a" opacity="0.88"/><circle cx="291.56" cy="42.59" r="2.0" fill="#c44b3a" opacity="0.46"/><circle cx="42.59" cy="300.15" r="2.0" fill="#c44b3a" opacity="0.88"/><circle cx="300.15" cy="42.59" r="2.0" fill="#c44b3a" opacity="0.46"/><circle cx="42.59" cy="325.90" r="2.0" fill="#c44b3a" opacity="0.88"/><circle cx="325.90" cy="42.59" r="2.0" fill="#c44b3a" opacity="0.46"/><circle cx="42.59" cy="368.83" r="2.0" fill="#c44b3a" opacity="0.88"/><circle cx="368.83" cy="42.59" r="2.0" fill="#c44b3a" opacity="0.46"/><circle cx="46.88" cy="64.05" r="2.0" fill="#c44b3a" opacity="0.88"/><circle cx="64.05" cy="46.88" r="2.0" fill="#c44b3a" opacity="0.46"/><circle cx="51.17" cy="68.34" r="2.4" fill="#294f9b" opacity="0.88"/><circle cx="68.34" cy="51.17" r="2.4" fill="#294f9b" opacity="0.46"/><circle cx="64.05" cy="81.22" r="2.4" fill="#294f9b" opacity="0.88"/><circle cx="81.22" cy="64.05" r="2.4" fill="#294f9b" opacity="0.46"/><circle cx="64.05" cy="184.24" r="2.4" fill="#294f9b" opacity="0.88"/><circle cx="184.24" cy="64.05" r="2.4" fill="#294f9b" opacity="0.46"/><circle cx="72.63" cy="149.90" r="2.0" fill="#c44b3a" opacity="0.88"/><circle cx="149.90" cy="72.63" r="2.0" fill="#c44b3a" opacity="0.46"/><circle cx="72.63" cy="167.07" r="2.0" fill="#c44b3a" opacity="0.88"/><circle cx="167.07" cy="72.63" r="2.0" fill="#c44b3a" opacity="0.46"/><circle cx="72.63" cy="192.83" r="2.0" fill="#c44b3a" opacity="0.88"/><circle cx="192.83" cy="72.63" r="2.0" fill="#c44b3a" opacity="0.46"/><circle cx="72.63" cy="235.76" r="2.0" fill="#c44b3a" opacity="0.88"/><circle cx="235.76" cy="72.63" r="2.0" fill="#c44b3a" opacity="0.46"/><circle cx="76.93" cy="94.10" r="2.4" fill="#294f9b" opacity="0.88"/><circle cx="94.10" cy="76.93" r="2.4" fill="#294f9b" opacity="0.46"/><circle cx="89.80" cy="106.98" r="2.8" fill="#218a5a" opacity="0.88"/><circle cx="106.98" cy="89.80" r="2.8" fill="#218a5a" opacity="0.46"/><circle cx="102.68" cy="119.85" r="2.8" fill="#218a5a" opacity="0.88"/><circle cx="119.85" cy="102.68" r="2.8" fill="#218a5a" opacity="0.46"/><circle cx="115.56" cy="132.73" r="2.4" fill="#294f9b" opacity="0.88"/><circle cx="132.73" cy="115.56" r="2.4" fill="#294f9b" opacity="0.46"/><circle cx="128.44" cy="145.61" r="2.8" fill="#218a5a" opacity="0.88"/><circle cx="145.61" cy="128.44" r="2.8" fill="#218a5a" opacity="0.46"/><circle cx="132.73" cy="235.76" r="2.0" fill="#c44b3a" opacity="0.88"/><circle cx="235.76" cy="132.73" r="2.0" fill="#c44b3a" opacity="0.46"/><circle cx="132.73" cy="244.34" r="2.0" fill="#c44b3a" opacity="0.88"/><circle cx="244.34" cy="132.73" r="2.0" fill="#c44b3a" opacity="0.46"/><circle cx="132.73" cy="270.10" r="2.0" fill="#c44b3a" opacity="0.88"/><circle cx="270.10" cy="132.73" r="2.0" fill="#c44b3a" opacity="0.46"/><circle cx="132.73" cy="291.56" r="2.0" fill="#c44b3a" opacity="0.88"/><circle cx="291.56" cy="132.73" r="2.0" fill="#c44b3a" opacity="0.46"/><circle cx="132.73" cy="313.02" r="2.0" fill="#c44b3a" opacity="0.88"/><circle cx="313.02" cy="132.73" r="2.0" fill="#c44b3a" opacity="0.46"/><circle cx="132.73" cy="325.90" r="2.0" fill="#c44b3a" opacity="0.88"/><circle cx="325.90" cy="132.73" r="2.0" fill="#c44b3a" opacity="0.46"/><circle cx="132.73" cy="330.20" r="2.0" fill="#c44b3a" opacity="0.88"/><circle cx="330.20" cy="132.73" r="2.0" fill="#c44b3a" opacity="0.46"/><circle cx="132.73" cy="355.95" r="2.0" fill="#c44b3a" opacity="0.88"/><circle cx="355.95" cy="132.73" r="2.0" fill="#c44b3a" opacity="0.46"/><circle cx="132.73" cy="381.71" r="2.0" fill="#c44b3a" opacity="0.88"/><circle cx="381.71" cy="132.73" r="2.0" fill="#c44b3a" opacity="0.46"/><circle cx="141.32" cy="158.49" r="2.8" fill="#218a5a" opacity="0.88"/><circle cx="158.49" cy="141.32" r="2.8" fill="#218a5a" opacity="0.46"/><circle cx="145.61" cy="222.88" r="2.4" fill="#294f9b" opacity="0.88"/><circle cx="222.88" cy="145.61" r="2.4" fill="#294f9b" opacity="0.46"/><circle cx="149.90" cy="218.59" r="2.4" fill="#294f9b" opacity="0.88"/><circle cx="218.59" cy="149.90" r="2.4" fill="#294f9b" opacity="0.46"/><circle cx="154.20" cy="171.37" r="2.4" fill="#294f9b" opacity="0.88"/><circle cx="171.37" cy="154.20" r="2.4" fill="#294f9b" opacity="0.46"/><circle cx="154.20" cy="214.29" r="2.4" fill="#294f9b" opacity="0.88"/><circle cx="214.29" cy="154.20" r="2.4" fill="#294f9b" opacity="0.46"/><circle cx="158.49" cy="175.66" r="2.0" fill="#c44b3a" opacity="0.88"/><circle cx="175.66" cy="158.49" r="2.0" fill="#c44b3a" opacity="0.46"/><circle cx="158.49" cy="210.00" r="2.4" fill="#294f9b" opacity="0.88"/><circle cx="210.00" cy="158.49" r="2.4" fill="#294f9b" opacity="0.46"/><circle cx="158.49" cy="278.68" r="2.4" fill="#294f9b" opacity="0.88"/><circle cx="278.68" cy="158.49" r="2.4" fill="#294f9b" opacity="0.46"/><circle cx="162.78" cy="205.71" r="2.4" fill="#294f9b" opacity="0.88"/><circle cx="205.71" cy="162.78" r="2.4" fill="#294f9b" opacity="0.46"/><circle cx="167.07" cy="184.24" r="2.4" fill="#294f9b" opacity="0.88"/><circle cx="184.24" cy="167.07" r="2.4" fill="#294f9b" opacity="0.46"/><circle cx="171.37" cy="188.54" r="2.0" fill="#c44b3a" opacity="0.88"/><circle cx="188.54" cy="171.37" r="2.0" fill="#c44b3a" opacity="0.46"/><circle cx="179.95" cy="197.12" r="2.4" fill="#294f9b" opacity="0.88"/><circle cx="197.12" cy="179.95" r="2.4" fill="#294f9b" opacity="0.46"/><circle cx="184.24" cy="201.41" r="2.0" fill="#c44b3a" opacity="0.88"/><circle cx="201.41" cy="184.24" r="2.0" fill="#c44b3a" opacity="0.46"/><circle cx="188.54" cy="205.71" r="2.0" fill="#c44b3a" opacity="0.88"/><circle cx="205.71" cy="188.54" r="2.0" fill="#c44b3a" opacity="0.46"/><circle cx="192.83" cy="210.00" r="2.4" fill="#294f9b" opacity="0.88"/><circle cx="210.00" cy="192.83" r="2.4" fill="#294f9b" opacity="0.46"/><circle cx="197.12" cy="291.56" r="2.0" fill="#c44b3a" opacity="0.88"/><circle cx="291.56" cy="197.12" r="2.0" fill="#c44b3a" opacity="0.46"/><circle cx="197.12" cy="325.90" r="2.0" fill="#c44b3a" opacity="0.88"/><circle cx="325.90" cy="197.12" r="2.0" fill="#c44b3a" opacity="0.46"/><circle cx="205.71" cy="222.88" r="2.0" fill="#c44b3a" opacity="0.88"/><circle cx="222.88" cy="205.71" r="2.0" fill="#c44b3a" opacity="0.46"/><circle cx="205.71" cy="282.98" r="2.4" fill="#294f9b" opacity="0.88"/><circle cx="282.98" cy="205.71" r="2.4" fill="#294f9b" opacity="0.46"/><circle cx="210.00" cy="278.68" r="2.4" fill="#294f9b" opacity="0.88"/><circle cx="278.68" cy="210.00" r="2.4" fill="#294f9b" opacity="0.46"/><circle cx="214.29" cy="231.46" r="2.0" fill="#c44b3a" opacity="0.88"/><circle cx="231.46" cy="214.29" r="2.0" fill="#c44b3a" opacity="0.46"/><circle cx="214.29" cy="274.39" r="2.4" fill="#294f9b" opacity="0.88"/><circle cx="274.39" cy="214.29" r="2.4" fill="#294f9b" opacity="0.46"/><circle cx="218.59" cy="270.10" r="2.4" fill="#294f9b" opacity="0.88"/><circle cx="270.10" cy="218.59" r="2.4" fill="#294f9b" opacity="0.46"/><circle cx="222.88" cy="265.80" r="2.4" fill="#294f9b" opacity="0.88"/><circle cx="265.80" cy="222.88" r="2.4" fill="#294f9b" opacity="0.46"/><circle cx="231.46" cy="248.63" r="2.0" fill="#c44b3a" opacity="0.88"/><circle cx="248.63" cy="231.46" r="2.0" fill="#c44b3a" opacity="0.46"/><circle cx="240.05" cy="325.90" r="2.0" fill="#c44b3a" opacity="0.88"/><circle cx="325.90" cy="240.05" r="2.0" fill="#c44b3a" opacity="0.46"/><circle cx="252.93" cy="373.12" r="2.4" fill="#294f9b" opacity="0.88"/><circle cx="373.12" cy="252.93" r="2.4" fill="#294f9b" opacity="0.46"/><circle cx="257.22" cy="325.90" r="2.0" fill="#c44b3a" opacity="0.88"/><circle cx="325.90" cy="257.22" r="2.0" fill="#c44b3a" opacity="0.46"/><circle cx="291.56" cy="368.83" r="2.0" fill="#c44b3a" opacity="0.88"/><circle cx="368.83" cy="291.56" r="2.0" fill="#c44b3a" opacity="0.46"/><circle cx="321.61" cy="338.78" r="2.0" fill="#c44b3a" opacity="0.88"/><circle cx="338.78" cy="321.61" r="2.0" fill="#c44b3a" opacity="0.46"/><circle cx="343.07" cy="360.24" r="2.0" fill="#c44b3a" opacity="0.88"/><circle cx="360.24" cy="343.07" r="2.0" fill="#c44b3a" opacity="0.46"/><circle cx="360.24" cy="377.41" r="2.0" fill="#c44b3a" opacity="0.88"/><circle cx="377.41" cy="360.24" r="2.0" fill="#c44b3a" opacity="0.46"/>
  <g font-family="Arial, sans-serif" font-size="11" fill="#34423d">
    <rect x="34" y="372" width="250" height="32" fill="#ffffff" stroke="#d5ddd5"/>
    <circle cx="46" cy="384" r="4" fill="#218a5a"/><text x="56" y="388">native + predicted</text>
    <circle cx="156" cy="384" r="4" fill="#294f9b"/><text x="166" y="388">native only</text>
    <circle cx="236" cy="384" r="4" fill="#c44b3a"/><text x="246" y="388">predicted only</text>
  </g>
  <text x="34" y="412" font-family="Arial, sans-serif" font-size="11" fill="#58635e">row: visual_009_mixed_ci2</text>
</svg>
