<svg xmlns="http://www.w3.org/2000/svg" width="420" height="420" viewBox="0 0 420 420" role="img" aria-label="Locked coarse native contact target">
  <rect width="420" height="420" fill="#f8faf7"/>
  <text x="34" y="22" font-family="Arial, sans-serif" font-size="14" fill="#22302d">Locked coarse native contact target</text>
  <line x1="34" y1="34" x2="34" y2="386" stroke="#9aa69f"/>
  <line x1="34" y1="386" x2="386" y2="386" stroke="#9aa69f"/>
  <line x1="34" y1="34" x2="386" y2="386" stroke="#cfd8d2" stroke-dasharray="4 4"/>
  <circle cx="38.29" cy="55.46" r="2.2" fill="#294f9b"/><circle cx="55.46" cy="38.29" r="2.2" fill="#294f9b" opacity="0.58"/><circle cx="51.17" cy="68.34" r="2.2" fill="#294f9b"/><circle cx="68.34" cy="51.17" r="2.2" fill="#294f9b" opacity="0.58"/><circle cx="64.05" cy="81.22" r="2.2" fill="#294f9b"/><circle cx="81.22" cy="64.05" r="2.2" fill="#294f9b" opacity="0.58"/><circle cx="64.05" cy="184.24" r="2.2" fill="#294f9b"/><circle cx="184.24" cy="64.05" r="2.2" fill="#294f9b" opacity="0.58"/><circle cx="76.93" cy="94.10" r="2.2" fill="#294f9b"/><circle cx="94.10" cy="76.93" r="2.2" fill="#294f9b" opacity="0.58"/><circle cx="89.80" cy="106.98" r="2.2" fill="#294f9b"/><circle cx="106.98" cy="89.80" r="2.2" fill="#294f9b" opacity="0.58"/><circle cx="102.68" cy="119.85" r="2.2" fill="#294f9b"/><circle cx="119.85" cy="102.68" r="2.2" fill="#294f9b" opacity="0.58"/><circle cx="115.56" cy="132.73" r="2.2" fill="#294f9b"/><circle cx="132.73" cy="115.56" r="2.2" fill="#294f9b" opacity="0.58"/><circle cx="128.44" cy="145.61" r="2.2" fill="#294f9b"/><circle cx="145.61" cy="128.44" r="2.2" fill="#294f9b" opacity="0.58"/><circle cx="141.32" cy="158.49" r="2.2" fill="#294f9b"/><circle cx="158.49" cy="141.32" r="2.2" fill="#294f9b" opacity="0.58"/><circle cx="145.61" cy="222.88" r="2.2" fill="#294f9b"/><circle cx="222.88" cy="145.61" r="2.2" fill="#294f9b" opacity="0.58"/><circle cx="149.90" cy="218.59" r="2.2" fill="#294f9b"/><circle cx="218.59" cy="149.90" r="2.2" fill="#294f9b" opacity="0.58"/><circle cx="154.20" cy="171.37" r="2.2" fill="#294f9b"/><circle cx="171.37" cy="154.20" r="2.2" fill="#294f9b" opacity="0.58"/><circle cx="154.20" cy="214.29" r="2.2" fill="#294f9b"/><circle cx="214.29" cy="154.20" r="2.2" fill="#294f9b" opacity="0.58"/><circle cx="158.49" cy="210.00" r="2.2" fill="#294f9b"/><circle cx="210.00" cy="158.49" r="2.2" fill="#294f9b" opacity="0.58"/><circle cx="158.49" cy="278.68" r="2.2" fill="#294f9b"/><circle cx="278.68" cy="158.49" r="2.2" fill="#294f9b" opacity="0.58"/><circle cx="162.78" cy="205.71" r="2.2" fill="#294f9b"/><circle cx="205.71" cy="162.78" r="2.2" fill="#294f9b" opacity="0.58"/><circle cx="167.07" cy="184.24" r="2.2" fill="#294f9b"/><circle cx="184.24" cy="167.07" r="2.2" fill="#294f9b" opacity="0.58"/><circle cx="179.95" cy="197.12" r="2.2" fill="#294f9b"/><circle cx="197.12" cy="179.95" r="2.2" fill="#294f9b" opacity="0.58"/><circle cx="192.83" cy="210.00" r="2.2" fill="#294f9b"/><circle cx="210.00" cy="192.83" r="2.2" fill="#294f9b" opacity="0.58"/><circle cx="205.71" cy="282.98" r="2.2" fill="#294f9b"/><circle cx="282.98" cy="205.71" r="2.2" fill="#294f9b" opacity="0.58"/><circle cx="210.00" cy="278.68" r="2.2" fill="#294f9b"/><circle cx="278.68" cy="210.00" r="2.2" fill="#294f9b" opacity="0.58"/><circle cx="214.29" cy="274.39" r="2.2" fill="#294f9b"/><circle cx="274.39" cy="214.29" r="2.2" fill="#294f9b" opacity="0.58"/><circle cx="218.59" cy="270.10" r="2.2" fill="#294f9b"/><circle cx="270.10" cy="218.59" r="2.2" fill="#294f9b" opacity="0.58"/><circle cx="222.88" cy="265.80" r="2.2" fill="#294f9b"/><circle cx="265.80" cy="222.88" r="2.2" fill="#294f9b" opacity="0.58"/><circle cx="252.93" cy="373.12" r="2.2" fill="#294f9b"/><circle cx="373.12" cy="252.93" r="2.2" fill="#294f9b" opacity="0.58"/>
  <text x="34" y="412" font-family="Arial, sans-serif" font-size="11" fill="#58635e">row: visual_009_mixed_ci2 | contacts: 26</text>
</svg>
