<svg xmlns="http://www.w3.org/2000/svg" width="420" height="420" viewBox="0 0 420 420" role="img" aria-label="contact map overlay">
  <rect width="420" height="420" fill="#f8faf7"/>
  <text x="34" y="22" font-family="Arial, sans-serif" font-size="14" fill="#22302d">Contact map overlay</text>
  <line x1="34" y1="34" x2="34" y2="386" stroke="#9aa69f"/>
  <line x1="34" y1="386" x2="386" y2="386" stroke="#9aa69f"/>
  <line x1="34" y1="34" x2="386" y2="386" stroke="#cfd8d2" stroke-dasharray="4 4"/>
  <circle cx="34.00" cy="56.71" r="2.8" fill="#218a5a" opacity="0.88"/><circle cx="56.71" cy="34.00" r="2.8" fill="#218a5a" opacity="0.46"/><circle cx="39.68" cy="244.06" r="2.0" fill="#c44b3a" opacity="0.88"/><circle cx="244.06" cy="39.68" r="2.0" fill="#c44b3a" opacity="0.46"/><circle cx="45.35" cy="68.06" r="2.4" fill="#294f9b" opacity="0.88"/><circle cx="68.06" cy="45.35" r="2.4" fill="#294f9b" opacity="0.46"/><circle cx="51.03" cy="73.74" r="2.0" fill="#c44b3a" opacity="0.88"/><circle cx="73.74" cy="51.03" r="2.0" fill="#c44b3a" opacity="0.46"/><circle cx="56.71" cy="79.42" r="2.8" fill="#218a5a" opacity="0.88"/><circle cx="79.42" cy="56.71" r="2.8" fill="#218a5a" opacity="0.46"/><circle cx="62.39" cy="175.94" r="2.4" fill="#294f9b" opacity="0.88"/><circle cx="175.94" cy="62.39" r="2.4" fill="#294f9b" opacity="0.46"/><circle cx="68.06" cy="90.77" r="2.4" fill="#294f9b" opacity="0.88"/><circle cx="90.77" cy="68.06" r="2.4" fill="#294f9b" opacity="0.46"/><circle cx="73.74" cy="96.45" r="2.0" fill="#c44b3a" opacity="0.88"/><circle cx="96.45" cy="73.74" r="2.0" fill="#c44b3a" opacity="0.46"/><circle cx="79.42" cy="102.13" r="2.8" fill="#218a5a" opacity="0.88"/><circle cx="102.13" cy="79.42" r="2.8" fill="#218a5a" opacity="0.46"/><circle cx="90.77" cy="113.48" r="2.4" fill="#294f9b" opacity="0.88"/><circle cx="113.48" cy="90.77" r="2.4" fill="#294f9b" opacity="0.46"/><circle cx="96.45" cy="119.16" r="2.0" fill="#c44b3a" opacity="0.88"/><circle cx="119.16" cy="96.45" r="2.0" fill="#c44b3a" opacity="0.46"/><circle cx="102.13" cy="124.84" r="2.4" fill="#294f9b" opacity="0.88"/><circle cx="124.84" cy="102.13" r="2.4" fill="#294f9b" opacity="0.46"/><circle cx="107.81" cy="238.39" r="2.0" fill="#c44b3a" opacity="0.88"/><circle cx="238.39" cy="107.81" r="2.0" fill="#c44b3a" opacity="0.46"/><circle cx="107.81" cy="244.06" r="2.0" fill="#c44b3a" opacity="0.88"/><circle cx="244.06" cy="107.81" r="2.0" fill="#c44b3a" opacity="0.46"/><circle cx="107.81" cy="306.52" r="2.0" fill="#c44b3a" opacity="0.88"/><circle cx="306.52" cy="107.81" r="2.0" fill="#c44b3a" opacity="0.46"/><circle cx="107.81" cy="323.55" r="2.0" fill="#c44b3a" opacity="0.88"/><circle cx="323.55" cy="107.81" r="2.0" fill="#c44b3a" opacity="0.46"/><circle cx="107.81" cy="346.26" r="2.0" fill="#c44b3a" opacity="0.88"/><circle cx="346.26" cy="107.81" r="2.0" fill="#c44b3a" opacity="0.46"/><circle cx="113.48" cy="238.39" r="2.0" fill="#c44b3a" opacity="0.88"/><circle cx="238.39" cy="113.48" r="2.0" fill="#c44b3a" opacity="0.46"/><circle cx="113.48" cy="244.06" r="2.0" fill="#c44b3a" opacity="0.88"/><circle cx="244.06" cy="113.48" r="2.0" fill="#c44b3a" opacity="0.46"/><circle cx="113.48" cy="306.52" r="2.0" fill="#c44b3a" opacity="0.88"/><circle cx="306.52" cy="113.48" r="2.0" fill="#c44b3a" opacity="0.46"/><circle cx="113.48" cy="323.55" r="2.0" fill="#c44b3a" opacity="0.88"/><circle cx="323.55" cy="113.48" r="2.0" fill="#c44b3a" opacity="0.46"/><circle cx="113.48" cy="346.26" r="2.0" fill="#c44b3a" opacity="0.88"/><circle cx="346.26" cy="113.48" r="2.0" fill="#c44b3a" opacity="0.46"/><circle cx="119.16" cy="141.87" r="2.0" fill="#c44b3a" opacity="0.88"/><circle cx="141.87" cy="119.16" r="2.0" fill="#c44b3a" opacity="0.46"/><circle cx="130.52" cy="153.23" r="2.0" fill="#c44b3a" opacity="0.88"/><circle cx="153.23" cy="130.52" r="2.0" fill="#c44b3a" opacity="0.46"/><circle cx="136.19" cy="158.90" r="2.4" fill="#294f9b" opacity="0.88"/><circle cx="158.90" cy="136.19" r="2.4" fill="#294f9b" opacity="0.46"/><circle cx="141.87" cy="164.58" r="2.0" fill="#c44b3a" opacity="0.88"/><circle cx="164.58" cy="141.87" r="2.0" fill="#c44b3a" opacity="0.46"/><circle cx="147.55" cy="170.26" r="2.4" fill="#294f9b" opacity="0.88"/><circle cx="170.26" cy="147.55" r="2.4" fill="#294f9b" opacity="0.46"/><circle cx="153.23" cy="175.94" r="2.0" fill="#c44b3a" opacity="0.88"/><circle cx="175.94" cy="153.23" r="2.0" fill="#c44b3a" opacity="0.46"/><circle cx="158.90" cy="181.61" r="2.4" fill="#294f9b" opacity="0.88"/><circle cx="181.61" cy="158.90" r="2.4" fill="#294f9b" opacity="0.46"/><circle cx="164.58" cy="187.29" r="2.0" fill="#c44b3a" opacity="0.88"/><circle cx="187.29" cy="164.58" r="2.0" fill="#c44b3a" opacity="0.46"/><circle cx="164.58" cy="278.13" r="2.4" fill="#294f9b" opacity="0.88"/><circle cx="278.13" cy="164.58" r="2.4" fill="#294f9b" opacity="0.46"/><circle cx="170.26" cy="192.97" r="2.8" fill="#218a5a" opacity="0.88"/><circle cx="192.97" cy="170.26" r="2.8" fill="#218a5a" opacity="0.46"/><circle cx="181.61" cy="204.32" r="2.4" fill="#294f9b" opacity="0.88"/><circle cx="204.32" cy="181.61" r="2.4" fill="#294f9b" opacity="0.46"/><circle cx="192.97" cy="215.68" r="2.8" fill="#218a5a" opacity="0.88"/><circle cx="215.68" cy="192.97" r="2.8" fill="#218a5a" opacity="0.46"/><circle cx="204.32" cy="227.03" r="2.8" fill="#218a5a" opacity="0.88"/><circle cx="227.03" cy="204.32" r="2.8" fill="#218a5a" opacity="0.46"/><circle cx="215.68" cy="238.39" r="2.4" fill="#294f9b" opacity="0.88"/><circle cx="238.39" cy="215.68" r="2.4" fill="#294f9b" opacity="0.46"/><circle cx="227.03" cy="249.74" r="2.8" fill="#218a5a" opacity="0.88"/><circle cx="249.74" cy="227.03" r="2.8" fill="#218a5a" opacity="0.46"/><circle cx="238.39" cy="261.10" r="2.4" fill="#294f9b" opacity="0.88"/><circle cx="261.10" cy="238.39" r="2.4" fill="#294f9b" opacity="0.46"/><circle cx="238.39" cy="346.26" r="2.0" fill="#c44b3a" opacity="0.88"/><circle cx="346.26" cy="238.39" r="2.0" fill="#c44b3a" opacity="0.46"/><circle cx="244.06" cy="346.26" r="2.0" fill="#c44b3a" opacity="0.88"/><circle cx="346.26" cy="244.06" r="2.0" fill="#c44b3a" opacity="0.46"/><circle cx="249.74" cy="272.45" r="2.4" fill="#294f9b" opacity="0.88"/><circle cx="272.45" cy="249.74" r="2.4" fill="#294f9b" opacity="0.46"/><circle cx="261.10" cy="283.81" r="2.8" fill="#218a5a" opacity="0.88"/><circle cx="283.81" cy="261.10" r="2.8" fill="#218a5a" opacity="0.46"/><circle cx="272.45" cy="295.16" r="2.4" fill="#294f9b" opacity="0.88"/><circle cx="295.16" cy="272.45" r="2.4" fill="#294f9b" opacity="0.46"/><circle cx="278.13" cy="300.84" r="2.0" fill="#c44b3a" opacity="0.88"/><circle cx="300.84" cy="278.13" r="2.0" fill="#c44b3a" opacity="0.46"/><circle cx="283.81" cy="306.52" r="2.4" fill="#294f9b" opacity="0.88"/><circle cx="306.52" cy="283.81" r="2.4" fill="#294f9b" opacity="0.46"/><circle cx="295.16" cy="317.87" r="2.4" fill="#294f9b" opacity="0.88"/><circle cx="317.87" cy="295.16" r="2.4" fill="#294f9b" opacity="0.46"/><circle cx="306.52" cy="329.23" r="2.4" fill="#294f9b" opacity="0.88"/><circle cx="329.23" cy="306.52" r="2.4" fill="#294f9b" opacity="0.46"/><circle cx="312.19" cy="334.90" r="2.0" fill="#c44b3a" opacity="0.88"/><circle cx="334.90" cy="312.19" r="2.0" fill="#c44b3a" opacity="0.46"/><circle cx="317.87" cy="340.58" r="2.4" fill="#294f9b" opacity="0.88"/><circle cx="340.58" cy="317.87" r="2.4" fill="#294f9b" opacity="0.46"/><circle cx="329.23" cy="351.94" r="2.4" fill="#294f9b" opacity="0.88"/><circle cx="351.94" cy="329.23" r="2.4" fill="#294f9b" opacity="0.46"/><circle cx="340.58" cy="363.29" r="2.4" fill="#294f9b" opacity="0.88"/><circle cx="363.29" cy="340.58" r="2.4" fill="#294f9b" opacity="0.46"/><circle cx="351.94" cy="374.65" r="2.4" fill="#294f9b" opacity="0.88"/><circle cx="374.65" cy="351.94" r="2.4" fill="#294f9b" opacity="0.46"/>
  <g font-family="Arial, sans-serif" font-size="11" fill="#34423d">
    <rect x="34" y="372" width="250" height="32" fill="#ffffff" stroke="#d5ddd5"/>
    <circle cx="46" cy="384" r="4" fill="#218a5a"/><text x="56" y="388">native + predicted</text>
    <circle cx="156" cy="384" r="4" fill="#294f9b"/><text x="166" y="388">native only</text>
    <circle cx="236" cy="384" r="4" fill="#c44b3a"/><text x="246" y="388">predicted only</text>
  </g>
  <text x="34" y="412" font-family="Arial, sans-serif" font-size="11" fill="#58635e">row: visual_001_alpha_rop</text>
</svg>
