<svg xmlns="http://www.w3.org/2000/svg" width="760" height="260" viewBox="0 0 760 260" role="img" aria-label="Coarse-grain final collapse">
  <rect width="760" height="260" fill="#f8faf7"/>
  <text x="34" y="24" font-family="Arial, sans-serif" font-size="15" fill="#22302d">Coarse-grain final collapse</text>
<line x1="44.11" y1="120.38" x2="75.01" y2="126.03" stroke="#25636a" stroke-opacity="0.22" stroke-width="1.2"/><line x1="70.44" y1="125.21" x2="101.35" y2="130.45" stroke="#25636a" stroke-opacity="0.22" stroke-width="1.2"/><line x1="131.90" y1="134.79" x2="162.80" y2="137.98" stroke="#25636a" stroke-opacity="0.22" stroke-width="1.2"/><line x1="184.57" y1="139.34" x2="215.48" y2="139.92" stroke="#25636a" stroke-opacity="0.22" stroke-width="1.2"/><line x1="291.57" y1="131.46" x2="391.83" y2="124.16" stroke="#25636a" stroke-opacity="0.22" stroke-width="1.2"/><line x1="291.57" y1="131.46" x2="413.53" y2="119.80" stroke="#25636a" stroke-opacity="0.22" stroke-width="1.2"/><line x1="291.57" y1="131.46" x2="447.68" y2="113.07" stroke="#25636a" stroke-opacity="0.22" stroke-width="1.2"/><line x1="291.57" y1="131.46" x2="440.82" y2="110.37" stroke="#25636a" stroke-opacity="0.22" stroke-width="1.2"/><line x1="291.57" y1="131.46" x2="541.61" y2="113.24" stroke="#25636a" stroke-opacity="0.22" stroke-width="1.2"/><line x1="291.57" y1="131.46" x2="593.42" y2="119.21" stroke="#25636a" stroke-opacity="0.22" stroke-width="1.2"/><line x1="298.30" y1="132.11" x2="391.83" y2="124.16" stroke="#25636a" stroke-opacity="0.22" stroke-width="1.2"/><line x1="298.30" y1="132.11" x2="413.53" y2="119.80" stroke="#25636a" stroke-opacity="0.22" stroke-width="1.2"/><line x1="298.30" y1="132.11" x2="447.68" y2="113.07" stroke="#25636a" stroke-opacity="0.22" stroke-width="1.2"/><line x1="298.30" y1="132.11" x2="440.82" y2="110.37" stroke="#25636a" stroke-opacity="0.22" stroke-width="1.2"/><line x1="298.30" y1="132.11" x2="541.61" y2="113.24" stroke="#25636a" stroke-opacity="0.22" stroke-width="1.2"/><line x1="298.30" y1="132.11" x2="593.42" y2="119.21" stroke="#25636a" stroke-opacity="0.22" stroke-width="1.2"/><line x1="271.66" y1="136.23" x2="512.15" y2="106.84" stroke="#25636a" stroke-opacity="0.22" stroke-width="1.2"/><line x1="356.81" y1="129.57" x2="447.68" y2="113.07" stroke="#25636a" stroke-opacity="0.22" stroke-width="1.2"/><line x1="356.81" y1="129.57" x2="440.82" y2="110.37" stroke="#25636a" stroke-opacity="0.22" stroke-width="1.2"/><line x1="356.81" y1="129.57" x2="512.15" y2="106.84" stroke="#25636a" stroke-opacity="0.22" stroke-width="1.2"/><line x1="356.81" y1="129.57" x2="541.61" y2="113.24" stroke="#25636a" stroke-opacity="0.22" stroke-width="1.2"/><line x1="356.81" y1="129.57" x2="615.17" y2="115.38" stroke="#25636a" stroke-opacity="0.22" stroke-width="1.2"/><line x1="356.81" y1="129.57" x2="593.42" y2="119.21" stroke="#25636a" stroke-opacity="0.22" stroke-width="1.2"/><line x1="391.83" y1="124.16" x2="512.15" y2="106.84" stroke="#25636a" stroke-opacity="0.22" stroke-width="1.2"/><line x1="391.83" y1="124.16" x2="541.61" y2="113.24" stroke="#25636a" stroke-opacity="0.22" stroke-width="1.2"/><line x1="391.83" y1="124.16" x2="615.17" y2="115.38" stroke="#25636a" stroke-opacity="0.22" stroke-width="1.2"/><line x1="391.83" y1="124.16" x2="593.42" y2="119.21" stroke="#25636a" stroke-opacity="0.22" stroke-width="1.2"/><line x1="360.16" y1="123.66" x2="391.06" y2="117.95" stroke="#25636a" stroke-opacity="0.22" stroke-width="1.2"/><line x1="413.53" y1="119.80" x2="512.15" y2="106.84" stroke="#25636a" stroke-opacity="0.22" stroke-width="1.2"/><line x1="413.53" y1="119.80" x2="541.61" y2="113.24" stroke="#25636a" stroke-opacity="0.22" stroke-width="1.2"/><line x1="413.53" y1="119.80" x2="615.17" y2="115.38" stroke="#25636a" stroke-opacity="0.22" stroke-width="1.2"/><line x1="413.53" y1="119.80" x2="593.42" y2="119.21" stroke="#25636a" stroke-opacity="0.22" stroke-width="1.2"/><line x1="404.06" y1="115.58" x2="434.96" y2="110.25" stroke="#25636a" stroke-opacity="0.22" stroke-width="1.2"/><line x1="412.83" y1="114.01" x2="445.97" y2="108.56" stroke="#25636a" stroke-opacity="0.22" stroke-width="1.2"/><line x1="445.97" y1="108.56" x2="478.73" y2="104.17" stroke="#25636a" stroke-opacity="0.22" stroke-width="1.2"/><line x1="447.68" y1="113.07" x2="541.61" y2="113.24" stroke="#25636a" stroke-opacity="0.22" stroke-width="1.2"/>
  <polyline points="44.11,120.38 50.78,121.63 59.56,123.25 70.44,125.21 75.01,126.03 85.90,127.94 94.68,129.41 101.35,130.45 112.23,132.15 121.01,133.40 131.90,134.79 138.57,135.64 147.35,136.60 156.13,137.45 162.80,137.98 173.69,138.81 184.57,139.34 291.57,131.46 200.03,139.90 298.30,132.11 215.48,139.92 226.36,139.80 235.14,139.50 243.92,139.07 271.66,136.23 356.81,129.57 270.26,137.04 279.04,136.13 287.82,135.11 296.60,134.00 305.38,132.79 314.16,131.49 322.94,130.12 331.71,128.68 340.49,127.18 391.83,124.16 360.16,123.66 366.83,122.44 375.61,120.82 413.53,119.80 391.06,117.95 404.06,115.58 412.83,114.01 419.51,112.82 428.29,111.32 434.96,110.25 445.97,108.56 447.68,113.07 463.40,106.00 440.82,110.37 478.73,104.17 489.74,102.96 498.52,102.16 507.30,101.48 516.08,100.93 524.86,100.50 533.64,100.20 542.42,100.04 551.19,100.00 559.97,100.10 512.15,106.84 577.53,100.70 586.31,101.19 595.09,101.81 603.87,102.55 612.65,103.40 621.43,104.36 630.21,105.43 638.99,106.60 541.61,113.24 656.55,109.19 665.32,110.59 674.10,112.06 615.17,115.38 691.66,115.15 593.42,119.21 709.22,118.37 718.00,120.00" fill="none" stroke="#7d8f86" stroke-width="3"/>
  <circle cx="44.11" cy="120.38" r="3.2" fill="#22302d"/><circle cx="59.56" cy="123.25" r="3.2" fill="#22302d"/><circle cx="75.01" cy="126.03" r="3.2" fill="#22302d"/><circle cx="94.68" cy="129.41" r="3.2" fill="#22302d"/><circle cx="112.23" cy="132.15" r="3.2" fill="#22302d"/><circle cx="131.90" cy="134.79" r="3.2" fill="#22302d"/><circle cx="147.35" cy="136.60" r="3.2" fill="#22302d"/><circle cx="162.80" cy="137.98" r="3.2" fill="#22302d"/><circle cx="184.57" cy="139.34" r="3.2" fill="#22302d"/><circle cx="200.03" cy="139.90" r="3.2" fill="#22302d"/><circle cx="215.48" cy="139.92" r="3.2" fill="#22302d"/><circle cx="235.14" cy="139.50" r="3.2" fill="#22302d"/><circle cx="271.66" cy="136.23" r="3.2" fill="#22302d"/><circle cx="270.26" cy="137.04" r="3.2" fill="#22302d"/><circle cx="287.82" cy="135.11" r="3.2" fill="#22302d"/><circle cx="305.38" cy="132.79" r="3.2" fill="#22302d"/><circle cx="322.94" cy="130.12" r="3.2" fill="#22302d"/><circle cx="340.49" cy="127.18" r="3.2" fill="#22302d"/><circle cx="360.16" cy="123.66" r="3.2" fill="#22302d"/><circle cx="375.61" cy="120.82" r="3.2" fill="#22302d"/><circle cx="391.06" cy="117.95" r="3.2" fill="#22302d"/><circle cx="412.83" cy="114.01" r="3.2" fill="#22302d"/><circle cx="428.29" cy="111.32" r="3.2" fill="#22302d"/><circle cx="445.97" cy="108.56" r="3.2" fill="#22302d"/><circle cx="463.40" cy="106.00" r="3.2" fill="#22302d"/><circle cx="478.73" cy="104.17" r="3.2" fill="#22302d"/><circle cx="498.52" cy="102.16" r="3.2" fill="#22302d"/><circle cx="516.08" cy="100.93" r="3.2" fill="#22302d"/><circle cx="533.64" cy="100.20" r="3.2" fill="#22302d"/><circle cx="551.19" cy="100.00" r="3.2" fill="#22302d"/><circle cx="512.15" cy="106.84" r="3.2" fill="#22302d"/><circle cx="586.31" cy="101.19" r="3.2" fill="#22302d"/><circle cx="603.87" cy="102.55" r="3.2" fill="#22302d"/><circle cx="621.43" cy="104.36" r="3.2" fill="#22302d"/><circle cx="638.99" cy="106.60" r="3.2" fill="#22302d"/><circle cx="656.55" cy="109.19" r="3.2" fill="#22302d"/><circle cx="674.10" cy="112.06" r="3.2" fill="#22302d"/><circle cx="691.66" cy="115.15" r="3.2" fill="#22302d"/><circle cx="709.22" cy="118.37" r="3.2" fill="#22302d"/>
  <text x="34" y="248" font-family="Arial, sans-serif" font-size="11" fill="#58635e">row: visual_006_beta_protein_l | coarse beads, not atomic structure</text>
</svg>
