<svg xmlns="http://www.w3.org/2000/svg" width="420" height="420" viewBox="0 0 420 420" role="img" aria-label="contact map overlay">
  <rect width="420" height="420" fill="#f8faf7"/>
  <text x="34" y="22" font-family="Arial, sans-serif" font-size="14" fill="#22302d">Contact map overlay</text>
  <line x1="34" y1="34" x2="34" y2="386" stroke="#9aa69f"/>
  <line x1="34" y1="386" x2="386" y2="386" stroke="#9aa69f"/>
  <line x1="34" y1="34" x2="386" y2="386" stroke="#cfd8d2" stroke-dasharray="4 4"/>
  <circle cx="34.00" cy="52.29" r="2.0" fill="#c44b3a" opacity="0.88"/><circle cx="52.29" cy="34.00" r="2.0" fill="#c44b3a" opacity="0.46"/><circle cx="47.71" cy="66.00" r="2.0" fill="#c44b3a" opacity="0.88"/><circle cx="66.00" cy="47.71" r="2.0" fill="#c44b3a" opacity="0.46"/><circle cx="47.71" cy="125.43" r="2.4" fill="#294f9b" opacity="0.88"/><circle cx="125.43" cy="47.71" r="2.4" fill="#294f9b" opacity="0.46"/><circle cx="52.29" cy="120.86" r="2.4" fill="#294f9b" opacity="0.88"/><circle cx="120.86" cy="52.29" r="2.4" fill="#294f9b" opacity="0.46"/><circle cx="52.29" cy="171.14" r="2.4" fill="#294f9b" opacity="0.88"/><circle cx="171.14" cy="52.29" r="2.4" fill="#294f9b" opacity="0.46"/><circle cx="56.86" cy="116.29" r="2.4" fill="#294f9b" opacity="0.88"/><circle cx="116.29" cy="56.86" r="2.4" fill="#294f9b" opacity="0.46"/><circle cx="61.43" cy="111.71" r="2.4" fill="#294f9b" opacity="0.88"/><circle cx="111.71" cy="61.43" r="2.4" fill="#294f9b" opacity="0.46"/><circle cx="66.00" cy="107.14" r="2.4" fill="#294f9b" opacity="0.88"/><circle cx="107.14" cy="66.00" r="2.4" fill="#294f9b" opacity="0.46"/><circle cx="70.57" cy="102.57" r="2.4" fill="#294f9b" opacity="0.88"/><circle cx="102.57" cy="70.57" r="2.4" fill="#294f9b" opacity="0.46"/><circle cx="79.71" cy="98.00" r="2.0" fill="#c44b3a" opacity="0.88"/><circle cx="98.00" cy="79.71" r="2.0" fill="#c44b3a" opacity="0.46"/><circle cx="102.57" cy="184.86" r="2.4" fill="#294f9b" opacity="0.88"/><circle cx="184.86" cy="102.57" r="2.4" fill="#294f9b" opacity="0.46"/><circle cx="107.14" cy="125.43" r="2.0" fill="#c44b3a" opacity="0.88"/><circle cx="125.43" cy="107.14" r="2.0" fill="#c44b3a" opacity="0.46"/><circle cx="107.14" cy="180.29" r="2.4" fill="#294f9b" opacity="0.88"/><circle cx="180.29" cy="107.14" r="2.4" fill="#294f9b" opacity="0.46"/><circle cx="111.71" cy="175.71" r="2.4" fill="#294f9b" opacity="0.88"/><circle cx="175.71" cy="111.71" r="2.4" fill="#294f9b" opacity="0.46"/><circle cx="111.71" cy="194.00" r="2.0" fill="#c44b3a" opacity="0.88"/><circle cx="194.00" cy="111.71" r="2.0" fill="#c44b3a" opacity="0.46"/><circle cx="111.71" cy="212.29" r="2.0" fill="#c44b3a" opacity="0.88"/><circle cx="212.29" cy="111.71" r="2.0" fill="#c44b3a" opacity="0.46"/><circle cx="111.71" cy="248.86" r="2.0" fill="#c44b3a" opacity="0.88"/><circle cx="248.86" cy="111.71" r="2.0" fill="#c44b3a" opacity="0.46"/><circle cx="111.71" cy="258.00" r="2.0" fill="#c44b3a" opacity="0.88"/><circle cx="258.00" cy="111.71" r="2.0" fill="#c44b3a" opacity="0.46"/><circle cx="111.71" cy="349.43" r="2.0" fill="#c44b3a" opacity="0.88"/><circle cx="349.43" cy="111.71" r="2.0" fill="#c44b3a" opacity="0.46"/><circle cx="111.71" cy="376.86" r="2.0" fill="#c44b3a" opacity="0.88"/><circle cx="376.86" cy="111.71" r="2.0" fill="#c44b3a" opacity="0.46"/><circle cx="116.29" cy="171.14" r="2.4" fill="#294f9b" opacity="0.88"/><circle cx="171.14" cy="116.29" r="2.4" fill="#294f9b" opacity="0.46"/><circle cx="120.86" cy="166.57" r="2.4" fill="#294f9b" opacity="0.88"/><circle cx="166.57" cy="120.86" r="2.4" fill="#294f9b" opacity="0.46"/><circle cx="120.86" cy="194.00" r="2.0" fill="#c44b3a" opacity="0.88"/><circle cx="194.00" cy="120.86" r="2.0" fill="#c44b3a" opacity="0.46"/><circle cx="120.86" cy="212.29" r="2.0" fill="#c44b3a" opacity="0.88"/><circle cx="212.29" cy="120.86" r="2.0" fill="#c44b3a" opacity="0.46"/><circle cx="120.86" cy="239.71" r="2.4" fill="#294f9b" opacity="0.88"/><circle cx="239.71" cy="120.86" r="2.4" fill="#294f9b" opacity="0.46"/><circle cx="120.86" cy="248.86" r="2.0" fill="#c44b3a" opacity="0.88"/><circle cx="248.86" cy="120.86" r="2.0" fill="#c44b3a" opacity="0.46"/><circle cx="120.86" cy="258.00" r="2.0" fill="#c44b3a" opacity="0.88"/><circle cx="258.00" cy="120.86" r="2.0" fill="#c44b3a" opacity="0.46"/><circle cx="120.86" cy="349.43" r="2.0" fill="#c44b3a" opacity="0.88"/><circle cx="349.43" cy="120.86" r="2.0" fill="#c44b3a" opacity="0.46"/><circle cx="120.86" cy="376.86" r="2.0" fill="#c44b3a" opacity="0.88"/><circle cx="376.86" cy="120.86" r="2.0" fill="#c44b3a" opacity="0.46"/><circle cx="125.43" cy="162.00" r="2.4" fill="#294f9b" opacity="0.88"/><circle cx="162.00" cy="125.43" r="2.4" fill="#294f9b" opacity="0.46"/><circle cx="143.71" cy="308.29" r="2.0" fill="#c44b3a" opacity="0.88"/><circle cx="308.29" cy="143.71" r="2.0" fill="#c44b3a" opacity="0.46"/><circle cx="148.29" cy="248.86" r="2.0" fill="#c44b3a" opacity="0.88"/><circle cx="248.86" cy="148.29" r="2.0" fill="#c44b3a" opacity="0.46"/><circle cx="148.29" cy="258.00" r="2.0" fill="#c44b3a" opacity="0.88"/><circle cx="258.00" cy="148.29" r="2.0" fill="#c44b3a" opacity="0.46"/><circle cx="148.29" cy="308.29" r="2.0" fill="#c44b3a" opacity="0.88"/><circle cx="308.29" cy="148.29" r="2.0" fill="#c44b3a" opacity="0.46"/><circle cx="148.29" cy="349.43" r="2.0" fill="#c44b3a" opacity="0.88"/><circle cx="349.43" cy="148.29" r="2.0" fill="#c44b3a" opacity="0.46"/><circle cx="148.29" cy="367.71" r="2.0" fill="#c44b3a" opacity="0.88"/><circle cx="367.71" cy="148.29" r="2.0" fill="#c44b3a" opacity="0.46"/><circle cx="148.29" cy="376.86" r="2.0" fill="#c44b3a" opacity="0.88"/><circle cx="376.86" cy="148.29" r="2.0" fill="#c44b3a" opacity="0.46"/><circle cx="162.00" cy="244.29" r="2.4" fill="#294f9b" opacity="0.88"/><circle cx="244.29" cy="162.00" r="2.4" fill="#294f9b" opacity="0.46"/><circle cx="166.57" cy="239.71" r="2.4" fill="#294f9b" opacity="0.88"/><circle cx="239.71" cy="166.57" r="2.4" fill="#294f9b" opacity="0.46"/><circle cx="171.14" cy="235.14" r="2.4" fill="#294f9b" opacity="0.88"/><circle cx="235.14" cy="171.14" r="2.4" fill="#294f9b" opacity="0.46"/><circle cx="175.71" cy="230.57" r="2.4" fill="#294f9b" opacity="0.88"/><circle cx="230.57" cy="175.71" r="2.4" fill="#294f9b" opacity="0.46"/><circle cx="180.29" cy="226.00" r="2.4" fill="#294f9b" opacity="0.88"/><circle cx="226.00" cy="180.29" r="2.4" fill="#294f9b" opacity="0.46"/><circle cx="184.86" cy="221.43" r="2.4" fill="#294f9b" opacity="0.88"/><circle cx="221.43" cy="184.86" r="2.4" fill="#294f9b" opacity="0.46"/><circle cx="189.43" cy="308.29" r="2.4" fill="#294f9b" opacity="0.88"/><circle cx="308.29" cy="189.43" r="2.4" fill="#294f9b" opacity="0.46"/><circle cx="194.00" cy="308.29" r="2.0" fill="#c44b3a" opacity="0.88"/><circle cx="308.29" cy="194.00" r="2.0" fill="#c44b3a" opacity="0.46"/><circle cx="194.00" cy="349.43" r="2.0" fill="#c44b3a" opacity="0.88"/><circle cx="349.43" cy="194.00" r="2.0" fill="#c44b3a" opacity="0.46"/><circle cx="194.00" cy="367.71" r="2.0" fill="#c44b3a" opacity="0.88"/><circle cx="367.71" cy="194.00" r="2.0" fill="#c44b3a" opacity="0.46"/><circle cx="194.00" cy="376.86" r="2.0" fill="#c44b3a" opacity="0.88"/><circle cx="376.86" cy="194.00" r="2.0" fill="#c44b3a" opacity="0.46"/><circle cx="198.57" cy="216.86" r="2.0" fill="#c44b3a" opacity="0.88"/><circle cx="216.86" cy="198.57" r="2.0" fill="#c44b3a" opacity="0.46"/><circle cx="212.29" cy="308.29" r="2.0" fill="#c44b3a" opacity="0.88"/><circle cx="308.29" cy="212.29" r="2.0" fill="#c44b3a" opacity="0.46"/><circle cx="212.29" cy="349.43" r="2.0" fill="#c44b3a" opacity="0.88"/><circle cx="349.43" cy="212.29" r="2.0" fill="#c44b3a" opacity="0.46"/><circle cx="212.29" cy="367.71" r="2.0" fill="#c44b3a" opacity="0.88"/><circle cx="367.71" cy="212.29" r="2.0" fill="#c44b3a" opacity="0.46"/><circle cx="212.29" cy="376.86" r="2.0" fill="#c44b3a" opacity="0.88"/><circle cx="376.86" cy="212.29" r="2.0" fill="#c44b3a" opacity="0.46"/><circle cx="221.43" cy="239.71" r="2.0" fill="#c44b3a" opacity="0.88"/><circle cx="239.71" cy="221.43" r="2.0" fill="#c44b3a" opacity="0.46"/><circle cx="221.43" cy="303.71" r="2.4" fill="#294f9b" opacity="0.88"/><circle cx="303.71" cy="221.43" r="2.4" fill="#294f9b" opacity="0.46"/><circle cx="226.00" cy="244.29" r="2.0" fill="#c44b3a" opacity="0.88"/><circle cx="244.29" cy="226.00" r="2.0" fill="#c44b3a" opacity="0.46"/><circle cx="226.00" cy="299.14" r="2.4" fill="#294f9b" opacity="0.88"/><circle cx="299.14" cy="226.00" r="2.4" fill="#294f9b" opacity="0.46"/><circle cx="230.57" cy="294.57" r="2.4" fill="#294f9b" opacity="0.88"/><circle cx="294.57" cy="230.57" r="2.4" fill="#294f9b" opacity="0.46"/><circle cx="235.14" cy="290.00" r="2.4" fill="#294f9b" opacity="0.88"/><circle cx="290.00" cy="235.14" r="2.4" fill="#294f9b" opacity="0.46"/><circle cx="239.71" cy="285.43" r="2.4" fill="#294f9b" opacity="0.88"/><circle cx="285.43" cy="239.71" r="2.4" fill="#294f9b" opacity="0.46"/><circle cx="244.29" cy="262.57" r="2.0" fill="#c44b3a" opacity="0.88"/><circle cx="262.57" cy="244.29" r="2.0" fill="#c44b3a" opacity="0.46"/><circle cx="244.29" cy="280.86" r="2.4" fill="#294f9b" opacity="0.88"/><circle cx="280.86" cy="244.29" r="2.4" fill="#294f9b" opacity="0.46"/><circle cx="248.86" cy="349.43" r="2.0" fill="#c44b3a" opacity="0.88"/><circle cx="349.43" cy="248.86" r="2.0" fill="#c44b3a" opacity="0.46"/><circle cx="248.86" cy="367.71" r="2.0" fill="#c44b3a" opacity="0.88"/><circle cx="367.71" cy="248.86" r="2.0" fill="#c44b3a" opacity="0.46"/><circle cx="248.86" cy="376.86" r="2.0" fill="#c44b3a" opacity="0.88"/><circle cx="376.86" cy="248.86" r="2.0" fill="#c44b3a" opacity="0.46"/><circle cx="258.00" cy="349.43" r="2.0" fill="#c44b3a" opacity="0.88"/><circle cx="349.43" cy="258.00" r="2.0" fill="#c44b3a" opacity="0.46"/>
  <g font-family="Arial, sans-serif" font-size="11" fill="#34423d">
    <rect x="34" y="372" width="250" height="32" fill="#ffffff" stroke="#d5ddd5"/>
    <circle cx="46" cy="384" r="4" fill="#218a5a"/><text x="56" y="388">native + predicted</text>
    <circle cx="156" cy="384" r="4" fill="#294f9b"/><text x="166" y="388">native only</text>
    <circle cx="236" cy="384" r="4" fill="#c44b3a"/><text x="246" y="388">predicted only</text>
  </g>
  <text x="34" y="412" font-family="Arial, sans-serif" font-size="11" fill="#58635e">row: visual_006_beta_protein_l</text>
</svg>
