<svg xmlns="http://www.w3.org/2000/svg" width="420" height="420" viewBox="0 0 420 420" role="img" aria-label="Repaired sequence-only contact candidates">
  <rect width="420" height="420" fill="#f8faf7"/>
  <text x="34" y="22" font-family="Arial, sans-serif" font-size="14" fill="#22302d">Repaired sequence-only contact candidates</text>
  <line x1="34" y1="34" x2="34" y2="386" stroke="#9aa69f"/>
  <line x1="34" y1="386" x2="386" y2="386" stroke="#9aa69f"/>
  <line x1="34" y1="34" x2="386" y2="386" stroke="#cfd8d2" stroke-dasharray="4 4"/>
  <circle cx="42.69" cy="60.07" r="2.2" fill="#c44b3a"/><circle cx="60.07" cy="42.69" r="2.2" fill="#c44b3a" opacity="0.58"/><circle cx="42.69" cy="320.81" r="2.2" fill="#c44b3a"/><circle cx="320.81" cy="42.69" r="2.2" fill="#c44b3a" opacity="0.58"/><circle cx="47.04" cy="64.42" r="2.2" fill="#c44b3a"/><circle cx="64.42" cy="47.04" r="2.2" fill="#c44b3a" opacity="0.58"/><circle cx="47.04" cy="160.02" r="2.2" fill="#c44b3a"/><circle cx="160.02" cy="47.04" r="2.2" fill="#c44b3a" opacity="0.58"/><circle cx="47.04" cy="186.10" r="2.2" fill="#c44b3a"/><circle cx="186.10" cy="47.04" r="2.2" fill="#c44b3a" opacity="0.58"/><circle cx="47.04" cy="229.56" r="2.2" fill="#c44b3a"/><circle cx="229.56" cy="47.04" r="2.2" fill="#c44b3a" opacity="0.58"/><circle cx="47.04" cy="264.32" r="2.2" fill="#c44b3a"/><circle cx="264.32" cy="47.04" r="2.2" fill="#c44b3a" opacity="0.58"/><circle cx="47.04" cy="320.81" r="2.2" fill="#c44b3a"/><circle cx="320.81" cy="47.04" r="2.2" fill="#c44b3a" opacity="0.58"/><circle cx="47.04" cy="325.16" r="2.2" fill="#c44b3a"/><circle cx="325.16" cy="47.04" r="2.2" fill="#c44b3a" opacity="0.58"/><circle cx="64.42" cy="81.80" r="2.2" fill="#c44b3a"/><circle cx="81.80" cy="64.42" r="2.2" fill="#c44b3a" opacity="0.58"/><circle cx="64.42" cy="160.02" r="2.2" fill="#c44b3a"/><circle cx="160.02" cy="64.42" r="2.2" fill="#c44b3a" opacity="0.58"/><circle cx="64.42" cy="186.10" r="2.2" fill="#c44b3a"/><circle cx="186.10" cy="64.42" r="2.2" fill="#c44b3a" opacity="0.58"/><circle cx="64.42" cy="229.56" r="2.2" fill="#c44b3a"/><circle cx="229.56" cy="64.42" r="2.2" fill="#c44b3a" opacity="0.58"/><circle cx="64.42" cy="264.32" r="2.2" fill="#c44b3a"/><circle cx="264.32" cy="64.42" r="2.2" fill="#c44b3a" opacity="0.58"/><circle cx="64.42" cy="325.16" r="2.2" fill="#c44b3a"/><circle cx="325.16" cy="64.42" r="2.2" fill="#c44b3a" opacity="0.58"/><circle cx="116.57" cy="133.95" r="2.2" fill="#c44b3a"/><circle cx="133.95" cy="116.57" r="2.2" fill="#c44b3a" opacity="0.58"/><circle cx="155.68" cy="173.06" r="2.2" fill="#c44b3a"/><circle cx="173.06" cy="155.68" r="2.2" fill="#c44b3a" opacity="0.58"/><circle cx="160.02" cy="229.56" r="2.2" fill="#c44b3a"/><circle cx="229.56" cy="160.02" r="2.2" fill="#c44b3a" opacity="0.58"/><circle cx="160.02" cy="264.32" r="2.2" fill="#c44b3a"/><circle cx="264.32" cy="160.02" r="2.2" fill="#c44b3a" opacity="0.58"/><circle cx="160.02" cy="320.81" r="2.2" fill="#c44b3a"/><circle cx="320.81" cy="160.02" r="2.2" fill="#c44b3a" opacity="0.58"/><circle cx="160.02" cy="325.16" r="2.2" fill="#c44b3a"/><circle cx="325.16" cy="160.02" r="2.2" fill="#c44b3a" opacity="0.58"/><circle cx="173.06" cy="190.44" r="2.2" fill="#c44b3a"/><circle cx="190.44" cy="173.06" r="2.2" fill="#c44b3a" opacity="0.58"/><circle cx="186.10" cy="264.32" r="2.2" fill="#c44b3a"/><circle cx="264.32" cy="186.10" r="2.2" fill="#c44b3a" opacity="0.58"/><circle cx="186.10" cy="320.81" r="2.2" fill="#c44b3a"/><circle cx="320.81" cy="186.10" r="2.2" fill="#c44b3a" opacity="0.58"/><circle cx="186.10" cy="325.16" r="2.2" fill="#c44b3a"/><circle cx="325.16" cy="186.10" r="2.2" fill="#c44b3a" opacity="0.58"/><circle cx="216.52" cy="233.90" r="2.2" fill="#c44b3a"/><circle cx="233.90" cy="216.52" r="2.2" fill="#c44b3a" opacity="0.58"/><circle cx="225.21" cy="242.59" r="2.2" fill="#c44b3a"/><circle cx="242.59" cy="225.21" r="2.2" fill="#c44b3a" opacity="0.58"/><circle cx="229.56" cy="325.16" r="2.2" fill="#c44b3a"/><circle cx="325.16" cy="229.56" r="2.2" fill="#c44b3a" opacity="0.58"/><circle cx="233.90" cy="251.28" r="2.2" fill="#c44b3a"/><circle cx="251.28" cy="233.90" r="2.2" fill="#c44b3a" opacity="0.58"/><circle cx="238.25" cy="255.63" r="2.2" fill="#c44b3a"/><circle cx="255.63" cy="238.25" r="2.2" fill="#c44b3a" opacity="0.58"/><circle cx="255.63" cy="273.01" r="2.2" fill="#c44b3a"/><circle cx="273.01" cy="255.63" r="2.2" fill="#c44b3a" opacity="0.58"/><circle cx="264.32" cy="325.16" r="2.2" fill="#c44b3a"/><circle cx="325.16" cy="264.32" r="2.2" fill="#c44b3a" opacity="0.58"/><circle cx="299.09" cy="316.47" r="2.2" fill="#c44b3a"/><circle cx="316.47" cy="299.09" r="2.2" fill="#c44b3a" opacity="0.58"/><circle cx="312.12" cy="329.51" r="2.2" fill="#c44b3a"/><circle cx="329.51" cy="312.12" r="2.2" fill="#c44b3a" opacity="0.58"/><circle cx="316.47" cy="333.85" r="2.2" fill="#c44b3a"/><circle cx="333.85" cy="316.47" r="2.2" fill="#c44b3a" opacity="0.58"/><circle cx="333.85" cy="351.23" r="2.2" fill="#c44b3a"/><circle cx="351.23" cy="333.85" r="2.2" fill="#c44b3a" opacity="0.58"/><circle cx="338.20" cy="355.58" r="2.2" fill="#c44b3a"/><circle cx="355.58" cy="338.20" r="2.2" fill="#c44b3a" opacity="0.58"/><circle cx="351.23" cy="368.62" r="2.2" fill="#c44b3a"/><circle cx="368.62" cy="351.23" r="2.2" fill="#c44b3a" opacity="0.58"/><circle cx="359.93" cy="377.31" r="2.2" fill="#c44b3a"/><circle cx="377.31" cy="359.93" r="2.2" fill="#c44b3a" opacity="0.58"/><circle cx="364.27" cy="381.65" r="2.2" fill="#c44b3a"/><circle cx="381.65" cy="364.27" r="2.2" fill="#c44b3a" opacity="0.58"/><circle cx="368.62" cy="386.00" r="2.2" fill="#c44b3a"/><circle cx="386.00" cy="368.62" r="2.2" fill="#c44b3a" opacity="0.58"/>
  <text x="34" y="412" font-family="Arial, sans-serif" font-size="11" fill="#58635e">row: visual_010_disorder_nupr1 | contacts: 41</text>
</svg>
