<svg xmlns="http://www.w3.org/2000/svg" width="760" height="260" viewBox="0 0 760 260" role="img" aria-label="Repaired coarse-grain final collapse">
  <rect width="760" height="260" fill="#f8faf7"/>
  <text x="34" y="24" font-family="Arial, sans-serif" font-size="15" fill="#22302d">Repaired coarse-grain final collapse</text>
<line x1="189.24" y1="121.31" x2="308.67" y2="128.71" stroke="#25636a" stroke-opacity="0.22" stroke-width="1.2"/><line x1="189.24" y1="121.31" x2="338.65" y2="124.62" stroke="#25636a" stroke-opacity="0.22" stroke-width="1.2"/><line x1="202.57" y1="139.88" x2="231.95" y2="139.57" stroke="#25636a" stroke-opacity="0.22" stroke-width="1.2"/><line x1="277.68" y1="136.24" x2="309.18" y2="132.17" stroke="#25636a" stroke-opacity="0.22" stroke-width="1.2"/><line x1="309.18" y1="132.17" x2="340.32" y2="127.18" stroke="#25636a" stroke-opacity="0.22" stroke-width="1.2"/><line x1="394.52" y1="117.32" x2="426.02" y2="111.75" stroke="#25636a" stroke-opacity="0.22" stroke-width="1.2"/><line x1="411.21" y1="114.30" x2="440.59" y2="109.35" stroke="#25636a" stroke-opacity="0.22" stroke-width="1.2"/><line x1="426.02" y1="111.75" x2="457.16" y2="106.89" stroke="#25636a" stroke-opacity="0.22" stroke-width="1.2"/><line x1="436.25" y1="110.04" x2="467.75" y2="105.52" stroke="#25636a" stroke-opacity="0.22" stroke-width="1.2"/><line x1="467.75" y1="105.52" x2="498.89" y2="102.18" stroke="#25636a" stroke-opacity="0.22" stroke-width="1.2"/><line x1="553.09" y1="100.07" x2="584.59" y2="101.19" stroke="#25636a" stroke-opacity="0.22" stroke-width="1.2"/><line x1="578.13" y1="100.78" x2="607.50" y2="102.93" stroke="#25636a" stroke-opacity="0.22" stroke-width="1.2"/><line x1="584.59" y1="101.19" x2="617.86" y2="104.06" stroke="#25636a" stroke-opacity="0.22" stroke-width="1.2"/><line x1="617.86" y1="104.06" x2="651.24" y2="108.44" stroke="#25636a" stroke-opacity="0.22" stroke-width="1.2"/><line x1="628.20" y1="105.22" x2="657.58" y2="109.38" stroke="#25636a" stroke-opacity="0.22" stroke-width="1.2"/><line x1="651.24" y1="108.44" x2="684.62" y2="113.93" stroke="#25636a" stroke-opacity="0.22" stroke-width="1.2"/><line x1="669.93" y1="111.38" x2="699.31" y2="116.56" stroke="#25636a" stroke-opacity="0.22" stroke-width="1.2"/><line x1="678.27" y1="112.80" x2="707.65" y2="118.09" stroke="#25636a" stroke-opacity="0.22" stroke-width="1.2"/><line x1="684.62" y1="113.93" x2="715.87" y2="119.61" stroke="#25636a" stroke-opacity="0.22" stroke-width="1.2"/><line x1="189.24" y1="121.31" x2="503.46" y2="107.37" stroke="#25636a" stroke-opacity="0.22" stroke-width="1.2"/><line x1="308.67" y1="128.71" x2="503.46" y2="107.37" stroke="#25636a" stroke-opacity="0.22" stroke-width="1.2"/><line x1="338.65" y1="124.62" x2="503.46" y2="107.37" stroke="#25636a" stroke-opacity="0.22" stroke-width="1.2"/><line x1="87.38" y1="122.50" x2="503.46" y2="107.37" stroke="#25636a" stroke-opacity="0.22" stroke-width="1.2"/><line x1="189.24" y1="121.31" x2="385.83" y2="115.39" stroke="#25636a" stroke-opacity="0.22" stroke-width="1.2"/><line x1="189.24" y1="121.31" x2="433.02" y2="108.82" stroke="#25636a" stroke-opacity="0.22" stroke-width="1.2"/><line x1="189.24" y1="121.31" x2="508.29" y2="108.17" stroke="#25636a" stroke-opacity="0.22" stroke-width="1.2"/><line x1="182.75" y1="126.57" x2="308.67" y2="128.71" stroke="#25636a" stroke-opacity="0.22" stroke-width="1.2"/><line x1="182.75" y1="126.57" x2="338.65" y2="124.62" stroke="#25636a" stroke-opacity="0.22" stroke-width="1.2"/><line x1="182.75" y1="126.57" x2="385.83" y2="115.39" stroke="#25636a" stroke-opacity="0.22" stroke-width="1.2"/><line x1="182.75" y1="126.57" x2="433.02" y2="108.82" stroke="#25636a" stroke-opacity="0.22" stroke-width="1.2"/><line x1="182.75" y1="126.57" x2="508.29" y2="108.17" stroke="#25636a" stroke-opacity="0.22" stroke-width="1.2"/><line x1="308.67" y1="128.71" x2="385.83" y2="115.39" stroke="#25636a" stroke-opacity="0.22" stroke-width="1.2"/><line x1="308.67" y1="128.71" x2="433.02" y2="108.82" stroke="#25636a" stroke-opacity="0.22" stroke-width="1.2"/><line x1="308.67" y1="128.71" x2="508.29" y2="108.17" stroke="#25636a" stroke-opacity="0.22" stroke-width="1.2"/><line x1="338.65" y1="124.62" x2="433.02" y2="108.82" stroke="#25636a" stroke-opacity="0.22" stroke-width="1.2"/><line x1="338.65" y1="124.62" x2="508.29" y2="108.17" stroke="#25636a" stroke-opacity="0.22" stroke-width="1.2"/>
  <polyline points="42.00,120.00 50.35,121.55 87.38,122.50 189.24,121.31 75.38,126.11 83.73,127.56 91.77,128.56 182.75,126.57 108.77,131.63 117.11,132.86 125.46,134.00 136.93,134.53 142.15,136.04 150.49,136.92 158.84,137.70 167.19,138.36 175.53,138.92 183.88,139.37 192.22,139.70 202.57,139.88 208.91,140.00 217.26,139.97 225.60,139.82 231.95,139.57 242.30,139.16 250.64,138.66 258.99,138.04 267.33,137.32 277.68,136.24 308.67,128.71 292.37,134.55 300.72,133.44 309.18,132.17 317.41,130.99 325.75,129.66 338.65,124.62 340.32,127.18 350.79,125.36 359.14,123.85 367.48,122.32 375.83,120.78 384.17,119.22 394.52,117.32 400.86,116.15 411.21,114.30 385.83,115.39 426.02,111.75 436.25,110.04 440.59,109.35 450.94,107.75 457.16,106.89 467.75,105.52 475.98,104.43 433.02,108.82 492.67,102.68 498.89,102.18 509.36,101.34 517.70,100.84 526.05,100.45 534.40,100.18 542.74,100.03 553.09,100.07 559.43,100.09 567.78,100.30 578.13,100.78 584.59,101.19 503.46,107.37 508.29,108.17 607.50,102.93 617.86,104.06 628.20,105.22 634.54,106.00 642.89,107.14 651.24,108.44 657.58,109.38 669.93,111.38 678.27,112.80 684.62,113.93 692.96,115.39 699.31,116.56 707.65,118.09 715.87,119.61" fill="none" stroke="#7d8f86" stroke-width="3"/>
  <circle cx="42.00" cy="120.00" r="3.2" fill="#22302d"/><circle cx="87.38" cy="122.50" r="3.2" fill="#22302d"/><circle cx="75.38" cy="126.11" r="3.2" fill="#22302d"/><circle cx="91.77" cy="128.56" r="3.2" fill="#22302d"/><circle cx="108.77" cy="131.63" r="3.2" fill="#22302d"/><circle cx="125.46" cy="134.00" r="3.2" fill="#22302d"/><circle cx="142.15" cy="136.04" r="3.2" fill="#22302d"/><circle cx="158.84" cy="137.70" r="3.2" fill="#22302d"/><circle cx="175.53" cy="138.92" r="3.2" fill="#22302d"/><circle cx="192.22" cy="139.70" r="3.2" fill="#22302d"/><circle cx="208.91" cy="140.00" r="3.2" fill="#22302d"/><circle cx="225.60" cy="139.82" r="3.2" fill="#22302d"/><circle cx="242.30" cy="139.16" r="3.2" fill="#22302d"/><circle cx="258.99" cy="138.04" r="3.2" fill="#22302d"/><circle cx="277.68" cy="136.24" r="3.2" fill="#22302d"/><circle cx="292.37" cy="134.55" r="3.2" fill="#22302d"/><circle cx="309.18" cy="132.17" r="3.2" fill="#22302d"/><circle cx="325.75" cy="129.66" r="3.2" fill="#22302d"/><circle cx="340.32" cy="127.18" r="3.2" fill="#22302d"/><circle cx="359.14" cy="123.85" r="3.2" fill="#22302d"/><circle cx="375.83" cy="120.78" r="3.2" fill="#22302d"/><circle cx="394.52" cy="117.32" r="3.2" fill="#22302d"/><circle cx="411.21" cy="114.30" r="3.2" fill="#22302d"/><circle cx="426.02" cy="111.75" r="3.2" fill="#22302d"/><circle cx="440.59" cy="109.35" r="3.2" fill="#22302d"/><circle cx="457.16" cy="106.89" r="3.2" fill="#22302d"/><circle cx="475.98" cy="104.43" r="3.2" fill="#22302d"/><circle cx="492.67" cy="102.68" r="3.2" fill="#22302d"/><circle cx="509.36" cy="101.34" r="3.2" fill="#22302d"/><circle cx="526.05" cy="100.45" r="3.2" fill="#22302d"/><circle cx="542.74" cy="100.03" r="3.2" fill="#22302d"/><circle cx="559.43" cy="100.09" r="3.2" fill="#22302d"/><circle cx="578.13" cy="100.78" r="3.2" fill="#22302d"/><circle cx="503.46" cy="107.37" r="3.2" fill="#22302d"/><circle cx="607.50" cy="102.93" r="3.2" fill="#22302d"/><circle cx="628.20" cy="105.22" r="3.2" fill="#22302d"/><circle cx="642.89" cy="107.14" r="3.2" fill="#22302d"/><circle cx="657.58" cy="109.38" r="3.2" fill="#22302d"/><circle cx="678.27" cy="112.80" r="3.2" fill="#22302d"/><circle cx="692.96" cy="115.39" r="3.2" fill="#22302d"/><circle cx="707.65" cy="118.09" r="3.2" fill="#22302d"/>
  <text x="34" y="248" font-family="Arial, sans-serif" font-size="11" fill="#58635e">row: visual_010_disorder_nupr1 | coarse beads, not atomic structure</text>
</svg>
