<svg xmlns="http://www.w3.org/2000/svg" width="760" height="260" viewBox="0 0 760 260" role="img" aria-label="Coarse-grain final collapse">
  <rect width="760" height="260" fill="#f8faf7"/>
  <text x="34" y="24" font-family="Arial, sans-serif" font-size="15" fill="#22302d">Coarse-grain final collapse</text>
<line x1="44.95" y1="120.53" x2="88.21" y2="128.29" stroke="#25636a" stroke-opacity="0.22" stroke-width="1.2"/><line x1="258.24" y1="118.94" x2="317.06" y2="129.00" stroke="#25636a" stroke-opacity="0.22" stroke-width="1.2"/><line x1="258.24" y1="118.94" x2="378.26" y2="118.32" stroke="#25636a" stroke-opacity="0.22" stroke-width="1.2"/><line x1="258.24" y1="118.94" x2="397.46" y2="117.47" stroke="#25636a" stroke-opacity="0.22" stroke-width="1.2"/><line x1="258.24" y1="118.94" x2="412.25" y2="112.15" stroke="#25636a" stroke-opacity="0.22" stroke-width="1.2"/><line x1="258.24" y1="118.94" x2="475.81" y2="104.37" stroke="#25636a" stroke-opacity="0.22" stroke-width="1.2"/><line x1="258.24" y1="118.94" x2="518.61" y2="103.38" stroke="#25636a" stroke-opacity="0.22" stroke-width="1.2"/><line x1="258.24" y1="118.94" x2="532.13" y2="104.90" stroke="#25636a" stroke-opacity="0.22" stroke-width="1.2"/><line x1="258.24" y1="118.94" x2="584.31" y2="112.96" stroke="#25636a" stroke-opacity="0.22" stroke-width="1.2"/><line x1="197.37" y1="127.08" x2="397.46" y2="117.47" stroke="#25636a" stroke-opacity="0.22" stroke-width="1.2"/><line x1="197.37" y1="127.08" x2="584.31" y2="112.96" stroke="#25636a" stroke-opacity="0.22" stroke-width="1.2"/><line x1="217.02" y1="139.85" x2="263.41" y2="137.46" stroke="#25636a" stroke-opacity="0.22" stroke-width="1.2"/><line x1="263.41" y1="137.46" x2="312.41" y2="131.60" stroke="#25636a" stroke-opacity="0.22" stroke-width="1.2"/><line x1="278.48" y1="136.11" x2="324.87" y2="129.69" stroke="#25636a" stroke-opacity="0.22" stroke-width="1.2"/><line x1="317.06" y1="129.00" x2="518.61" y2="103.38" stroke="#25636a" stroke-opacity="0.22" stroke-width="1.2"/><line x1="317.06" y1="129.00" x2="532.13" y2="104.90" stroke="#25636a" stroke-opacity="0.22" stroke-width="1.2"/><line x1="312.41" y1="131.60" x2="361.56" y2="123.36" stroke="#25636a" stroke-opacity="0.22" stroke-width="1.2"/><line x1="324.87" y1="129.69" x2="373.87" y2="121.12" stroke="#25636a" stroke-opacity="0.22" stroke-width="1.2"/><line x1="361.56" y1="123.36" x2="407.59" y2="114.94" stroke="#25636a" stroke-opacity="0.22" stroke-width="1.2"/><line x1="373.87" y1="121.12" x2="419.88" y2="112.78" stroke="#25636a" stroke-opacity="0.22" stroke-width="1.2"/><line x1="378.26" y1="118.32" x2="532.13" y2="104.90" stroke="#25636a" stroke-opacity="0.22" stroke-width="1.2"/><line x1="397.46" y1="117.47" x2="584.31" y2="112.96" stroke="#25636a" stroke-opacity="0.22" stroke-width="1.2"/><line x1="397.46" y1="117.47" x2="618.57" y2="116.56" stroke="#25636a" stroke-opacity="0.22" stroke-width="1.2"/><line x1="412.25" y1="112.15" x2="584.31" y2="112.96" stroke="#25636a" stroke-opacity="0.22" stroke-width="1.2"/><line x1="197.37" y1="127.08" x2="618.57" y2="116.56" stroke="#25636a" stroke-opacity="0.22" stroke-width="1.2"/><line x1="317.06" y1="129.00" x2="475.81" y2="104.37" stroke="#25636a" stroke-opacity="0.22" stroke-width="1.2"/><line x1="258.24" y1="118.94" x2="618.57" y2="116.56" stroke="#25636a" stroke-opacity="0.22" stroke-width="1.2"/><line x1="197.37" y1="127.08" x2="412.25" y2="112.15" stroke="#25636a" stroke-opacity="0.22" stroke-width="1.2"/>
  <polyline points="44.95,120.53 54.29,122.28 258.24,118.94 78.87,126.72 88.21,128.29 197.37,127.08 115.75,132.66 128.04,134.34 140.33,135.84 152.62,137.13 164.91,138.19 177.20,139.02 189.49,139.60 201.78,139.93 217.02,139.85 226.36,139.80 238.65,139.34 250.95,138.64 263.41,137.46 278.48,136.11 317.06,129.00 300.11,133.52 312.41,131.60 324.87,129.69 336.98,127.79 349.27,125.63 361.56,123.36 373.87,121.12 378.26,118.32 397.46,117.47 407.59,114.94 419.88,112.78 412.25,112.15 447.60,108.24 459.89,106.48 472.18,104.89 484.47,103.49 496.76,102.31 475.81,104.37 521.35,100.66 533.64,100.20 545.93,100.01 518.61,103.38 570.51,100.40 532.13,104.90 595.09,101.81 607.38,102.87 619.67,104.16 631.96,105.66 644.25,107.34 656.55,109.19 584.31,112.96 681.13,113.28 618.57,116.56 705.71,117.72 718.00,120.00" fill="none" stroke="#7d8f86" stroke-width="3"/>
  <circle cx="44.95" cy="120.53" r="3.2" fill="#22302d"/><circle cx="54.29" cy="122.28" r="3.2" fill="#22302d"/><circle cx="258.24" cy="118.94" r="3.2" fill="#22302d"/><circle cx="78.87" cy="126.72" r="3.2" fill="#22302d"/><circle cx="88.21" cy="128.29" r="3.2" fill="#22302d"/><circle cx="197.37" cy="127.08" r="3.2" fill="#22302d"/><circle cx="115.75" cy="132.66" r="3.2" fill="#22302d"/><circle cx="128.04" cy="134.34" r="3.2" fill="#22302d"/><circle cx="140.33" cy="135.84" r="3.2" fill="#22302d"/><circle cx="152.62" cy="137.13" r="3.2" fill="#22302d"/><circle cx="164.91" cy="138.19" r="3.2" fill="#22302d"/><circle cx="177.20" cy="139.02" r="3.2" fill="#22302d"/><circle cx="189.49" cy="139.60" r="3.2" fill="#22302d"/><circle cx="201.78" cy="139.93" r="3.2" fill="#22302d"/><circle cx="217.02" cy="139.85" r="3.2" fill="#22302d"/><circle cx="226.36" cy="139.80" r="3.2" fill="#22302d"/><circle cx="238.65" cy="139.34" r="3.2" fill="#22302d"/><circle cx="250.95" cy="138.64" r="3.2" fill="#22302d"/><circle cx="263.41" cy="137.46" r="3.2" fill="#22302d"/><circle cx="278.48" cy="136.11" r="3.2" fill="#22302d"/><circle cx="317.06" cy="129.00" r="3.2" fill="#22302d"/><circle cx="300.11" cy="133.52" r="3.2" fill="#22302d"/><circle cx="312.41" cy="131.60" r="3.2" fill="#22302d"/><circle cx="324.87" cy="129.69" r="3.2" fill="#22302d"/><circle cx="336.98" cy="127.79" r="3.2" fill="#22302d"/><circle cx="349.27" cy="125.63" r="3.2" fill="#22302d"/><circle cx="361.56" cy="123.36" r="3.2" fill="#22302d"/><circle cx="373.87" cy="121.12" r="3.2" fill="#22302d"/><circle cx="378.26" cy="118.32" r="3.2" fill="#22302d"/><circle cx="397.46" cy="117.47" r="3.2" fill="#22302d"/><circle cx="407.59" cy="114.94" r="3.2" fill="#22302d"/><circle cx="419.88" cy="112.78" r="3.2" fill="#22302d"/><circle cx="412.25" cy="112.15" r="3.2" fill="#22302d"/><circle cx="447.60" cy="108.24" r="3.2" fill="#22302d"/><circle cx="459.89" cy="106.48" r="3.2" fill="#22302d"/><circle cx="472.18" cy="104.89" r="3.2" fill="#22302d"/><circle cx="484.47" cy="103.49" r="3.2" fill="#22302d"/><circle cx="496.76" cy="102.31" r="3.2" fill="#22302d"/><circle cx="475.81" cy="104.37" r="3.2" fill="#22302d"/><circle cx="521.35" cy="100.66" r="3.2" fill="#22302d"/><circle cx="533.64" cy="100.20" r="3.2" fill="#22302d"/><circle cx="545.93" cy="100.01" r="3.2" fill="#22302d"/><circle cx="518.61" cy="103.38" r="3.2" fill="#22302d"/><circle cx="570.51" cy="100.40" r="3.2" fill="#22302d"/><circle cx="532.13" cy="104.90" r="3.2" fill="#22302d"/><circle cx="595.09" cy="101.81" r="3.2" fill="#22302d"/><circle cx="607.38" cy="102.87" r="3.2" fill="#22302d"/><circle cx="619.67" cy="104.16" r="3.2" fill="#22302d"/><circle cx="631.96" cy="105.66" r="3.2" fill="#22302d"/><circle cx="644.25" cy="107.34" r="3.2" fill="#22302d"/><circle cx="656.55" cy="109.19" r="3.2" fill="#22302d"/><circle cx="584.31" cy="112.96" r="3.2" fill="#22302d"/><circle cx="681.13" cy="113.28" r="3.2" fill="#22302d"/><circle cx="618.57" cy="116.56" r="3.2" fill="#22302d"/><circle cx="705.71" cy="117.72" r="3.2" fill="#22302d"/><circle cx="718.00" cy="120.00" r="3.2" fill="#22302d"/>
  <text x="34" y="248" font-family="Arial, sans-serif" font-size="11" fill="#58635e">row: coord_006_pdb_1PGA_A_protein_g_b1 | coarse beads, not atomic structure</text>
</svg>
