<svg xmlns="http://www.w3.org/2000/svg" width="760" height="260" viewBox="0 0 760 260" role="img" aria-label="native coordinate trace">
  <rect width="760" height="260" fill="#f8faf7"/>
  <text x="34" y="24" font-family="Arial, sans-serif" font-size="15" fill="#22302d">Native C-alpha Coordinate Trace</text>
  <line x1="452.36" y1="191.34" x2="610.51" y2="190.79" stroke="#326e8f" stroke-width="1" stroke-opacity="0.22"/><line x1="452.36" y1="191.34" x2="465.87" y2="205.46" stroke="#326e8f" stroke-width="1" stroke-opacity="0.22"/><line x1="452.36" y1="191.34" x2="350.18" y2="224.00" stroke="#326e8f" stroke-width="1" stroke-opacity="0.22"/><line x1="452.36" y1="191.34" x2="217.27" y2="206.63" stroke="#326e8f" stroke-width="1" stroke-opacity="0.22"/><line x1="546.57" y1="169.43" x2="666.61" y2="139.62" stroke="#326e8f" stroke-width="1" stroke-opacity="0.22"/><line x1="546.57" y1="169.43" x2="635.06" y2="167.34" stroke="#326e8f" stroke-width="1" stroke-opacity="0.22"/><line x1="546.57" y1="169.43" x2="610.51" y2="190.79" stroke="#326e8f" stroke-width="1" stroke-opacity="0.22"/><line x1="546.57" y1="169.43" x2="465.87" y2="205.46" stroke="#326e8f" stroke-width="1" stroke-opacity="0.22"/><line x1="546.57" y1="169.43" x2="264.26" y2="135.65" stroke="#326e8f" stroke-width="1" stroke-opacity="0.22"/><line x1="464.55" y1="151.37" x2="666.61" y2="139.62" stroke="#326e8f" stroke-width="1" stroke-opacity="0.22"/><line x1="464.55" y1="151.37" x2="635.06" y2="167.34" stroke="#326e8f" stroke-width="1" stroke-opacity="0.22"/><line x1="464.55" y1="151.37" x2="610.51" y2="190.79" stroke="#326e8f" stroke-width="1" stroke-opacity="0.22"/><line x1="464.55" y1="151.37" x2="465.87" y2="205.46" stroke="#326e8f" stroke-width="1" stroke-opacity="0.22"/><line x1="464.55" y1="151.37" x2="173.08" y2="182.20" stroke="#326e8f" stroke-width="1" stroke-opacity="0.22"/><line x1="464.55" y1="151.37" x2="353.44" y2="180.82" stroke="#326e8f" stroke-width="1" stroke-opacity="0.22"/><line x1="464.55" y1="151.37" x2="264.26" y2="135.65" stroke="#326e8f" stroke-width="1" stroke-opacity="0.22"/><line x1="464.55" y1="151.37" x2="294.90" y2="116.15" stroke="#326e8f" stroke-width="1" stroke-opacity="0.22"/><line x1="464.55" y1="151.37" x2="265.00" y2="116.02" stroke="#326e8f" stroke-width="1" stroke-opacity="0.22"/><line x1="508.28" y1="125.98" x2="691.71" y2="89.97" stroke="#326e8f" stroke-width="1" stroke-opacity="0.22"/><line x1="508.28" y1="125.98" x2="724.00" y2="117.73" stroke="#326e8f" stroke-width="1" stroke-opacity="0.22"/><line x1="508.28" y1="125.98" x2="666.61" y2="139.62" stroke="#326e8f" stroke-width="1" stroke-opacity="0.22"/><line x1="508.28" y1="125.98" x2="635.06" y2="167.34" stroke="#326e8f" stroke-width="1" stroke-opacity="0.22"/><line x1="508.28" y1="125.98" x2="264.26" y2="135.65" stroke="#326e8f" stroke-width="1" stroke-opacity="0.22"/><line x1="508.28" y1="125.98" x2="294.90" y2="116.15" stroke="#326e8f" stroke-width="1" stroke-opacity="0.22"/><line x1="508.28" y1="125.98" x2="265.00" y2="116.02" stroke="#326e8f" stroke-width="1" stroke-opacity="0.22"/><line x1="481.13" y1="114.28" x2="691.71" y2="89.97" stroke="#326e8f" stroke-width="1" stroke-opacity="0.22"/><line x1="481.13" y1="114.28" x2="724.00" y2="117.73" stroke="#326e8f" stroke-width="1" stroke-opacity="0.22"/><line x1="481.13" y1="114.28" x2="666.61" y2="139.62" stroke="#326e8f" stroke-width="1" stroke-opacity="0.22"/><line x1="481.13" y1="114.28" x2="449.94" y2="153.38" stroke="#326e8f" stroke-width="1" stroke-opacity="0.22"/><line x1="481.13" y1="114.28" x2="294.90" y2="116.15" stroke="#326e8f" stroke-width="1" stroke-opacity="0.22"/><line x1="481.13" y1="114.28" x2="265.00" y2="116.02" stroke="#326e8f" stroke-width="1" stroke-opacity="0.22"/><line x1="481.13" y1="114.28" x2="279.52" y2="92.30" stroke="#326e8f" stroke-width="1" stroke-opacity="0.22"/><line x1="481.13" y1="114.28" x2="278.19" y2="89.38" stroke="#326e8f" stroke-width="1" stroke-opacity="0.22"/><line x1="478.70" y1="85.98" x2="676.78" y2="56.64" stroke="#326e8f" stroke-width="1" stroke-opacity="0.22"/><line x1="478.70" y1="85.98" x2="722.21" y2="70.15" stroke="#326e8f" stroke-width="1" stroke-opacity="0.22"/><line x1="478.70" y1="85.98" x2="691.71" y2="89.97" stroke="#326e8f" stroke-width="1" stroke-opacity="0.22"/><line x1="478.70" y1="85.98" x2="724.00" y2="117.73" stroke="#326e8f" stroke-width="1" stroke-opacity="0.22"/><line x1="478.70" y1="85.98" x2="294.90" y2="116.15" stroke="#326e8f" stroke-width="1" stroke-opacity="0.22"/><line x1="478.70" y1="85.98" x2="265.00" y2="116.02" stroke="#326e8f" stroke-width="1" stroke-opacity="0.22"/><line x1="478.70" y1="85.98" x2="279.52" y2="92.30" stroke="#326e8f" stroke-width="1" stroke-opacity="0.22"/><line x1="478.70" y1="85.98" x2="278.19" y2="89.38" stroke="#326e8f" stroke-width="1" stroke-opacity="0.22"/><line x1="502.47" y1="79.78" x2="707.97" y2="63.41" stroke="#326e8f" stroke-width="1" stroke-opacity="0.22"/>
  <polyline points="452.36,191.34 546.57,169.43 464.55,151.37 508.28,125.98 481.13,114.28 478.70,85.98 502.47,79.78 449.98,54.14 476.68,56.65 518.22,36.00 680.99,45.87 707.97,63.41 676.78,56.64 722.21,70.15 691.71,89.97 724.00,117.73 666.61,139.62 635.06,167.34 610.51,190.79 465.87,205.46 350.18,224.00 217.27,206.63 173.08,182.20 112.44,194.86 268.39,205.54 353.44,180.82 243.61,167.50 293.03,185.06 462.71,181.93 449.94,153.38 351.88,150.79 468.39,165.81 594.98,149.62 510.12,125.93 480.53,136.93 647.29,143.65 692.86,116.95 583.12,104.13 467.16,96.02 297.29,96.83 196.39,83.50 68.66,84.89 91.19,101.81 36.00,102.13 73.33,120.27 64.44,113.55 63.66,136.14 78.04,120.21 240.31,114.11 264.26,135.65 294.90,116.15 265.00,116.02 279.52,92.30 278.19,89.38 255.65,63.58 264.31,54.85" fill="none" stroke="#7d8f86" stroke-width="2.6"/>
  <circle cx="452.36" cy="191.34" r="3" fill="#22302d"/><circle cx="546.57" cy="169.43" r="3" fill="#22302d"/><circle cx="464.55" cy="151.37" r="3" fill="#22302d"/><circle cx="508.28" cy="125.98" r="3" fill="#22302d"/><circle cx="481.13" cy="114.28" r="3" fill="#22302d"/><circle cx="478.70" cy="85.98" r="3" fill="#22302d"/><circle cx="502.47" cy="79.78" r="3" fill="#22302d"/><circle cx="449.98" cy="54.14" r="3" fill="#22302d"/><circle cx="476.68" cy="56.65" r="3" fill="#22302d"/><circle cx="518.22" cy="36.00" r="3" fill="#22302d"/><circle cx="680.99" cy="45.87" r="3" fill="#22302d"/><circle cx="707.97" cy="63.41" r="3" fill="#22302d"/><circle cx="676.78" cy="56.64" r="3" fill="#22302d"/><circle cx="722.21" cy="70.15" r="3" fill="#22302d"/><circle cx="691.71" cy="89.97" r="3" fill="#22302d"/><circle cx="724.00" cy="117.73" r="3" fill="#22302d"/><circle cx="666.61" cy="139.62" r="3" fill="#22302d"/><circle cx="635.06" cy="167.34" r="3" fill="#22302d"/><circle cx="610.51" cy="190.79" r="3" fill="#22302d"/><circle cx="465.87" cy="205.46" r="3" fill="#22302d"/><circle cx="350.18" cy="224.00" r="3" fill="#22302d"/><circle cx="217.27" cy="206.63" r="3" fill="#22302d"/><circle cx="173.08" cy="182.20" r="3" fill="#22302d"/><circle cx="112.44" cy="194.86" r="3" fill="#22302d"/><circle cx="268.39" cy="205.54" r="3" fill="#22302d"/><circle cx="353.44" cy="180.82" r="3" fill="#22302d"/><circle cx="243.61" cy="167.50" r="3" fill="#22302d"/><circle cx="293.03" cy="185.06" r="3" fill="#22302d"/><circle cx="462.71" cy="181.93" r="3" fill="#22302d"/><circle cx="449.94" cy="153.38" r="3" fill="#22302d"/><circle cx="351.88" cy="150.79" r="3" fill="#22302d"/><circle cx="468.39" cy="165.81" r="3" fill="#22302d"/><circle cx="594.98" cy="149.62" r="3" fill="#22302d"/><circle cx="510.12" cy="125.93" r="3" fill="#22302d"/><circle cx="480.53" cy="136.93" r="3" fill="#22302d"/><circle cx="647.29" cy="143.65" r="3" fill="#22302d"/><circle cx="692.86" cy="116.95" r="3" fill="#22302d"/><circle cx="583.12" cy="104.13" r="3" fill="#22302d"/><circle cx="467.16" cy="96.02" r="3" fill="#22302d"/><circle cx="297.29" cy="96.83" r="3" fill="#22302d"/><circle cx="196.39" cy="83.50" r="3" fill="#22302d"/><circle cx="68.66" cy="84.89" r="3" fill="#22302d"/><circle cx="91.19" cy="101.81" r="3" fill="#22302d"/><circle cx="36.00" cy="102.13" r="3" fill="#22302d"/><circle cx="73.33" cy="120.27" r="3" fill="#22302d"/><circle cx="64.44" cy="113.55" r="3" fill="#22302d"/><circle cx="63.66" cy="136.14" r="3" fill="#22302d"/><circle cx="78.04" cy="120.21" r="3" fill="#22302d"/><circle cx="240.31" cy="114.11" r="3" fill="#22302d"/><circle cx="264.26" cy="135.65" r="3" fill="#22302d"/><circle cx="294.90" cy="116.15" r="3" fill="#22302d"/><circle cx="265.00" cy="116.02" r="3" fill="#22302d"/><circle cx="279.52" cy="92.30" r="3" fill="#22302d"/><circle cx="278.19" cy="89.38" r="3" fill="#22302d"/><circle cx="255.65" cy="63.58" r="3" fill="#22302d"/><circle cx="264.31" cy="54.85" r="3" fill="#22302d"/>
  <text x="34" y="248" font-family="Arial, sans-serif" font-size="11" fill="#58635e">row: coord_006_pdb_1PGA_A_protein_g_b1 | projected coordinates, not full atomic folding</text>
</svg>
