<svg xmlns="http://www.w3.org/2000/svg" width="760" height="260" viewBox="0 0 760 260" role="img" aria-label="Repaired coarse-grain final collapse">
  <rect width="760" height="260" fill="#f8faf7"/>
  <text x="34" y="24" font-family="Arial, sans-serif" font-size="15" fill="#22302d">Repaired coarse-grain final collapse</text>
<line x1="44.11" y1="120.38" x2="101.02" y2="126.80" stroke="#25636a" stroke-opacity="0.22" stroke-width="1.2"/><line x1="79.15" y1="126.09" x2="123.47" y2="130.58" stroke="#25636a" stroke-opacity="0.22" stroke-width="1.2"/><line x1="131.90" y1="134.79" x2="170.32" y2="137.09" stroke="#25636a" stroke-opacity="0.22" stroke-width="1.2"/><line x1="188.18" y1="138.29" x2="211.64" y2="138.80" stroke="#25636a" stroke-opacity="0.22" stroke-width="1.2"/><line x1="281.03" y1="131.34" x2="374.70" y2="124.57" stroke="#25636a" stroke-opacity="0.22" stroke-width="1.2"/><line x1="281.03" y1="131.34" x2="413.53" y2="119.80" stroke="#25636a" stroke-opacity="0.22" stroke-width="1.2"/><line x1="281.03" y1="131.34" x2="447.68" y2="113.07" stroke="#25636a" stroke-opacity="0.22" stroke-width="1.2"/><line x1="281.03" y1="131.34" x2="440.82" y2="110.37" stroke="#25636a" stroke-opacity="0.22" stroke-width="1.2"/><line x1="281.03" y1="131.34" x2="541.61" y2="113.24" stroke="#25636a" stroke-opacity="0.22" stroke-width="1.2"/><line x1="281.03" y1="131.34" x2="593.42" y2="119.21" stroke="#25636a" stroke-opacity="0.22" stroke-width="1.2"/><line x1="294.57" y1="130.58" x2="374.70" y2="124.57" stroke="#25636a" stroke-opacity="0.22" stroke-width="1.2"/><line x1="294.57" y1="130.58" x2="413.53" y2="119.80" stroke="#25636a" stroke-opacity="0.22" stroke-width="1.2"/><line x1="294.57" y1="130.58" x2="447.68" y2="113.07" stroke="#25636a" stroke-opacity="0.22" stroke-width="1.2"/><line x1="294.57" y1="130.58" x2="440.82" y2="110.37" stroke="#25636a" stroke-opacity="0.22" stroke-width="1.2"/><line x1="294.57" y1="130.58" x2="541.61" y2="113.24" stroke="#25636a" stroke-opacity="0.22" stroke-width="1.2"/><line x1="294.57" y1="130.58" x2="593.42" y2="119.21" stroke="#25636a" stroke-opacity="0.22" stroke-width="1.2"/><line x1="271.66" y1="136.23" x2="494.58" y2="108.69" stroke="#25636a" stroke-opacity="0.22" stroke-width="1.2"/><line x1="356.81" y1="129.57" x2="447.68" y2="113.07" stroke="#25636a" stroke-opacity="0.22" stroke-width="1.2"/><line x1="356.81" y1="129.57" x2="440.82" y2="110.37" stroke="#25636a" stroke-opacity="0.22" stroke-width="1.2"/><line x1="356.81" y1="129.57" x2="494.58" y2="108.69" stroke="#25636a" stroke-opacity="0.22" stroke-width="1.2"/><line x1="356.81" y1="129.57" x2="541.61" y2="113.24" stroke="#25636a" stroke-opacity="0.22" stroke-width="1.2"/><line x1="356.81" y1="129.57" x2="615.17" y2="115.38" stroke="#25636a" stroke-opacity="0.22" stroke-width="1.2"/><line x1="356.81" y1="129.57" x2="593.42" y2="119.21" stroke="#25636a" stroke-opacity="0.22" stroke-width="1.2"/><line x1="374.70" y1="124.57" x2="494.58" y2="108.69" stroke="#25636a" stroke-opacity="0.22" stroke-width="1.2"/><line x1="374.70" y1="124.57" x2="541.61" y2="113.24" stroke="#25636a" stroke-opacity="0.22" stroke-width="1.2"/><line x1="374.70" y1="124.57" x2="615.17" y2="115.38" stroke="#25636a" stroke-opacity="0.22" stroke-width="1.2"/><line x1="374.70" y1="124.57" x2="593.42" y2="119.21" stroke="#25636a" stroke-opacity="0.22" stroke-width="1.2"/><line x1="360.16" y1="123.66" x2="394.23" y2="117.91" stroke="#25636a" stroke-opacity="0.22" stroke-width="1.2"/><line x1="413.53" y1="119.80" x2="494.58" y2="108.69" stroke="#25636a" stroke-opacity="0.22" stroke-width="1.2"/><line x1="413.53" y1="119.80" x2="541.61" y2="113.24" stroke="#25636a" stroke-opacity="0.22" stroke-width="1.2"/><line x1="413.53" y1="119.80" x2="615.17" y2="115.38" stroke="#25636a" stroke-opacity="0.22" stroke-width="1.2"/><line x1="413.53" y1="119.80" x2="593.42" y2="119.21" stroke="#25636a" stroke-opacity="0.22" stroke-width="1.2"/><line x1="408.78" y1="115.43" x2="424.59" y2="112.14" stroke="#25636a" stroke-opacity="0.22" stroke-width="1.2"/><line x1="415.58" y1="114.11" x2="440.14" y2="109.74" stroke="#25636a" stroke-opacity="0.22" stroke-width="1.2"/><line x1="440.14" y1="109.74" x2="478.73" y2="104.17" stroke="#25636a" stroke-opacity="0.22" stroke-width="1.2"/><line x1="447.68" y1="113.07" x2="541.61" y2="113.24" stroke="#25636a" stroke-opacity="0.22" stroke-width="1.2"/>
  <polyline points="44.11,120.38 50.78,121.63 59.56,123.25 79.15,126.09 101.02,126.80 92.74,128.65 106.57,129.53 123.47,130.58 115.92,132.55 124.16,133.64 131.90,134.79 138.57,135.64 147.35,136.60 156.13,137.45 170.32,137.09 179.70,137.83 188.18,138.29 281.03,131.34 199.91,138.79 294.57,130.58 211.64,138.80 226.36,139.80 235.14,139.50 243.92,139.07 271.66,136.23 356.81,129.57 270.26,137.04 279.04,136.13 292.99,133.72 318.02,130.57 294.57,131.48 319.20,130.37 320.24,129.64 326.93,128.44 344.22,126.01 374.70,124.57 360.16,123.66 366.83,122.44 375.61,120.82 413.53,119.80 394.23,117.91 408.78,115.43 415.58,114.11 420.00,113.22 426.58,111.86 424.59,112.14 440.14,109.74 447.68,113.07 463.40,106.00 440.82,110.37 478.73,104.17 489.74,102.96 498.52,102.16 507.30,101.48 511.87,101.39 518.46,101.24 526.80,100.95 521.19,102.70 542.54,100.90 550.32,101.08 494.58,108.69 577.53,100.70 586.31,101.19 595.09,101.81 603.87,102.55 612.65,103.40 621.43,104.36 630.21,105.43 638.99,106.60 541.61,113.24 656.55,109.19 665.32,110.59 674.10,112.06 615.17,115.38 691.66,115.15 593.42,119.21 709.22,118.37 718.00,120.00" fill="none" stroke="#7d8f86" stroke-width="3"/>
  <circle cx="44.11" cy="120.38" r="3.2" fill="#22302d"/><circle cx="59.56" cy="123.25" r="3.2" fill="#22302d"/><circle cx="101.02" cy="126.80" r="3.2" fill="#22302d"/><circle cx="106.57" cy="129.53" r="3.2" fill="#22302d"/><circle cx="115.92" cy="132.55" r="3.2" fill="#22302d"/><circle cx="131.90" cy="134.79" r="3.2" fill="#22302d"/><circle cx="147.35" cy="136.60" r="3.2" fill="#22302d"/><circle cx="170.32" cy="137.09" r="3.2" fill="#22302d"/><circle cx="188.18" cy="138.29" r="3.2" fill="#22302d"/><circle cx="199.91" cy="138.79" r="3.2" fill="#22302d"/><circle cx="211.64" cy="138.80" r="3.2" fill="#22302d"/><circle cx="235.14" cy="139.50" r="3.2" fill="#22302d"/><circle cx="271.66" cy="136.23" r="3.2" fill="#22302d"/><circle cx="270.26" cy="137.04" r="3.2" fill="#22302d"/><circle cx="292.99" cy="133.72" r="3.2" fill="#22302d"/><circle cx="294.57" cy="131.48" r="3.2" fill="#22302d"/><circle cx="320.24" cy="129.64" r="3.2" fill="#22302d"/><circle cx="344.22" cy="126.01" r="3.2" fill="#22302d"/><circle cx="360.16" cy="123.66" r="3.2" fill="#22302d"/><circle cx="375.61" cy="120.82" r="3.2" fill="#22302d"/><circle cx="394.23" cy="117.91" r="3.2" fill="#22302d"/><circle cx="415.58" cy="114.11" r="3.2" fill="#22302d"/><circle cx="426.58" cy="111.86" r="3.2" fill="#22302d"/><circle cx="440.14" cy="109.74" r="3.2" fill="#22302d"/><circle cx="463.40" cy="106.00" r="3.2" fill="#22302d"/><circle cx="478.73" cy="104.17" r="3.2" fill="#22302d"/><circle cx="498.52" cy="102.16" r="3.2" fill="#22302d"/><circle cx="511.87" cy="101.39" r="3.2" fill="#22302d"/><circle cx="526.80" cy="100.95" r="3.2" fill="#22302d"/><circle cx="542.54" cy="100.90" r="3.2" fill="#22302d"/><circle cx="494.58" cy="108.69" r="3.2" fill="#22302d"/><circle cx="586.31" cy="101.19" r="3.2" fill="#22302d"/><circle cx="603.87" cy="102.55" r="3.2" fill="#22302d"/><circle cx="621.43" cy="104.36" r="3.2" fill="#22302d"/><circle cx="638.99" cy="106.60" r="3.2" fill="#22302d"/><circle cx="656.55" cy="109.19" r="3.2" fill="#22302d"/><circle cx="674.10" cy="112.06" r="3.2" fill="#22302d"/><circle cx="691.66" cy="115.15" r="3.2" fill="#22302d"/><circle cx="709.22" cy="118.37" r="3.2" fill="#22302d"/>
  <text x="34" y="248" font-family="Arial, sans-serif" font-size="11" fill="#58635e">row: visual_006_beta_protein_l | coarse beads, not atomic structure</text>
</svg>
