<svg xmlns="http://www.w3.org/2000/svg" width="420" height="420" viewBox="0 0 420 420" role="img" aria-label="Locked coarse native contact target">
  <rect width="420" height="420" fill="#f8faf7"/>
  <text x="34" y="22" font-family="Arial, sans-serif" font-size="14" fill="#22302d">Locked coarse native contact target</text>
  <line x1="34" y1="34" x2="34" y2="386" stroke="#9aa69f"/>
  <line x1="34" y1="386" x2="386" y2="386" stroke="#9aa69f"/>
  <line x1="34" y1="34" x2="386" y2="386" stroke="#cfd8d2" stroke-dasharray="4 4"/>
  <circle cx="50.00" cy="140.67" r="2.2" fill="#294f9b"/><circle cx="140.67" cy="50.00" r="2.2" fill="#294f9b" opacity="0.58"/><circle cx="55.33" cy="135.33" r="2.2" fill="#294f9b"/><circle cx="135.33" cy="55.33" r="2.2" fill="#294f9b" opacity="0.58"/><circle cx="55.33" cy="194.00" r="2.2" fill="#294f9b"/><circle cx="194.00" cy="55.33" r="2.2" fill="#294f9b" opacity="0.58"/><circle cx="60.67" cy="130.00" r="2.2" fill="#294f9b"/><circle cx="130.00" cy="60.67" r="2.2" fill="#294f9b" opacity="0.58"/><circle cx="66.00" cy="124.67" r="2.2" fill="#294f9b"/><circle cx="124.67" cy="66.00" r="2.2" fill="#294f9b" opacity="0.58"/><circle cx="71.33" cy="119.33" r="2.2" fill="#294f9b"/><circle cx="119.33" cy="71.33" r="2.2" fill="#294f9b" opacity="0.58"/><circle cx="76.67" cy="114.00" r="2.2" fill="#294f9b"/><circle cx="114.00" cy="76.67" r="2.2" fill="#294f9b" opacity="0.58"/><circle cx="114.00" cy="210.00" r="2.2" fill="#294f9b"/><circle cx="210.00" cy="114.00" r="2.2" fill="#294f9b" opacity="0.58"/><circle cx="119.33" cy="204.67" r="2.2" fill="#294f9b"/><circle cx="204.67" cy="119.33" r="2.2" fill="#294f9b" opacity="0.58"/><circle cx="124.67" cy="199.33" r="2.2" fill="#294f9b"/><circle cx="199.33" cy="124.67" r="2.2" fill="#294f9b" opacity="0.58"/><circle cx="130.00" cy="194.00" r="2.2" fill="#294f9b"/><circle cx="194.00" cy="130.00" r="2.2" fill="#294f9b" opacity="0.58"/><circle cx="135.33" cy="188.67" r="2.2" fill="#294f9b"/><circle cx="188.67" cy="135.33" r="2.2" fill="#294f9b" opacity="0.58"/><circle cx="135.33" cy="274.00" r="2.2" fill="#294f9b"/><circle cx="274.00" cy="135.33" r="2.2" fill="#294f9b" opacity="0.58"/><circle cx="140.67" cy="183.33" r="2.2" fill="#294f9b"/><circle cx="183.33" cy="140.67" r="2.2" fill="#294f9b" opacity="0.58"/><circle cx="183.33" cy="279.33" r="2.2" fill="#294f9b"/><circle cx="279.33" cy="183.33" r="2.2" fill="#294f9b" opacity="0.58"/><circle cx="188.67" cy="274.00" r="2.2" fill="#294f9b"/><circle cx="274.00" cy="188.67" r="2.2" fill="#294f9b" opacity="0.58"/><circle cx="194.00" cy="268.67" r="2.2" fill="#294f9b"/><circle cx="268.67" cy="194.00" r="2.2" fill="#294f9b" opacity="0.58"/><circle cx="199.33" cy="263.33" r="2.2" fill="#294f9b"/><circle cx="263.33" cy="199.33" r="2.2" fill="#294f9b" opacity="0.58"/><circle cx="204.67" cy="258.00" r="2.2" fill="#294f9b"/><circle cx="258.00" cy="204.67" r="2.2" fill="#294f9b" opacity="0.58"/><circle cx="210.00" cy="252.67" r="2.2" fill="#294f9b"/><circle cx="252.67" cy="210.00" r="2.2" fill="#294f9b" opacity="0.58"/><circle cx="215.33" cy="354.00" r="2.2" fill="#294f9b"/><circle cx="354.00" cy="215.33" r="2.2" fill="#294f9b" opacity="0.58"/><circle cx="252.67" cy="348.67" r="2.2" fill="#294f9b"/><circle cx="348.67" cy="252.67" r="2.2" fill="#294f9b" opacity="0.58"/><circle cx="258.00" cy="343.33" r="2.2" fill="#294f9b"/><circle cx="343.33" cy="258.00" r="2.2" fill="#294f9b" opacity="0.58"/><circle cx="263.33" cy="338.00" r="2.2" fill="#294f9b"/><circle cx="338.00" cy="263.33" r="2.2" fill="#294f9b" opacity="0.58"/><circle cx="268.67" cy="332.67" r="2.2" fill="#294f9b"/><circle cx="332.67" cy="268.67" r="2.2" fill="#294f9b" opacity="0.58"/><circle cx="274.00" cy="327.33" r="2.2" fill="#294f9b"/><circle cx="327.33" cy="274.00" r="2.2" fill="#294f9b" opacity="0.58"/><circle cx="279.33" cy="322.00" r="2.2" fill="#294f9b"/><circle cx="322.00" cy="279.33" r="2.2" fill="#294f9b" opacity="0.58"/>
  <text x="34" y="412" font-family="Arial, sans-serif" font-size="11" fill="#58635e">row: visual_004_beta_csp | contacts: 27</text>
</svg>
