<svg xmlns="http://www.w3.org/2000/svg" width="760" height="260" viewBox="0 0 760 260" role="img" aria-label="Repaired coarse-grain final collapse">
  <rect width="760" height="260" fill="#f8faf7"/>
  <text x="34" y="24" font-family="Arial, sans-serif" font-size="15" fill="#22302d">Repaired coarse-grain final collapse</text>
<line x1="44.46" y1="120.45" x2="106.55" y2="127.45" stroke="#25636a" stroke-opacity="0.22" stroke-width="1.2"/><line x1="64.94" y1="124.21" x2="108.89" y2="130.84" stroke="#25636a" stroke-opacity="0.22" stroke-width="1.2"/><line x1="141.91" y1="129.08" x2="329.13" y2="126.02" stroke="#25636a" stroke-opacity="0.22" stroke-width="1.2"/><line x1="141.91" y1="129.08" x2="345.87" y2="119.71" stroke="#25636a" stroke-opacity="0.22" stroke-width="1.2"/><line x1="230.36" y1="126.98" x2="277.38" y2="133.38" stroke="#25636a" stroke-opacity="0.22" stroke-width="1.2"/><line x1="230.36" y1="126.98" x2="286.89" y2="132.45" stroke="#25636a" stroke-opacity="0.22" stroke-width="1.2"/><line x1="230.36" y1="126.98" x2="307.58" y2="130.91" stroke="#25636a" stroke-opacity="0.22" stroke-width="1.2"/><line x1="230.36" y1="126.98" x2="329.13" y2="126.02" stroke="#25636a" stroke-opacity="0.22" stroke-width="1.2"/><line x1="230.36" y1="126.98" x2="345.87" y2="119.71" stroke="#25636a" stroke-opacity="0.22" stroke-width="1.2"/><line x1="230.36" y1="126.98" x2="462.34" y2="107.40" stroke="#25636a" stroke-opacity="0.22" stroke-width="1.2"/><line x1="230.36" y1="126.98" x2="542.13" y2="101.94" stroke="#25636a" stroke-opacity="0.22" stroke-width="1.2"/><line x1="255.31" y1="126.44" x2="286.89" y2="132.45" stroke="#25636a" stroke-opacity="0.22" stroke-width="1.2"/><line x1="255.31" y1="126.44" x2="329.13" y2="126.02" stroke="#25636a" stroke-opacity="0.22" stroke-width="1.2"/><line x1="255.31" y1="126.44" x2="345.69" y2="123.40" stroke="#25636a" stroke-opacity="0.22" stroke-width="1.2"/><line x1="255.31" y1="126.44" x2="345.87" y2="119.71" stroke="#25636a" stroke-opacity="0.22" stroke-width="1.2"/><line x1="255.31" y1="126.44" x2="460.76" y2="107.92" stroke="#25636a" stroke-opacity="0.22" stroke-width="1.2"/><line x1="255.31" y1="126.44" x2="462.34" y2="107.40" stroke="#25636a" stroke-opacity="0.22" stroke-width="1.2"/><line x1="255.31" y1="126.44" x2="500.16" y2="105.41" stroke="#25636a" stroke-opacity="0.22" stroke-width="1.2"/><line x1="255.31" y1="126.44" x2="605.27" y2="115.53" stroke="#25636a" stroke-opacity="0.22" stroke-width="1.2"/><line x1="279.18" y1="129.73" x2="345.69" y2="123.40" stroke="#25636a" stroke-opacity="0.22" stroke-width="1.2"/><line x1="279.18" y1="129.73" x2="345.87" y2="119.71" stroke="#25636a" stroke-opacity="0.22" stroke-width="1.2"/><line x1="279.18" y1="129.73" x2="460.76" y2="107.92" stroke="#25636a" stroke-opacity="0.22" stroke-width="1.2"/><line x1="279.18" y1="129.73" x2="462.34" y2="107.40" stroke="#25636a" stroke-opacity="0.22" stroke-width="1.2"/><line x1="279.18" y1="129.73" x2="500.16" y2="105.41" stroke="#25636a" stroke-opacity="0.22" stroke-width="1.2"/><line x1="279.18" y1="129.73" x2="605.27" y2="115.53" stroke="#25636a" stroke-opacity="0.22" stroke-width="1.2"/><line x1="285.51" y1="130.82" x2="345.69" y2="123.40" stroke="#25636a" stroke-opacity="0.22" stroke-width="1.2"/><line x1="285.51" y1="130.82" x2="345.87" y2="119.71" stroke="#25636a" stroke-opacity="0.22" stroke-width="1.2"/><line x1="285.51" y1="130.82" x2="460.76" y2="107.92" stroke="#25636a" stroke-opacity="0.22" stroke-width="1.2"/><line x1="285.51" y1="130.82" x2="462.34" y2="107.40" stroke="#25636a" stroke-opacity="0.22" stroke-width="1.2"/><line x1="285.51" y1="130.82" x2="500.16" y2="105.41" stroke="#25636a" stroke-opacity="0.22" stroke-width="1.2"/><line x1="285.51" y1="130.82" x2="605.27" y2="115.53" stroke="#25636a" stroke-opacity="0.22" stroke-width="1.2"/><line x1="224.62" y1="137.35" x2="345.87" y2="119.71" stroke="#25636a" stroke-opacity="0.22" stroke-width="1.2"/><line x1="229.90" y1="138.18" x2="264.88" y2="137.47" stroke="#25636a" stroke-opacity="0.22" stroke-width="1.2"/><line x1="230.36" y1="126.98" x2="285.51" y2="130.82" stroke="#25636a" stroke-opacity="0.22" stroke-width="1.2"/><line x1="245.77" y1="135.97" x2="329.13" y2="126.02" stroke="#25636a" stroke-opacity="0.22" stroke-width="1.2"/><line x1="224.62" y1="137.35" x2="358.53" y2="123.54" stroke="#25636a" stroke-opacity="0.22" stroke-width="1.2"/>
  <polyline points="44.46,120.45 52.24,121.90 64.94,124.21 83.47,126.40 106.55,127.45 141.91,129.08 108.89,130.84 230.36,126.98 255.31,126.44 142.98,134.82 144.42,136.29 169.42,136.05 164.91,138.19 175.15,138.90 279.18,129.73 210.57,137.76 285.51,130.82 224.62,137.35 229.90,138.18 245.77,135.97 241.02,137.56 257.09,138.19 264.88,137.47 289.87,134.34 287.82,135.11 277.38,133.38 286.89,132.45 307.58,130.91 332.06,128.38 329.13,126.02 337.08,125.11 358.53,123.54 345.69,123.40 373.79,120.36 403.38,117.63 375.82,118.09 410.73,114.37 345.87,119.71 431.21,110.84 441.45,109.19 459.14,108.40 480.28,107.29 474.43,106.07 471.64,106.77 490.71,104.09 483.64,105.34 460.76,107.92 523.39,100.56 462.34,107.40 543.88,100.02 500.16,105.41 542.13,101.94 574.61,100.56 584.85,101.10 586.52,102.20 597.57,102.85 607.61,103.73 598.25,106.27 625.74,106.19 634.95,107.60 628.88,109.64 654.88,110.61 605.27,115.53 687.27,114.37 697.52,116.21 707.76,118.10 718.00,120.00" fill="none" stroke="#7d8f86" stroke-width="3"/>
  <circle cx="44.46" cy="120.45" r="3.2" fill="#22302d"/><circle cx="52.24" cy="121.90" r="3.2" fill="#22302d"/><circle cx="64.94" cy="124.21" r="3.2" fill="#22302d"/><circle cx="83.47" cy="126.40" r="3.2" fill="#22302d"/><circle cx="106.55" cy="127.45" r="3.2" fill="#22302d"/><circle cx="141.91" cy="129.08" r="3.2" fill="#22302d"/><circle cx="108.89" cy="130.84" r="3.2" fill="#22302d"/><circle cx="230.36" cy="126.98" r="3.2" fill="#22302d"/><circle cx="255.31" cy="126.44" r="3.2" fill="#22302d"/><circle cx="142.98" cy="134.82" r="3.2" fill="#22302d"/><circle cx="144.42" cy="136.29" r="3.2" fill="#22302d"/><circle cx="169.42" cy="136.05" r="3.2" fill="#22302d"/><circle cx="164.91" cy="138.19" r="3.2" fill="#22302d"/><circle cx="175.15" cy="138.90" r="3.2" fill="#22302d"/><circle cx="279.18" cy="129.73" r="3.2" fill="#22302d"/><circle cx="210.57" cy="137.76" r="3.2" fill="#22302d"/><circle cx="285.51" cy="130.82" r="3.2" fill="#22302d"/><circle cx="224.62" cy="137.35" r="3.2" fill="#22302d"/><circle cx="229.90" cy="138.18" r="3.2" fill="#22302d"/><circle cx="245.77" cy="135.97" r="3.2" fill="#22302d"/><circle cx="241.02" cy="137.56" r="3.2" fill="#22302d"/><circle cx="257.09" cy="138.19" r="3.2" fill="#22302d"/><circle cx="264.88" cy="137.47" r="3.2" fill="#22302d"/><circle cx="289.87" cy="134.34" r="3.2" fill="#22302d"/><circle cx="287.82" cy="135.11" r="3.2" fill="#22302d"/><circle cx="277.38" cy="133.38" r="3.2" fill="#22302d"/><circle cx="286.89" cy="132.45" r="3.2" fill="#22302d"/><circle cx="307.58" cy="130.91" r="3.2" fill="#22302d"/><circle cx="332.06" cy="128.38" r="3.2" fill="#22302d"/><circle cx="329.13" cy="126.02" r="3.2" fill="#22302d"/><circle cx="337.08" cy="125.11" r="3.2" fill="#22302d"/><circle cx="358.53" cy="123.54" r="3.2" fill="#22302d"/><circle cx="345.69" cy="123.40" r="3.2" fill="#22302d"/><circle cx="373.79" cy="120.36" r="3.2" fill="#22302d"/><circle cx="403.38" cy="117.63" r="3.2" fill="#22302d"/><circle cx="375.82" cy="118.09" r="3.2" fill="#22302d"/><circle cx="410.73" cy="114.37" r="3.2" fill="#22302d"/><circle cx="345.87" cy="119.71" r="3.2" fill="#22302d"/><circle cx="431.21" cy="110.84" r="3.2" fill="#22302d"/><circle cx="441.45" cy="109.19" r="3.2" fill="#22302d"/><circle cx="459.14" cy="108.40" r="3.2" fill="#22302d"/><circle cx="480.28" cy="107.29" r="3.2" fill="#22302d"/><circle cx="474.43" cy="106.07" r="3.2" fill="#22302d"/><circle cx="471.64" cy="106.77" r="3.2" fill="#22302d"/><circle cx="490.71" cy="104.09" r="3.2" fill="#22302d"/><circle cx="483.64" cy="105.34" r="3.2" fill="#22302d"/><circle cx="460.76" cy="107.92" r="3.2" fill="#22302d"/><circle cx="523.39" cy="100.56" r="3.2" fill="#22302d"/><circle cx="462.34" cy="107.40" r="3.2" fill="#22302d"/><circle cx="543.88" cy="100.02" r="3.2" fill="#22302d"/><circle cx="500.16" cy="105.41" r="3.2" fill="#22302d"/><circle cx="542.13" cy="101.94" r="3.2" fill="#22302d"/><circle cx="574.61" cy="100.56" r="3.2" fill="#22302d"/><circle cx="584.85" cy="101.10" r="3.2" fill="#22302d"/><circle cx="586.52" cy="102.20" r="3.2" fill="#22302d"/><circle cx="597.57" cy="102.85" r="3.2" fill="#22302d"/><circle cx="607.61" cy="103.73" r="3.2" fill="#22302d"/><circle cx="598.25" cy="106.27" r="3.2" fill="#22302d"/><circle cx="625.74" cy="106.19" r="3.2" fill="#22302d"/><circle cx="634.95" cy="107.60" r="3.2" fill="#22302d"/><circle cx="628.88" cy="109.64" r="3.2" fill="#22302d"/><circle cx="654.88" cy="110.61" r="3.2" fill="#22302d"/><circle cx="605.27" cy="115.53" r="3.2" fill="#22302d"/><circle cx="687.27" cy="114.37" r="3.2" fill="#22302d"/><circle cx="697.52" cy="116.21" r="3.2" fill="#22302d"/><circle cx="707.76" cy="118.10" r="3.2" fill="#22302d"/><circle cx="718.00" cy="120.00" r="3.2" fill="#22302d"/>
  <text x="34" y="248" font-family="Arial, sans-serif" font-size="11" fill="#58635e">row: visual_004_beta_csp | coarse beads, not atomic structure</text>
</svg>
