<svg xmlns="http://www.w3.org/2000/svg" width="420" height="420" viewBox="0 0 420 420" role="img" aria-label="Locked coarse native contact target">
  <rect width="420" height="420" fill="#f8faf7"/>
  <text x="34" y="22" font-family="Arial, sans-serif" font-size="14" fill="#22302d">Locked coarse native contact target</text>
  <line x1="34" y1="34" x2="34" y2="386" stroke="#9aa69f"/>
  <line x1="34" y1="386" x2="386" y2="386" stroke="#9aa69f"/>
  <line x1="34" y1="34" x2="386" y2="386" stroke="#cfd8d2" stroke-dasharray="4 4"/>
  <circle cx="51.31" cy="149.41" r="2.2" fill="#294f9b"/><circle cx="149.41" cy="51.31" r="2.2" fill="#294f9b" opacity="0.58"/><circle cx="57.08" cy="143.64" r="2.2" fill="#294f9b"/><circle cx="143.64" cy="57.08" r="2.2" fill="#294f9b" opacity="0.58"/><circle cx="57.08" cy="207.11" r="2.2" fill="#294f9b"/><circle cx="207.11" cy="57.08" r="2.2" fill="#294f9b" opacity="0.58"/><circle cx="62.85" cy="137.87" r="2.2" fill="#294f9b"/><circle cx="137.87" cy="62.85" r="2.2" fill="#294f9b" opacity="0.58"/><circle cx="68.62" cy="132.10" r="2.2" fill="#294f9b"/><circle cx="132.10" cy="68.62" r="2.2" fill="#294f9b" opacity="0.58"/><circle cx="74.39" cy="126.33" r="2.2" fill="#294f9b"/><circle cx="126.33" cy="74.39" r="2.2" fill="#294f9b" opacity="0.58"/><circle cx="80.16" cy="120.56" r="2.2" fill="#294f9b"/><circle cx="120.56" cy="80.16" r="2.2" fill="#294f9b" opacity="0.58"/><circle cx="120.56" cy="224.43" r="2.2" fill="#294f9b"/><circle cx="224.43" cy="120.56" r="2.2" fill="#294f9b" opacity="0.58"/><circle cx="126.33" cy="218.66" r="2.2" fill="#294f9b"/><circle cx="218.66" cy="126.33" r="2.2" fill="#294f9b" opacity="0.58"/><circle cx="132.10" cy="212.89" r="2.2" fill="#294f9b"/><circle cx="212.89" cy="132.10" r="2.2" fill="#294f9b" opacity="0.58"/><circle cx="137.87" cy="207.11" r="2.2" fill="#294f9b"/><circle cx="207.11" cy="137.87" r="2.2" fill="#294f9b" opacity="0.58"/><circle cx="143.64" cy="201.34" r="2.2" fill="#294f9b"/><circle cx="201.34" cy="143.64" r="2.2" fill="#294f9b" opacity="0.58"/><circle cx="143.64" cy="293.67" r="2.2" fill="#294f9b"/><circle cx="293.67" cy="143.64" r="2.2" fill="#294f9b" opacity="0.58"/><circle cx="149.41" cy="195.57" r="2.2" fill="#294f9b"/><circle cx="195.57" cy="149.41" r="2.2" fill="#294f9b" opacity="0.58"/><circle cx="195.57" cy="299.44" r="2.2" fill="#294f9b"/><circle cx="299.44" cy="195.57" r="2.2" fill="#294f9b" opacity="0.58"/><circle cx="201.34" cy="293.67" r="2.2" fill="#294f9b"/><circle cx="293.67" cy="201.34" r="2.2" fill="#294f9b" opacity="0.58"/><circle cx="207.11" cy="287.90" r="2.2" fill="#294f9b"/><circle cx="287.90" cy="207.11" r="2.2" fill="#294f9b" opacity="0.58"/><circle cx="212.89" cy="282.13" r="2.2" fill="#294f9b"/><circle cx="282.13" cy="212.89" r="2.2" fill="#294f9b" opacity="0.58"/><circle cx="218.66" cy="276.36" r="2.2" fill="#294f9b"/><circle cx="276.36" cy="218.66" r="2.2" fill="#294f9b" opacity="0.58"/><circle cx="224.43" cy="270.59" r="2.2" fill="#294f9b"/><circle cx="270.59" cy="224.43" r="2.2" fill="#294f9b" opacity="0.58"/><circle cx="270.59" cy="374.46" r="2.2" fill="#294f9b"/><circle cx="374.46" cy="270.59" r="2.2" fill="#294f9b" opacity="0.58"/><circle cx="276.36" cy="368.69" r="2.2" fill="#294f9b"/><circle cx="368.69" cy="276.36" r="2.2" fill="#294f9b" opacity="0.58"/><circle cx="282.13" cy="362.92" r="2.2" fill="#294f9b"/><circle cx="362.92" cy="282.13" r="2.2" fill="#294f9b" opacity="0.58"/><circle cx="287.90" cy="357.15" r="2.2" fill="#294f9b"/><circle cx="357.15" cy="287.90" r="2.2" fill="#294f9b" opacity="0.58"/><circle cx="293.67" cy="351.38" r="2.2" fill="#294f9b"/><circle cx="351.38" cy="293.67" r="2.2" fill="#294f9b" opacity="0.58"/><circle cx="299.44" cy="345.61" r="2.2" fill="#294f9b"/><circle cx="345.61" cy="299.44" r="2.2" fill="#294f9b" opacity="0.58"/>
  <text x="34" y="412" font-family="Arial, sans-serif" font-size="11" fill="#58635e">row: visual_005_beta_sh3 | contacts: 26</text>
</svg>
