<svg xmlns="http://www.w3.org/2000/svg" width="760" height="260" viewBox="0 0 760 260" role="img" aria-label="Repaired coarse-grain final collapse">
  <rect width="760" height="260" fill="#f8faf7"/>
  <text x="34" y="24" font-family="Arial, sans-serif" font-size="15" fill="#22302d">Repaired coarse-grain final collapse</text>
<line x1="66.82" y1="124.54" x2="116.12" y2="131.98" stroke="#25636a" stroke-opacity="0.22" stroke-width="1.2"/><line x1="120.75" y1="130.81" x2="148.16" y2="135.36" stroke="#25636a" stroke-opacity="0.22" stroke-width="1.2"/><line x1="116.12" y1="131.98" x2="150.00" y2="136.79" stroke="#25636a" stroke-opacity="0.22" stroke-width="1.2"/><line x1="146.32" y1="132.51" x2="178.92" y2="136.42" stroke="#25636a" stroke-opacity="0.22" stroke-width="1.2"/><line x1="183.94" y1="131.95" x2="446.08" y2="111.64" stroke="#25636a" stroke-opacity="0.22" stroke-width="1.2"/><line x1="183.94" y1="131.95" x2="560.11" y2="114.02" stroke="#25636a" stroke-opacity="0.22" stroke-width="1.2"/><line x1="178.92" y1="136.42" x2="216.50" y2="137.86" stroke="#25636a" stroke-opacity="0.22" stroke-width="1.2"/><line x1="279.87" y1="129.97" x2="446.08" y2="111.64" stroke="#25636a" stroke-opacity="0.22" stroke-width="1.2"/><line x1="279.87" y1="129.97" x2="498.19" y2="108.48" stroke="#25636a" stroke-opacity="0.22" stroke-width="1.2"/><line x1="279.87" y1="129.97" x2="550.14" y2="107.62" stroke="#25636a" stroke-opacity="0.22" stroke-width="1.2"/><line x1="279.87" y1="129.97" x2="574.48" y2="107.43" stroke="#25636a" stroke-opacity="0.22" stroke-width="1.2"/><line x1="279.87" y1="129.97" x2="560.11" y2="114.02" stroke="#25636a" stroke-opacity="0.22" stroke-width="1.2"/><line x1="289.66" y1="130.30" x2="446.08" y2="111.64" stroke="#25636a" stroke-opacity="0.22" stroke-width="1.2"/><line x1="289.66" y1="130.30" x2="498.19" y2="108.48" stroke="#25636a" stroke-opacity="0.22" stroke-width="1.2"/><line x1="289.66" y1="130.30" x2="550.14" y2="107.62" stroke="#25636a" stroke-opacity="0.22" stroke-width="1.2"/><line x1="289.66" y1="130.30" x2="574.48" y2="107.43" stroke="#25636a" stroke-opacity="0.22" stroke-width="1.2"/><line x1="289.66" y1="130.30" x2="560.11" y2="114.02" stroke="#25636a" stroke-opacity="0.22" stroke-width="1.2"/><line x1="226.83" y1="138.07" x2="258.47" y2="136.08" stroke="#25636a" stroke-opacity="0.22" stroke-width="1.2"/><line x1="235.69" y1="137.75" x2="274.88" y2="136.42" stroke="#25636a" stroke-opacity="0.22" stroke-width="1.2"/><line x1="258.47" y1="136.08" x2="305.15" y2="132.73" stroke="#25636a" stroke-opacity="0.22" stroke-width="1.2"/><line x1="274.88" y1="136.42" x2="303.26" y2="131.04" stroke="#25636a" stroke-opacity="0.22" stroke-width="1.2"/><line x1="312.23" y1="132.60" x2="446.08" y2="111.64" stroke="#25636a" stroke-opacity="0.22" stroke-width="1.2"/><line x1="312.23" y1="132.60" x2="560.11" y2="114.02" stroke="#25636a" stroke-opacity="0.22" stroke-width="1.2"/><line x1="332.79" y1="128.47" x2="357.00" y2="121.65" stroke="#25636a" stroke-opacity="0.22" stroke-width="1.2"/><line x1="392.22" y1="121.28" x2="550.14" y2="107.62" stroke="#25636a" stroke-opacity="0.22" stroke-width="1.2"/><line x1="465.77" y1="105.77" x2="508.71" y2="103.38" stroke="#25636a" stroke-opacity="0.22" stroke-width="1.2"/><line x1="446.08" y1="111.64" x2="560.11" y2="114.02" stroke="#25636a" stroke-opacity="0.22" stroke-width="1.2"/><line x1="498.19" y1="108.48" x2="636.88" y2="111.52" stroke="#25636a" stroke-opacity="0.22" stroke-width="1.2"/><line x1="524.56" y1="102.46" x2="571.27" y2="100.52" stroke="#25636a" stroke-opacity="0.22" stroke-width="1.2"/><line x1="636.87" y1="106.88" x2="671.03" y2="112.85" stroke="#25636a" stroke-opacity="0.22" stroke-width="1.2"/><line x1="646.76" y1="108.41" x2="679.84" y2="114.97" stroke="#25636a" stroke-opacity="0.22" stroke-width="1.2"/><line x1="392.22" y1="121.28" x2="521.01" y2="103.93" stroke="#25636a" stroke-opacity="0.22" stroke-width="1.2"/><line x1="392.22" y1="121.28" x2="636.88" y2="111.52" stroke="#25636a" stroke-opacity="0.22" stroke-width="1.2"/><line x1="504.40" y1="104.42" x2="636.88" y2="111.52" stroke="#25636a" stroke-opacity="0.22" stroke-width="1.2"/><line x1="383.87" y1="119.19" x2="504.40" y2="104.42" stroke="#25636a" stroke-opacity="0.22" stroke-width="1.2"/><line x1="148.16" y1="135.36" x2="289.66" y2="130.30" stroke="#25636a" stroke-opacity="0.22" stroke-width="1.2"/>
  <polyline points="42.00,120.00 53.08,122.06 66.82,124.54 86.56,126.77 112.94,128.19 120.75,130.81 116.12,131.98 146.32,132.51 183.94,131.95 148.16,135.36 150.00,136.79 178.92,136.42 279.87,129.97 186.07,139.47 289.66,130.30 216.50,137.86 226.83,138.07 235.69,137.75 242.05,137.64 269.30,134.73 258.47,136.08 274.88,136.42 312.23,132.60 310.13,132.07 305.15,132.73 303.26,131.04 332.79,128.47 341.21,127.06 358.63,124.25 392.22,121.28 357.00,121.65 383.87,119.19 392.92,117.28 399.27,115.91 429.47,114.12 396.91,113.96 440.95,109.27 452.03,107.59 465.77,105.77 474.20,104.64 446.08,111.64 498.19,108.48 508.71,103.38 504.40,104.42 524.56,102.46 521.01,103.93 545.66,101.89 562.85,100.17 571.27,100.52 585.02,101.11 596.10,101.89 550.14,107.62 574.48,107.43 629.34,105.32 636.87,106.88 646.76,108.41 560.11,114.02 636.88,111.52 671.03,112.85 679.84,114.97 673.76,117.31 703.97,119.26" fill="none" stroke="#7d8f86" stroke-width="3"/>
  <circle cx="42.00" cy="120.00" r="3.2" fill="#22302d"/><circle cx="53.08" cy="122.06" r="3.2" fill="#22302d"/><circle cx="66.82" cy="124.54" r="3.2" fill="#22302d"/><circle cx="86.56" cy="126.77" r="3.2" fill="#22302d"/><circle cx="112.94" cy="128.19" r="3.2" fill="#22302d"/><circle cx="120.75" cy="130.81" r="3.2" fill="#22302d"/><circle cx="116.12" cy="131.98" r="3.2" fill="#22302d"/><circle cx="146.32" cy="132.51" r="3.2" fill="#22302d"/><circle cx="183.94" cy="131.95" r="3.2" fill="#22302d"/><circle cx="148.16" cy="135.36" r="3.2" fill="#22302d"/><circle cx="150.00" cy="136.79" r="3.2" fill="#22302d"/><circle cx="178.92" cy="136.42" r="3.2" fill="#22302d"/><circle cx="279.87" cy="129.97" r="3.2" fill="#22302d"/><circle cx="186.07" cy="139.47" r="3.2" fill="#22302d"/><circle cx="289.66" cy="130.30" r="3.2" fill="#22302d"/><circle cx="216.50" cy="137.86" r="3.2" fill="#22302d"/><circle cx="226.83" cy="138.07" r="3.2" fill="#22302d"/><circle cx="235.69" cy="137.75" r="3.2" fill="#22302d"/><circle cx="242.05" cy="137.64" r="3.2" fill="#22302d"/><circle cx="269.30" cy="134.73" r="3.2" fill="#22302d"/><circle cx="258.47" cy="136.08" r="3.2" fill="#22302d"/><circle cx="274.88" cy="136.42" r="3.2" fill="#22302d"/><circle cx="312.23" cy="132.60" r="3.2" fill="#22302d"/><circle cx="310.13" cy="132.07" r="3.2" fill="#22302d"/><circle cx="305.15" cy="132.73" r="3.2" fill="#22302d"/><circle cx="303.26" cy="131.04" r="3.2" fill="#22302d"/><circle cx="332.79" cy="128.47" r="3.2" fill="#22302d"/><circle cx="341.21" cy="127.06" r="3.2" fill="#22302d"/><circle cx="358.63" cy="124.25" r="3.2" fill="#22302d"/><circle cx="392.22" cy="121.28" r="3.2" fill="#22302d"/><circle cx="357.00" cy="121.65" r="3.2" fill="#22302d"/><circle cx="383.87" cy="119.19" r="3.2" fill="#22302d"/><circle cx="392.92" cy="117.28" r="3.2" fill="#22302d"/><circle cx="399.27" cy="115.91" r="3.2" fill="#22302d"/><circle cx="429.47" cy="114.12" r="3.2" fill="#22302d"/><circle cx="396.91" cy="113.96" r="3.2" fill="#22302d"/><circle cx="440.95" cy="109.27" r="3.2" fill="#22302d"/><circle cx="452.03" cy="107.59" r="3.2" fill="#22302d"/><circle cx="465.77" cy="105.77" r="3.2" fill="#22302d"/><circle cx="474.20" cy="104.64" r="3.2" fill="#22302d"/><circle cx="446.08" cy="111.64" r="3.2" fill="#22302d"/><circle cx="498.19" cy="108.48" r="3.2" fill="#22302d"/><circle cx="508.71" cy="103.38" r="3.2" fill="#22302d"/><circle cx="504.40" cy="104.42" r="3.2" fill="#22302d"/><circle cx="524.56" cy="102.46" r="3.2" fill="#22302d"/><circle cx="521.01" cy="103.93" r="3.2" fill="#22302d"/><circle cx="545.66" cy="101.89" r="3.2" fill="#22302d"/><circle cx="562.85" cy="100.17" r="3.2" fill="#22302d"/><circle cx="571.27" cy="100.52" r="3.2" fill="#22302d"/><circle cx="585.02" cy="101.11" r="3.2" fill="#22302d"/><circle cx="596.10" cy="101.89" r="3.2" fill="#22302d"/><circle cx="550.14" cy="107.62" r="3.2" fill="#22302d"/><circle cx="574.48" cy="107.43" r="3.2" fill="#22302d"/><circle cx="629.34" cy="105.32" r="3.2" fill="#22302d"/><circle cx="636.87" cy="106.88" r="3.2" fill="#22302d"/><circle cx="646.76" cy="108.41" r="3.2" fill="#22302d"/><circle cx="560.11" cy="114.02" r="3.2" fill="#22302d"/><circle cx="636.88" cy="111.52" r="3.2" fill="#22302d"/><circle cx="671.03" cy="112.85" r="3.2" fill="#22302d"/><circle cx="679.84" cy="114.97" r="3.2" fill="#22302d"/><circle cx="673.76" cy="117.31" r="3.2" fill="#22302d"/><circle cx="703.97" cy="119.26" r="3.2" fill="#22302d"/>
  <text x="34" y="248" font-family="Arial, sans-serif" font-size="11" fill="#58635e">row: visual_005_beta_sh3 | coarse beads, not atomic structure</text>
</svg>
