<svg xmlns="http://www.w3.org/2000/svg" width="760" height="260" viewBox="0 0 760 260" role="img" aria-label="Coarse-grain final collapse">
  <rect width="760" height="260" fill="#f8faf7"/>
  <text x="34" y="24" font-family="Arial, sans-serif" font-size="15" fill="#22302d">Coarse-grain final collapse</text>
<line x1="89.40" y1="128.51" x2="116.13" y2="132.69" stroke="#25636a" stroke-opacity="0.22" stroke-width="1.2"/><line x1="168.61" y1="127.24" x2="325.28" y2="128.15" stroke="#25636a" stroke-opacity="0.22" stroke-width="1.2"/><line x1="168.61" y1="127.24" x2="429.45" y2="113.98" stroke="#25636a" stroke-opacity="0.22" stroke-width="1.2"/><line x1="168.61" y1="127.24" x2="508.82" y2="120.37" stroke="#25636a" stroke-opacity="0.22" stroke-width="1.2"/><line x1="177.00" y1="129.35" x2="325.28" y2="128.15" stroke="#25636a" stroke-opacity="0.22" stroke-width="1.2"/><line x1="177.00" y1="129.35" x2="429.45" y2="113.98" stroke="#25636a" stroke-opacity="0.22" stroke-width="1.2"/><line x1="177.00" y1="129.35" x2="508.82" y2="120.37" stroke="#25636a" stroke-opacity="0.22" stroke-width="1.2"/><line x1="153.20" y1="133.22" x2="415.69" y2="114.40" stroke="#25636a" stroke-opacity="0.22" stroke-width="1.2"/><line x1="236.25" y1="135.81" x2="325.28" y2="128.15" stroke="#25636a" stroke-opacity="0.22" stroke-width="1.2"/><line x1="236.25" y1="135.81" x2="429.45" y2="113.98" stroke="#25636a" stroke-opacity="0.22" stroke-width="1.2"/><line x1="236.25" y1="135.81" x2="508.82" y2="120.37" stroke="#25636a" stroke-opacity="0.22" stroke-width="1.2"/><line x1="288.39" y1="131.50" x2="335.88" y2="129.14" stroke="#25636a" stroke-opacity="0.22" stroke-width="1.2"/><line x1="288.39" y1="131.50" x2="398.17" y2="117.89" stroke="#25636a" stroke-opacity="0.22" stroke-width="1.2"/><line x1="288.39" y1="131.50" x2="415.69" y2="114.40" stroke="#25636a" stroke-opacity="0.22" stroke-width="1.2"/><line x1="288.39" y1="131.50" x2="429.45" y2="113.98" stroke="#25636a" stroke-opacity="0.22" stroke-width="1.2"/><line x1="288.39" y1="131.50" x2="530.48" y2="105.02" stroke="#25636a" stroke-opacity="0.22" stroke-width="1.2"/><line x1="288.39" y1="131.50" x2="508.82" y2="120.37" stroke="#25636a" stroke-opacity="0.22" stroke-width="1.2"/><line x1="297.27" y1="131.06" x2="341.53" y2="126.27" stroke="#25636a" stroke-opacity="0.22" stroke-width="1.2"/><line x1="297.27" y1="131.06" x2="415.69" y2="114.40" stroke="#25636a" stroke-opacity="0.22" stroke-width="1.2"/><line x1="297.27" y1="131.06" x2="467.40" y2="105.72" stroke="#25636a" stroke-opacity="0.22" stroke-width="1.2"/><line x1="297.27" y1="131.06" x2="429.45" y2="113.98" stroke="#25636a" stroke-opacity="0.22" stroke-width="1.2"/><line x1="297.27" y1="131.06" x2="558.85" y2="103.97" stroke="#25636a" stroke-opacity="0.22" stroke-width="1.2"/><line x1="297.27" y1="131.06" x2="508.82" y2="120.37" stroke="#25636a" stroke-opacity="0.22" stroke-width="1.2"/><line x1="218.52" y1="139.91" x2="245.26" y2="138.95" stroke="#25636a" stroke-opacity="0.22" stroke-width="1.2"/><line x1="264.64" y1="136.73" x2="415.69" y2="114.40" stroke="#25636a" stroke-opacity="0.22" stroke-width="1.2"/><line x1="305.08" y1="133.86" x2="429.45" y2="113.98" stroke="#25636a" stroke-opacity="0.22" stroke-width="1.2"/><line x1="305.08" y1="133.86" x2="508.82" y2="120.37" stroke="#25636a" stroke-opacity="0.22" stroke-width="1.2"/><line x1="325.28" y1="128.15" x2="415.69" y2="114.40" stroke="#25636a" stroke-opacity="0.22" stroke-width="1.2"/><line x1="325.28" y1="128.15" x2="429.45" y2="113.98" stroke="#25636a" stroke-opacity="0.22" stroke-width="1.2"/><line x1="325.28" y1="128.15" x2="530.48" y2="105.02" stroke="#25636a" stroke-opacity="0.22" stroke-width="1.2"/><line x1="325.28" y1="128.15" x2="508.82" y2="120.37" stroke="#25636a" stroke-opacity="0.22" stroke-width="1.2"/><line x1="335.88" y1="129.14" x2="429.45" y2="113.98" stroke="#25636a" stroke-opacity="0.22" stroke-width="1.2"/><line x1="335.88" y1="129.14" x2="508.82" y2="120.37" stroke="#25636a" stroke-opacity="0.22" stroke-width="1.2"/><line x1="341.53" y1="126.27" x2="415.69" y2="114.40" stroke="#25636a" stroke-opacity="0.22" stroke-width="1.2"/><line x1="398.17" y1="117.89" x2="429.45" y2="113.98" stroke="#25636a" stroke-opacity="0.22" stroke-width="1.2"/><line x1="398.17" y1="117.89" x2="508.82" y2="120.37" stroke="#25636a" stroke-opacity="0.22" stroke-width="1.2"/>
  <polyline points="42.00,120.00 49.60,121.41 57.19,122.81 64.79,124.20 72.38,125.57 79.98,126.91 89.40,128.51 168.61,127.24 102.76,130.70 177.00,129.35 116.13,132.69 125.55,134.02 153.20,133.22 140.74,135.88 148.34,136.70 155.93,137.44 163.53,138.08 171.12,138.64 178.72,139.11 236.25,135.81 193.91,139.75 288.39,131.50 297.27,131.06 218.52,139.91 224.29,139.85 231.89,139.62 239.48,139.30 245.26,138.95 264.64,136.73 262.27,137.77 269.87,137.08 305.08,133.86 285.06,135.45 292.65,134.51 300.25,133.50 325.28,128.15 315.44,131.29 335.88,129.14 330.63,128.86 338.22,127.57 341.53,126.27 353.42,124.89 361.01,123.51 368.61,122.11 376.20,120.71 383.80,119.29 391.39,117.89 398.17,117.89 406.58,115.11 416.00,113.45 421.78,112.43 431.19,110.86 436.97,109.90 442.74,109.01 452.16,107.57 457.93,106.77 415.69,114.40 474.94,104.55 467.40,105.72 490.13,102.92 497.73,102.23 505.33,101.63 514.74,101.05 520.52,100.70 528.11,100.38 535.71,100.15 541.48,100.09 429.45,113.98 558.49,100.08 530.48,105.02 573.69,100.52 583.10,101.04 558.85,103.97 596.47,101.92 605.89,102.77 609.84,103.15 619.26,104.12 626.85,105.01 632.63,105.78 642.04,107.02 649.64,108.13 657.24,109.30 664.83,110.51 672.43,111.78 680.02,113.09 687.62,114.43 695.21,115.80 508.82,120.37 710.40,118.59 718.00,120.00" fill="none" stroke="#7d8f86" stroke-width="3"/>
  <circle cx="42.00" cy="120.00" r="3.2" fill="#22302d"/><circle cx="57.19" cy="122.81" r="3.2" fill="#22302d"/><circle cx="72.38" cy="125.57" r="3.2" fill="#22302d"/><circle cx="89.40" cy="128.51" r="3.2" fill="#22302d"/><circle cx="102.76" cy="130.70" r="3.2" fill="#22302d"/><circle cx="116.13" cy="132.69" r="3.2" fill="#22302d"/><circle cx="153.20" cy="133.22" r="3.2" fill="#22302d"/><circle cx="148.34" cy="136.70" r="3.2" fill="#22302d"/><circle cx="163.53" cy="138.08" r="3.2" fill="#22302d"/><circle cx="178.72" cy="139.11" r="3.2" fill="#22302d"/><circle cx="193.91" cy="139.75" r="3.2" fill="#22302d"/><circle cx="297.27" cy="131.06" r="3.2" fill="#22302d"/><circle cx="224.29" cy="139.85" r="3.2" fill="#22302d"/><circle cx="239.48" cy="139.30" r="3.2" fill="#22302d"/><circle cx="264.64" cy="136.73" r="3.2" fill="#22302d"/><circle cx="269.87" cy="137.08" r="3.2" fill="#22302d"/><circle cx="285.06" cy="135.45" r="3.2" fill="#22302d"/><circle cx="300.25" cy="133.50" r="3.2" fill="#22302d"/><circle cx="315.44" cy="131.29" r="3.2" fill="#22302d"/><circle cx="330.63" cy="128.86" r="3.2" fill="#22302d"/><circle cx="341.53" cy="126.27" r="3.2" fill="#22302d"/><circle cx="361.01" cy="123.51" r="3.2" fill="#22302d"/><circle cx="376.20" cy="120.71" r="3.2" fill="#22302d"/><circle cx="391.39" cy="117.89" r="3.2" fill="#22302d"/><circle cx="406.58" cy="115.11" r="3.2" fill="#22302d"/><circle cx="421.78" cy="112.43" r="3.2" fill="#22302d"/><circle cx="436.97" cy="109.90" r="3.2" fill="#22302d"/><circle cx="452.16" cy="107.57" r="3.2" fill="#22302d"/><circle cx="415.69" cy="114.40" r="3.2" fill="#22302d"/><circle cx="467.40" cy="105.72" r="3.2" fill="#22302d"/><circle cx="497.73" cy="102.23" r="3.2" fill="#22302d"/><circle cx="514.74" cy="101.05" r="3.2" fill="#22302d"/><circle cx="528.11" cy="100.38" r="3.2" fill="#22302d"/><circle cx="541.48" cy="100.09" r="3.2" fill="#22302d"/><circle cx="558.49" cy="100.08" r="3.2" fill="#22302d"/><circle cx="573.69" cy="100.52" r="3.2" fill="#22302d"/><circle cx="558.85" cy="103.97" r="3.2" fill="#22302d"/><circle cx="605.89" cy="102.77" r="3.2" fill="#22302d"/><circle cx="619.26" cy="104.12" r="3.2" fill="#22302d"/><circle cx="632.63" cy="105.78" r="3.2" fill="#22302d"/><circle cx="649.64" cy="108.13" r="3.2" fill="#22302d"/><circle cx="664.83" cy="110.51" r="3.2" fill="#22302d"/><circle cx="680.02" cy="113.09" r="3.2" fill="#22302d"/><circle cx="695.21" cy="115.80" r="3.2" fill="#22302d"/><circle cx="710.40" cy="118.59" r="3.2" fill="#22302d"/>
  <text x="34" y="248" font-family="Arial, sans-serif" font-size="11" fill="#58635e">row: coord_003_pdb_1TEN_A_tenascin_fn3 | coarse beads, not atomic structure</text>
</svg>
