<svg xmlns="http://www.w3.org/2000/svg" width="420" height="420" viewBox="0 0 420 420" role="img" aria-label="contact map overlay">
  <rect width="420" height="420" fill="#f8faf7"/>
  <text x="34" y="22" font-family="Arial, sans-serif" font-size="14" fill="#22302d">Contact map overlay</text>
  <line x1="34" y1="34" x2="34" y2="386" stroke="#9aa69f"/>
  <line x1="34" y1="386" x2="386" y2="386" stroke="#9aa69f"/>
  <line x1="34" y1="34" x2="386" y2="386" stroke="#cfd8d2" stroke-dasharray="4 4"/>
  <circle cx="34.00" cy="124.97" r="2.4" fill="#294f9b" opacity="0.88"/><circle cx="124.97" cy="34.00" r="2.4" fill="#294f9b" opacity="0.46"/><circle cx="34.00" cy="132.88" r="2.4" fill="#294f9b" opacity="0.88"/><circle cx="132.88" cy="34.00" r="2.4" fill="#294f9b" opacity="0.46"/><circle cx="34.00" cy="318.76" r="2.4" fill="#294f9b" opacity="0.88"/><circle cx="318.76" cy="34.00" r="2.4" fill="#294f9b" opacity="0.46"/><circle cx="34.00" cy="322.72" r="2.4" fill="#294f9b" opacity="0.88"/><circle cx="322.72" cy="34.00" r="2.4" fill="#294f9b" opacity="0.46"/><circle cx="34.00" cy="326.67" r="2.4" fill="#294f9b" opacity="0.88"/><circle cx="326.67" cy="34.00" r="2.4" fill="#294f9b" opacity="0.46"/><circle cx="34.00" cy="338.54" r="2.4" fill="#294f9b" opacity="0.88"/><circle cx="338.54" cy="34.00" r="2.4" fill="#294f9b" opacity="0.46"/><circle cx="34.00" cy="342.49" r="2.4" fill="#294f9b" opacity="0.88"/><circle cx="342.49" cy="34.00" r="2.4" fill="#294f9b" opacity="0.46"/><circle cx="34.00" cy="346.45" r="2.4" fill="#294f9b" opacity="0.88"/><circle cx="346.45" cy="34.00" r="2.4" fill="#294f9b" opacity="0.46"/><circle cx="34.00" cy="350.40" r="2.4" fill="#294f9b" opacity="0.88"/><circle cx="350.40" cy="34.00" r="2.4" fill="#294f9b" opacity="0.46"/><circle cx="37.96" cy="124.97" r="2.4" fill="#294f9b" opacity="0.88"/><circle cx="124.97" cy="37.96" r="2.4" fill="#294f9b" opacity="0.46"/><circle cx="37.96" cy="128.92" r="2.4" fill="#294f9b" opacity="0.88"/><circle cx="128.92" cy="37.96" r="2.4" fill="#294f9b" opacity="0.46"/><circle cx="37.96" cy="132.88" r="2.4" fill="#294f9b" opacity="0.88"/><circle cx="132.88" cy="37.96" r="2.4" fill="#294f9b" opacity="0.46"/><circle cx="37.96" cy="318.76" r="2.4" fill="#294f9b" opacity="0.88"/><circle cx="318.76" cy="37.96" r="2.4" fill="#294f9b" opacity="0.46"/><circle cx="37.96" cy="346.45" r="2.4" fill="#294f9b" opacity="0.88"/><circle cx="346.45" cy="37.96" r="2.4" fill="#294f9b" opacity="0.46"/><circle cx="37.96" cy="350.40" r="2.4" fill="#294f9b" opacity="0.88"/><circle cx="350.40" cy="37.96" r="2.4" fill="#294f9b" opacity="0.46"/><circle cx="41.91" cy="124.97" r="2.4" fill="#294f9b" opacity="0.88"/><circle cx="124.97" cy="41.91" r="2.4" fill="#294f9b" opacity="0.46"/><circle cx="41.91" cy="310.85" r="2.4" fill="#294f9b" opacity="0.88"/><circle cx="310.85" cy="41.91" r="2.4" fill="#294f9b" opacity="0.46"/><circle cx="41.91" cy="314.81" r="2.4" fill="#294f9b" opacity="0.88"/><circle cx="314.81" cy="41.91" r="2.4" fill="#294f9b" opacity="0.46"/><circle cx="41.91" cy="318.76" r="2.4" fill="#294f9b" opacity="0.88"/><circle cx="318.76" cy="41.91" r="2.4" fill="#294f9b" opacity="0.46"/><circle cx="41.91" cy="346.45" r="2.4" fill="#294f9b" opacity="0.88"/><circle cx="346.45" cy="41.91" r="2.4" fill="#294f9b" opacity="0.46"/><circle cx="41.91" cy="350.40" r="2.4" fill="#294f9b" opacity="0.88"/><circle cx="350.40" cy="41.91" r="2.4" fill="#294f9b" opacity="0.46"/><circle cx="41.91" cy="354.36" r="2.4" fill="#294f9b" opacity="0.88"/><circle cx="354.36" cy="41.91" r="2.4" fill="#294f9b" opacity="0.46"/><circle cx="41.91" cy="358.31" r="2.4" fill="#294f9b" opacity="0.88"/><circle cx="358.31" cy="41.91" r="2.4" fill="#294f9b" opacity="0.46"/><circle cx="45.87" cy="57.73" r="2.4" fill="#294f9b" opacity="0.88"/><circle cx="57.73" cy="45.87" r="2.4" fill="#294f9b" opacity="0.46"/><circle cx="45.87" cy="113.10" r="2.4" fill="#294f9b" opacity="0.88"/><circle cx="113.10" cy="45.87" r="2.4" fill="#294f9b" opacity="0.46"/><circle cx="45.87" cy="117.06" r="2.4" fill="#294f9b" opacity="0.88"/><circle cx="117.06" cy="45.87" r="2.4" fill="#294f9b" opacity="0.46"/><circle cx="45.87" cy="121.01" r="2.4" fill="#294f9b" opacity="0.88"/><circle cx="121.01" cy="45.87" r="2.4" fill="#294f9b" opacity="0.46"/><circle cx="45.87" cy="124.97" r="2.4" fill="#294f9b" opacity="0.88"/><circle cx="124.97" cy="45.87" r="2.4" fill="#294f9b" opacity="0.46"/><circle cx="45.87" cy="310.85" r="2.4" fill="#294f9b" opacity="0.88"/><circle cx="310.85" cy="45.87" r="2.4" fill="#294f9b" opacity="0.46"/><circle cx="45.87" cy="314.81" r="2.4" fill="#294f9b" opacity="0.88"/><circle cx="314.81" cy="45.87" r="2.4" fill="#294f9b" opacity="0.46"/><circle cx="45.87" cy="318.76" r="2.4" fill="#294f9b" opacity="0.88"/><circle cx="318.76" cy="45.87" r="2.4" fill="#294f9b" opacity="0.46"/><circle cx="45.87" cy="358.31" r="2.4" fill="#294f9b" opacity="0.88"/><circle cx="358.31" cy="45.87" r="2.4" fill="#294f9b" opacity="0.46"/><circle cx="49.82" cy="113.10" r="2.4" fill="#294f9b" opacity="0.88"/><circle cx="113.10" cy="49.82" r="2.4" fill="#294f9b" opacity="0.46"/><circle cx="49.82" cy="117.06" r="2.4" fill="#294f9b" opacity="0.88"/><circle cx="117.06" cy="49.82" r="2.4" fill="#294f9b" opacity="0.46"/><circle cx="49.82" cy="121.01" r="2.4" fill="#294f9b" opacity="0.88"/><circle cx="121.01" cy="49.82" r="2.4" fill="#294f9b" opacity="0.46"/><circle cx="49.82" cy="124.97" r="2.4" fill="#294f9b" opacity="0.88"/><circle cx="124.97" cy="49.82" r="2.4" fill="#294f9b" opacity="0.46"/><circle cx="53.78" cy="109.15" r="2.4" fill="#294f9b" opacity="0.88"/><circle cx="109.15" cy="53.78" r="2.4" fill="#294f9b" opacity="0.46"/><circle cx="53.78" cy="113.10" r="2.4" fill="#294f9b" opacity="0.88"/><circle cx="113.10" cy="53.78" r="2.4" fill="#294f9b" opacity="0.46"/><circle cx="53.78" cy="117.06" r="2.4" fill="#294f9b" opacity="0.88"/><circle cx="117.06" cy="53.78" r="2.4" fill="#294f9b" opacity="0.46"/><circle cx="57.73" cy="73.55" r="2.0" fill="#c44b3a" opacity="0.88"/><circle cx="73.55" cy="57.73" r="2.0" fill="#c44b3a" opacity="0.46"/><circle cx="57.73" cy="105.19" r="2.4" fill="#294f9b" opacity="0.88"/><circle cx="105.19" cy="57.73" r="2.4" fill="#294f9b" opacity="0.46"/><circle cx="57.73" cy="109.15" r="2.4" fill="#294f9b" opacity="0.88"/><circle cx="109.15" cy="57.73" r="2.4" fill="#294f9b" opacity="0.46"/><circle cx="57.73" cy="113.10" r="2.4" fill="#294f9b" opacity="0.88"/><circle cx="113.10" cy="57.73" r="2.4" fill="#294f9b" opacity="0.46"/><circle cx="57.73" cy="117.06" r="2.4" fill="#294f9b" opacity="0.88"/><circle cx="117.06" cy="57.73" r="2.4" fill="#294f9b" opacity="0.46"/><circle cx="57.73" cy="366.22" r="2.4" fill="#294f9b" opacity="0.88"/><circle cx="366.22" cy="57.73" r="2.4" fill="#294f9b" opacity="0.46"/><circle cx="61.69" cy="105.19" r="2.4" fill="#294f9b" opacity="0.88"/><circle cx="105.19" cy="61.69" r="2.4" fill="#294f9b" opacity="0.46"/><circle cx="61.69" cy="109.15" r="2.4" fill="#294f9b" opacity="0.88"/><circle cx="109.15" cy="61.69" r="2.4" fill="#294f9b" opacity="0.46"/><circle cx="61.69" cy="113.10" r="2.4" fill="#294f9b" opacity="0.88"/><circle cx="113.10" cy="61.69" r="2.4" fill="#294f9b" opacity="0.46"/><circle cx="61.69" cy="172.43" r="2.0" fill="#c44b3a" opacity="0.88"/><circle cx="172.43" cy="61.69" r="2.0" fill="#c44b3a" opacity="0.46"/><circle cx="61.69" cy="298.99" r="2.0" fill="#c44b3a" opacity="0.88"/><circle cx="298.99" cy="61.69" r="2.0" fill="#c44b3a" opacity="0.46"/><circle cx="61.69" cy="378.09" r="2.0" fill="#c44b3a" opacity="0.88"/><circle cx="378.09" cy="61.69" r="2.0" fill="#c44b3a" opacity="0.46"/><circle cx="65.64" cy="77.51" r="2.4" fill="#294f9b" opacity="0.88"/><circle cx="77.51" cy="65.64" r="2.4" fill="#294f9b" opacity="0.46"/><circle cx="65.64" cy="97.28" r="2.4" fill="#294f9b" opacity="0.88"/><circle cx="97.28" cy="65.64" r="2.4" fill="#294f9b" opacity="0.46"/><circle cx="65.64" cy="101.24" r="2.4" fill="#294f9b" opacity="0.88"/><circle cx="101.24" cy="65.64" r="2.4" fill="#294f9b" opacity="0.46"/><circle cx="65.64" cy="105.19" r="2.4" fill="#294f9b" opacity="0.88"/><circle cx="105.19" cy="65.64" r="2.4" fill="#294f9b" opacity="0.46"/><circle cx="65.64" cy="109.15" r="2.4" fill="#294f9b" opacity="0.88"/><circle cx="109.15" cy="65.64" r="2.4" fill="#294f9b" opacity="0.46"/><circle cx="65.64" cy="374.13" r="2.4" fill="#294f9b" opacity="0.88"/><circle cx="374.13" cy="65.64" r="2.4" fill="#294f9b" opacity="0.46"/><circle cx="69.60" cy="97.28" r="2.4" fill="#294f9b" opacity="0.88"/><circle cx="97.28" cy="69.60" r="2.4" fill="#294f9b" opacity="0.46"/><circle cx="69.60" cy="101.24" r="2.4" fill="#294f9b" opacity="0.88"/><circle cx="101.24" cy="69.60" r="2.4" fill="#294f9b" opacity="0.46"/><circle cx="69.60" cy="105.19" r="2.4" fill="#294f9b" opacity="0.88"/><circle cx="105.19" cy="69.60" r="2.4" fill="#294f9b" opacity="0.46"/><circle cx="69.60" cy="109.15" r="2.4" fill="#294f9b" opacity="0.88"/><circle cx="109.15" cy="69.60" r="2.4" fill="#294f9b" opacity="0.46"/><circle cx="69.60" cy="172.43" r="2.0" fill="#c44b3a" opacity="0.88"/><circle cx="172.43" cy="69.60" r="2.0" fill="#c44b3a" opacity="0.46"/><circle cx="69.60" cy="298.99" r="2.0" fill="#c44b3a" opacity="0.88"/><circle cx="298.99" cy="69.60" r="2.0" fill="#c44b3a" opacity="0.46"/><circle cx="69.60" cy="378.09" r="2.0" fill="#c44b3a" opacity="0.88"/><circle cx="378.09" cy="69.60" r="2.0" fill="#c44b3a" opacity="0.46"/><circle cx="73.55" cy="93.33" r="2.4" fill="#294f9b" opacity="0.88"/><circle cx="93.33" cy="73.55" r="2.4" fill="#294f9b" opacity="0.46"/><circle cx="73.55" cy="97.28" r="2.4" fill="#294f9b" opacity="0.88"/><circle cx="97.28" cy="73.55" r="2.4" fill="#294f9b" opacity="0.46"/><circle cx="73.55" cy="101.24" r="2.4" fill="#294f9b" opacity="0.88"/><circle cx="101.24" cy="73.55" r="2.4" fill="#294f9b" opacity="0.46"/><circle cx="77.51" cy="89.37" r="2.4" fill="#294f9b" opacity="0.88"/><circle cx="89.37" cy="77.51" r="2.4" fill="#294f9b" opacity="0.46"/><circle cx="77.51" cy="93.33" r="2.4" fill="#294f9b" opacity="0.88"/><circle cx="93.33" cy="77.51" r="2.4" fill="#294f9b" opacity="0.46"/><circle cx="77.51" cy="97.28" r="2.4" fill="#294f9b" opacity="0.88"/><circle cx="97.28" cy="77.51" r="2.4" fill="#294f9b" opacity="0.46"/><circle cx="77.51" cy="101.24" r="2.4" fill="#294f9b" opacity="0.88"/><circle cx="101.24" cy="77.51" r="2.4" fill="#294f9b" opacity="0.46"/><circle cx="77.51" cy="378.09" r="2.4" fill="#294f9b" opacity="0.88"/><circle cx="378.09" cy="77.51" r="2.4" fill="#294f9b" opacity="0.46"/><circle cx="77.51" cy="382.04" r="2.4" fill="#294f9b" opacity="0.88"/><circle cx="382.04" cy="77.51" r="2.4" fill="#294f9b" opacity="0.46"/><circle cx="81.46" cy="93.33" r="2.4" fill="#294f9b" opacity="0.88"/><circle cx="93.33" cy="81.46" r="2.4" fill="#294f9b" opacity="0.46"/><circle cx="81.46" cy="97.28" r="2.4" fill="#294f9b" opacity="0.88"/><circle cx="97.28" cy="81.46" r="2.4" fill="#294f9b" opacity="0.46"/><circle cx="81.46" cy="255.48" r="2.0" fill="#c44b3a" opacity="0.88"/><circle cx="255.48" cy="81.46" r="2.0" fill="#c44b3a" opacity="0.46"/><circle cx="81.46" cy="382.04" r="2.4" fill="#294f9b" opacity="0.88"/><circle cx="382.04" cy="81.46" r="2.4" fill="#294f9b" opacity="0.46"/><circle cx="85.42" cy="271.30" r="2.4" fill="#294f9b" opacity="0.88"/><circle cx="271.30" cy="85.42" r="2.4" fill="#294f9b" opacity="0.46"/><circle cx="85.42" cy="275.26" r="2.4" fill="#294f9b" opacity="0.88"/><circle cx="275.26" cy="85.42" r="2.4" fill="#294f9b" opacity="0.46"/><circle cx="85.42" cy="279.21" r="2.4" fill="#294f9b" opacity="0.88"/><circle cx="279.21" cy="85.42" r="2.4" fill="#294f9b" opacity="0.46"/><circle cx="85.42" cy="283.17" r="2.4" fill="#294f9b" opacity="0.88"/><circle cx="283.17" cy="85.42" r="2.4" fill="#294f9b" opacity="0.46"/><circle cx="85.42" cy="382.04" r="2.4" fill="#294f9b" opacity="0.88"/><circle cx="382.04" cy="85.42" r="2.4" fill="#294f9b" opacity="0.46"/><circle cx="89.37" cy="263.39" r="2.4" fill="#294f9b" opacity="0.88"/><circle cx="263.39" cy="89.37" r="2.4" fill="#294f9b" opacity="0.46"/><circle cx="89.37" cy="267.35" r="2.4" fill="#294f9b" opacity="0.88"/><circle cx="267.35" cy="89.37" r="2.4" fill="#294f9b" opacity="0.46"/><circle cx="89.37" cy="271.30" r="2.4" fill="#294f9b" opacity="0.88"/><circle cx="271.30" cy="89.37" r="2.4" fill="#294f9b" opacity="0.46"/><circle cx="89.37" cy="275.26" r="2.4" fill="#294f9b" opacity="0.88"/><circle cx="275.26" cy="89.37" r="2.4" fill="#294f9b" opacity="0.46"/><circle cx="89.37" cy="279.21" r="2.4" fill="#294f9b" opacity="0.88"/><circle cx="279.21" cy="89.37" r="2.4" fill="#294f9b" opacity="0.46"/><circle cx="89.37" cy="382.04" r="2.4" fill="#294f9b" opacity="0.88"/><circle cx="382.04" cy="89.37" r="2.4" fill="#294f9b" opacity="0.46"/><circle cx="93.33" cy="255.48" r="2.4" fill="#294f9b" opacity="0.88"/><circle cx="255.48" cy="93.33" r="2.4" fill="#294f9b" opacity="0.46"/><circle cx="93.33" cy="259.44" r="2.4" fill="#294f9b" opacity="0.88"/><circle cx="259.44" cy="93.33" r="2.4" fill="#294f9b" opacity="0.46"/><circle cx="93.33" cy="263.39" r="2.4" fill="#294f9b" opacity="0.88"/><circle cx="263.39" cy="93.33" r="2.4" fill="#294f9b" opacity="0.46"/><circle cx="93.33" cy="267.35" r="2.4" fill="#294f9b" opacity="0.88"/><circle cx="267.35" cy="93.33" r="2.4" fill="#294f9b" opacity="0.46"/><circle cx="93.33" cy="271.30" r="2.4" fill="#294f9b" opacity="0.88"/><circle cx="271.30" cy="93.33" r="2.4" fill="#294f9b" opacity="0.46"/><circle cx="93.33" cy="382.04" r="2.4" fill="#294f9b" opacity="0.88"/><circle cx="382.04" cy="93.33" r="2.4" fill="#294f9b" opacity="0.46"/><circle cx="97.28" cy="255.48" r="2.4" fill="#294f9b" opacity="0.88"/><circle cx="255.48" cy="97.28" r="2.4" fill="#294f9b" opacity="0.46"/><circle cx="97.28" cy="259.44" r="2.4" fill="#294f9b" opacity="0.88"/><circle cx="259.44" cy="97.28" r="2.4" fill="#294f9b" opacity="0.46"/><circle cx="97.28" cy="263.39" r="2.4" fill="#294f9b" opacity="0.88"/><circle cx="263.39" cy="97.28" r="2.4" fill="#294f9b" opacity="0.46"/><circle cx="97.28" cy="382.04" r="2.4" fill="#294f9b" opacity="0.88"/><circle cx="382.04" cy="97.28" r="2.4" fill="#294f9b" opacity="0.46"/><circle cx="101.24" cy="247.57" r="2.4" fill="#294f9b" opacity="0.88"/><circle cx="247.57" cy="101.24" r="2.4" fill="#294f9b" opacity="0.46"/><circle cx="101.24" cy="251.53" r="2.4" fill="#294f9b" opacity="0.88"/><circle cx="251.53" cy="101.24" r="2.4" fill="#294f9b" opacity="0.46"/><circle cx="101.24" cy="255.48" r="2.4" fill="#294f9b" opacity="0.88"/><circle cx="255.48" cy="101.24" r="2.4" fill="#294f9b" opacity="0.46"/><circle cx="101.24" cy="259.44" r="2.4" fill="#294f9b" opacity="0.88"/><circle cx="259.44" cy="101.24" r="2.4" fill="#294f9b" opacity="0.46"/><circle cx="105.19" cy="247.57" r="2.4" fill="#294f9b" opacity="0.88"/><circle cx="247.57" cy="105.19" r="2.4" fill="#294f9b" opacity="0.46"/><circle cx="105.19" cy="251.53" r="2.4" fill="#294f9b" opacity="0.88"/><circle cx="251.53" cy="105.19" r="2.4" fill="#294f9b" opacity="0.46"/><circle cx="105.19" cy="255.48" r="2.4" fill="#294f9b" opacity="0.88"/><circle cx="255.48" cy="105.19" r="2.4" fill="#294f9b" opacity="0.46"/><circle cx="105.19" cy="259.44" r="2.4" fill="#294f9b" opacity="0.88"/><circle cx="259.44" cy="105.19" r="2.4" fill="#294f9b" opacity="0.46"/><circle cx="109.15" cy="172.43" r="2.0" fill="#c44b3a" opacity="0.88"/><circle cx="172.43" cy="109.15" r="2.0" fill="#c44b3a" opacity="0.46"/><circle cx="109.15" cy="243.62" r="2.4" fill="#294f9b" opacity="0.88"/><circle cx="243.62" cy="109.15" r="2.4" fill="#294f9b" opacity="0.46"/><circle cx="109.15" cy="247.57" r="2.4" fill="#294f9b" opacity="0.88"/><circle cx="247.57" cy="109.15" r="2.4" fill="#294f9b" opacity="0.46"/><circle cx="109.15" cy="251.53" r="2.4" fill="#294f9b" opacity="0.88"/><circle cx="251.53" cy="109.15" r="2.4" fill="#294f9b" opacity="0.46"/><circle cx="109.15" cy="298.99" r="2.0" fill="#c44b3a" opacity="0.88"/><circle cx="298.99" cy="109.15" r="2.0" fill="#c44b3a" opacity="0.46"/><circle cx="109.15" cy="378.09" r="2.0" fill="#c44b3a" opacity="0.88"/><circle cx="378.09" cy="109.15" r="2.0" fill="#c44b3a" opacity="0.46"/><circle cx="113.10" cy="243.62" r="2.4" fill="#294f9b" opacity="0.88"/><circle cx="243.62" cy="113.10" r="2.4" fill="#294f9b" opacity="0.46"/><circle cx="113.10" cy="247.57" r="2.4" fill="#294f9b" opacity="0.88"/><circle cx="247.57" cy="113.10" r="2.4" fill="#294f9b" opacity="0.46"/><circle cx="117.06" cy="180.34" r="2.0" fill="#c44b3a" opacity="0.88"/><circle cx="180.34" cy="117.06" r="2.0" fill="#c44b3a" opacity="0.46"/><circle cx="117.06" cy="219.89" r="2.0" fill="#c44b3a" opacity="0.88"/><circle cx="219.89" cy="117.06" r="2.0" fill="#c44b3a" opacity="0.46"/><circle cx="117.06" cy="243.62" r="2.4" fill="#294f9b" opacity="0.88"/><circle cx="243.62" cy="117.06" r="2.4" fill="#294f9b" opacity="0.46"/><circle cx="117.06" cy="255.48" r="2.0" fill="#c44b3a" opacity="0.88"/><circle cx="255.48" cy="117.06" r="2.0" fill="#c44b3a" opacity="0.46"/><circle cx="117.06" cy="298.99" r="2.0" fill="#c44b3a" opacity="0.88"/><circle cx="298.99" cy="117.06" r="2.0" fill="#c44b3a" opacity="0.46"/><circle cx="117.06" cy="306.90" r="2.0" fill="#c44b3a" opacity="0.88"/><circle cx="306.90" cy="117.06" r="2.0" fill="#c44b3a" opacity="0.46"/><circle cx="117.06" cy="378.09" r="2.0" fill="#c44b3a" opacity="0.88"/><circle cx="378.09" cy="117.06" r="2.0" fill="#c44b3a" opacity="0.46"/><circle cx="121.01" cy="192.20" r="2.0" fill="#c44b3a" opacity="0.88"/><circle cx="192.20" cy="121.01" r="2.0" fill="#c44b3a" opacity="0.46"/><circle cx="121.01" cy="231.75" r="2.4" fill="#294f9b" opacity="0.88"/><circle cx="231.75" cy="121.01" r="2.4" fill="#294f9b" opacity="0.46"/><circle cx="121.01" cy="243.62" r="2.4" fill="#294f9b" opacity="0.88"/><circle cx="243.62" cy="121.01" r="2.4" fill="#294f9b" opacity="0.46"/><circle cx="121.01" cy="255.48" r="2.0" fill="#c44b3a" opacity="0.88"/><circle cx="255.48" cy="121.01" r="2.0" fill="#c44b3a" opacity="0.46"/><circle cx="121.01" cy="263.39" r="2.0" fill="#c44b3a" opacity="0.88"/><circle cx="263.39" cy="121.01" r="2.0" fill="#c44b3a" opacity="0.46"/><circle cx="121.01" cy="298.99" r="2.0" fill="#c44b3a" opacity="0.88"/><circle cx="298.99" cy="121.01" r="2.0" fill="#c44b3a" opacity="0.46"/><circle cx="121.01" cy="318.76" r="2.0" fill="#c44b3a" opacity="0.88"/><circle cx="318.76" cy="121.01" r="2.0" fill="#c44b3a" opacity="0.46"/><circle cx="121.01" cy="378.09" r="2.0" fill="#c44b3a" opacity="0.88"/><circle cx="378.09" cy="121.01" r="2.0" fill="#c44b3a" opacity="0.46"/><circle cx="124.97" cy="136.83" r="2.4" fill="#294f9b" opacity="0.88"/><circle cx="136.83" cy="124.97" r="2.4" fill="#294f9b" opacity="0.46"/><circle cx="124.97" cy="140.79" r="2.8" fill="#218a5a" opacity="0.88"/><circle cx="140.79" cy="124.97" r="2.8" fill="#218a5a" opacity="0.46"/><circle cx="124.97" cy="318.76" r="2.4" fill="#294f9b" opacity="0.88"/><circle cx="318.76" cy="124.97" r="2.4" fill="#294f9b" opacity="0.46"/><circle cx="136.83" cy="326.67" r="2.4" fill="#294f9b" opacity="0.88"/><circle cx="326.67" cy="136.83" r="2.4" fill="#294f9b" opacity="0.46"/><circle cx="140.79" cy="152.65" r="2.4" fill="#294f9b" opacity="0.88"/><circle cx="152.65" cy="140.79" r="2.4" fill="#294f9b" opacity="0.46"/><circle cx="140.79" cy="231.75" r="2.4" fill="#294f9b" opacity="0.88"/><circle cx="231.75" cy="140.79" r="2.4" fill="#294f9b" opacity="0.46"/><circle cx="140.79" cy="318.76" r="2.4" fill="#294f9b" opacity="0.88"/><circle cx="318.76" cy="140.79" r="2.4" fill="#294f9b" opacity="0.46"/><circle cx="140.79" cy="322.72" r="2.4" fill="#294f9b" opacity="0.88"/><circle cx="322.72" cy="140.79" r="2.4" fill="#294f9b" opacity="0.46"/><circle cx="140.79" cy="326.67" r="2.4" fill="#294f9b" opacity="0.88"/><circle cx="326.67" cy="140.79" r="2.4" fill="#294f9b" opacity="0.46"/><circle cx="144.74" cy="227.80" r="2.4" fill="#294f9b" opacity="0.88"/><circle cx="227.80" cy="144.74" r="2.4" fill="#294f9b" opacity="0.46"/><circle cx="144.74" cy="231.75" r="2.4" fill="#294f9b" opacity="0.88"/><circle cx="231.75" cy="144.74" r="2.4" fill="#294f9b" opacity="0.46"/><circle cx="144.74" cy="255.48" r="2.0" fill="#c44b3a" opacity="0.88"/><circle cx="255.48" cy="144.74" r="2.0" fill="#c44b3a" opacity="0.46"/><circle cx="144.74" cy="318.76" r="2.4" fill="#294f9b" opacity="0.88"/><circle cx="318.76" cy="144.74" r="2.4" fill="#294f9b" opacity="0.46"/><circle cx="144.74" cy="322.72" r="2.4" fill="#294f9b" opacity="0.88"/><circle cx="322.72" cy="144.74" r="2.4" fill="#294f9b" opacity="0.46"/><circle cx="144.74" cy="326.67" r="2.4" fill="#294f9b" opacity="0.88"/><circle cx="326.67" cy="144.74" r="2.4" fill="#294f9b" opacity="0.46"/><circle cx="144.74" cy="330.63" r="2.4" fill="#294f9b" opacity="0.88"/><circle cx="330.63" cy="144.74" r="2.4" fill="#294f9b" opacity="0.46"/><circle cx="148.70" cy="219.89" r="2.4" fill="#294f9b" opacity="0.88"/><circle cx="219.89" cy="148.70" r="2.4" fill="#294f9b" opacity="0.46"/><circle cx="148.70" cy="223.84" r="2.4" fill="#294f9b" opacity="0.88"/><circle cx="223.84" cy="148.70" r="2.4" fill="#294f9b" opacity="0.46"/><circle cx="148.70" cy="227.80" r="2.4" fill="#294f9b" opacity="0.88"/><circle cx="227.80" cy="148.70" r="2.4" fill="#294f9b" opacity="0.46"/><circle cx="148.70" cy="231.75" r="2.4" fill="#294f9b" opacity="0.88"/><circle cx="231.75" cy="148.70" r="2.4" fill="#294f9b" opacity="0.46"/><circle cx="148.70" cy="235.71" r="2.4" fill="#294f9b" opacity="0.88"/><circle cx="235.71" cy="148.70" r="2.4" fill="#294f9b" opacity="0.46"/><circle cx="148.70" cy="318.76" r="2.4" fill="#294f9b" opacity="0.88"/><circle cx="318.76" cy="148.70" r="2.4" fill="#294f9b" opacity="0.46"/><circle cx="148.70" cy="322.72" r="2.4" fill="#294f9b" opacity="0.88"/><circle cx="322.72" cy="148.70" r="2.4" fill="#294f9b" opacity="0.46"/><circle cx="148.70" cy="326.67" r="2.4" fill="#294f9b" opacity="0.88"/><circle cx="326.67" cy="148.70" r="2.4" fill="#294f9b" opacity="0.46"/><circle cx="152.65" cy="219.89" r="2.4" fill="#294f9b" opacity="0.88"/><circle cx="219.89" cy="152.65" r="2.4" fill="#294f9b" opacity="0.46"/><circle cx="152.65" cy="223.84" r="2.4" fill="#294f9b" opacity="0.88"/><circle cx="223.84" cy="152.65" r="2.4" fill="#294f9b" opacity="0.46"/><circle cx="152.65" cy="227.80" r="2.4" fill="#294f9b" opacity="0.88"/><circle cx="227.80" cy="152.65" r="2.4" fill="#294f9b" opacity="0.46"/><circle cx="152.65" cy="231.75" r="2.4" fill="#294f9b" opacity="0.88"/><circle cx="231.75" cy="152.65" r="2.4" fill="#294f9b" opacity="0.46"/><circle cx="152.65" cy="310.85" r="2.4" fill="#294f9b" opacity="0.88"/><circle cx="310.85" cy="152.65" r="2.4" fill="#294f9b" opacity="0.46"/><circle cx="152.65" cy="314.81" r="2.4" fill="#294f9b" opacity="0.88"/><circle cx="314.81" cy="152.65" r="2.4" fill="#294f9b" opacity="0.46"/><circle cx="152.65" cy="318.76" r="2.4" fill="#294f9b" opacity="0.88"/><circle cx="318.76" cy="152.65" r="2.4" fill="#294f9b" opacity="0.46"/><circle cx="152.65" cy="322.72" r="2.4" fill="#294f9b" opacity="0.88"/><circle cx="322.72" cy="152.65" r="2.4" fill="#294f9b" opacity="0.46"/><circle cx="156.61" cy="211.98" r="2.4" fill="#294f9b" opacity="0.88"/><circle cx="211.98" cy="156.61" r="2.4" fill="#294f9b" opacity="0.46"/><circle cx="156.61" cy="215.93" r="2.4" fill="#294f9b" opacity="0.88"/><circle cx="215.93" cy="156.61" r="2.4" fill="#294f9b" opacity="0.46"/><circle cx="156.61" cy="219.89" r="2.4" fill="#294f9b" opacity="0.88"/><circle cx="219.89" cy="156.61" r="2.4" fill="#294f9b" opacity="0.46"/><circle cx="156.61" cy="223.84" r="2.4" fill="#294f9b" opacity="0.88"/><circle cx="223.84" cy="156.61" r="2.4" fill="#294f9b" opacity="0.46"/><circle cx="156.61" cy="298.99" r="2.0" fill="#c44b3a" opacity="0.88"/><circle cx="298.99" cy="156.61" r="2.0" fill="#c44b3a" opacity="0.46"/><circle cx="156.61" cy="310.85" r="2.4" fill="#294f9b" opacity="0.88"/><circle cx="310.85" cy="156.61" r="2.4" fill="#294f9b" opacity="0.46"/><circle cx="156.61" cy="314.81" r="2.4" fill="#294f9b" opacity="0.88"/><circle cx="314.81" cy="156.61" r="2.4" fill="#294f9b" opacity="0.46"/><circle cx="156.61" cy="318.76" r="2.4" fill="#294f9b" opacity="0.88"/><circle cx="318.76" cy="156.61" r="2.4" fill="#294f9b" opacity="0.46"/><circle cx="156.61" cy="322.72" r="2.4" fill="#294f9b" opacity="0.88"/><circle cx="322.72" cy="156.61" r="2.4" fill="#294f9b" opacity="0.46"/><circle cx="156.61" cy="378.09" r="2.0" fill="#c44b3a" opacity="0.88"/><circle cx="378.09" cy="156.61" r="2.0" fill="#c44b3a" opacity="0.46"/><circle cx="160.56" cy="211.98" r="2.4" fill="#294f9b" opacity="0.88"/><circle cx="211.98" cy="160.56" r="2.4" fill="#294f9b" opacity="0.46"/><circle cx="160.56" cy="215.93" r="2.4" fill="#294f9b" opacity="0.88"/><circle cx="215.93" cy="160.56" r="2.4" fill="#294f9b" opacity="0.46"/><circle cx="160.56" cy="219.89" r="2.4" fill="#294f9b" opacity="0.88"/><circle cx="219.89" cy="160.56" r="2.4" fill="#294f9b" opacity="0.46"/><circle cx="160.56" cy="223.84" r="2.4" fill="#294f9b" opacity="0.88"/><circle cx="223.84" cy="160.56" r="2.4" fill="#294f9b" opacity="0.46"/><circle cx="160.56" cy="302.94" r="2.4" fill="#294f9b" opacity="0.88"/><circle cx="302.94" cy="160.56" r="2.4" fill="#294f9b" opacity="0.46"/><circle cx="160.56" cy="306.90" r="2.4" fill="#294f9b" opacity="0.88"/><circle cx="306.90" cy="160.56" r="2.4" fill="#294f9b" opacity="0.46"/><circle cx="160.56" cy="310.85" r="2.4" fill="#294f9b" opacity="0.88"/><circle cx="310.85" cy="160.56" r="2.4" fill="#294f9b" opacity="0.46"/><circle cx="160.56" cy="314.81" r="2.4" fill="#294f9b" opacity="0.88"/><circle cx="314.81" cy="160.56" r="2.4" fill="#294f9b" opacity="0.46"/><circle cx="164.52" cy="204.07" r="2.4" fill="#294f9b" opacity="0.88"/><circle cx="204.07" cy="164.52" r="2.4" fill="#294f9b" opacity="0.46"/><circle cx="164.52" cy="208.02" r="2.4" fill="#294f9b" opacity="0.88"/><circle cx="208.02" cy="164.52" r="2.4" fill="#294f9b" opacity="0.46"/><circle cx="164.52" cy="211.98" r="2.4" fill="#294f9b" opacity="0.88"/><circle cx="211.98" cy="164.52" r="2.4" fill="#294f9b" opacity="0.46"/><circle cx="164.52" cy="215.93" r="2.4" fill="#294f9b" opacity="0.88"/><circle cx="215.93" cy="164.52" r="2.4" fill="#294f9b" opacity="0.46"/><circle cx="164.52" cy="302.94" r="2.4" fill="#294f9b" opacity="0.88"/><circle cx="302.94" cy="164.52" r="2.4" fill="#294f9b" opacity="0.46"/><circle cx="164.52" cy="306.90" r="2.4" fill="#294f9b" opacity="0.88"/><circle cx="306.90" cy="164.52" r="2.4" fill="#294f9b" opacity="0.46"/><circle cx="164.52" cy="310.85" r="2.4" fill="#294f9b" opacity="0.88"/><circle cx="310.85" cy="164.52" r="2.4" fill="#294f9b" opacity="0.46"/><circle cx="168.47" cy="200.11" r="2.4" fill="#294f9b" opacity="0.88"/><circle cx="200.11" cy="168.47" r="2.4" fill="#294f9b" opacity="0.46"/><circle cx="168.47" cy="204.07" r="2.4" fill="#294f9b" opacity="0.88"/><circle cx="204.07" cy="168.47" r="2.4" fill="#294f9b" opacity="0.46"/><circle cx="168.47" cy="208.02" r="2.4" fill="#294f9b" opacity="0.88"/><circle cx="208.02" cy="168.47" r="2.4" fill="#294f9b" opacity="0.46"/><circle cx="168.47" cy="211.98" r="2.4" fill="#294f9b" opacity="0.88"/><circle cx="211.98" cy="168.47" r="2.4" fill="#294f9b" opacity="0.46"/><circle cx="168.47" cy="295.03" r="2.4" fill="#294f9b" opacity="0.88"/><circle cx="295.03" cy="168.47" r="2.4" fill="#294f9b" opacity="0.46"/><circle cx="168.47" cy="298.99" r="2.4" fill="#294f9b" opacity="0.88"/><circle cx="298.99" cy="168.47" r="2.4" fill="#294f9b" opacity="0.46"/><circle cx="168.47" cy="302.94" r="2.4" fill="#294f9b" opacity="0.88"/><circle cx="302.94" cy="168.47" r="2.4" fill="#294f9b" opacity="0.46"/><circle cx="168.47" cy="306.90" r="2.4" fill="#294f9b" opacity="0.88"/><circle cx="306.90" cy="168.47" r="2.4" fill="#294f9b" opacity="0.46"/><circle cx="172.43" cy="188.25" r="2.4" fill="#294f9b" opacity="0.88"/><circle cx="188.25" cy="172.43" r="2.4" fill="#294f9b" opacity="0.46"/><circle cx="172.43" cy="200.11" r="2.4" fill="#294f9b" opacity="0.88"/><circle cx="200.11" cy="172.43" r="2.4" fill="#294f9b" opacity="0.46"/><circle cx="172.43" cy="204.07" r="2.4" fill="#294f9b" opacity="0.88"/><circle cx="204.07" cy="172.43" r="2.4" fill="#294f9b" opacity="0.46"/><circle cx="172.43" cy="208.02" r="2.4" fill="#294f9b" opacity="0.88"/><circle cx="208.02" cy="172.43" r="2.4" fill="#294f9b" opacity="0.46"/><circle cx="172.43" cy="255.48" r="2.0" fill="#c44b3a" opacity="0.88"/><circle cx="255.48" cy="172.43" r="2.0" fill="#c44b3a" opacity="0.46"/><circle cx="172.43" cy="295.03" r="2.4" fill="#294f9b" opacity="0.88"/><circle cx="295.03" cy="172.43" r="2.4" fill="#294f9b" opacity="0.46"/><circle cx="172.43" cy="298.99" r="2.8" fill="#218a5a" opacity="0.88"/><circle cx="298.99" cy="172.43" r="2.8" fill="#218a5a" opacity="0.46"/><circle cx="172.43" cy="302.94" r="2.4" fill="#294f9b" opacity="0.88"/><circle cx="302.94" cy="172.43" r="2.4" fill="#294f9b" opacity="0.46"/><circle cx="172.43" cy="306.90" r="2.0" fill="#c44b3a" opacity="0.88"/><circle cx="306.90" cy="172.43" r="2.0" fill="#c44b3a" opacity="0.46"/><circle cx="172.43" cy="378.09" r="2.0" fill="#c44b3a" opacity="0.88"/><circle cx="378.09" cy="172.43" r="2.0" fill="#c44b3a" opacity="0.46"/><circle cx="176.38" cy="188.25" r="2.4" fill="#294f9b" opacity="0.88"/><circle cx="188.25" cy="176.38" r="2.4" fill="#294f9b" opacity="0.46"/><circle cx="176.38" cy="192.20" r="2.4" fill="#294f9b" opacity="0.88"/><circle cx="192.20" cy="176.38" r="2.4" fill="#294f9b" opacity="0.46"/><circle cx="176.38" cy="200.11" r="2.4" fill="#294f9b" opacity="0.88"/><circle cx="200.11" cy="176.38" r="2.4" fill="#294f9b" opacity="0.46"/><circle cx="176.38" cy="204.07" r="2.4" fill="#294f9b" opacity="0.88"/><circle cx="204.07" cy="176.38" r="2.4" fill="#294f9b" opacity="0.46"/><circle cx="176.38" cy="287.12" r="2.4" fill="#294f9b" opacity="0.88"/><circle cx="287.12" cy="176.38" r="2.4" fill="#294f9b" opacity="0.46"/><circle cx="176.38" cy="291.08" r="2.4" fill="#294f9b" opacity="0.88"/><circle cx="291.08" cy="176.38" r="2.4" fill="#294f9b" opacity="0.46"/><circle cx="176.38" cy="295.03" r="2.4" fill="#294f9b" opacity="0.88"/><circle cx="295.03" cy="176.38" r="2.4" fill="#294f9b" opacity="0.46"/><circle cx="176.38" cy="298.99" r="2.4" fill="#294f9b" opacity="0.88"/><circle cx="298.99" cy="176.38" r="2.4" fill="#294f9b" opacity="0.46"/><circle cx="180.34" cy="192.20" r="2.4" fill="#294f9b" opacity="0.88"/><circle cx="192.20" cy="180.34" r="2.4" fill="#294f9b" opacity="0.46"/><circle cx="180.34" cy="291.08" r="2.4" fill="#294f9b" opacity="0.88"/><circle cx="291.08" cy="180.34" r="2.4" fill="#294f9b" opacity="0.46"/><circle cx="180.34" cy="295.03" r="2.4" fill="#294f9b" opacity="0.88"/><circle cx="295.03" cy="180.34" r="2.4" fill="#294f9b" opacity="0.46"/><circle cx="180.34" cy="298.99" r="2.8" fill="#218a5a" opacity="0.88"/><circle cx="298.99" cy="180.34" r="2.8" fill="#218a5a" opacity="0.46"/><circle cx="180.34" cy="370.18" r="2.4" fill="#294f9b" opacity="0.88"/><circle cx="370.18" cy="180.34" r="2.4" fill="#294f9b" opacity="0.46"/><circle cx="180.34" cy="378.09" r="2.0" fill="#c44b3a" opacity="0.88"/><circle cx="378.09" cy="180.34" r="2.0" fill="#c44b3a" opacity="0.46"/><circle cx="188.25" cy="200.11" r="2.4" fill="#294f9b" opacity="0.88"/><circle cx="200.11" cy="188.25" r="2.4" fill="#294f9b" opacity="0.46"/><circle cx="192.20" cy="204.07" r="2.4" fill="#294f9b" opacity="0.88"/><circle cx="204.07" cy="192.20" r="2.4" fill="#294f9b" opacity="0.46"/><circle cx="192.20" cy="255.48" r="2.0" fill="#c44b3a" opacity="0.88"/><circle cx="255.48" cy="192.20" r="2.0" fill="#c44b3a" opacity="0.46"/><circle cx="219.89" cy="298.99" r="2.0" fill="#c44b3a" opacity="0.88"/><circle cx="298.99" cy="219.89" r="2.0" fill="#c44b3a" opacity="0.46"/><circle cx="219.89" cy="378.09" r="2.0" fill="#c44b3a" opacity="0.88"/><circle cx="378.09" cy="219.89" r="2.0" fill="#c44b3a" opacity="0.46"/><circle cx="223.84" cy="239.66" r="2.4" fill="#294f9b" opacity="0.88"/><circle cx="239.66" cy="223.84" r="2.4" fill="#294f9b" opacity="0.46"/><circle cx="227.80" cy="239.66" r="2.4" fill="#294f9b" opacity="0.88"/><circle cx="239.66" cy="227.80" r="2.4" fill="#294f9b" opacity="0.46"/><circle cx="227.80" cy="243.62" r="2.0" fill="#c44b3a" opacity="0.88"/><circle cx="243.62" cy="227.80" r="2.0" fill="#c44b3a" opacity="0.46"/><circle cx="231.75" cy="243.62" r="2.4" fill="#294f9b" opacity="0.88"/><circle cx="243.62" cy="231.75" r="2.4" fill="#294f9b" opacity="0.46"/><circle cx="235.71" cy="251.53" r="2.0" fill="#c44b3a" opacity="0.88"/><circle cx="251.53" cy="235.71" r="2.0" fill="#c44b3a" opacity="0.46"/><circle cx="239.66" cy="251.53" r="2.4" fill="#294f9b" opacity="0.88"/><circle cx="251.53" cy="239.66" r="2.4" fill="#294f9b" opacity="0.46"/><circle cx="255.48" cy="318.76" r="2.0" fill="#c44b3a" opacity="0.88"/><circle cx="318.76" cy="255.48" r="2.0" fill="#c44b3a" opacity="0.46"/><circle cx="255.48" cy="378.09" r="2.0" fill="#c44b3a" opacity="0.88"/><circle cx="378.09" cy="255.48" r="2.0" fill="#c44b3a" opacity="0.46"/><circle cx="259.44" cy="271.30" r="2.4" fill="#294f9b" opacity="0.88"/><circle cx="271.30" cy="259.44" r="2.4" fill="#294f9b" opacity="0.46"/><circle cx="271.30" cy="382.04" r="2.4" fill="#294f9b" opacity="0.88"/><circle cx="382.04" cy="271.30" r="2.4" fill="#294f9b" opacity="0.46"/><circle cx="275.26" cy="287.12" r="2.4" fill="#294f9b" opacity="0.88"/><circle cx="287.12" cy="275.26" r="2.4" fill="#294f9b" opacity="0.46"/><circle cx="275.26" cy="382.04" r="2.4" fill="#294f9b" opacity="0.88"/><circle cx="382.04" cy="275.26" r="2.4" fill="#294f9b" opacity="0.46"/><circle cx="279.21" cy="295.03" r="2.0" fill="#c44b3a" opacity="0.88"/><circle cx="295.03" cy="279.21" r="2.0" fill="#c44b3a" opacity="0.46"/><circle cx="279.21" cy="382.04" r="2.4" fill="#294f9b" opacity="0.88"/><circle cx="382.04" cy="279.21" r="2.4" fill="#294f9b" opacity="0.46"/><circle cx="283.17" cy="378.09" r="2.4" fill="#294f9b" opacity="0.88"/><circle cx="378.09" cy="283.17" r="2.4" fill="#294f9b" opacity="0.46"/><circle cx="283.17" cy="382.04" r="2.4" fill="#294f9b" opacity="0.88"/><circle cx="382.04" cy="283.17" r="2.4" fill="#294f9b" opacity="0.46"/><circle cx="287.12" cy="378.09" r="2.4" fill="#294f9b" opacity="0.88"/><circle cx="378.09" cy="287.12" r="2.4" fill="#294f9b" opacity="0.46"/><circle cx="287.12" cy="382.04" r="2.4" fill="#294f9b" opacity="0.88"/><circle cx="382.04" cy="287.12" r="2.4" fill="#294f9b" opacity="0.46"/><circle cx="291.08" cy="370.18" r="2.4" fill="#294f9b" opacity="0.88"/><circle cx="370.18" cy="291.08" r="2.4" fill="#294f9b" opacity="0.46"/><circle cx="291.08" cy="374.13" r="2.4" fill="#294f9b" opacity="0.88"/><circle cx="374.13" cy="291.08" r="2.4" fill="#294f9b" opacity="0.46"/><circle cx="291.08" cy="378.09" r="2.4" fill="#294f9b" opacity="0.88"/><circle cx="378.09" cy="291.08" r="2.4" fill="#294f9b" opacity="0.46"/><circle cx="291.08" cy="382.04" r="2.4" fill="#294f9b" opacity="0.88"/><circle cx="382.04" cy="291.08" r="2.4" fill="#294f9b" opacity="0.46"/><circle cx="295.03" cy="370.18" r="2.4" fill="#294f9b" opacity="0.88"/><circle cx="370.18" cy="295.03" r="2.4" fill="#294f9b" opacity="0.46"/><circle cx="295.03" cy="374.13" r="2.4" fill="#294f9b" opacity="0.88"/><circle cx="374.13" cy="295.03" r="2.4" fill="#294f9b" opacity="0.46"/><circle cx="295.03" cy="378.09" r="2.4" fill="#294f9b" opacity="0.88"/><circle cx="378.09" cy="295.03" r="2.4" fill="#294f9b" opacity="0.46"/><circle cx="295.03" cy="382.04" r="2.4" fill="#294f9b" opacity="0.88"/><circle cx="382.04" cy="295.03" r="2.4" fill="#294f9b" opacity="0.46"/><circle cx="298.99" cy="362.27" r="2.4" fill="#294f9b" opacity="0.88"/><circle cx="362.27" cy="298.99" r="2.4" fill="#294f9b" opacity="0.46"/><circle cx="298.99" cy="366.22" r="2.4" fill="#294f9b" opacity="0.88"/><circle cx="366.22" cy="298.99" r="2.4" fill="#294f9b" opacity="0.46"/><circle cx="298.99" cy="370.18" r="2.4" fill="#294f9b" opacity="0.88"/><circle cx="370.18" cy="298.99" r="2.4" fill="#294f9b" opacity="0.46"/><circle cx="298.99" cy="374.13" r="2.4" fill="#294f9b" opacity="0.88"/><circle cx="374.13" cy="298.99" r="2.4" fill="#294f9b" opacity="0.46"/><circle cx="298.99" cy="378.09" r="2.0" fill="#c44b3a" opacity="0.88"/><circle cx="378.09" cy="298.99" r="2.0" fill="#c44b3a" opacity="0.46"/><circle cx="302.94" cy="362.27" r="2.4" fill="#294f9b" opacity="0.88"/><circle cx="362.27" cy="302.94" r="2.4" fill="#294f9b" opacity="0.46"/><circle cx="302.94" cy="366.22" r="2.4" fill="#294f9b" opacity="0.88"/><circle cx="366.22" cy="302.94" r="2.4" fill="#294f9b" opacity="0.46"/><circle cx="302.94" cy="370.18" r="2.4" fill="#294f9b" opacity="0.88"/><circle cx="370.18" cy="302.94" r="2.4" fill="#294f9b" opacity="0.46"/><circle cx="306.90" cy="354.36" r="2.4" fill="#294f9b" opacity="0.88"/><circle cx="354.36" cy="306.90" r="2.4" fill="#294f9b" opacity="0.46"/><circle cx="306.90" cy="358.31" r="2.4" fill="#294f9b" opacity="0.88"/><circle cx="358.31" cy="306.90" r="2.4" fill="#294f9b" opacity="0.46"/><circle cx="306.90" cy="362.27" r="2.4" fill="#294f9b" opacity="0.88"/><circle cx="362.27" cy="306.90" r="2.4" fill="#294f9b" opacity="0.46"/><circle cx="306.90" cy="366.22" r="2.4" fill="#294f9b" opacity="0.88"/><circle cx="366.22" cy="306.90" r="2.4" fill="#294f9b" opacity="0.46"/><circle cx="306.90" cy="378.09" r="2.0" fill="#c44b3a" opacity="0.88"/><circle cx="378.09" cy="306.90" r="2.0" fill="#c44b3a" opacity="0.46"/><circle cx="310.85" cy="354.36" r="2.4" fill="#294f9b" opacity="0.88"/><circle cx="354.36" cy="310.85" r="2.4" fill="#294f9b" opacity="0.46"/><circle cx="310.85" cy="358.31" r="2.4" fill="#294f9b" opacity="0.88"/><circle cx="358.31" cy="310.85" r="2.4" fill="#294f9b" opacity="0.46"/><circle cx="310.85" cy="362.27" r="2.4" fill="#294f9b" opacity="0.88"/><circle cx="362.27" cy="310.85" r="2.4" fill="#294f9b" opacity="0.46"/><circle cx="314.81" cy="330.63" r="2.0" fill="#c44b3a" opacity="0.88"/><circle cx="330.63" cy="314.81" r="2.0" fill="#c44b3a" opacity="0.46"/><circle cx="314.81" cy="342.49" r="2.4" fill="#294f9b" opacity="0.88"/><circle cx="342.49" cy="314.81" r="2.4" fill="#294f9b" opacity="0.46"/><circle cx="314.81" cy="346.45" r="2.4" fill="#294f9b" opacity="0.88"/><circle cx="346.45" cy="314.81" r="2.4" fill="#294f9b" opacity="0.46"/><circle cx="314.81" cy="350.40" r="2.4" fill="#294f9b" opacity="0.88"/><circle cx="350.40" cy="314.81" r="2.4" fill="#294f9b" opacity="0.46"/><circle cx="314.81" cy="354.36" r="2.4" fill="#294f9b" opacity="0.88"/><circle cx="354.36" cy="314.81" r="2.4" fill="#294f9b" opacity="0.46"/><circle cx="314.81" cy="358.31" r="2.4" fill="#294f9b" opacity="0.88"/><circle cx="358.31" cy="314.81" r="2.4" fill="#294f9b" opacity="0.46"/><circle cx="318.76" cy="342.49" r="2.4" fill="#294f9b" opacity="0.88"/><circle cx="342.49" cy="318.76" r="2.4" fill="#294f9b" opacity="0.46"/><circle cx="318.76" cy="346.45" r="2.4" fill="#294f9b" opacity="0.88"/><circle cx="346.45" cy="318.76" r="2.4" fill="#294f9b" opacity="0.46"/><circle cx="318.76" cy="350.40" r="2.4" fill="#294f9b" opacity="0.88"/><circle cx="350.40" cy="318.76" r="2.4" fill="#294f9b" opacity="0.46"/><circle cx="322.72" cy="334.58" r="2.4" fill="#294f9b" opacity="0.88"/><circle cx="334.58" cy="322.72" r="2.4" fill="#294f9b" opacity="0.46"/><circle cx="322.72" cy="338.54" r="2.4" fill="#294f9b" opacity="0.88"/><circle cx="338.54" cy="322.72" r="2.4" fill="#294f9b" opacity="0.46"/><circle cx="322.72" cy="342.49" r="2.4" fill="#294f9b" opacity="0.88"/><circle cx="342.49" cy="322.72" r="2.4" fill="#294f9b" opacity="0.46"/><circle cx="322.72" cy="346.45" r="2.4" fill="#294f9b" opacity="0.88"/><circle cx="346.45" cy="322.72" r="2.4" fill="#294f9b" opacity="0.46"/><circle cx="326.67" cy="338.54" r="2.4" fill="#294f9b" opacity="0.88"/><circle cx="338.54" cy="326.67" r="2.4" fill="#294f9b" opacity="0.46"/><circle cx="326.67" cy="342.49" r="2.8" fill="#218a5a" opacity="0.88"/><circle cx="342.49" cy="326.67" r="2.8" fill="#218a5a" opacity="0.46"/><circle cx="330.63" cy="342.49" r="2.4" fill="#294f9b" opacity="0.88"/><circle cx="342.49" cy="330.63" r="2.4" fill="#294f9b" opacity="0.46"/>
  <g font-family="Arial, sans-serif" font-size="11" fill="#34423d">
    <rect x="34" y="372" width="250" height="32" fill="#ffffff" stroke="#d5ddd5"/>
    <circle cx="46" cy="384" r="4" fill="#218a5a"/><text x="56" y="388">native + predicted</text>
    <circle cx="156" cy="384" r="4" fill="#294f9b"/><text x="166" y="388">native only</text>
    <circle cx="236" cy="384" r="4" fill="#c44b3a"/><text x="246" y="388">predicted only</text>
  </g>
  <text x="34" y="412" font-family="Arial, sans-serif" font-size="11" fill="#58635e">row: coord_003_pdb_1TEN_A_tenascin_fn3</text>
</svg>
