<svg xmlns="http://www.w3.org/2000/svg" width="760" height="260" viewBox="0 0 760 260" role="img" aria-label="native coordinate trace">
  <rect width="760" height="260" fill="#f8faf7"/>
  <text x="34" y="24" font-family="Arial, sans-serif" font-size="15" fill="#22302d">Native C-alpha Coordinate Trace</text>
  <line x1="463.39" y1="44.46" x2="626.71" y2="70.21" stroke="#326e8f" stroke-width="1" stroke-opacity="0.22"/><line x1="463.39" y1="44.46" x2="628.93" y2="42.27" stroke="#326e8f" stroke-width="1" stroke-opacity="0.22"/><line x1="463.39" y1="44.46" x2="463.03" y2="74.50" stroke="#326e8f" stroke-width="1" stroke-opacity="0.22"/><line x1="463.39" y1="44.46" x2="432.59" y2="63.94" stroke="#326e8f" stroke-width="1" stroke-opacity="0.22"/><line x1="463.39" y1="44.46" x2="457.09" y2="46.85" stroke="#326e8f" stroke-width="1" stroke-opacity="0.22"/><line x1="463.39" y1="44.46" x2="342.62" y2="40.13" stroke="#326e8f" stroke-width="1" stroke-opacity="0.22"/><line x1="463.39" y1="44.46" x2="350.98" y2="56.93" stroke="#326e8f" stroke-width="1" stroke-opacity="0.22"/><line x1="463.39" y1="44.46" x2="383.35" y2="61.26" stroke="#326e8f" stroke-width="1" stroke-opacity="0.22"/><line x1="463.39" y1="44.46" x2="326.42" y2="69.80" stroke="#326e8f" stroke-width="1" stroke-opacity="0.22"/><line x1="512.40" y1="55.73" x2="626.71" y2="70.21" stroke="#326e8f" stroke-width="1" stroke-opacity="0.22"/><line x1="512.40" y1="55.73" x2="677.36" y2="53.77" stroke="#326e8f" stroke-width="1" stroke-opacity="0.22"/><line x1="512.40" y1="55.73" x2="628.93" y2="42.27" stroke="#326e8f" stroke-width="1" stroke-opacity="0.22"/><line x1="512.40" y1="55.73" x2="463.03" y2="74.50" stroke="#326e8f" stroke-width="1" stroke-opacity="0.22"/><line x1="512.40" y1="55.73" x2="383.35" y2="61.26" stroke="#326e8f" stroke-width="1" stroke-opacity="0.22"/><line x1="512.40" y1="55.73" x2="326.42" y2="69.80" stroke="#326e8f" stroke-width="1" stroke-opacity="0.22"/><line x1="485.87" y1="75.23" x2="626.71" y2="70.21" stroke="#326e8f" stroke-width="1" stroke-opacity="0.22"/><line x1="485.87" y1="75.23" x2="409.49" y2="106.74" stroke="#326e8f" stroke-width="1" stroke-opacity="0.22"/><line x1="485.87" y1="75.23" x2="394.93" y2="87.69" stroke="#326e8f" stroke-width="1" stroke-opacity="0.22"/><line x1="485.87" y1="75.23" x2="463.03" y2="74.50" stroke="#326e8f" stroke-width="1" stroke-opacity="0.22"/><line x1="485.87" y1="75.23" x2="383.35" y2="61.26" stroke="#326e8f" stroke-width="1" stroke-opacity="0.22"/><line x1="485.87" y1="75.23" x2="326.42" y2="69.80" stroke="#326e8f" stroke-width="1" stroke-opacity="0.22"/><line x1="485.87" y1="75.23" x2="327.99" y2="89.68" stroke="#326e8f" stroke-width="1" stroke-opacity="0.22"/><line x1="485.87" y1="75.23" x2="385.74" y2="101.04" stroke="#326e8f" stroke-width="1" stroke-opacity="0.22"/><line x1="557.21" y1="89.14" x2="577.32" y2="122.39" stroke="#326e8f" stroke-width="1" stroke-opacity="0.22"/><line x1="557.21" y1="89.14" x2="645.36" y2="116.09" stroke="#326e8f" stroke-width="1" stroke-opacity="0.22"/><line x1="557.21" y1="89.14" x2="698.74" y2="99.55" stroke="#326e8f" stroke-width="1" stroke-opacity="0.22"/><line x1="557.21" y1="89.14" x2="683.22" y2="85.63" stroke="#326e8f" stroke-width="1" stroke-opacity="0.22"/><line x1="557.21" y1="89.14" x2="626.71" y2="70.21" stroke="#326e8f" stroke-width="1" stroke-opacity="0.22"/><line x1="557.21" y1="89.14" x2="409.49" y2="106.74" stroke="#326e8f" stroke-width="1" stroke-opacity="0.22"/><line x1="557.21" y1="89.14" x2="394.93" y2="87.69" stroke="#326e8f" stroke-width="1" stroke-opacity="0.22"/><line x1="557.21" y1="89.14" x2="463.03" y2="74.50" stroke="#326e8f" stroke-width="1" stroke-opacity="0.22"/><line x1="557.21" y1="89.14" x2="385.74" y2="101.04" stroke="#326e8f" stroke-width="1" stroke-opacity="0.22"/><line x1="603.64" y1="94.02" x2="645.36" y2="116.09" stroke="#326e8f" stroke-width="1" stroke-opacity="0.22"/><line x1="603.64" y1="94.02" x2="698.74" y2="99.55" stroke="#326e8f" stroke-width="1" stroke-opacity="0.22"/><line x1="603.64" y1="94.02" x2="683.22" y2="85.63" stroke="#326e8f" stroke-width="1" stroke-opacity="0.22"/><line x1="603.64" y1="94.02" x2="626.71" y2="70.21" stroke="#326e8f" stroke-width="1" stroke-opacity="0.22"/><line x1="637.16" y1="110.84" x2="648.22" y2="134.83" stroke="#326e8f" stroke-width="1" stroke-opacity="0.22"/><line x1="637.16" y1="110.84" x2="645.36" y2="116.09" stroke="#326e8f" stroke-width="1" stroke-opacity="0.22"/><line x1="637.16" y1="110.84" x2="698.74" y2="99.55" stroke="#326e8f" stroke-width="1" stroke-opacity="0.22"/><line x1="577.32" y1="122.39" x2="574.90" y2="147.98" stroke="#326e8f" stroke-width="1" stroke-opacity="0.22"/><line x1="577.32" y1="122.39" x2="648.22" y2="134.83" stroke="#326e8f" stroke-width="1" stroke-opacity="0.22"/><line x1="577.32" y1="122.39" x2="645.36" y2="116.09" stroke="#326e8f" stroke-width="1" stroke-opacity="0.22"/>
  <polyline points="463.39,44.46 512.40,55.73 485.87,75.23 557.21,89.14 603.64,94.02 637.16,110.84 577.32,122.39 599.79,141.15 563.67,157.76 636.30,171.59 657.91,188.81 564.48,195.53 546.25,213.55 458.13,222.63 447.64,212.87 512.32,197.43 540.57,181.46 605.47,166.30 574.90,147.98 648.22,134.83 645.36,116.09 698.74,99.55 683.22,85.63 626.71,70.21 677.36,53.77 628.93,42.27 644.55,44.22 571.35,55.03 544.92,62.08 528.70,79.97 488.34,92.03 402.07,101.68 403.87,119.43 317.23,128.93 312.60,147.55 241.74,161.14 201.43,174.37 182.58,163.79 88.21,168.22 60.27,169.34 38.34,150.02 36.00,152.70 125.13,161.48 183.41,145.81 258.12,144.78 304.32,127.13 396.00,125.86 431.78,107.91 529.30,107.24 593.67,93.56 640.59,82.27 724.00,92.70 682.88,110.06 691.40,115.18 660.23,134.24 591.85,145.47 587.45,165.12 495.86,173.08 475.27,191.51 398.03,203.64 359.02,200.07 299.50,212.80 340.61,224.00 316.55,221.10 271.22,204.28 275.28,186.58 295.23,171.61 296.87,152.10 358.74,139.80 345.02,120.16 409.49,106.74 394.93,87.69 463.03,74.50 432.59,63.94 457.09,46.85 394.26,40.52 309.39,36.00 342.62,40.13 350.98,56.93 383.35,61.26 326.42,69.80 327.99,89.68 385.74,101.04 352.98,119.88 391.39,136.86 356.97,155.33 407.38,172.43 381.11,191.71 412.90,205.23" fill="none" stroke="#7d8f86" stroke-width="2.6"/>
  <circle cx="463.39" cy="44.46" r="3" fill="#22302d"/><circle cx="512.40" cy="55.73" r="3" fill="#22302d"/><circle cx="485.87" cy="75.23" r="3" fill="#22302d"/><circle cx="557.21" cy="89.14" r="3" fill="#22302d"/><circle cx="603.64" cy="94.02" r="3" fill="#22302d"/><circle cx="637.16" cy="110.84" r="3" fill="#22302d"/><circle cx="577.32" cy="122.39" r="3" fill="#22302d"/><circle cx="599.79" cy="141.15" r="3" fill="#22302d"/><circle cx="563.67" cy="157.76" r="3" fill="#22302d"/><circle cx="636.30" cy="171.59" r="3" fill="#22302d"/><circle cx="657.91" cy="188.81" r="3" fill="#22302d"/><circle cx="564.48" cy="195.53" r="3" fill="#22302d"/><circle cx="546.25" cy="213.55" r="3" fill="#22302d"/><circle cx="458.13" cy="222.63" r="3" fill="#22302d"/><circle cx="447.64" cy="212.87" r="3" fill="#22302d"/><circle cx="512.32" cy="197.43" r="3" fill="#22302d"/><circle cx="540.57" cy="181.46" r="3" fill="#22302d"/><circle cx="605.47" cy="166.30" r="3" fill="#22302d"/><circle cx="574.90" cy="147.98" r="3" fill="#22302d"/><circle cx="648.22" cy="134.83" r="3" fill="#22302d"/><circle cx="645.36" cy="116.09" r="3" fill="#22302d"/><circle cx="698.74" cy="99.55" r="3" fill="#22302d"/><circle cx="683.22" cy="85.63" r="3" fill="#22302d"/><circle cx="626.71" cy="70.21" r="3" fill="#22302d"/><circle cx="677.36" cy="53.77" r="3" fill="#22302d"/><circle cx="628.93" cy="42.27" r="3" fill="#22302d"/><circle cx="644.55" cy="44.22" r="3" fill="#22302d"/><circle cx="571.35" cy="55.03" r="3" fill="#22302d"/><circle cx="544.92" cy="62.08" r="3" fill="#22302d"/><circle cx="528.70" cy="79.97" r="3" fill="#22302d"/><circle cx="488.34" cy="92.03" r="3" fill="#22302d"/><circle cx="402.07" cy="101.68" r="3" fill="#22302d"/><circle cx="403.87" cy="119.43" r="3" fill="#22302d"/><circle cx="317.23" cy="128.93" r="3" fill="#22302d"/><circle cx="312.60" cy="147.55" r="3" fill="#22302d"/><circle cx="241.74" cy="161.14" r="3" fill="#22302d"/><circle cx="201.43" cy="174.37" r="3" fill="#22302d"/><circle cx="182.58" cy="163.79" r="3" fill="#22302d"/><circle cx="88.21" cy="168.22" r="3" fill="#22302d"/><circle cx="60.27" cy="169.34" r="3" fill="#22302d"/><circle cx="38.34" cy="150.02" r="3" fill="#22302d"/><circle cx="36.00" cy="152.70" r="3" fill="#22302d"/><circle cx="125.13" cy="161.48" r="3" fill="#22302d"/><circle cx="183.41" cy="145.81" r="3" fill="#22302d"/><circle cx="258.12" cy="144.78" r="3" fill="#22302d"/><circle cx="304.32" cy="127.13" r="3" fill="#22302d"/><circle cx="396.00" cy="125.86" r="3" fill="#22302d"/><circle cx="431.78" cy="107.91" r="3" fill="#22302d"/><circle cx="529.30" cy="107.24" r="3" fill="#22302d"/><circle cx="593.67" cy="93.56" r="3" fill="#22302d"/><circle cx="640.59" cy="82.27" r="3" fill="#22302d"/><circle cx="724.00" cy="92.70" r="3" fill="#22302d"/><circle cx="682.88" cy="110.06" r="3" fill="#22302d"/><circle cx="691.40" cy="115.18" r="3" fill="#22302d"/><circle cx="660.23" cy="134.24" r="3" fill="#22302d"/><circle cx="591.85" cy="145.47" r="3" fill="#22302d"/><circle cx="587.45" cy="165.12" r="3" fill="#22302d"/><circle cx="495.86" cy="173.08" r="3" fill="#22302d"/><circle cx="475.27" cy="191.51" r="3" fill="#22302d"/><circle cx="398.03" cy="203.64" r="3" fill="#22302d"/><circle cx="359.02" cy="200.07" r="3" fill="#22302d"/><circle cx="299.50" cy="212.80" r="3" fill="#22302d"/><circle cx="340.61" cy="224.00" r="3" fill="#22302d"/><circle cx="316.55" cy="221.10" r="3" fill="#22302d"/><circle cx="271.22" cy="204.28" r="3" fill="#22302d"/><circle cx="275.28" cy="186.58" r="3" fill="#22302d"/><circle cx="295.23" cy="171.61" r="3" fill="#22302d"/><circle cx="296.87" cy="152.10" r="3" fill="#22302d"/><circle cx="358.74" cy="139.80" r="3" fill="#22302d"/><circle cx="345.02" cy="120.16" r="3" fill="#22302d"/><circle cx="409.49" cy="106.74" r="3" fill="#22302d"/><circle cx="394.93" cy="87.69" r="3" fill="#22302d"/><circle cx="463.03" cy="74.50" r="3" fill="#22302d"/><circle cx="432.59" cy="63.94" r="3" fill="#22302d"/><circle cx="457.09" cy="46.85" r="3" fill="#22302d"/><circle cx="394.26" cy="40.52" r="3" fill="#22302d"/><circle cx="309.39" cy="36.00" r="3" fill="#22302d"/><circle cx="342.62" cy="40.13" r="3" fill="#22302d"/><circle cx="350.98" cy="56.93" r="3" fill="#22302d"/><circle cx="383.35" cy="61.26" r="3" fill="#22302d"/><circle cx="326.42" cy="69.80" r="3" fill="#22302d"/><circle cx="327.99" cy="89.68" r="3" fill="#22302d"/><circle cx="385.74" cy="101.04" r="3" fill="#22302d"/><circle cx="352.98" cy="119.88" r="3" fill="#22302d"/><circle cx="391.39" cy="136.86" r="3" fill="#22302d"/><circle cx="356.97" cy="155.33" r="3" fill="#22302d"/><circle cx="407.38" cy="172.43" r="3" fill="#22302d"/><circle cx="381.11" cy="191.71" r="3" fill="#22302d"/><circle cx="412.90" cy="205.23" r="3" fill="#22302d"/>
  <text x="34" y="248" font-family="Arial, sans-serif" font-size="11" fill="#58635e">row: coord_003_pdb_1TEN_A_tenascin_fn3 | projected coordinates, not full atomic folding</text>
</svg>
