<svg xmlns="http://www.w3.org/2000/svg" width="420" height="420" viewBox="0 0 420 420" role="img" aria-label="Sequence-only predicted contact candidates">
  <rect width="420" height="420" fill="#f8faf7"/>
  <text x="34" y="22" font-family="Arial, sans-serif" font-size="14" fill="#22302d">Sequence-only predicted contact candidates</text>
  <line x1="34" y1="34" x2="34" y2="386" stroke="#9aa69f"/>
  <line x1="34" y1="386" x2="386" y2="386" stroke="#9aa69f"/>
  <line x1="34" y1="34" x2="386" y2="386" stroke="#cfd8d2" stroke-dasharray="4 4"/>
  <circle cx="57.73" cy="73.55" r="2.2" fill="#c44b3a"/><circle cx="73.55" cy="57.73" r="2.2" fill="#c44b3a" opacity="0.58"/><circle cx="61.69" cy="172.43" r="2.2" fill="#c44b3a"/><circle cx="172.43" cy="61.69" r="2.2" fill="#c44b3a" opacity="0.58"/><circle cx="61.69" cy="298.99" r="2.2" fill="#c44b3a"/><circle cx="298.99" cy="61.69" r="2.2" fill="#c44b3a" opacity="0.58"/><circle cx="61.69" cy="378.09" r="2.2" fill="#c44b3a"/><circle cx="378.09" cy="61.69" r="2.2" fill="#c44b3a" opacity="0.58"/><circle cx="69.60" cy="172.43" r="2.2" fill="#c44b3a"/><circle cx="172.43" cy="69.60" r="2.2" fill="#c44b3a" opacity="0.58"/><circle cx="69.60" cy="298.99" r="2.2" fill="#c44b3a"/><circle cx="298.99" cy="69.60" r="2.2" fill="#c44b3a" opacity="0.58"/><circle cx="69.60" cy="378.09" r="2.2" fill="#c44b3a"/><circle cx="378.09" cy="69.60" r="2.2" fill="#c44b3a" opacity="0.58"/><circle cx="81.46" cy="255.48" r="2.2" fill="#c44b3a"/><circle cx="255.48" cy="81.46" r="2.2" fill="#c44b3a" opacity="0.58"/><circle cx="109.15" cy="172.43" r="2.2" fill="#c44b3a"/><circle cx="172.43" cy="109.15" r="2.2" fill="#c44b3a" opacity="0.58"/><circle cx="109.15" cy="298.99" r="2.2" fill="#c44b3a"/><circle cx="298.99" cy="109.15" r="2.2" fill="#c44b3a" opacity="0.58"/><circle cx="109.15" cy="378.09" r="2.2" fill="#c44b3a"/><circle cx="378.09" cy="109.15" r="2.2" fill="#c44b3a" opacity="0.58"/><circle cx="117.06" cy="180.34" r="2.2" fill="#c44b3a"/><circle cx="180.34" cy="117.06" r="2.2" fill="#c44b3a" opacity="0.58"/><circle cx="117.06" cy="219.89" r="2.2" fill="#c44b3a"/><circle cx="219.89" cy="117.06" r="2.2" fill="#c44b3a" opacity="0.58"/><circle cx="117.06" cy="255.48" r="2.2" fill="#c44b3a"/><circle cx="255.48" cy="117.06" r="2.2" fill="#c44b3a" opacity="0.58"/><circle cx="117.06" cy="298.99" r="2.2" fill="#c44b3a"/><circle cx="298.99" cy="117.06" r="2.2" fill="#c44b3a" opacity="0.58"/><circle cx="117.06" cy="306.90" r="2.2" fill="#c44b3a"/><circle cx="306.90" cy="117.06" r="2.2" fill="#c44b3a" opacity="0.58"/><circle cx="117.06" cy="378.09" r="2.2" fill="#c44b3a"/><circle cx="378.09" cy="117.06" r="2.2" fill="#c44b3a" opacity="0.58"/><circle cx="121.01" cy="192.20" r="2.2" fill="#c44b3a"/><circle cx="192.20" cy="121.01" r="2.2" fill="#c44b3a" opacity="0.58"/><circle cx="121.01" cy="255.48" r="2.2" fill="#c44b3a"/><circle cx="255.48" cy="121.01" r="2.2" fill="#c44b3a" opacity="0.58"/><circle cx="121.01" cy="263.39" r="2.2" fill="#c44b3a"/><circle cx="263.39" cy="121.01" r="2.2" fill="#c44b3a" opacity="0.58"/><circle cx="121.01" cy="298.99" r="2.2" fill="#c44b3a"/><circle cx="298.99" cy="121.01" r="2.2" fill="#c44b3a" opacity="0.58"/><circle cx="121.01" cy="318.76" r="2.2" fill="#c44b3a"/><circle cx="318.76" cy="121.01" r="2.2" fill="#c44b3a" opacity="0.58"/><circle cx="121.01" cy="378.09" r="2.2" fill="#c44b3a"/><circle cx="378.09" cy="121.01" r="2.2" fill="#c44b3a" opacity="0.58"/><circle cx="124.97" cy="140.79" r="2.2" fill="#c44b3a"/><circle cx="140.79" cy="124.97" r="2.2" fill="#c44b3a" opacity="0.58"/><circle cx="144.74" cy="255.48" r="2.2" fill="#c44b3a"/><circle cx="255.48" cy="144.74" r="2.2" fill="#c44b3a" opacity="0.58"/><circle cx="156.61" cy="298.99" r="2.2" fill="#c44b3a"/><circle cx="298.99" cy="156.61" r="2.2" fill="#c44b3a" opacity="0.58"/><circle cx="156.61" cy="378.09" r="2.2" fill="#c44b3a"/><circle cx="378.09" cy="156.61" r="2.2" fill="#c44b3a" opacity="0.58"/><circle cx="172.43" cy="255.48" r="2.2" fill="#c44b3a"/><circle cx="255.48" cy="172.43" r="2.2" fill="#c44b3a" opacity="0.58"/><circle cx="172.43" cy="298.99" r="2.2" fill="#c44b3a"/><circle cx="298.99" cy="172.43" r="2.2" fill="#c44b3a" opacity="0.58"/><circle cx="172.43" cy="306.90" r="2.2" fill="#c44b3a"/><circle cx="306.90" cy="172.43" r="2.2" fill="#c44b3a" opacity="0.58"/><circle cx="172.43" cy="378.09" r="2.2" fill="#c44b3a"/><circle cx="378.09" cy="172.43" r="2.2" fill="#c44b3a" opacity="0.58"/><circle cx="180.34" cy="298.99" r="2.2" fill="#c44b3a"/><circle cx="298.99" cy="180.34" r="2.2" fill="#c44b3a" opacity="0.58"/><circle cx="180.34" cy="378.09" r="2.2" fill="#c44b3a"/><circle cx="378.09" cy="180.34" r="2.2" fill="#c44b3a" opacity="0.58"/><circle cx="192.20" cy="255.48" r="2.2" fill="#c44b3a"/><circle cx="255.48" cy="192.20" r="2.2" fill="#c44b3a" opacity="0.58"/><circle cx="219.89" cy="298.99" r="2.2" fill="#c44b3a"/><circle cx="298.99" cy="219.89" r="2.2" fill="#c44b3a" opacity="0.58"/><circle cx="219.89" cy="378.09" r="2.2" fill="#c44b3a"/><circle cx="378.09" cy="219.89" r="2.2" fill="#c44b3a" opacity="0.58"/><circle cx="227.80" cy="243.62" r="2.2" fill="#c44b3a"/><circle cx="243.62" cy="227.80" r="2.2" fill="#c44b3a" opacity="0.58"/><circle cx="235.71" cy="251.53" r="2.2" fill="#c44b3a"/><circle cx="251.53" cy="235.71" r="2.2" fill="#c44b3a" opacity="0.58"/><circle cx="255.48" cy="318.76" r="2.2" fill="#c44b3a"/><circle cx="318.76" cy="255.48" r="2.2" fill="#c44b3a" opacity="0.58"/><circle cx="255.48" cy="378.09" r="2.2" fill="#c44b3a"/><circle cx="378.09" cy="255.48" r="2.2" fill="#c44b3a" opacity="0.58"/><circle cx="279.21" cy="295.03" r="2.2" fill="#c44b3a"/><circle cx="295.03" cy="279.21" r="2.2" fill="#c44b3a" opacity="0.58"/><circle cx="298.99" cy="378.09" r="2.2" fill="#c44b3a"/><circle cx="378.09" cy="298.99" r="2.2" fill="#c44b3a" opacity="0.58"/><circle cx="306.90" cy="378.09" r="2.2" fill="#c44b3a"/><circle cx="378.09" cy="306.90" r="2.2" fill="#c44b3a" opacity="0.58"/><circle cx="314.81" cy="330.63" r="2.2" fill="#c44b3a"/><circle cx="330.63" cy="314.81" r="2.2" fill="#c44b3a" opacity="0.58"/><circle cx="326.67" cy="342.49" r="2.2" fill="#c44b3a"/><circle cx="342.49" cy="326.67" r="2.2" fill="#c44b3a" opacity="0.58"/>
  <text x="34" y="412" font-family="Arial, sans-serif" font-size="11" fill="#58635e">row: coord_003_pdb_1TEN_A_tenascin_fn3 | contacts: 45</text>
</svg>
