<svg xmlns="http://www.w3.org/2000/svg" width="760" height="260" viewBox="0 0 760 260" role="img" aria-label="Coarse-grain final collapse">
  <rect width="760" height="260" fill="#f8faf7"/>
  <text x="34" y="24" font-family="Arial, sans-serif" font-size="15" fill="#22302d">Coarse-grain final collapse</text>
<line x1="44.46" y1="120.45" x2="80.51" y2="126.99" stroke="#25636a" stroke-opacity="0.22" stroke-width="1.2"/><line x1="64.94" y1="124.21" x2="101.00" y2="130.39" stroke="#25636a" stroke-opacity="0.22" stroke-width="1.2"/><line x1="126.74" y1="128.07" x2="302.87" y2="128.18" stroke="#25636a" stroke-opacity="0.22" stroke-width="1.2"/><line x1="126.74" y1="128.07" x2="345.87" y2="119.71" stroke="#25636a" stroke-opacity="0.22" stroke-width="1.2"/><line x1="216.01" y1="127.37" x2="287.00" y2="133.72" stroke="#25636a" stroke-opacity="0.22" stroke-width="1.2"/><line x1="216.01" y1="127.37" x2="286.89" y2="132.45" stroke="#25636a" stroke-opacity="0.22" stroke-width="1.2"/><line x1="216.01" y1="127.37" x2="307.58" y2="130.91" stroke="#25636a" stroke-opacity="0.22" stroke-width="1.2"/><line x1="216.01" y1="127.37" x2="302.87" y2="128.18" stroke="#25636a" stroke-opacity="0.22" stroke-width="1.2"/><line x1="216.01" y1="127.37" x2="345.87" y2="119.71" stroke="#25636a" stroke-opacity="0.22" stroke-width="1.2"/><line x1="216.01" y1="127.37" x2="462.34" y2="107.40" stroke="#25636a" stroke-opacity="0.22" stroke-width="1.2"/><line x1="216.01" y1="127.37" x2="542.13" y2="101.94" stroke="#25636a" stroke-opacity="0.22" stroke-width="1.2"/><line x1="259.12" y1="125.59" x2="286.89" y2="132.45" stroke="#25636a" stroke-opacity="0.22" stroke-width="1.2"/><line x1="259.12" y1="125.59" x2="302.87" y2="128.18" stroke="#25636a" stroke-opacity="0.22" stroke-width="1.2"/><line x1="259.12" y1="125.59" x2="337.62" y2="124.58" stroke="#25636a" stroke-opacity="0.22" stroke-width="1.2"/><line x1="259.12" y1="125.59" x2="345.87" y2="119.71" stroke="#25636a" stroke-opacity="0.22" stroke-width="1.2"/><line x1="259.12" y1="125.59" x2="460.38" y2="106.94" stroke="#25636a" stroke-opacity="0.22" stroke-width="1.2"/><line x1="259.12" y1="125.59" x2="462.34" y2="107.40" stroke="#25636a" stroke-opacity="0.22" stroke-width="1.2"/><line x1="259.12" y1="125.59" x2="500.16" y2="105.41" stroke="#25636a" stroke-opacity="0.22" stroke-width="1.2"/><line x1="259.12" y1="125.59" x2="605.27" y2="115.53" stroke="#25636a" stroke-opacity="0.22" stroke-width="1.2"/><line x1="280.89" y1="130.18" x2="337.62" y2="124.58" stroke="#25636a" stroke-opacity="0.22" stroke-width="1.2"/><line x1="280.89" y1="130.18" x2="345.87" y2="119.71" stroke="#25636a" stroke-opacity="0.22" stroke-width="1.2"/><line x1="280.89" y1="130.18" x2="460.38" y2="106.94" stroke="#25636a" stroke-opacity="0.22" stroke-width="1.2"/><line x1="280.89" y1="130.18" x2="462.34" y2="107.40" stroke="#25636a" stroke-opacity="0.22" stroke-width="1.2"/><line x1="280.89" y1="130.18" x2="500.16" y2="105.41" stroke="#25636a" stroke-opacity="0.22" stroke-width="1.2"/><line x1="280.89" y1="130.18" x2="605.27" y2="115.53" stroke="#25636a" stroke-opacity="0.22" stroke-width="1.2"/><line x1="289.95" y1="131.03" x2="337.62" y2="124.58" stroke="#25636a" stroke-opacity="0.22" stroke-width="1.2"/><line x1="289.95" y1="131.03" x2="345.87" y2="119.71" stroke="#25636a" stroke-opacity="0.22" stroke-width="1.2"/><line x1="289.95" y1="131.03" x2="460.38" y2="106.94" stroke="#25636a" stroke-opacity="0.22" stroke-width="1.2"/><line x1="289.95" y1="131.03" x2="462.34" y2="107.40" stroke="#25636a" stroke-opacity="0.22" stroke-width="1.2"/><line x1="289.95" y1="131.03" x2="500.16" y2="105.41" stroke="#25636a" stroke-opacity="0.22" stroke-width="1.2"/><line x1="289.95" y1="131.03" x2="605.27" y2="115.53" stroke="#25636a" stroke-opacity="0.22" stroke-width="1.2"/><line x1="224.40" y1="138.68" x2="345.87" y2="119.71" stroke="#25636a" stroke-opacity="0.22" stroke-width="1.2"/><line x1="228.82" y1="139.65" x2="264.88" y2="137.47" stroke="#25636a" stroke-opacity="0.22" stroke-width="1.2"/>
  <polyline points="44.46,120.45 52.24,121.90 64.94,124.21 72.73,125.63 80.51,126.99 126.74,128.07 101.00,130.39 216.01,127.37 259.12,125.59 134.18,135.11 144.42,136.29 154.67,137.32 164.91,138.19 175.15,138.90 280.89,130.18 195.64,139.80 289.95,131.03 224.40,138.68 228.82,139.65 236.61,139.44 246.85,138.90 257.09,138.19 264.88,137.47 277.58,136.29 287.82,135.11 287.00,133.72 286.89,132.45 307.58,130.91 328.79,129.16 302.87,128.18 349.27,125.63 359.52,123.79 337.62,124.58 380.00,120.00 390.24,118.10 400.48,116.21 410.73,114.37 345.87,119.71 431.21,110.84 441.45,109.19 451.70,107.64 461.94,106.20 472.18,104.89 482.42,103.71 492.67,102.68 502.91,101.81 460.38,106.94 523.39,100.56 462.34,107.40 543.88,100.02 500.16,105.41 542.13,101.94 574.61,100.56 584.85,101.10 595.09,101.81 605.33,102.68 615.58,103.71 625.82,104.89 636.06,106.20 646.30,107.64 656.55,109.19 666.79,110.84 605.27,115.53 687.27,114.37 697.52,116.21 707.76,118.10 718.00,120.00" fill="none" stroke="#7d8f86" stroke-width="3"/>
  <circle cx="44.46" cy="120.45" r="3.2" fill="#22302d"/><circle cx="52.24" cy="121.90" r="3.2" fill="#22302d"/><circle cx="64.94" cy="124.21" r="3.2" fill="#22302d"/><circle cx="72.73" cy="125.63" r="3.2" fill="#22302d"/><circle cx="80.51" cy="126.99" r="3.2" fill="#22302d"/><circle cx="126.74" cy="128.07" r="3.2" fill="#22302d"/><circle cx="101.00" cy="130.39" r="3.2" fill="#22302d"/><circle cx="216.01" cy="127.37" r="3.2" fill="#22302d"/><circle cx="259.12" cy="125.59" r="3.2" fill="#22302d"/><circle cx="134.18" cy="135.11" r="3.2" fill="#22302d"/><circle cx="144.42" cy="136.29" r="3.2" fill="#22302d"/><circle cx="154.67" cy="137.32" r="3.2" fill="#22302d"/><circle cx="164.91" cy="138.19" r="3.2" fill="#22302d"/><circle cx="175.15" cy="138.90" r="3.2" fill="#22302d"/><circle cx="280.89" cy="130.18" r="3.2" fill="#22302d"/><circle cx="195.64" cy="139.80" r="3.2" fill="#22302d"/><circle cx="289.95" cy="131.03" r="3.2" fill="#22302d"/><circle cx="224.40" cy="138.68" r="3.2" fill="#22302d"/><circle cx="228.82" cy="139.65" r="3.2" fill="#22302d"/><circle cx="236.61" cy="139.44" r="3.2" fill="#22302d"/><circle cx="246.85" cy="138.90" r="3.2" fill="#22302d"/><circle cx="257.09" cy="138.19" r="3.2" fill="#22302d"/><circle cx="264.88" cy="137.47" r="3.2" fill="#22302d"/><circle cx="277.58" cy="136.29" r="3.2" fill="#22302d"/><circle cx="287.82" cy="135.11" r="3.2" fill="#22302d"/><circle cx="287.00" cy="133.72" r="3.2" fill="#22302d"/><circle cx="286.89" cy="132.45" r="3.2" fill="#22302d"/><circle cx="307.58" cy="130.91" r="3.2" fill="#22302d"/><circle cx="328.79" cy="129.16" r="3.2" fill="#22302d"/><circle cx="302.87" cy="128.18" r="3.2" fill="#22302d"/><circle cx="349.27" cy="125.63" r="3.2" fill="#22302d"/><circle cx="359.52" cy="123.79" r="3.2" fill="#22302d"/><circle cx="337.62" cy="124.58" r="3.2" fill="#22302d"/><circle cx="380.00" cy="120.00" r="3.2" fill="#22302d"/><circle cx="390.24" cy="118.10" r="3.2" fill="#22302d"/><circle cx="400.48" cy="116.21" r="3.2" fill="#22302d"/><circle cx="410.73" cy="114.37" r="3.2" fill="#22302d"/><circle cx="345.87" cy="119.71" r="3.2" fill="#22302d"/><circle cx="431.21" cy="110.84" r="3.2" fill="#22302d"/><circle cx="441.45" cy="109.19" r="3.2" fill="#22302d"/><circle cx="451.70" cy="107.64" r="3.2" fill="#22302d"/><circle cx="461.94" cy="106.20" r="3.2" fill="#22302d"/><circle cx="472.18" cy="104.89" r="3.2" fill="#22302d"/><circle cx="482.42" cy="103.71" r="3.2" fill="#22302d"/><circle cx="492.67" cy="102.68" r="3.2" fill="#22302d"/><circle cx="502.91" cy="101.81" r="3.2" fill="#22302d"/><circle cx="460.38" cy="106.94" r="3.2" fill="#22302d"/><circle cx="523.39" cy="100.56" r="3.2" fill="#22302d"/><circle cx="462.34" cy="107.40" r="3.2" fill="#22302d"/><circle cx="543.88" cy="100.02" r="3.2" fill="#22302d"/><circle cx="500.16" cy="105.41" r="3.2" fill="#22302d"/><circle cx="542.13" cy="101.94" r="3.2" fill="#22302d"/><circle cx="574.61" cy="100.56" r="3.2" fill="#22302d"/><circle cx="584.85" cy="101.10" r="3.2" fill="#22302d"/><circle cx="595.09" cy="101.81" r="3.2" fill="#22302d"/><circle cx="605.33" cy="102.68" r="3.2" fill="#22302d"/><circle cx="615.58" cy="103.71" r="3.2" fill="#22302d"/><circle cx="625.82" cy="104.89" r="3.2" fill="#22302d"/><circle cx="636.06" cy="106.20" r="3.2" fill="#22302d"/><circle cx="646.30" cy="107.64" r="3.2" fill="#22302d"/><circle cx="656.55" cy="109.19" r="3.2" fill="#22302d"/><circle cx="666.79" cy="110.84" r="3.2" fill="#22302d"/><circle cx="605.27" cy="115.53" r="3.2" fill="#22302d"/><circle cx="687.27" cy="114.37" r="3.2" fill="#22302d"/><circle cx="697.52" cy="116.21" r="3.2" fill="#22302d"/><circle cx="707.76" cy="118.10" r="3.2" fill="#22302d"/><circle cx="718.00" cy="120.00" r="3.2" fill="#22302d"/>
  <text x="34" y="248" font-family="Arial, sans-serif" font-size="11" fill="#58635e">row: visual_004_beta_csp | coarse beads, not atomic structure</text>
</svg>
