<svg xmlns="http://www.w3.org/2000/svg" width="420" height="420" viewBox="0 0 420 420" role="img" aria-label="Sequence-only predicted contact candidates">
  <rect width="420" height="420" fill="#f8faf7"/>
  <text x="34" y="22" font-family="Arial, sans-serif" font-size="14" fill="#22302d">Sequence-only predicted contact candidates</text>
  <line x1="34" y1="34" x2="34" y2="386" stroke="#9aa69f"/>
  <line x1="34" y1="386" x2="386" y2="386" stroke="#9aa69f"/>
  <line x1="34" y1="34" x2="386" y2="386" stroke="#cfd8d2" stroke-dasharray="4 4"/>
  <circle cx="34.00" cy="55.33" r="2.2" fill="#c44b3a"/><circle cx="55.33" cy="34.00" r="2.2" fill="#c44b3a" opacity="0.58"/><circle cx="44.67" cy="66.00" r="2.2" fill="#c44b3a"/><circle cx="66.00" cy="44.67" r="2.2" fill="#c44b3a" opacity="0.58"/><circle cx="60.67" cy="188.67" r="2.2" fill="#c44b3a"/><circle cx="188.67" cy="60.67" r="2.2" fill="#c44b3a" opacity="0.58"/><circle cx="60.67" cy="231.33" r="2.2" fill="#c44b3a"/><circle cx="231.33" cy="60.67" r="2.2" fill="#c44b3a" opacity="0.58"/><circle cx="71.33" cy="167.33" r="2.2" fill="#c44b3a"/><circle cx="167.33" cy="71.33" r="2.2" fill="#c44b3a" opacity="0.58"/><circle cx="71.33" cy="172.67" r="2.2" fill="#c44b3a"/><circle cx="172.67" cy="71.33" r="2.2" fill="#c44b3a" opacity="0.58"/><circle cx="71.33" cy="178.00" r="2.2" fill="#c44b3a"/><circle cx="178.00" cy="71.33" r="2.2" fill="#c44b3a" opacity="0.58"/><circle cx="71.33" cy="188.67" r="2.2" fill="#c44b3a"/><circle cx="188.67" cy="71.33" r="2.2" fill="#c44b3a" opacity="0.58"/><circle cx="71.33" cy="231.33" r="2.2" fill="#c44b3a"/><circle cx="231.33" cy="71.33" r="2.2" fill="#c44b3a" opacity="0.58"/><circle cx="71.33" cy="290.00" r="2.2" fill="#c44b3a"/><circle cx="290.00" cy="71.33" r="2.2" fill="#c44b3a" opacity="0.58"/><circle cx="71.33" cy="306.00" r="2.2" fill="#c44b3a"/><circle cx="306.00" cy="71.33" r="2.2" fill="#c44b3a" opacity="0.58"/><circle cx="76.67" cy="172.67" r="2.2" fill="#c44b3a"/><circle cx="172.67" cy="76.67" r="2.2" fill="#c44b3a" opacity="0.58"/><circle cx="76.67" cy="188.67" r="2.2" fill="#c44b3a"/><circle cx="188.67" cy="76.67" r="2.2" fill="#c44b3a" opacity="0.58"/><circle cx="76.67" cy="204.67" r="2.2" fill="#c44b3a"/><circle cx="204.67" cy="76.67" r="2.2" fill="#c44b3a" opacity="0.58"/><circle cx="76.67" cy="231.33" r="2.2" fill="#c44b3a"/><circle cx="231.33" cy="76.67" r="2.2" fill="#c44b3a" opacity="0.58"/><circle cx="76.67" cy="279.33" r="2.2" fill="#c44b3a"/><circle cx="279.33" cy="76.67" r="2.2" fill="#c44b3a" opacity="0.58"/><circle cx="76.67" cy="290.00" r="2.2" fill="#c44b3a"/><circle cx="290.00" cy="76.67" r="2.2" fill="#c44b3a" opacity="0.58"/><circle cx="76.67" cy="300.67" r="2.2" fill="#c44b3a"/><circle cx="300.67" cy="76.67" r="2.2" fill="#c44b3a" opacity="0.58"/><circle cx="76.67" cy="364.67" r="2.2" fill="#c44b3a"/><circle cx="364.67" cy="76.67" r="2.2" fill="#c44b3a" opacity="0.58"/><circle cx="108.67" cy="204.67" r="2.2" fill="#c44b3a"/><circle cx="204.67" cy="108.67" r="2.2" fill="#c44b3a" opacity="0.58"/><circle cx="108.67" cy="231.33" r="2.2" fill="#c44b3a"/><circle cx="231.33" cy="108.67" r="2.2" fill="#c44b3a" opacity="0.58"/><circle cx="108.67" cy="279.33" r="2.2" fill="#c44b3a"/><circle cx="279.33" cy="108.67" r="2.2" fill="#c44b3a" opacity="0.58"/><circle cx="108.67" cy="290.00" r="2.2" fill="#c44b3a"/><circle cx="290.00" cy="108.67" r="2.2" fill="#c44b3a" opacity="0.58"/><circle cx="108.67" cy="300.67" r="2.2" fill="#c44b3a"/><circle cx="300.67" cy="108.67" r="2.2" fill="#c44b3a" opacity="0.58"/><circle cx="108.67" cy="364.67" r="2.2" fill="#c44b3a"/><circle cx="364.67" cy="108.67" r="2.2" fill="#c44b3a" opacity="0.58"/><circle cx="119.33" cy="204.67" r="2.2" fill="#c44b3a"/><circle cx="204.67" cy="119.33" r="2.2" fill="#c44b3a" opacity="0.58"/><circle cx="119.33" cy="231.33" r="2.2" fill="#c44b3a"/><circle cx="231.33" cy="119.33" r="2.2" fill="#c44b3a" opacity="0.58"/><circle cx="119.33" cy="279.33" r="2.2" fill="#c44b3a"/><circle cx="279.33" cy="119.33" r="2.2" fill="#c44b3a" opacity="0.58"/><circle cx="119.33" cy="290.00" r="2.2" fill="#c44b3a"/><circle cx="290.00" cy="119.33" r="2.2" fill="#c44b3a" opacity="0.58"/><circle cx="119.33" cy="300.67" r="2.2" fill="#c44b3a"/><circle cx="300.67" cy="119.33" r="2.2" fill="#c44b3a" opacity="0.58"/><circle cx="119.33" cy="364.67" r="2.2" fill="#c44b3a"/><circle cx="364.67" cy="119.33" r="2.2" fill="#c44b3a" opacity="0.58"/><circle cx="124.67" cy="231.33" r="2.2" fill="#c44b3a"/><circle cx="231.33" cy="124.67" r="2.2" fill="#c44b3a" opacity="0.58"/><circle cx="130.00" cy="151.33" r="2.2" fill="#c44b3a"/><circle cx="151.33" cy="130.00" r="2.2" fill="#c44b3a" opacity="0.58"/>
  <text x="34" y="412" font-family="Arial, sans-serif" font-size="11" fill="#58635e">row: visual_004_beta_csp | contacts: 33</text>
</svg>
