<svg xmlns="http://www.w3.org/2000/svg" width="760" height="260" viewBox="0 0 760 260" role="img" aria-label="Coarse-grain final collapse">
  <rect width="760" height="260" fill="#f8faf7"/>
  <text x="34" y="24" font-family="Arial, sans-serif" font-size="15" fill="#22302d">Coarse-grain final collapse</text>
<line x1="130.78" y1="129.46" x2="158.09" y2="134.88" stroke="#25636a" stroke-opacity="0.22" stroke-width="1.2"/><line x1="130.78" y1="129.46" x2="169.44" y2="136.08" stroke="#25636a" stroke-opacity="0.22" stroke-width="1.2"/><line x1="130.78" y1="129.46" x2="154.76" y2="136.72" stroke="#25636a" stroke-opacity="0.22" stroke-width="1.2"/><line x1="130.78" y1="129.46" x2="212.96" y2="134.32" stroke="#25636a" stroke-opacity="0.22" stroke-width="1.2"/><line x1="130.78" y1="129.46" x2="220.59" y2="136.11" stroke="#25636a" stroke-opacity="0.22" stroke-width="1.2"/><line x1="130.78" y1="129.46" x2="202.72" y2="138.35" stroke="#25636a" stroke-opacity="0.22" stroke-width="1.2"/><line x1="130.78" y1="129.46" x2="298.12" y2="126.66" stroke="#25636a" stroke-opacity="0.22" stroke-width="1.2"/><line x1="130.78" y1="129.46" x2="243.05" y2="135.73" stroke="#25636a" stroke-opacity="0.22" stroke-width="1.2"/><line x1="130.78" y1="129.46" x2="272.38" y2="132.74" stroke="#25636a" stroke-opacity="0.22" stroke-width="1.2"/><line x1="130.78" y1="129.46" x2="348.18" y2="121.61" stroke="#25636a" stroke-opacity="0.22" stroke-width="1.2"/><line x1="75.00" y1="124.82" x2="212.96" y2="134.32" stroke="#25636a" stroke-opacity="0.22" stroke-width="1.2"/><line x1="75.00" y1="124.82" x2="298.12" y2="126.66" stroke="#25636a" stroke-opacity="0.22" stroke-width="1.2"/><line x1="154.77" y1="130.94" x2="158.09" y2="134.88" stroke="#25636a" stroke-opacity="0.22" stroke-width="1.2"/><line x1="154.77" y1="130.94" x2="169.44" y2="136.08" stroke="#25636a" stroke-opacity="0.22" stroke-width="1.2"/><line x1="154.77" y1="130.94" x2="154.76" y2="136.72" stroke="#25636a" stroke-opacity="0.22" stroke-width="1.2"/><line x1="154.77" y1="130.94" x2="212.96" y2="134.32" stroke="#25636a" stroke-opacity="0.22" stroke-width="1.2"/><line x1="154.77" y1="130.94" x2="220.59" y2="136.11" stroke="#25636a" stroke-opacity="0.22" stroke-width="1.2"/><line x1="154.77" y1="130.94" x2="202.72" y2="138.35" stroke="#25636a" stroke-opacity="0.22" stroke-width="1.2"/><line x1="154.77" y1="130.94" x2="298.12" y2="126.66" stroke="#25636a" stroke-opacity="0.22" stroke-width="1.2"/><line x1="154.77" y1="130.94" x2="243.05" y2="135.73" stroke="#25636a" stroke-opacity="0.22" stroke-width="1.2"/><line x1="154.77" y1="130.94" x2="272.38" y2="132.74" stroke="#25636a" stroke-opacity="0.22" stroke-width="1.2"/><line x1="154.77" y1="130.94" x2="348.18" y2="121.61" stroke="#25636a" stroke-opacity="0.22" stroke-width="1.2"/><line x1="154.77" y1="130.94" x2="299.30" y2="130.55" stroke="#25636a" stroke-opacity="0.22" stroke-width="1.2"/><line x1="154.77" y1="130.94" x2="314.31" y2="126.92" stroke="#25636a" stroke-opacity="0.22" stroke-width="1.2"/><line x1="75.64" y1="126.15" x2="85.31" y2="127.83" stroke="#25636a" stroke-opacity="0.22" stroke-width="1.2"/><line x1="103.11" y1="130.76" x2="113.49" y2="132.32" stroke="#25636a" stroke-opacity="0.22" stroke-width="1.2"/><line x1="113.49" y1="132.32" x2="123.74" y2="133.77" stroke="#25636a" stroke-opacity="0.22" stroke-width="1.2"/><line x1="158.09" y1="134.88" x2="298.12" y2="126.66" stroke="#25636a" stroke-opacity="0.22" stroke-width="1.2"/><line x1="158.09" y1="134.88" x2="348.18" y2="121.61" stroke="#25636a" stroke-opacity="0.22" stroke-width="1.2"/><line x1="158.09" y1="134.88" x2="314.31" y2="126.92" stroke="#25636a" stroke-opacity="0.22" stroke-width="1.2"/><line x1="169.44" y1="136.08" x2="298.12" y2="126.66" stroke="#25636a" stroke-opacity="0.22" stroke-width="1.2"/><line x1="169.44" y1="136.08" x2="348.18" y2="121.61" stroke="#25636a" stroke-opacity="0.22" stroke-width="1.2"/><line x1="169.44" y1="136.08" x2="314.31" y2="126.92" stroke="#25636a" stroke-opacity="0.22" stroke-width="1.2"/><line x1="169.07" y1="138.49" x2="178.74" y2="139.10" stroke="#25636a" stroke-opacity="0.22" stroke-width="1.2"/><line x1="212.96" y1="134.32" x2="220.59" y2="136.11" stroke="#25636a" stroke-opacity="0.22" stroke-width="1.2"/><line x1="212.96" y1="134.32" x2="202.72" y2="138.35" stroke="#25636a" stroke-opacity="0.22" stroke-width="1.2"/>
  <polyline points="42.00,120.00 130.78,129.46 63.98,124.06 75.64,126.15 85.31,127.83 96.96,129.78 107.95,131.51 118.94,133.11 129.93,134.59 140.93,135.91 151.92,137.06 169.44,136.08 212.96,134.32 185.55,139.44 195.93,139.79 206.18,139.97 220.59,136.11 228.86,139.73 298.12,126.66 243.05,135.73 261.84,137.81 272.38,132.74 348.18,121.61 294.81,134.23 305.80,132.72 314.31,126.92 327.79,129.33 338.78,127.48 349.77,125.55 360.76,123.56 371.76,121.53 351.22,122.76 393.74,117.45 404.73,115.44 388.76,116.85 399.40,115.09 437.71,109.78 420.40,111.82 431.12,110.30 470.68,105.07 481.67,103.79 492.67,102.68 493.73,103.02 514.65,101.01 525.64,100.47 536.63,100.13 547.63,100.00 558.62,100.08 569.61,100.37 580.60,100.86 591.59,101.55 602.59,102.43 613.58,103.50 624.57,104.73 635.56,106.13 646.55,107.67 657.54,109.34 668.54,111.13 679.53,113.00 690.52,114.95 701.51,116.95 712.50,118.98" fill="none" stroke="#7d8f86" stroke-width="3"/>
  <circle cx="42.00" cy="120.00" r="3.2" fill="#22302d"/><circle cx="75.00" cy="124.82" r="3.2" fill="#22302d"/><circle cx="75.64" cy="126.15" r="3.2" fill="#22302d"/><circle cx="91.46" cy="128.87" r="3.2" fill="#22302d"/><circle cx="107.95" cy="131.51" r="3.2" fill="#22302d"/><circle cx="123.74" cy="133.77" r="3.2" fill="#22302d"/><circle cx="140.93" cy="135.91" r="3.2" fill="#22302d"/><circle cx="157.41" cy="137.57" r="3.2" fill="#22302d"/><circle cx="212.96" cy="134.32" r="3.2" fill="#22302d"/><circle cx="190.39" cy="139.63" r="3.2" fill="#22302d"/><circle cx="206.18" cy="139.97" r="3.2" fill="#22302d"/><circle cx="222.71" cy="139.88" r="3.2" fill="#22302d"/><circle cx="298.12" cy="126.66" r="3.2" fill="#22302d"/><circle cx="256.34" cy="138.25" r="3.2" fill="#22302d"/><circle cx="272.38" cy="132.74" r="3.2" fill="#22302d"/><circle cx="299.30" cy="130.55" r="3.2" fill="#22302d"/><circle cx="305.80" cy="132.72" r="3.2" fill="#22302d"/><circle cx="321.63" cy="130.32" r="3.2" fill="#22302d"/><circle cx="338.78" cy="127.48" r="3.2" fill="#22302d"/><circle cx="355.27" cy="124.56" r="3.2" fill="#22302d"/><circle cx="371.76" cy="121.53" r="3.2" fill="#22302d"/><circle cx="388.24" cy="118.47" r="3.2" fill="#22302d"/><circle cx="404.73" cy="115.44" r="3.2" fill="#22302d"/><circle cx="421.22" cy="112.52" r="3.2" fill="#22302d"/><circle cx="437.71" cy="109.78" r="3.2" fill="#22302d"/><circle cx="454.20" cy="107.28" r="3.2" fill="#22302d"/><circle cx="470.68" cy="105.07" r="3.2" fill="#22302d"/><circle cx="442.99" cy="109.20" r="3.2" fill="#22302d"/><circle cx="493.73" cy="103.02" r="3.2" fill="#22302d"/><circle cx="520.15" cy="100.71" r="3.2" fill="#22302d"/><circle cx="536.63" cy="100.13" r="3.2" fill="#22302d"/><circle cx="553.12" cy="100.01" r="3.2" fill="#22302d"/><circle cx="569.61" cy="100.37" r="3.2" fill="#22302d"/><circle cx="586.10" cy="101.18" r="3.2" fill="#22302d"/><circle cx="602.59" cy="102.43" r="3.2" fill="#22302d"/><circle cx="619.07" cy="104.09" r="3.2" fill="#22302d"/><circle cx="635.56" cy="106.13" r="3.2" fill="#22302d"/><circle cx="652.05" cy="108.49" r="3.2" fill="#22302d"/><circle cx="668.54" cy="111.13" r="3.2" fill="#22302d"/><circle cx="685.02" cy="113.97" r="3.2" fill="#22302d"/><circle cx="701.51" cy="116.95" r="3.2" fill="#22302d"/><circle cx="718.00" cy="120.00" r="3.2" fill="#22302d"/>
  <text x="34" y="248" font-family="Arial, sans-serif" font-size="11" fill="#58635e">row: coord_005_pdb_1TIM_A_triosephosphate_isomerase | coarse beads, not atomic structure</text>
</svg>
