<svg xmlns="http://www.w3.org/2000/svg" width="760" height="260" viewBox="0 0 760 260" role="img" aria-label="native coordinate trace">
  <rect width="760" height="260" fill="#f8faf7"/>
  <text x="34" y="24" font-family="Arial, sans-serif" font-size="15" fill="#22302d">Native C-alpha Coordinate Trace</text>
  <line x1="377.69" y1="36.32" x2="282.64" y2="47.99" stroke="#326e8f" stroke-width="1" stroke-opacity="0.22"/><line x1="377.69" y1="36.32" x2="320.36" y2="58.21" stroke="#326e8f" stroke-width="1" stroke-opacity="0.22"/><line x1="421.47" y1="44.94" x2="320.36" y2="58.21" stroke="#326e8f" stroke-width="1" stroke-opacity="0.22"/><line x1="393.07" y1="57.33" x2="282.64" y2="47.99" stroke="#326e8f" stroke-width="1" stroke-opacity="0.22"/><line x1="393.07" y1="57.33" x2="320.36" y2="58.21" stroke="#326e8f" stroke-width="1" stroke-opacity="0.22"/><line x1="393.07" y1="57.33" x2="300.41" y2="71.74" stroke="#326e8f" stroke-width="1" stroke-opacity="0.22"/><line x1="393.07" y1="57.33" x2="333.08" y2="74.53" stroke="#326e8f" stroke-width="1" stroke-opacity="0.22"/><line x1="393.07" y1="57.33" x2="387.11" y2="65.68" stroke="#326e8f" stroke-width="1" stroke-opacity="0.22"/><line x1="447.52" y1="64.07" x2="550.52" y2="63.97" stroke="#326e8f" stroke-width="1" stroke-opacity="0.22"/><line x1="447.52" y1="64.07" x2="529.39" y2="77.67" stroke="#326e8f" stroke-width="1" stroke-opacity="0.22"/><line x1="447.52" y1="64.07" x2="499.94" y2="90.34" stroke="#326e8f" stroke-width="1" stroke-opacity="0.22"/><line x1="447.52" y1="64.07" x2="333.08" y2="74.53" stroke="#326e8f" stroke-width="1" stroke-opacity="0.22"/><line x1="447.52" y1="64.07" x2="387.11" y2="65.68" stroke="#326e8f" stroke-width="1" stroke-opacity="0.22"/><line x1="458.98" y1="69.88" x2="550.52" y2="63.97" stroke="#326e8f" stroke-width="1" stroke-opacity="0.22"/><line x1="458.98" y1="69.88" x2="529.39" y2="77.67" stroke="#326e8f" stroke-width="1" stroke-opacity="0.22"/><line x1="458.98" y1="69.88" x2="499.94" y2="90.34" stroke="#326e8f" stroke-width="1" stroke-opacity="0.22"/><line x1="458.98" y1="69.88" x2="387.11" y2="65.68" stroke="#326e8f" stroke-width="1" stroke-opacity="0.22"/><line x1="458.98" y1="69.88" x2="407.63" y2="80.38" stroke="#326e8f" stroke-width="1" stroke-opacity="0.22"/><line x1="444.57" y1="86.14" x2="529.39" y2="77.67" stroke="#326e8f" stroke-width="1" stroke-opacity="0.22"/><line x1="444.57" y1="86.14" x2="499.94" y2="90.34" stroke="#326e8f" stroke-width="1" stroke-opacity="0.22"/><line x1="444.57" y1="86.14" x2="513.48" y2="104.21" stroke="#326e8f" stroke-width="1" stroke-opacity="0.22"/><line x1="444.57" y1="86.14" x2="482.55" y2="118.10" stroke="#326e8f" stroke-width="1" stroke-opacity="0.22"/><line x1="444.57" y1="86.14" x2="347.71" y2="85.74" stroke="#326e8f" stroke-width="1" stroke-opacity="0.22"/><line x1="444.57" y1="86.14" x2="387.11" y2="65.68" stroke="#326e8f" stroke-width="1" stroke-opacity="0.22"/><line x1="444.57" y1="86.14" x2="407.63" y2="80.38" stroke="#326e8f" stroke-width="1" stroke-opacity="0.22"/><line x1="444.57" y1="86.14" x2="403.46" y2="94.14" stroke="#326e8f" stroke-width="1" stroke-opacity="0.22"/><line x1="464.32" y1="98.56" x2="529.39" y2="77.67" stroke="#326e8f" stroke-width="1" stroke-opacity="0.22"/><line x1="464.32" y1="98.56" x2="499.94" y2="90.34" stroke="#326e8f" stroke-width="1" stroke-opacity="0.22"/><line x1="464.32" y1="98.56" x2="513.48" y2="104.21" stroke="#326e8f" stroke-width="1" stroke-opacity="0.22"/><line x1="464.32" y1="98.56" x2="482.55" y2="118.10" stroke="#326e8f" stroke-width="1" stroke-opacity="0.22"/><line x1="464.32" y1="98.56" x2="407.63" y2="80.38" stroke="#326e8f" stroke-width="1" stroke-opacity="0.22"/><line x1="464.32" y1="98.56" x2="403.46" y2="94.14" stroke="#326e8f" stroke-width="1" stroke-opacity="0.22"/><line x1="464.32" y1="98.56" x2="398.60" y2="110.69" stroke="#326e8f" stroke-width="1" stroke-opacity="0.22"/><line x1="464.32" y1="98.56" x2="437.33" y2="118.02" stroke="#326e8f" stroke-width="1" stroke-opacity="0.22"/><line x1="464.32" y1="98.56" x2="538.86" y2="88.85" stroke="#326e8f" stroke-width="1" stroke-opacity="0.22"/><line x1="439.86" y1="113.83" x2="513.48" y2="104.21" stroke="#326e8f" stroke-width="1" stroke-opacity="0.22"/><line x1="439.86" y1="113.83" x2="482.55" y2="118.10" stroke="#326e8f" stroke-width="1" stroke-opacity="0.22"/><line x1="439.86" y1="113.83" x2="495.02" y2="133.14" stroke="#326e8f" stroke-width="1" stroke-opacity="0.22"/><line x1="439.86" y1="113.83" x2="457.10" y2="146.13" stroke="#326e8f" stroke-width="1" stroke-opacity="0.22"/><line x1="439.86" y1="113.83" x2="407.63" y2="80.38" stroke="#326e8f" stroke-width="1" stroke-opacity="0.22"/><line x1="439.86" y1="113.83" x2="403.46" y2="94.14" stroke="#326e8f" stroke-width="1" stroke-opacity="0.22"/><line x1="439.86" y1="113.83" x2="398.60" y2="110.69" stroke="#326e8f" stroke-width="1" stroke-opacity="0.22"/>
  <polyline points="377.69,36.32 421.47,44.94 393.07,57.33 447.52,64.07 458.98,69.88 444.57,86.14 464.32,98.56 439.86,113.83 472.14,126.32 437.08,139.70 467.04,153.26 419.50,162.51 425.91,178.96 477.36,176.35 534.50,175.96 567.43,189.72 604.92,190.99 649.96,184.83 623.55,172.33 595.66,167.28 645.76,167.18 669.45,158.38 625.28,147.17 628.20,144.79 687.44,143.42 683.53,132.02 640.83,123.45 674.86,123.31 724.00,117.48 688.47,106.62 702.77,93.32 657.79,84.32 622.80,83.15 600.54,68.12 550.52,63.97 529.39,77.67 499.94,90.34 513.48,104.21 482.55,118.10 495.02,133.14 457.10,146.13 467.00,162.07 440.97,177.27 429.33,182.69 476.91,192.78 517.09,183.58 495.76,172.91 533.41,177.65 579.59,177.45 562.70,162.03 560.85,156.67 612.79,163.54 642.68,159.09 618.26,143.65 627.69,130.15 591.25,121.00 589.49,108.29 557.51,118.12 509.23,122.93 488.39,138.34 430.16,139.40 404.93,153.58 364.78,154.77 314.79,161.49 303.59,162.14 263.54,171.36 224.65,166.53 224.23,176.04 269.45,180.36 271.54,196.89 237.39,208.46 220.95,220.44 231.45,214.42 269.68,224.00 299.74,213.38 289.10,197.89 321.42,190.94 314.87,180.33 344.14,165.86 363.67,170.58 399.96,180.32 427.44,168.74 427.20,160.02 457.68,171.19 494.72,173.42 507.21,157.39 466.87,150.20 440.94,135.69 402.77,132.61 360.74,140.49 335.20,136.53 279.12,141.58 233.38,138.48 267.95,140.17 236.16,139.59 262.12,154.73 241.66,161.32 190.35,153.57 184.75,160.43 209.74,175.81 195.49,181.24 144.49,172.85 161.85,165.75 120.92,154.40 117.17,138.58 99.25,145.86 148.32,155.28 183.81,142.11 157.29,134.61 162.73,147.23 219.20,149.16 233.09,132.98 207.95,132.91 236.24,146.64 288.31,141.14 282.31,126.26 261.88,133.05 310.74,142.46 348.96,130.04 356.29,132.55 364.12,120.54 321.58,120.96 321.56,118.35 265.92,117.58 262.31,120.22 212.88,112.85 203.26,114.40 170.79,111.28 170.40,120.41 164.67,114.23 109.59,120.17 90.05,112.31 121.68,98.12 92.86,97.62 36.00,99.24 60.96,87.77 61.20,95.64 116.60,90.93 88.27,82.23 54.91,94.95 98.54,106.34 141.16,97.74 105.02,89.39 78.75,103.52 129.08,112.16 153.21,99.34 102.96,99.38 110.27,115.63 167.01,112.98 157.93,99.70 109.35,106.86 137.55,120.81 182.61,110.64 198.60,104.61 237.88,92.30 279.11,89.41 330.80,85.06 346.15,99.28 313.06,98.85 319.73,96.33 280.67,95.53 300.63,101.08 266.78,97.17 265.70,108.08 243.82,104.60 238.86,119.25 217.12,111.25 274.83,109.83 299.91,123.72 317.23,134.26 265.56,129.56 288.91,119.78 283.39,103.00 314.39,89.99 309.45,85.17 327.05,69.07 345.71,58.86 291.11,53.08 254.30,66.07 287.28,68.78 283.45,53.28 225.04,53.79 211.43,68.36 250.10,65.60 228.34,50.27 173.76,56.74 186.58,69.67 214.32,58.83 166.28,49.00 130.44,62.45 168.09,66.84 170.43,51.82 111.32,49.37 98.02,64.46 141.97,65.53 163.45,50.27 206.87,39.64 249.33,45.98 239.75,61.42 233.02,56.00 282.64,47.99 320.36,58.21 300.41,71.74 333.08,74.53 314.06,77.56 347.71,85.74 343.32,89.35 334.80,105.55 350.68,107.07 396.35,109.01 437.17,100.04 489.22,99.28 538.39,90.53 518.01,75.65 461.15,78.53 473.30,78.04 496.01,62.63 452.32,58.56 409.42,62.96 430.81,57.87 443.04,43.50 383.28,43.71 357.09,36.39 320.11,45.97 354.15,59.47 387.11,65.68 407.63,80.38 403.46,94.14 398.60,110.69 437.33,118.02 434.44,133.97 459.09,138.21 497.12,125.75 510.26,127.49 541.24,141.37 589.19,132.70 623.06,119.80 574.26,112.30 555.35,111.74 599.54,101.60 595.65,93.38 536.35,91.11 538.86,88.85 575.75,75.95 528.56,67.60 523.86,51.69 505.59,36.00" fill="none" stroke="#7d8f86" stroke-width="2.6"/>
  <circle cx="377.69" cy="36.32" r="3" fill="#22302d"/><circle cx="444.57" cy="86.14" r="3" fill="#22302d"/><circle cx="467.04" cy="153.26" r="3" fill="#22302d"/><circle cx="567.43" cy="189.72" r="3" fill="#22302d"/><circle cx="645.76" cy="167.18" r="3" fill="#22302d"/><circle cx="683.53" cy="132.02" r="3" fill="#22302d"/><circle cx="702.77" cy="93.32" r="3" fill="#22302d"/><circle cx="529.39" cy="77.67" r="3" fill="#22302d"/><circle cx="457.10" cy="146.13" r="3" fill="#22302d"/><circle cx="517.09" cy="183.58" r="3" fill="#22302d"/><circle cx="560.85" cy="156.67" r="3" fill="#22302d"/><circle cx="591.25" cy="121.00" r="3" fill="#22302d"/><circle cx="430.16" cy="139.40" r="3" fill="#22302d"/><circle cx="263.54" cy="171.36" r="3" fill="#22302d"/><circle cx="237.39" cy="208.46" r="3" fill="#22302d"/><circle cx="289.10" cy="197.89" r="3" fill="#22302d"/><circle cx="399.96" cy="180.32" r="3" fill="#22302d"/><circle cx="507.21" cy="157.39" r="3" fill="#22302d"/><circle cx="335.20" cy="136.53" r="3" fill="#22302d"/><circle cx="262.12" cy="154.73" r="3" fill="#22302d"/><circle cx="195.49" cy="181.24" r="3" fill="#22302d"/><circle cx="99.25" cy="145.86" r="3" fill="#22302d"/><circle cx="219.20" cy="149.16" r="3" fill="#22302d"/><circle cx="282.31" cy="126.26" r="3" fill="#22302d"/><circle cx="364.12" cy="120.54" r="3" fill="#22302d"/><circle cx="212.88" cy="112.85" r="3" fill="#22302d"/><circle cx="109.59" cy="120.17" r="3" fill="#22302d"/><circle cx="60.96" cy="87.77" r="3" fill="#22302d"/><circle cx="98.54" cy="106.34" r="3" fill="#22302d"/><circle cx="153.21" cy="99.34" r="3" fill="#22302d"/><circle cx="109.35" cy="106.86" r="3" fill="#22302d"/><circle cx="279.11" cy="89.41" r="3" fill="#22302d"/><circle cx="280.67" cy="95.53" r="3" fill="#22302d"/><circle cx="238.86" cy="119.25" r="3" fill="#22302d"/><circle cx="265.56" cy="129.56" r="3" fill="#22302d"/><circle cx="327.05" cy="69.07" r="3" fill="#22302d"/><circle cx="283.45" cy="53.28" r="3" fill="#22302d"/><circle cx="173.76" cy="56.74" r="3" fill="#22302d"/><circle cx="168.09" cy="66.84" r="3" fill="#22302d"/><circle cx="163.45" cy="50.27" r="3" fill="#22302d"/><circle cx="282.64" cy="47.99" r="3" fill="#22302d"/><circle cx="347.71" cy="85.74" r="3" fill="#22302d"/><circle cx="437.17" cy="100.04" r="3" fill="#22302d"/><circle cx="473.30" cy="78.04" r="3" fill="#22302d"/><circle cx="443.04" cy="43.50" r="3" fill="#22302d"/><circle cx="387.11" cy="65.68" r="3" fill="#22302d"/><circle cx="434.44" cy="133.97" r="3" fill="#22302d"/><circle cx="589.19" cy="132.70" r="3" fill="#22302d"/><circle cx="595.65" cy="93.38" r="3" fill="#22302d"/><circle cx="523.86" cy="51.69" r="3" fill="#22302d"/>
  <text x="34" y="248" font-family="Arial, sans-serif" font-size="11" fill="#58635e">row: coord_005_pdb_1TIM_A_triosephosphate_isomerase | projected coordinates, not full atomic folding</text>
</svg>
