<svg xmlns="http://www.w3.org/2000/svg" width="420" height="420" viewBox="0 0 420 420" role="img" aria-label="Sequence-only predicted contact candidates">
  <rect width="420" height="420" fill="#f8faf7"/>
  <text x="34" y="22" font-family="Arial, sans-serif" font-size="14" fill="#22302d">Sequence-only predicted contact candidates</text>
  <line x1="34" y1="34" x2="34" y2="386" stroke="#9aa69f"/>
  <line x1="34" y1="386" x2="386" y2="386" stroke="#9aa69f"/>
  <line x1="34" y1="34" x2="386" y2="386" stroke="#cfd8d2" stroke-dasharray="4 4"/>
  <circle cx="39.72" cy="88.37" r="2.2" fill="#c44b3a"/><circle cx="88.37" cy="39.72" r="2.2" fill="#c44b3a" opacity="0.58"/><circle cx="39.72" cy="96.96" r="2.2" fill="#c44b3a"/><circle cx="96.96" cy="39.72" r="2.2" fill="#c44b3a" opacity="0.58"/><circle cx="39.72" cy="98.39" r="2.2" fill="#c44b3a"/><circle cx="98.39" cy="39.72" r="2.2" fill="#c44b3a" opacity="0.58"/><circle cx="39.72" cy="102.68" r="2.2" fill="#c44b3a"/><circle cx="102.68" cy="39.72" r="2.2" fill="#c44b3a" opacity="0.58"/><circle cx="39.72" cy="125.58" r="2.2" fill="#c44b3a"/><circle cx="125.58" cy="39.72" r="2.2" fill="#c44b3a" opacity="0.58"/><circle cx="39.72" cy="127.01" r="2.2" fill="#c44b3a"/><circle cx="127.01" cy="39.72" r="2.2" fill="#c44b3a" opacity="0.58"/><circle cx="39.72" cy="137.02" r="2.2" fill="#c44b3a"/><circle cx="137.02" cy="39.72" r="2.2" fill="#c44b3a" opacity="0.58"/><circle cx="39.72" cy="142.75" r="2.2" fill="#c44b3a"/><circle cx="142.75" cy="39.72" r="2.2" fill="#c44b3a" opacity="0.58"/><circle cx="39.72" cy="154.20" r="2.2" fill="#c44b3a"/><circle cx="154.20" cy="39.72" r="2.2" fill="#c44b3a" opacity="0.58"/><circle cx="39.72" cy="159.92" r="2.2" fill="#c44b3a"/><circle cx="159.92" cy="39.72" r="2.2" fill="#c44b3a" opacity="0.58"/><circle cx="42.59" cy="102.68" r="2.2" fill="#c44b3a"/><circle cx="102.68" cy="42.59" r="2.2" fill="#c44b3a" opacity="0.58"/><circle cx="42.59" cy="137.02" r="2.2" fill="#c44b3a"/><circle cx="137.02" cy="42.59" r="2.2" fill="#c44b3a" opacity="0.58"/><circle cx="48.31" cy="88.37" r="2.2" fill="#c44b3a"/><circle cx="88.37" cy="48.31" r="2.2" fill="#c44b3a" opacity="0.58"/><circle cx="48.31" cy="96.96" r="2.2" fill="#c44b3a"/><circle cx="96.96" cy="48.31" r="2.2" fill="#c44b3a" opacity="0.58"/><circle cx="48.31" cy="98.39" r="2.2" fill="#c44b3a"/><circle cx="98.39" cy="48.31" r="2.2" fill="#c44b3a" opacity="0.58"/><circle cx="48.31" cy="102.68" r="2.2" fill="#c44b3a"/><circle cx="102.68" cy="48.31" r="2.2" fill="#c44b3a" opacity="0.58"/><circle cx="48.31" cy="125.58" r="2.2" fill="#c44b3a"/><circle cx="125.58" cy="48.31" r="2.2" fill="#c44b3a" opacity="0.58"/><circle cx="48.31" cy="127.01" r="2.2" fill="#c44b3a"/><circle cx="127.01" cy="48.31" r="2.2" fill="#c44b3a" opacity="0.58"/><circle cx="48.31" cy="137.02" r="2.2" fill="#c44b3a"/><circle cx="137.02" cy="48.31" r="2.2" fill="#c44b3a" opacity="0.58"/><circle cx="48.31" cy="142.75" r="2.2" fill="#c44b3a"/><circle cx="142.75" cy="48.31" r="2.2" fill="#c44b3a" opacity="0.58"/><circle cx="48.31" cy="154.20" r="2.2" fill="#c44b3a"/><circle cx="154.20" cy="48.31" r="2.2" fill="#c44b3a" opacity="0.58"/><circle cx="48.31" cy="159.92" r="2.2" fill="#c44b3a"/><circle cx="159.92" cy="48.31" r="2.2" fill="#c44b3a" opacity="0.58"/><circle cx="48.31" cy="162.78" r="2.2" fill="#c44b3a"/><circle cx="162.78" cy="48.31" r="2.2" fill="#c44b3a" opacity="0.58"/><circle cx="48.31" cy="177.09" r="2.2" fill="#c44b3a"/><circle cx="177.09" cy="48.31" r="2.2" fill="#c44b3a" opacity="0.58"/><circle cx="51.17" cy="56.89" r="2.2" fill="#c44b3a"/><circle cx="56.89" cy="51.17" r="2.2" fill="#c44b3a" opacity="0.58"/><circle cx="65.48" cy="71.20" r="2.2" fill="#c44b3a"/><circle cx="71.20" cy="65.48" r="2.2" fill="#c44b3a" opacity="0.58"/><circle cx="71.20" cy="76.93" r="2.2" fill="#c44b3a"/><circle cx="76.93" cy="71.20" r="2.2" fill="#c44b3a" opacity="0.58"/><circle cx="88.37" cy="137.02" r="2.2" fill="#c44b3a"/><circle cx="137.02" cy="88.37" r="2.2" fill="#c44b3a" opacity="0.58"/><circle cx="88.37" cy="159.92" r="2.2" fill="#c44b3a"/><circle cx="159.92" cy="88.37" r="2.2" fill="#c44b3a" opacity="0.58"/><circle cx="88.37" cy="177.09" r="2.2" fill="#c44b3a"/><circle cx="177.09" cy="88.37" r="2.2" fill="#c44b3a" opacity="0.58"/><circle cx="96.96" cy="137.02" r="2.2" fill="#c44b3a"/><circle cx="137.02" cy="96.96" r="2.2" fill="#c44b3a" opacity="0.58"/><circle cx="96.96" cy="159.92" r="2.2" fill="#c44b3a"/><circle cx="159.92" cy="96.96" r="2.2" fill="#c44b3a" opacity="0.58"/><circle cx="96.96" cy="177.09" r="2.2" fill="#c44b3a"/><circle cx="177.09" cy="96.96" r="2.2" fill="#c44b3a" opacity="0.58"/><circle cx="99.82" cy="105.54" r="2.2" fill="#c44b3a"/><circle cx="105.54" cy="99.82" r="2.2" fill="#c44b3a" opacity="0.58"/><circle cx="102.68" cy="125.58" r="2.2" fill="#c44b3a"/><circle cx="125.58" cy="102.68" r="2.2" fill="#c44b3a" opacity="0.58"/><circle cx="102.68" cy="127.01" r="2.2" fill="#c44b3a"/><circle cx="127.01" cy="102.68" r="2.2" fill="#c44b3a" opacity="0.58"/><circle cx="102.68" cy="137.02" r="2.2" fill="#c44b3a"/><circle cx="137.02" cy="102.68" r="2.2" fill="#c44b3a" opacity="0.58"/><circle cx="102.68" cy="142.75" r="2.2" fill="#c44b3a"/><circle cx="142.75" cy="102.68" r="2.2" fill="#c44b3a" opacity="0.58"/><circle cx="102.68" cy="154.20" r="2.2" fill="#c44b3a"/><circle cx="154.20" cy="102.68" r="2.2" fill="#c44b3a" opacity="0.58"/><circle cx="102.68" cy="159.92" r="2.2" fill="#c44b3a"/><circle cx="159.92" cy="102.68" r="2.2" fill="#c44b3a" opacity="0.58"/><circle cx="102.68" cy="162.78" r="2.2" fill="#c44b3a"/><circle cx="162.78" cy="102.68" r="2.2" fill="#c44b3a" opacity="0.58"/><circle cx="102.68" cy="177.09" r="2.2" fill="#c44b3a"/><circle cx="177.09" cy="102.68" r="2.2" fill="#c44b3a" opacity="0.58"/><circle cx="102.68" cy="208.57" r="2.2" fill="#c44b3a"/><circle cx="208.57" cy="102.68" r="2.2" fill="#c44b3a" opacity="0.58"/><circle cx="102.68" cy="211.43" r="2.2" fill="#c44b3a"/><circle cx="211.43" cy="102.68" r="2.2" fill="#c44b3a" opacity="0.58"/><circle cx="108.41" cy="114.13" r="2.2" fill="#c44b3a"/><circle cx="114.13" cy="108.41" r="2.2" fill="#c44b3a" opacity="0.58"/><circle cx="114.13" cy="119.85" r="2.2" fill="#c44b3a"/><circle cx="119.85" cy="114.13" r="2.2" fill="#c44b3a" opacity="0.58"/><circle cx="122.72" cy="128.44" r="2.2" fill="#c44b3a"/><circle cx="128.44" cy="122.72" r="2.2" fill="#c44b3a" opacity="0.58"/><circle cx="125.58" cy="159.92" r="2.2" fill="#c44b3a"/><circle cx="159.92" cy="125.58" r="2.2" fill="#c44b3a" opacity="0.58"/><circle cx="125.58" cy="177.09" r="2.2" fill="#c44b3a"/><circle cx="177.09" cy="125.58" r="2.2" fill="#c44b3a" opacity="0.58"/><circle cx="125.58" cy="237.19" r="2.2" fill="#c44b3a"/><circle cx="237.19" cy="125.58" r="2.2" fill="#c44b3a" opacity="0.58"/><circle cx="137.02" cy="159.92" r="2.2" fill="#c44b3a"/><circle cx="159.92" cy="137.02" r="2.2" fill="#c44b3a" opacity="0.58"/><circle cx="137.02" cy="162.78" r="2.2" fill="#c44b3a"/><circle cx="162.78" cy="137.02" r="2.2" fill="#c44b3a" opacity="0.58"/><circle cx="137.02" cy="177.09" r="2.2" fill="#c44b3a"/><circle cx="177.09" cy="137.02" r="2.2" fill="#c44b3a" opacity="0.58"/><circle cx="137.02" cy="208.57" r="2.2" fill="#c44b3a"/><circle cx="208.57" cy="137.02" r="2.2" fill="#c44b3a" opacity="0.58"/><circle cx="137.02" cy="211.43" r="2.2" fill="#c44b3a"/><circle cx="211.43" cy="137.02" r="2.2" fill="#c44b3a" opacity="0.58"/><circle cx="137.02" cy="228.60" r="2.2" fill="#c44b3a"/><circle cx="228.60" cy="137.02" r="2.2" fill="#c44b3a" opacity="0.58"/><circle cx="137.02" cy="234.33" r="2.2" fill="#c44b3a"/><circle cx="234.33" cy="137.02" r="2.2" fill="#c44b3a" opacity="0.58"/><circle cx="137.02" cy="237.19" r="2.2" fill="#c44b3a"/><circle cx="237.19" cy="137.02" r="2.2" fill="#c44b3a" opacity="0.58"/><circle cx="137.02" cy="245.77" r="2.2" fill="#c44b3a"/><circle cx="245.77" cy="137.02" r="2.2" fill="#c44b3a" opacity="0.58"/><circle cx="137.02" cy="251.50" r="2.2" fill="#c44b3a"/><circle cx="251.50" cy="137.02" r="2.2" fill="#c44b3a" opacity="0.58"/><circle cx="137.02" cy="265.80" r="2.2" fill="#c44b3a"/><circle cx="265.80" cy="137.02" r="2.2" fill="#c44b3a" opacity="0.58"/><circle cx="142.75" cy="177.09" r="2.2" fill="#c44b3a"/><circle cx="177.09" cy="142.75" r="2.2" fill="#c44b3a" opacity="0.58"/><circle cx="142.75" cy="237.19" r="2.2" fill="#c44b3a"/><circle cx="237.19" cy="142.75" r="2.2" fill="#c44b3a" opacity="0.58"/><circle cx="151.33" cy="157.06" r="2.2" fill="#c44b3a"/><circle cx="157.06" cy="151.33" r="2.2" fill="#c44b3a" opacity="0.58"/><circle cx="154.20" cy="177.09" r="2.2" fill="#c44b3a"/><circle cx="177.09" cy="154.20" r="2.2" fill="#c44b3a" opacity="0.58"/><circle cx="154.20" cy="237.19" r="2.2" fill="#c44b3a"/><circle cx="237.19" cy="154.20" r="2.2" fill="#c44b3a" opacity="0.58"/><circle cx="154.20" cy="265.80" r="2.2" fill="#c44b3a"/><circle cx="265.80" cy="154.20" r="2.2" fill="#c44b3a" opacity="0.58"/><circle cx="159.92" cy="208.57" r="2.2" fill="#c44b3a"/><circle cx="208.57" cy="159.92" r="2.2" fill="#c44b3a" opacity="0.58"/><circle cx="159.92" cy="211.43" r="2.2" fill="#c44b3a"/><circle cx="211.43" cy="159.92" r="2.2" fill="#c44b3a" opacity="0.58"/><circle cx="159.92" cy="228.60" r="2.2" fill="#c44b3a"/><circle cx="228.60" cy="159.92" r="2.2" fill="#c44b3a" opacity="0.58"/><circle cx="159.92" cy="234.33" r="2.2" fill="#c44b3a"/><circle cx="234.33" cy="159.92" r="2.2" fill="#c44b3a" opacity="0.58"/><circle cx="159.92" cy="237.19" r="2.2" fill="#c44b3a"/><circle cx="237.19" cy="159.92" r="2.2" fill="#c44b3a" opacity="0.58"/><circle cx="159.92" cy="245.77" r="2.2" fill="#c44b3a"/><circle cx="245.77" cy="159.92" r="2.2" fill="#c44b3a" opacity="0.58"/><circle cx="159.92" cy="251.50" r="2.2" fill="#c44b3a"/><circle cx="251.50" cy="159.92" r="2.2" fill="#c44b3a" opacity="0.58"/><circle cx="159.92" cy="255.79" r="2.2" fill="#c44b3a"/><circle cx="255.79" cy="159.92" r="2.2" fill="#c44b3a" opacity="0.58"/><circle cx="159.92" cy="260.08" r="2.2" fill="#c44b3a"/><circle cx="260.08" cy="159.92" r="2.2" fill="#c44b3a" opacity="0.58"/><circle cx="159.92" cy="265.80" r="2.2" fill="#c44b3a"/><circle cx="265.80" cy="159.92" r="2.2" fill="#c44b3a" opacity="0.58"/><circle cx="159.92" cy="271.53" r="2.2" fill="#c44b3a"/><circle cx="271.53" cy="159.92" r="2.2" fill="#c44b3a" opacity="0.58"/><circle cx="159.92" cy="274.39" r="2.2" fill="#c44b3a"/><circle cx="274.39" cy="159.92" r="2.2" fill="#c44b3a" opacity="0.58"/><circle cx="162.78" cy="237.19" r="2.2" fill="#c44b3a"/><circle cx="237.19" cy="162.78" r="2.2" fill="#c44b3a" opacity="0.58"/><circle cx="162.78" cy="265.80" r="2.2" fill="#c44b3a"/><circle cx="265.80" cy="162.78" r="2.2" fill="#c44b3a" opacity="0.58"/><circle cx="162.78" cy="271.53" r="2.2" fill="#c44b3a"/><circle cx="271.53" cy="162.78" r="2.2" fill="#c44b3a" opacity="0.58"/><circle cx="174.23" cy="179.95" r="2.2" fill="#c44b3a"/><circle cx="179.95" cy="174.23" r="2.2" fill="#c44b3a" opacity="0.58"/><circle cx="177.09" cy="208.57" r="2.2" fill="#c44b3a"/><circle cx="208.57" cy="177.09" r="2.2" fill="#c44b3a" opacity="0.58"/><circle cx="177.09" cy="211.43" r="2.2" fill="#c44b3a"/><circle cx="211.43" cy="177.09" r="2.2" fill="#c44b3a" opacity="0.58"/><circle cx="177.09" cy="228.60" r="2.2" fill="#c44b3a"/><circle cx="228.60" cy="177.09" r="2.2" fill="#c44b3a" opacity="0.58"/><circle cx="177.09" cy="234.33" r="2.2" fill="#c44b3a"/><circle cx="234.33" cy="177.09" r="2.2" fill="#c44b3a" opacity="0.58"/><circle cx="177.09" cy="237.19" r="2.2" fill="#c44b3a"/><circle cx="237.19" cy="177.09" r="2.2" fill="#c44b3a" opacity="0.58"/><circle cx="177.09" cy="245.77" r="2.2" fill="#c44b3a"/><circle cx="245.77" cy="177.09" r="2.2" fill="#c44b3a" opacity="0.58"/><circle cx="177.09" cy="251.50" r="2.2" fill="#c44b3a"/><circle cx="251.50" cy="177.09" r="2.2" fill="#c44b3a" opacity="0.58"/>
  <text x="34" y="412" font-family="Arial, sans-serif" font-size="11" fill="#58635e">row: coord_005_pdb_1TIM_A_triosephosphate_isomerase | contacts: 90</text>
</svg>
