<svg xmlns="http://www.w3.org/2000/svg" width="760" height="260" viewBox="0 0 760 260" role="img" aria-label="Coarse-grain final collapse">
  <rect width="760" height="260" fill="#f8faf7"/>
  <text x="34" y="24" font-family="Arial, sans-serif" font-size="15" fill="#22302d">Coarse-grain final collapse</text>
<line x1="43.00" y1="120.18" x2="57.59" y2="122.89" stroke="#25636a" stroke-opacity="0.22" stroke-width="1.2"/><line x1="126.94" y1="125.13" x2="272.49" y2="124.62" stroke="#25636a" stroke-opacity="0.22" stroke-width="1.2"/><line x1="126.94" y1="125.13" x2="431.43" y2="117.54" stroke="#25636a" stroke-opacity="0.22" stroke-width="1.2"/><line x1="67.88" y1="124.76" x2="83.53" y2="127.52" stroke="#25636a" stroke-opacity="0.22" stroke-width="1.2"/><line x1="92.11" y1="126.86" x2="272.49" y2="124.62" stroke="#25636a" stroke-opacity="0.22" stroke-width="1.2"/><line x1="92.11" y1="126.86" x2="431.43" y2="117.54" stroke="#25636a" stroke-opacity="0.22" stroke-width="1.2"/><line x1="83.53" y1="127.52" x2="100.06" y2="130.26" stroke="#25636a" stroke-opacity="0.22" stroke-width="1.2"/><line x1="100.06" y1="130.26" x2="115.59" y2="132.63" stroke="#25636a" stroke-opacity="0.22" stroke-width="1.2"/><line x1="119.07" y1="131.50" x2="431.43" y2="117.54" stroke="#25636a" stroke-opacity="0.22" stroke-width="1.2"/><line x1="272.49" y1="124.62" x2="270.93" y2="134.23" stroke="#25636a" stroke-opacity="0.22" stroke-width="1.2"/><line x1="272.49" y1="124.62" x2="431.43" y2="117.54" stroke="#25636a" stroke-opacity="0.22" stroke-width="1.2"/><line x1="272.49" y1="124.62" x2="353.79" y2="125.78" stroke="#25636a" stroke-opacity="0.22" stroke-width="1.2"/><line x1="272.49" y1="124.62" x2="369.02" y2="123.79" stroke="#25636a" stroke-opacity="0.22" stroke-width="1.2"/><line x1="272.49" y1="124.62" x2="421.67" y2="117.46" stroke="#25636a" stroke-opacity="0.22" stroke-width="1.2"/><line x1="272.49" y1="124.62" x2="382.11" y2="117.63" stroke="#25636a" stroke-opacity="0.22" stroke-width="1.2"/><line x1="272.49" y1="124.62" x2="451.60" y2="112.09" stroke="#25636a" stroke-opacity="0.22" stroke-width="1.2"/><line x1="272.49" y1="124.62" x2="468.99" y2="109.31" stroke="#25636a" stroke-opacity="0.22" stroke-width="1.2"/><line x1="272.49" y1="124.62" x2="444.78" y2="107.91" stroke="#25636a" stroke-opacity="0.22" stroke-width="1.2"/><line x1="151.79" y1="135.68" x2="431.43" y2="117.54" stroke="#25636a" stroke-opacity="0.22" stroke-width="1.2"/><line x1="159.02" y1="136.43" x2="431.43" y2="117.54" stroke="#25636a" stroke-opacity="0.22" stroke-width="1.2"/><line x1="167.41" y1="138.37" x2="183.07" y2="139.30" stroke="#25636a" stroke-opacity="0.22" stroke-width="1.2"/><line x1="183.07" y1="139.30" x2="199.60" y2="139.86" stroke="#25636a" stroke-opacity="0.22" stroke-width="1.2"/><line x1="199.60" y1="139.86" x2="215.13" y2="139.97" stroke="#25636a" stroke-opacity="0.22" stroke-width="1.2"/><line x1="208.88" y1="139.98" x2="224.54" y2="139.81" stroke="#25636a" stroke-opacity="0.22" stroke-width="1.2"/><line x1="224.54" y1="139.81" x2="240.01" y2="139.26" stroke="#25636a" stroke-opacity="0.22" stroke-width="1.2"/><line x1="308.42" y1="132.34" x2="324.07" y2="129.92" stroke="#25636a" stroke-opacity="0.22" stroke-width="1.2"/><line x1="431.43" y1="117.54" x2="421.67" y2="117.46" stroke="#25636a" stroke-opacity="0.22" stroke-width="1.2"/><line x1="431.43" y1="117.54" x2="382.11" y2="117.63" stroke="#25636a" stroke-opacity="0.22" stroke-width="1.2"/><line x1="431.43" y1="117.54" x2="451.60" y2="112.09" stroke="#25636a" stroke-opacity="0.22" stroke-width="1.2"/><line x1="431.43" y1="117.54" x2="468.99" y2="109.31" stroke="#25636a" stroke-opacity="0.22" stroke-width="1.2"/><line x1="431.43" y1="117.54" x2="444.78" y2="107.91" stroke="#25636a" stroke-opacity="0.22" stroke-width="1.2"/><line x1="431.43" y1="117.54" x2="490.21" y2="106.51" stroke="#25636a" stroke-opacity="0.22" stroke-width="1.2"/><line x1="431.43" y1="117.54" x2="484.25" y2="104.07" stroke="#25636a" stroke-opacity="0.22" stroke-width="1.2"/><line x1="431.43" y1="117.54" x2="546.19" y2="101.51" stroke="#25636a" stroke-opacity="0.22" stroke-width="1.2"/><line x1="431.43" y1="117.54" x2="573.05" y2="103.56" stroke="#25636a" stroke-opacity="0.22" stroke-width="1.2"/><line x1="431.43" y1="117.54" x2="594.70" y2="104.20" stroke="#25636a" stroke-opacity="0.22" stroke-width="1.2"/>
  <polyline points="43.00,120.18 126.94,125.13 57.59,122.89 67.88,124.76 92.11,126.86 83.53,127.52 91.77,128.92 100.06,130.26 119.07,131.50 115.59,132.63 124.94,133.94 133.24,135.00 272.49,124.62 151.79,135.68 159.02,136.43 167.41,138.37 174.71,138.87 183.07,139.30 191.30,139.67 199.60,139.86 208.88,139.98 215.13,139.97 224.54,139.81 232.77,139.59 240.01,139.26 249.36,138.74 257.66,138.15 265.95,137.45 270.93,134.23 282.54,135.74 290.83,134.74 299.13,133.66 308.42,132.34 431.43,117.54 324.07,129.92 353.79,125.78 339.55,127.34 369.02,123.79 357.19,124.21 366.48,122.51 373.78,121.16 381.08,119.80 390.37,118.08 421.67,117.46 406.96,115.04 416.25,113.39 423.55,112.12 431.90,110.73 451.60,112.09 447.37,108.29 456.72,106.92 468.99,109.31 473.31,104.75 481.61,103.80 489.90,102.94 490.21,106.51 506.49,101.54 514.79,101.00 523.08,100.58 532.37,100.25 540.66,100.07 546.97,100.02 556.32,100.07 564.55,100.21 572.85,100.52 573.05,103.56 589.44,101.42 597.73,102.02 606.02,102.77 538.67,110.55 622.61,104.53 630.91,105.52 638.14,106.49 647.50,107.81 640.44,109.62 664.09,110.39 574.33,112.53 680.67,113.20 688.97,114.67 697.26,116.17 606.68,116.07 713.85,119.23" fill="none" stroke="#7d8f86" stroke-width="3"/>
  <circle cx="43.00" cy="120.18" r="3.2" fill="#22302d"/><circle cx="57.59" cy="122.89" r="3.2" fill="#22302d"/><circle cx="92.11" cy="126.86" r="3.2" fill="#22302d"/><circle cx="91.77" cy="128.92" r="3.2" fill="#22302d"/><circle cx="119.07" cy="131.50" r="3.2" fill="#22302d"/><circle cx="124.94" cy="133.94" r="3.2" fill="#22302d"/><circle cx="272.49" cy="124.62" r="3.2" fill="#22302d"/><circle cx="159.02" cy="136.43" r="3.2" fill="#22302d"/><circle cx="174.71" cy="138.87" r="3.2" fill="#22302d"/><circle cx="191.30" cy="139.67" r="3.2" fill="#22302d"/><circle cx="208.88" cy="139.98" r="3.2" fill="#22302d"/><circle cx="224.54" cy="139.81" r="3.2" fill="#22302d"/><circle cx="240.01" cy="139.26" r="3.2" fill="#22302d"/><circle cx="257.66" cy="138.15" r="3.2" fill="#22302d"/><circle cx="270.93" cy="134.23" r="3.2" fill="#22302d"/><circle cx="290.83" cy="134.74" r="3.2" fill="#22302d"/><circle cx="308.42" cy="132.34" r="3.2" fill="#22302d"/><circle cx="324.07" cy="129.92" r="3.2" fill="#22302d"/><circle cx="339.55" cy="127.34" r="3.2" fill="#22302d"/><circle cx="357.19" cy="124.21" r="3.2" fill="#22302d"/><circle cx="373.78" cy="121.16" r="3.2" fill="#22302d"/><circle cx="390.37" cy="118.08" r="3.2" fill="#22302d"/><circle cx="406.96" cy="115.04" r="3.2" fill="#22302d"/><circle cx="423.55" cy="112.12" r="3.2" fill="#22302d"/><circle cx="451.60" cy="112.09" r="3.2" fill="#22302d"/><circle cx="456.72" cy="106.92" r="3.2" fill="#22302d"/><circle cx="473.31" cy="104.75" r="3.2" fill="#22302d"/><circle cx="489.90" cy="102.94" r="3.2" fill="#22302d"/><circle cx="506.49" cy="101.54" r="3.2" fill="#22302d"/><circle cx="523.08" cy="100.58" r="3.2" fill="#22302d"/><circle cx="540.66" cy="100.07" r="3.2" fill="#22302d"/><circle cx="556.32" cy="100.07" r="3.2" fill="#22302d"/><circle cx="572.85" cy="100.52" r="3.2" fill="#22302d"/><circle cx="589.44" cy="101.42" r="3.2" fill="#22302d"/><circle cx="606.02" cy="102.77" r="3.2" fill="#22302d"/><circle cx="622.61" cy="104.53" r="3.2" fill="#22302d"/><circle cx="638.14" cy="106.49" r="3.2" fill="#22302d"/><circle cx="640.44" cy="109.62" r="3.2" fill="#22302d"/><circle cx="574.33" cy="112.53" r="3.2" fill="#22302d"/><circle cx="688.97" cy="114.67" r="3.2" fill="#22302d"/><circle cx="606.68" cy="116.07" r="3.2" fill="#22302d"/>
  <text x="34" y="248" font-family="Arial, sans-serif" font-size="11" fill="#58635e">row: coord_002_pdb_2LZM_A_t4_lysozyme | coarse beads, not atomic structure</text>
</svg>
