<svg xmlns="http://www.w3.org/2000/svg" width="760" height="260" viewBox="0 0 760 260" role="img" aria-label="native coordinate trace">
  <rect width="760" height="260" fill="#f8faf7"/>
  <text x="34" y="24" font-family="Arial, sans-serif" font-size="15" fill="#22302d">Native C-alpha Coordinate Trace</text>
  <line x1="579.71" y1="51.16" x2="583.14" y2="77.74" stroke="#326e8f" stroke-width="1" stroke-opacity="0.22"/><line x1="579.71" y1="51.16" x2="549.56" y2="84.73" stroke="#326e8f" stroke-width="1" stroke-opacity="0.22"/><line x1="579.71" y1="51.16" x2="557.90" y2="57.31" stroke="#326e8f" stroke-width="1" stroke-opacity="0.22"/><line x1="516.51" y1="56.94" x2="583.14" y2="77.74" stroke="#326e8f" stroke-width="1" stroke-opacity="0.22"/><line x1="516.51" y1="56.94" x2="549.56" y2="84.73" stroke="#326e8f" stroke-width="1" stroke-opacity="0.22"/><line x1="516.51" y1="56.94" x2="396.08" y2="70.90" stroke="#326e8f" stroke-width="1" stroke-opacity="0.22"/><line x1="473.96" y1="72.53" x2="549.56" y2="84.73" stroke="#326e8f" stroke-width="1" stroke-opacity="0.22"/><line x1="473.96" y1="72.53" x2="522.20" y2="100.37" stroke="#326e8f" stroke-width="1" stroke-opacity="0.22"/><line x1="473.96" y1="72.53" x2="396.08" y2="70.90" stroke="#326e8f" stroke-width="1" stroke-opacity="0.22"/><line x1="473.96" y1="72.53" x2="342.47" y2="90.45" stroke="#326e8f" stroke-width="1" stroke-opacity="0.22"/><line x1="473.96" y1="72.53" x2="402.06" y2="101.64" stroke="#326e8f" stroke-width="1" stroke-opacity="0.22"/><line x1="518.51" y1="79.79" x2="522.20" y2="100.37" stroke="#326e8f" stroke-width="1" stroke-opacity="0.22"/><line x1="518.51" y1="79.79" x2="586.23" y2="103.34" stroke="#326e8f" stroke-width="1" stroke-opacity="0.22"/><line x1="518.51" y1="79.79" x2="379.24" y2="95.04" stroke="#326e8f" stroke-width="1" stroke-opacity="0.22"/><line x1="583.14" y1="77.74" x2="586.23" y2="103.34" stroke="#326e8f" stroke-width="1" stroke-opacity="0.22"/><line x1="583.14" y1="77.74" x2="622.86" y2="104.22" stroke="#326e8f" stroke-width="1" stroke-opacity="0.22"/><line x1="549.56" y1="84.73" x2="622.86" y2="104.22" stroke="#326e8f" stroke-width="1" stroke-opacity="0.22"/><line x1="549.56" y1="84.73" x2="570.02" y2="116.45" stroke="#326e8f" stroke-width="1" stroke-opacity="0.22"/><line x1="549.56" y1="84.73" x2="623.79" y2="79.26" stroke="#326e8f" stroke-width="1" stroke-opacity="0.22"/><line x1="522.20" y1="100.37" x2="570.02" y2="116.45" stroke="#326e8f" stroke-width="1" stroke-opacity="0.22"/><line x1="522.20" y1="100.37" x2="564.18" y2="127.54" stroke="#326e8f" stroke-width="1" stroke-opacity="0.22"/><line x1="522.20" y1="100.37" x2="633.20" y2="127.25" stroke="#326e8f" stroke-width="1" stroke-opacity="0.22"/><line x1="522.20" y1="100.37" x2="547.72" y2="126.67" stroke="#326e8f" stroke-width="1" stroke-opacity="0.22"/><line x1="522.20" y1="100.37" x2="402.06" y2="101.64" stroke="#326e8f" stroke-width="1" stroke-opacity="0.22"/><line x1="586.23" y1="103.34" x2="564.18" y2="127.54" stroke="#326e8f" stroke-width="1" stroke-opacity="0.22"/><line x1="586.23" y1="103.34" x2="633.20" y2="127.25" stroke="#326e8f" stroke-width="1" stroke-opacity="0.22"/><line x1="586.23" y1="103.34" x2="646.50" y2="129.49" stroke="#326e8f" stroke-width="1" stroke-opacity="0.22"/><line x1="586.23" y1="103.34" x2="547.72" y2="126.67" stroke="#326e8f" stroke-width="1" stroke-opacity="0.22"/><line x1="622.86" y1="104.22" x2="633.20" y2="127.25" stroke="#326e8f" stroke-width="1" stroke-opacity="0.22"/><line x1="622.86" y1="104.22" x2="623.79" y2="79.26" stroke="#326e8f" stroke-width="1" stroke-opacity="0.22"/><line x1="622.86" y1="104.22" x2="708.51" y2="91.72" stroke="#326e8f" stroke-width="1" stroke-opacity="0.22"/><line x1="570.02" y1="116.45" x2="535.83" y2="124.42" stroke="#326e8f" stroke-width="1" stroke-opacity="0.22"/><line x1="564.18" y1="127.54" x2="547.72" y2="126.67" stroke="#326e8f" stroke-width="1" stroke-opacity="0.22"/><line x1="564.18" y1="127.54" x2="500.72" y2="138.66" stroke="#326e8f" stroke-width="1" stroke-opacity="0.22"/><line x1="633.20" y1="127.25" x2="567.23" y2="138.26" stroke="#326e8f" stroke-width="1" stroke-opacity="0.22"/><line x1="633.20" y1="127.25" x2="547.72" y2="126.67" stroke="#326e8f" stroke-width="1" stroke-opacity="0.22"/><line x1="633.20" y1="127.25" x2="500.72" y2="138.66" stroke="#326e8f" stroke-width="1" stroke-opacity="0.22"/><line x1="646.50" y1="129.49" x2="542.74" y2="156.26" stroke="#326e8f" stroke-width="1" stroke-opacity="0.22"/><line x1="646.50" y1="129.49" x2="567.23" y2="138.26" stroke="#326e8f" stroke-width="1" stroke-opacity="0.22"/><line x1="646.50" y1="129.49" x2="547.72" y2="126.67" stroke="#326e8f" stroke-width="1" stroke-opacity="0.22"/><line x1="646.50" y1="129.49" x2="500.72" y2="138.66" stroke="#326e8f" stroke-width="1" stroke-opacity="0.22"/><line x1="646.50" y1="129.49" x2="562.69" y2="122.38" stroke="#326e8f" stroke-width="1" stroke-opacity="0.22"/>
  <polyline points="579.71,51.16 516.51,56.94 473.96,72.53 518.51,79.79 583.14,77.74 549.56,84.73 522.20,100.37 586.23,103.34 622.86,104.22 570.02,116.45 564.18,127.54 633.20,127.25 646.50,129.49 654.82,146.76 657.51,149.36 648.95,168.34 585.58,177.66 590.35,180.35 549.06,186.54 514.37,174.74 524.30,175.89 460.62,186.19 491.71,197.61 455.20,189.28 481.49,186.10 499.67,167.55 542.74,156.26 567.23,138.26 547.72,126.67 500.72,138.66 456.01,142.69 420.90,158.99 409.27,169.91 370.82,184.93 354.97,193.79 361.51,210.33 417.67,222.43 440.46,224.00 497.59,214.15 462.27,217.24 397.46,208.36 443.13,194.23 480.34,192.57 416.34,191.85 388.61,178.14 454.30,168.75 449.77,169.27 376.86,164.01 395.80,149.42 454.01,142.51 426.90,147.21 488.48,156.92 524.18,173.02 565.84,170.12 591.68,186.86 586.51,181.67 630.27,166.37 612.48,147.94 650.91,131.48 654.06,117.11 608.58,107.80 555.20,121.13 562.69,122.38 549.04,104.09 489.29,104.71 456.21,118.12 472.59,108.12 438.55,92.57 374.42,102.74 372.74,111.16 379.24,95.04 325.09,86.81 279.09,101.55 291.93,101.18 271.60,82.93 208.58,85.59 188.45,100.48 192.10,90.32 149.58,76.45 97.06,89.08 91.51,98.03 36.00,93.24 76.59,98.33 143.64,91.05 125.37,74.69 101.06,66.32 164.58,70.64 209.23,65.02 173.37,48.39 182.07,45.34 258.13,47.75 317.50,36.00 366.70,38.94 418.42,49.83 367.11,61.04 332.14,62.48 396.08,70.90 393.68,83.82 323.51,89.38 342.47,90.45 402.06,101.64 355.36,113.77 306.81,114.47 364.81,118.19 389.90,132.58 323.53,139.96 269.18,134.26 206.04,123.77 169.61,138.05 224.59,142.57 232.08,124.91 155.35,121.61 154.69,135.79 195.80,125.63 128.98,118.22 151.78,112.71 218.03,104.95 183.50,95.55 134.58,88.52 191.88,82.73 230.25,74.88 168.30,64.84 162.68,58.84 236.67,53.81 254.82,65.23 324.56,68.71 355.90,77.98 293.47,88.68 289.39,93.27 365.49,98.03 354.83,110.50 290.80,117.89 324.79,119.58 381.79,129.71 332.54,142.88 328.99,151.09 355.36,165.21 384.55,150.77 430.97,144.73 451.03,162.22 468.15,168.27 505.44,152.11 525.33,142.95 579.32,130.83 535.83,124.42 471.24,124.06 511.24,114.07 533.61,101.37 460.92,98.79 435.62,98.40 486.87,85.00 464.65,74.78 391.74,75.11 413.97,71.85 458.46,56.79 434.29,49.43 510.13,47.45 557.90,57.31 606.46,61.77 598.95,80.93 623.79,79.26 684.08,67.59 724.00,81.34 708.51,91.72" fill="none" stroke="#7d8f86" stroke-width="2.6"/>
  <circle cx="579.71" cy="51.16" r="3" fill="#22302d"/><circle cx="518.51" cy="79.79" r="3" fill="#22302d"/><circle cx="522.20" cy="100.37" r="3" fill="#22302d"/><circle cx="570.02" cy="116.45" r="3" fill="#22302d"/><circle cx="646.50" cy="129.49" r="3" fill="#22302d"/><circle cx="648.95" cy="168.34" r="3" fill="#22302d"/><circle cx="549.06" cy="186.54" r="3" fill="#22302d"/><circle cx="460.62" cy="186.19" r="3" fill="#22302d"/><circle cx="481.49" cy="186.10" r="3" fill="#22302d"/><circle cx="567.23" cy="138.26" r="3" fill="#22302d"/><circle cx="456.01" cy="142.69" r="3" fill="#22302d"/><circle cx="370.82" cy="184.93" r="3" fill="#22302d"/><circle cx="417.67" cy="222.43" r="3" fill="#22302d"/><circle cx="462.27" cy="217.24" r="3" fill="#22302d"/><circle cx="480.34" cy="192.57" r="3" fill="#22302d"/><circle cx="454.30" cy="168.75" r="3" fill="#22302d"/><circle cx="395.80" cy="149.42" r="3" fill="#22302d"/><circle cx="488.48" cy="156.92" r="3" fill="#22302d"/><circle cx="591.68" cy="186.86" r="3" fill="#22302d"/><circle cx="612.48" cy="147.94" r="3" fill="#22302d"/><circle cx="608.58" cy="107.80" r="3" fill="#22302d"/><circle cx="549.04" cy="104.09" r="3" fill="#22302d"/><circle cx="472.59" cy="108.12" r="3" fill="#22302d"/><circle cx="372.74" cy="111.16" r="3" fill="#22302d"/><circle cx="279.09" cy="101.55" r="3" fill="#22302d"/><circle cx="208.58" cy="85.59" r="3" fill="#22302d"/><circle cx="149.58" cy="76.45" r="3" fill="#22302d"/><circle cx="36.00" cy="93.24" r="3" fill="#22302d"/><circle cx="125.37" cy="74.69" r="3" fill="#22302d"/><circle cx="209.23" cy="65.02" r="3" fill="#22302d"/><circle cx="258.13" cy="47.75" r="3" fill="#22302d"/><circle cx="418.42" cy="49.83" r="3" fill="#22302d"/><circle cx="396.08" cy="70.90" r="3" fill="#22302d"/><circle cx="342.47" cy="90.45" r="3" fill="#22302d"/><circle cx="306.81" cy="114.47" r="3" fill="#22302d"/><circle cx="323.53" cy="139.96" r="3" fill="#22302d"/><circle cx="169.61" cy="138.05" r="3" fill="#22302d"/><circle cx="155.35" cy="121.61" r="3" fill="#22302d"/><circle cx="128.98" cy="118.22" r="3" fill="#22302d"/><circle cx="183.50" cy="95.55" r="3" fill="#22302d"/><circle cx="230.25" cy="74.88" r="3" fill="#22302d"/><circle cx="236.67" cy="53.81" r="3" fill="#22302d"/><circle cx="355.90" cy="77.98" r="3" fill="#22302d"/><circle cx="365.49" cy="98.03" r="3" fill="#22302d"/><circle cx="324.79" cy="119.58" r="3" fill="#22302d"/><circle cx="328.99" cy="151.09" r="3" fill="#22302d"/><circle cx="430.97" cy="144.73" r="3" fill="#22302d"/><circle cx="505.44" cy="152.11" r="3" fill="#22302d"/><circle cx="535.83" cy="124.42" r="3" fill="#22302d"/><circle cx="533.61" cy="101.37" r="3" fill="#22302d"/><circle cx="486.87" cy="85.00" r="3" fill="#22302d"/><circle cx="413.97" cy="71.85" r="3" fill="#22302d"/><circle cx="510.13" cy="47.45" r="3" fill="#22302d"/><circle cx="598.95" cy="80.93" r="3" fill="#22302d"/><circle cx="724.00" cy="81.34" r="3" fill="#22302d"/>
  <text x="34" y="248" font-family="Arial, sans-serif" font-size="11" fill="#58635e">row: coord_002_pdb_2LZM_A_t4_lysozyme | projected coordinates, not full atomic folding</text>
</svg>
