<svg xmlns="http://www.w3.org/2000/svg" width="420" height="420" viewBox="0 0 420 420" role="img" aria-label="Sequence-only predicted contact candidates">
  <rect width="420" height="420" fill="#f8faf7"/>
  <text x="34" y="22" font-family="Arial, sans-serif" font-size="14" fill="#22302d">Sequence-only predicted contact candidates</text>
  <line x1="34" y1="34" x2="34" y2="386" stroke="#9aa69f"/>
  <line x1="34" y1="386" x2="386" y2="386" stroke="#9aa69f"/>
  <line x1="34" y1="34" x2="386" y2="386" stroke="#cfd8d2" stroke-dasharray="4 4"/>
  <circle cx="34.00" cy="42.64" r="2.2" fill="#c44b3a"/><circle cx="42.64" cy="34.00" r="2.2" fill="#c44b3a" opacity="0.58"/><circle cx="38.32" cy="85.83" r="2.2" fill="#c44b3a"/><circle cx="85.83" cy="38.32" r="2.2" fill="#c44b3a" opacity="0.58"/><circle cx="38.32" cy="90.15" r="2.2" fill="#c44b3a"/><circle cx="90.15" cy="38.32" r="2.2" fill="#c44b3a" opacity="0.58"/><circle cx="38.32" cy="94.47" r="2.2" fill="#c44b3a"/><circle cx="94.47" cy="38.32" r="2.2" fill="#c44b3a" opacity="0.58"/><circle cx="38.32" cy="154.93" r="2.2" fill="#c44b3a"/><circle cx="154.93" cy="38.32" r="2.2" fill="#c44b3a" opacity="0.58"/><circle cx="38.32" cy="176.53" r="2.2" fill="#c44b3a"/><circle cx="176.53" cy="38.32" r="2.2" fill="#c44b3a" opacity="0.58"/><circle cx="38.32" cy="185.17" r="2.2" fill="#c44b3a"/><circle cx="185.17" cy="38.32" r="2.2" fill="#c44b3a" opacity="0.58"/><circle cx="38.32" cy="193.80" r="2.2" fill="#c44b3a"/><circle cx="193.80" cy="38.32" r="2.2" fill="#c44b3a" opacity="0.58"/><circle cx="46.96" cy="55.60" r="2.2" fill="#c44b3a"/><circle cx="55.60" cy="46.96" r="2.2" fill="#c44b3a" opacity="0.58"/><circle cx="51.28" cy="85.83" r="2.2" fill="#c44b3a"/><circle cx="85.83" cy="51.28" r="2.2" fill="#c44b3a" opacity="0.58"/><circle cx="51.28" cy="176.53" r="2.2" fill="#c44b3a"/><circle cx="176.53" cy="51.28" r="2.2" fill="#c44b3a" opacity="0.58"/><circle cx="55.60" cy="64.23" r="2.2" fill="#c44b3a"/><circle cx="64.23" cy="55.60" r="2.2" fill="#c44b3a" opacity="0.58"/><circle cx="64.23" cy="72.87" r="2.2" fill="#c44b3a"/><circle cx="72.87" cy="64.23" r="2.2" fill="#c44b3a" opacity="0.58"/><circle cx="68.55" cy="176.53" r="2.2" fill="#c44b3a"/><circle cx="176.53" cy="68.55" r="2.2" fill="#c44b3a" opacity="0.58"/><circle cx="85.83" cy="154.93" r="2.2" fill="#c44b3a"/><circle cx="154.93" cy="85.83" r="2.2" fill="#c44b3a" opacity="0.58"/><circle cx="85.83" cy="176.53" r="2.2" fill="#c44b3a"/><circle cx="176.53" cy="85.83" r="2.2" fill="#c44b3a" opacity="0.58"/><circle cx="85.83" cy="185.17" r="2.2" fill="#c44b3a"/><circle cx="185.17" cy="85.83" r="2.2" fill="#c44b3a" opacity="0.58"/><circle cx="85.83" cy="193.80" r="2.2" fill="#c44b3a"/><circle cx="193.80" cy="85.83" r="2.2" fill="#c44b3a" opacity="0.58"/><circle cx="85.83" cy="219.72" r="2.2" fill="#c44b3a"/><circle cx="219.72" cy="85.83" r="2.2" fill="#c44b3a" opacity="0.58"/><circle cx="85.83" cy="221.88" r="2.2" fill="#c44b3a"/><circle cx="221.88" cy="85.83" r="2.2" fill="#c44b3a" opacity="0.58"/><circle cx="85.83" cy="241.31" r="2.2" fill="#c44b3a"/><circle cx="241.31" cy="85.83" r="2.2" fill="#c44b3a" opacity="0.58"/><circle cx="85.83" cy="254.27" r="2.2" fill="#c44b3a"/><circle cx="254.27" cy="85.83" r="2.2" fill="#c44b3a" opacity="0.58"/><circle cx="85.83" cy="256.43" r="2.2" fill="#c44b3a"/><circle cx="256.43" cy="85.83" r="2.2" fill="#c44b3a" opacity="0.58"/><circle cx="85.83" cy="271.55" r="2.2" fill="#c44b3a"/><circle cx="271.55" cy="85.83" r="2.2" fill="#c44b3a" opacity="0.58"/><circle cx="85.83" cy="278.02" r="2.2" fill="#c44b3a"/><circle cx="278.02" cy="85.83" r="2.2" fill="#c44b3a" opacity="0.58"/><circle cx="90.15" cy="176.53" r="2.2" fill="#c44b3a"/><circle cx="176.53" cy="90.15" r="2.2" fill="#c44b3a" opacity="0.58"/><circle cx="94.47" cy="176.53" r="2.2" fill="#c44b3a"/><circle cx="176.53" cy="94.47" r="2.2" fill="#c44b3a" opacity="0.58"/><circle cx="98.79" cy="107.42" r="2.2" fill="#c44b3a"/><circle cx="107.42" cy="98.79" r="2.2" fill="#c44b3a" opacity="0.58"/><circle cx="107.42" cy="116.06" r="2.2" fill="#c44b3a"/><circle cx="116.06" cy="107.42" r="2.2" fill="#c44b3a" opacity="0.58"/><circle cx="116.06" cy="124.70" r="2.2" fill="#c44b3a"/><circle cx="124.70" cy="116.06" r="2.2" fill="#c44b3a" opacity="0.58"/><circle cx="120.38" cy="129.02" r="2.2" fill="#c44b3a"/><circle cx="129.02" cy="120.38" r="2.2" fill="#c44b3a" opacity="0.58"/><circle cx="129.02" cy="137.66" r="2.2" fill="#c44b3a"/><circle cx="137.66" cy="129.02" r="2.2" fill="#c44b3a" opacity="0.58"/><circle cx="154.93" cy="332.01" r="2.2" fill="#c44b3a"/><circle cx="332.01" cy="154.93" r="2.2" fill="#c44b3a" opacity="0.58"/><circle cx="172.21" cy="180.85" r="2.2" fill="#c44b3a"/><circle cx="180.85" cy="172.21" r="2.2" fill="#c44b3a" opacity="0.58"/><circle cx="176.53" cy="219.72" r="2.2" fill="#c44b3a"/><circle cx="219.72" cy="176.53" r="2.2" fill="#c44b3a" opacity="0.58"/><circle cx="176.53" cy="221.88" r="2.2" fill="#c44b3a"/><circle cx="221.88" cy="176.53" r="2.2" fill="#c44b3a" opacity="0.58"/><circle cx="176.53" cy="241.31" r="2.2" fill="#c44b3a"/><circle cx="241.31" cy="176.53" r="2.2" fill="#c44b3a" opacity="0.58"/><circle cx="176.53" cy="254.27" r="2.2" fill="#c44b3a"/><circle cx="254.27" cy="176.53" r="2.2" fill="#c44b3a" opacity="0.58"/><circle cx="176.53" cy="256.43" r="2.2" fill="#c44b3a"/><circle cx="256.43" cy="176.53" r="2.2" fill="#c44b3a" opacity="0.58"/><circle cx="176.53" cy="271.55" r="2.2" fill="#c44b3a"/><circle cx="271.55" cy="176.53" r="2.2" fill="#c44b3a" opacity="0.58"/><circle cx="176.53" cy="278.02" r="2.2" fill="#c44b3a"/><circle cx="278.02" cy="176.53" r="2.2" fill="#c44b3a" opacity="0.58"/><circle cx="176.53" cy="303.94" r="2.2" fill="#c44b3a"/><circle cx="303.94" cy="176.53" r="2.2" fill="#c44b3a" opacity="0.58"/><circle cx="176.53" cy="314.74" r="2.2" fill="#c44b3a"/><circle cx="314.74" cy="176.53" r="2.2" fill="#c44b3a" opacity="0.58"/><circle cx="176.53" cy="329.85" r="2.2" fill="#c44b3a"/><circle cx="329.85" cy="176.53" r="2.2" fill="#c44b3a" opacity="0.58"/><circle cx="176.53" cy="332.01" r="2.2" fill="#c44b3a"/><circle cx="332.01" cy="176.53" r="2.2" fill="#c44b3a" opacity="0.58"/><circle cx="176.53" cy="353.61" r="2.2" fill="#c44b3a"/><circle cx="353.61" cy="176.53" r="2.2" fill="#c44b3a" opacity="0.58"/><circle cx="176.53" cy="362.25" r="2.2" fill="#c44b3a"/><circle cx="362.25" cy="176.53" r="2.2" fill="#c44b3a" opacity="0.58"/><circle cx="176.53" cy="373.04" r="2.2" fill="#c44b3a"/><circle cx="373.04" cy="176.53" r="2.2" fill="#c44b3a" opacity="0.58"/><circle cx="180.85" cy="189.48" r="2.2" fill="#c44b3a"/><circle cx="189.48" cy="180.85" r="2.2" fill="#c44b3a" opacity="0.58"/><circle cx="185.17" cy="332.01" r="2.2" fill="#c44b3a"/><circle cx="332.01" cy="185.17" r="2.2" fill="#c44b3a" opacity="0.58"/><circle cx="185.17" cy="362.25" r="2.2" fill="#c44b3a"/><circle cx="362.25" cy="185.17" r="2.2" fill="#c44b3a" opacity="0.58"/><circle cx="185.17" cy="379.52" r="2.2" fill="#c44b3a"/><circle cx="379.52" cy="185.17" r="2.2" fill="#c44b3a" opacity="0.58"/><circle cx="193.80" cy="332.01" r="2.2" fill="#c44b3a"/><circle cx="332.01" cy="193.80" r="2.2" fill="#c44b3a" opacity="0.58"/><circle cx="193.80" cy="362.25" r="2.2" fill="#c44b3a"/><circle cx="362.25" cy="193.80" r="2.2" fill="#c44b3a" opacity="0.58"/><circle cx="193.80" cy="379.52" r="2.2" fill="#c44b3a"/><circle cx="379.52" cy="193.80" r="2.2" fill="#c44b3a" opacity="0.58"/><circle cx="202.44" cy="211.08" r="2.2" fill="#c44b3a"/><circle cx="211.08" cy="202.44" r="2.2" fill="#c44b3a" opacity="0.58"/><circle cx="219.72" cy="332.01" r="2.2" fill="#c44b3a"/><circle cx="332.01" cy="219.72" r="2.2" fill="#c44b3a" opacity="0.58"/><circle cx="219.72" cy="362.25" r="2.2" fill="#c44b3a"/><circle cx="362.25" cy="219.72" r="2.2" fill="#c44b3a" opacity="0.58"/><circle cx="219.72" cy="379.52" r="2.2" fill="#c44b3a"/><circle cx="379.52" cy="219.72" r="2.2" fill="#c44b3a" opacity="0.58"/><circle cx="228.36" cy="236.99" r="2.2" fill="#c44b3a"/><circle cx="236.99" cy="228.36" r="2.2" fill="#c44b3a" opacity="0.58"/><circle cx="236.99" cy="245.63" r="2.2" fill="#c44b3a"/><circle cx="245.63" cy="236.99" r="2.2" fill="#c44b3a" opacity="0.58"/><circle cx="241.31" cy="332.01" r="2.2" fill="#c44b3a"/><circle cx="332.01" cy="241.31" r="2.2" fill="#c44b3a" opacity="0.58"/><circle cx="241.31" cy="362.25" r="2.2" fill="#c44b3a"/><circle cx="362.25" cy="241.31" r="2.2" fill="#c44b3a" opacity="0.58"/><circle cx="241.31" cy="379.52" r="2.2" fill="#c44b3a"/><circle cx="379.52" cy="241.31" r="2.2" fill="#c44b3a" opacity="0.58"/><circle cx="254.27" cy="332.01" r="2.2" fill="#c44b3a"/><circle cx="332.01" cy="254.27" r="2.2" fill="#c44b3a" opacity="0.58"/><circle cx="254.27" cy="362.25" r="2.2" fill="#c44b3a"/><circle cx="362.25" cy="254.27" r="2.2" fill="#c44b3a" opacity="0.58"/><circle cx="254.27" cy="379.52" r="2.2" fill="#c44b3a"/><circle cx="379.52" cy="254.27" r="2.2" fill="#c44b3a" opacity="0.58"/><circle cx="271.55" cy="332.01" r="2.2" fill="#c44b3a"/><circle cx="332.01" cy="271.55" r="2.2" fill="#c44b3a" opacity="0.58"/><circle cx="271.55" cy="362.25" r="2.2" fill="#c44b3a"/><circle cx="362.25" cy="271.55" r="2.2" fill="#c44b3a" opacity="0.58"/><circle cx="271.55" cy="379.52" r="2.2" fill="#c44b3a"/><circle cx="379.52" cy="271.55" r="2.2" fill="#c44b3a" opacity="0.58"/><circle cx="288.82" cy="297.46" r="2.2" fill="#c44b3a"/><circle cx="297.46" cy="288.82" r="2.2" fill="#c44b3a" opacity="0.58"/><circle cx="293.14" cy="301.78" r="2.2" fill="#c44b3a"/><circle cx="301.78" cy="293.14" r="2.2" fill="#c44b3a" opacity="0.58"/><circle cx="301.78" cy="310.42" r="2.2" fill="#c44b3a"/><circle cx="310.42" cy="301.78" r="2.2" fill="#c44b3a" opacity="0.58"/><circle cx="310.42" cy="319.06" r="2.2" fill="#c44b3a"/><circle cx="319.06" cy="310.42" r="2.2" fill="#c44b3a" opacity="0.58"/><circle cx="314.74" cy="362.25" r="2.2" fill="#c44b3a"/><circle cx="362.25" cy="314.74" r="2.2" fill="#c44b3a" opacity="0.58"/><circle cx="314.74" cy="379.52" r="2.2" fill="#c44b3a"/><circle cx="379.52" cy="314.74" r="2.2" fill="#c44b3a" opacity="0.58"/><circle cx="319.06" cy="327.69" r="2.2" fill="#c44b3a"/><circle cx="327.69" cy="319.06" r="2.2" fill="#c44b3a" opacity="0.58"/><circle cx="327.69" cy="336.33" r="2.2" fill="#c44b3a"/><circle cx="336.33" cy="327.69" r="2.2" fill="#c44b3a" opacity="0.58"/><circle cx="332.01" cy="362.25" r="2.2" fill="#c44b3a"/><circle cx="362.25" cy="332.01" r="2.2" fill="#c44b3a" opacity="0.58"/><circle cx="332.01" cy="373.04" r="2.2" fill="#c44b3a"/><circle cx="373.04" cy="332.01" r="2.2" fill="#c44b3a" opacity="0.58"/><circle cx="332.01" cy="379.52" r="2.2" fill="#c44b3a"/><circle cx="379.52" cy="332.01" r="2.2" fill="#c44b3a" opacity="0.58"/><circle cx="336.33" cy="344.97" r="2.2" fill="#c44b3a"/><circle cx="344.97" cy="336.33" r="2.2" fill="#c44b3a" opacity="0.58"/>
  <text x="34" y="412" font-family="Arial, sans-serif" font-size="11" fill="#58635e">row: coord_002_pdb_2LZM_A_t4_lysozyme | contacts: 82</text>
</svg>
