<svg xmlns="http://www.w3.org/2000/svg" width="760" height="260" viewBox="0 0 760 260" role="img" aria-label="Coarse-grain final collapse">
  <rect width="760" height="260" fill="#f8faf7"/>
  <text x="34" y="24" font-family="Arial, sans-serif" font-size="15" fill="#22302d">Coarse-grain final collapse</text>
<line x1="52.30" y1="121.91" x2="69.66" y2="125.08" stroke="#25636a" stroke-opacity="0.22" stroke-width="1.2"/><line x1="69.66" y1="125.08" x2="87.99" y2="128.28" stroke="#25636a" stroke-opacity="0.22" stroke-width="1.2"/><line x1="182.21" y1="125.53" x2="396.59" y2="120.96" stroke="#25636a" stroke-opacity="0.22" stroke-width="1.2"/><line x1="182.21" y1="125.53" x2="424.57" y2="115.16" stroke="#25636a" stroke-opacity="0.22" stroke-width="1.2"/><line x1="87.99" y1="128.28" x2="105.21" y2="131.08" stroke="#25636a" stroke-opacity="0.22" stroke-width="1.2"/><line x1="247.04" y1="126.23" x2="221.81" y2="134.80" stroke="#25636a" stroke-opacity="0.22" stroke-width="1.2"/><line x1="247.04" y1="126.23" x2="297.82" y2="130.75" stroke="#25636a" stroke-opacity="0.22" stroke-width="1.2"/><line x1="247.04" y1="126.23" x2="328.63" y2="127.22" stroke="#25636a" stroke-opacity="0.22" stroke-width="1.2"/><line x1="247.04" y1="126.23" x2="396.59" y2="120.96" stroke="#25636a" stroke-opacity="0.22" stroke-width="1.2"/><line x1="247.04" y1="126.23" x2="338.73" y2="125.97" stroke="#25636a" stroke-opacity="0.22" stroke-width="1.2"/><line x1="247.04" y1="126.23" x2="393.57" y2="115.59" stroke="#25636a" stroke-opacity="0.22" stroke-width="1.2"/><line x1="247.04" y1="126.23" x2="424.57" y2="115.16" stroke="#25636a" stroke-opacity="0.22" stroke-width="1.2"/><line x1="247.04" y1="126.23" x2="443.78" y2="109.93" stroke="#25636a" stroke-opacity="0.22" stroke-width="1.2"/><line x1="247.04" y1="126.23" x2="437.98" y2="108.88" stroke="#25636a" stroke-opacity="0.22" stroke-width="1.2"/><line x1="247.04" y1="126.23" x2="440.24" y2="111.95" stroke="#25636a" stroke-opacity="0.22" stroke-width="1.2"/><line x1="224.28" y1="131.67" x2="396.59" y2="120.96" stroke="#25636a" stroke-opacity="0.22" stroke-width="1.2"/><line x1="224.28" y1="131.67" x2="424.57" y2="115.16" stroke="#25636a" stroke-opacity="0.22" stroke-width="1.2"/><line x1="224.28" y1="131.67" x2="440.24" y2="111.95" stroke="#25636a" stroke-opacity="0.22" stroke-width="1.2"/><line x1="221.81" y1="134.80" x2="396.59" y2="120.96" stroke="#25636a" stroke-opacity="0.22" stroke-width="1.2"/><line x1="221.81" y1="134.80" x2="424.57" y2="115.16" stroke="#25636a" stroke-opacity="0.22" stroke-width="1.2"/><line x1="221.81" y1="134.80" x2="440.24" y2="111.95" stroke="#25636a" stroke-opacity="0.22" stroke-width="1.2"/><line x1="208.65" y1="139.98" x2="226.01" y2="139.77" stroke="#25636a" stroke-opacity="0.22" stroke-width="1.2"/><line x1="226.01" y1="139.77" x2="244.34" y2="139.01" stroke="#25636a" stroke-opacity="0.22" stroke-width="1.2"/><line x1="244.34" y1="139.01" x2="261.56" y2="137.81" stroke="#25636a" stroke-opacity="0.22" stroke-width="1.2"/><line x1="254.64" y1="138.36" x2="270.83" y2="136.97" stroke="#25636a" stroke-opacity="0.22" stroke-width="1.2"/><line x1="297.82" y1="130.75" x2="424.57" y2="115.16" stroke="#25636a" stroke-opacity="0.22" stroke-width="1.2"/><line x1="297.82" y1="130.75" x2="440.24" y2="111.95" stroke="#25636a" stroke-opacity="0.22" stroke-width="1.2"/><line x1="328.63" y1="127.22" x2="424.57" y2="115.16" stroke="#25636a" stroke-opacity="0.22" stroke-width="1.2"/><line x1="328.63" y1="127.22" x2="440.24" y2="111.95" stroke="#25636a" stroke-opacity="0.22" stroke-width="1.2"/><line x1="328.63" y1="127.22" x2="577.04" y2="114.61" stroke="#25636a" stroke-opacity="0.22" stroke-width="1.2"/><line x1="396.59" y1="120.96" x2="393.57" y2="115.59" stroke="#25636a" stroke-opacity="0.22" stroke-width="1.2"/><line x1="396.59" y1="120.96" x2="424.57" y2="115.16" stroke="#25636a" stroke-opacity="0.22" stroke-width="1.2"/><line x1="396.59" y1="120.96" x2="443.78" y2="109.93" stroke="#25636a" stroke-opacity="0.22" stroke-width="1.2"/><line x1="396.59" y1="120.96" x2="437.98" y2="108.88" stroke="#25636a" stroke-opacity="0.22" stroke-width="1.2"/><line x1="396.59" y1="120.96" x2="440.24" y2="111.95" stroke="#25636a" stroke-opacity="0.22" stroke-width="1.2"/><line x1="396.59" y1="120.96" x2="559.40" y2="104.98" stroke="#25636a" stroke-opacity="0.22" stroke-width="1.2"/>
  <polyline points="42.00,120.00 52.30,121.91 60.39,123.40 69.66,125.08 182.21,125.53 87.99,128.28 97.18,129.81 105.21,131.08 115.58,132.64 247.04,126.23 133.97,135.09 143.17,136.16 152.37,137.10 224.28,131.67 170.76,138.62 179.96,139.17 189.16,139.59 221.81,134.80 208.65,139.98 216.75,139.97 226.01,139.77 235.14,139.50 244.34,139.01 254.64,138.36 261.56,137.81 270.83,136.97 281.13,135.90 297.82,130.75 299.52,133.60 308.72,132.30 317.92,130.91 328.63,127.22 396.59,120.96 346.61,126.10 355.81,124.46 363.97,122.96 373.17,121.27 381.13,119.79 390.33,118.08 400.69,116.18 409.89,114.51 420.19,112.71 393.57,115.59 436.38,110.00 424.57,115.16 443.78,109.93 465.07,105.78 474.27,104.63 483.47,103.60 440.24,111.95 501.86,101.89 512.16,101.18 521.36,100.67 528.35,100.38 537.55,100.13 547.85,100.00 557.05,100.06 567.35,100.31 575.44,100.60 584.71,101.12 559.40,104.98 603.04,102.50 575.55,106.09 620.25,104.24 630.63,105.49 639.82,106.71 649.02,108.04 659.32,109.63 667.41,110.94 676.68,112.52 577.04,114.61 695.01,115.77 704.20,117.44 712.23,118.93" fill="none" stroke="#7d8f86" stroke-width="3"/>
  <circle cx="42.00" cy="120.00" r="3.2" fill="#22302d"/><circle cx="60.39" cy="123.40" r="3.2" fill="#22302d"/><circle cx="182.21" cy="125.53" r="3.2" fill="#22302d"/><circle cx="97.18" cy="129.81" r="3.2" fill="#22302d"/><circle cx="115.58" cy="132.64" r="3.2" fill="#22302d"/><circle cx="133.97" cy="135.09" r="3.2" fill="#22302d"/><circle cx="152.37" cy="137.10" r="3.2" fill="#22302d"/><circle cx="170.76" cy="138.62" r="3.2" fill="#22302d"/><circle cx="189.16" cy="139.59" r="3.2" fill="#22302d"/><circle cx="208.65" cy="139.98" r="3.2" fill="#22302d"/><circle cx="226.01" cy="139.77" r="3.2" fill="#22302d"/><circle cx="244.34" cy="139.01" r="3.2" fill="#22302d"/><circle cx="261.56" cy="137.81" r="3.2" fill="#22302d"/><circle cx="281.13" cy="135.90" r="3.2" fill="#22302d"/><circle cx="299.52" cy="133.60" r="3.2" fill="#22302d"/><circle cx="317.92" cy="130.91" r="3.2" fill="#22302d"/><circle cx="396.59" cy="120.96" r="3.2" fill="#22302d"/><circle cx="355.81" cy="124.46" r="3.2" fill="#22302d"/><circle cx="373.17" cy="121.27" r="3.2" fill="#22302d"/><circle cx="390.33" cy="118.08" r="3.2" fill="#22302d"/><circle cx="409.89" cy="114.51" r="3.2" fill="#22302d"/><circle cx="393.57" cy="115.59" r="3.2" fill="#22302d"/><circle cx="424.57" cy="115.16" r="3.2" fill="#22302d"/><circle cx="465.07" cy="105.78" r="3.2" fill="#22302d"/><circle cx="483.47" cy="103.60" r="3.2" fill="#22302d"/><circle cx="501.86" cy="101.89" r="3.2" fill="#22302d"/><circle cx="521.36" cy="100.67" r="3.2" fill="#22302d"/><circle cx="537.55" cy="100.13" r="3.2" fill="#22302d"/><circle cx="557.05" cy="100.06" r="3.2" fill="#22302d"/><circle cx="575.44" cy="100.60" r="3.2" fill="#22302d"/><circle cx="559.40" cy="104.98" r="3.2" fill="#22302d"/><circle cx="575.55" cy="106.09" r="3.2" fill="#22302d"/><circle cx="630.63" cy="105.49" r="3.2" fill="#22302d"/><circle cx="649.02" cy="108.04" r="3.2" fill="#22302d"/><circle cx="667.41" cy="110.94" r="3.2" fill="#22302d"/><circle cx="577.04" cy="114.61" r="3.2" fill="#22302d"/><circle cx="704.20" cy="117.44" r="3.2" fill="#22302d"/>
  <text x="34" y="248" font-family="Arial, sans-serif" font-size="11" fill="#58635e">row: visual_012_arch_calmodulin | coarse beads, not atomic structure</text>
</svg>
