<svg xmlns="http://www.w3.org/2000/svg" width="420" height="420" viewBox="0 0 420 420" role="img" aria-label="Locked coarse native contact target">
  <rect width="420" height="420" fill="#f8faf7"/>
  <text x="34" y="22" font-family="Arial, sans-serif" font-size="14" fill="#22302d">Locked coarse native contact target</text>
  <line x1="34" y1="34" x2="34" y2="386" stroke="#9aa69f"/>
  <line x1="34" y1="386" x2="386" y2="386" stroke="#9aa69f"/>
  <line x1="34" y1="34" x2="386" y2="386" stroke="#cfd8d2" stroke-dasharray="4 4"/>
  <circle cx="34.00" cy="43.58" r="2.2" fill="#294f9b"/><circle cx="43.58" cy="34.00" r="2.2" fill="#294f9b" opacity="0.58"/><circle cx="43.58" cy="53.16" r="2.2" fill="#294f9b"/><circle cx="53.16" cy="43.58" r="2.2" fill="#294f9b" opacity="0.58"/><circle cx="45.97" cy="93.86" r="2.2" fill="#294f9b"/><circle cx="93.86" cy="45.97" r="2.2" fill="#294f9b" opacity="0.58"/><circle cx="53.16" cy="62.73" r="2.2" fill="#294f9b"/><circle cx="62.73" cy="53.16" r="2.2" fill="#294f9b" opacity="0.58"/><circle cx="62.73" cy="72.31" r="2.2" fill="#294f9b"/><circle cx="72.31" cy="62.73" r="2.2" fill="#294f9b" opacity="0.58"/><circle cx="67.52" cy="77.10" r="2.2" fill="#294f9b"/><circle cx="77.10" cy="67.52" r="2.2" fill="#294f9b" opacity="0.58"/><circle cx="72.31" cy="81.89" r="2.2" fill="#294f9b"/><circle cx="81.89" cy="72.31" r="2.2" fill="#294f9b" opacity="0.58"/><circle cx="81.89" cy="91.47" r="2.2" fill="#294f9b"/><circle cx="91.47" cy="81.89" r="2.2" fill="#294f9b" opacity="0.58"/><circle cx="89.07" cy="136.97" r="2.2" fill="#294f9b"/><circle cx="136.97" cy="89.07" r="2.2" fill="#294f9b" opacity="0.58"/><circle cx="91.47" cy="101.05" r="2.2" fill="#294f9b"/><circle cx="101.05" cy="91.47" r="2.2" fill="#294f9b" opacity="0.58"/><circle cx="110.63" cy="120.20" r="2.2" fill="#294f9b"/><circle cx="120.20" cy="110.63" r="2.2" fill="#294f9b" opacity="0.58"/><circle cx="115.41" cy="124.99" r="2.2" fill="#294f9b"/><circle cx="124.99" cy="115.41" r="2.2" fill="#294f9b" opacity="0.58"/><circle cx="120.20" cy="129.78" r="2.2" fill="#294f9b"/><circle cx="129.78" cy="120.20" r="2.2" fill="#294f9b" opacity="0.58"/><circle cx="129.78" cy="139.36" r="2.2" fill="#294f9b"/><circle cx="139.36" cy="129.78" r="2.2" fill="#294f9b" opacity="0.58"/><circle cx="132.18" cy="180.07" r="2.2" fill="#294f9b"/><circle cx="180.07" cy="132.18" r="2.2" fill="#294f9b" opacity="0.58"/><circle cx="139.36" cy="148.94" r="2.2" fill="#294f9b"/><circle cx="148.94" cy="139.36" r="2.2" fill="#294f9b" opacity="0.58"/><circle cx="148.94" cy="158.52" r="2.2" fill="#294f9b"/><circle cx="158.52" cy="148.94" r="2.2" fill="#294f9b" opacity="0.58"/><circle cx="158.52" cy="168.10" r="2.2" fill="#294f9b"/><circle cx="168.10" cy="158.52" r="2.2" fill="#294f9b" opacity="0.58"/><circle cx="160.91" cy="256.69" r="2.2" fill="#294f9b"/><circle cx="256.69" cy="160.91" r="2.2" fill="#294f9b" opacity="0.58"/><circle cx="163.31" cy="172.88" r="2.2" fill="#294f9b"/><circle cx="172.88" cy="163.31" r="2.2" fill="#294f9b" opacity="0.58"/><circle cx="168.10" cy="177.67" r="2.2" fill="#294f9b"/><circle cx="177.67" cy="168.10" r="2.2" fill="#294f9b" opacity="0.58"/><circle cx="175.28" cy="223.17" r="2.2" fill="#294f9b"/><circle cx="223.17" cy="175.28" r="2.2" fill="#294f9b" opacity="0.58"/><circle cx="180.07" cy="237.54" r="2.2" fill="#294f9b"/><circle cx="237.54" cy="180.07" r="2.2" fill="#294f9b" opacity="0.58"/><circle cx="187.25" cy="196.83" r="2.2" fill="#294f9b"/><circle cx="196.83" cy="187.25" r="2.2" fill="#294f9b" opacity="0.58"/><circle cx="196.83" cy="206.41" r="2.2" fill="#294f9b"/><circle cx="206.41" cy="196.83" r="2.2" fill="#294f9b" opacity="0.58"/><circle cx="199.22" cy="218.38" r="2.2" fill="#294f9b"/><circle cx="218.38" cy="199.22" r="2.2" fill="#294f9b" opacity="0.58"/><circle cx="206.41" cy="215.99" r="2.2" fill="#294f9b"/><circle cx="215.99" cy="206.41" r="2.2" fill="#294f9b" opacity="0.58"/><circle cx="215.99" cy="225.56" r="2.2" fill="#294f9b"/><circle cx="225.56" cy="215.99" r="2.2" fill="#294f9b" opacity="0.58"/><circle cx="218.38" cy="266.27" r="2.2" fill="#294f9b"/><circle cx="266.27" cy="218.38" r="2.2" fill="#294f9b" opacity="0.58"/><circle cx="220.78" cy="230.35" r="2.2" fill="#294f9b"/><circle cx="230.35" cy="220.78" r="2.2" fill="#294f9b" opacity="0.58"/><circle cx="244.72" cy="254.30" r="2.2" fill="#294f9b"/><circle cx="254.30" cy="244.72" r="2.2" fill="#294f9b" opacity="0.58"/><circle cx="261.48" cy="309.37" r="2.2" fill="#294f9b"/><circle cx="309.37" cy="261.48" r="2.2" fill="#294f9b" opacity="0.58"/><circle cx="268.67" cy="278.24" r="2.2" fill="#294f9b"/><circle cx="278.24" cy="268.67" r="2.2" fill="#294f9b" opacity="0.58"/><circle cx="273.46" cy="283.03" r="2.2" fill="#294f9b"/><circle cx="283.03" cy="273.46" r="2.2" fill="#294f9b" opacity="0.58"/><circle cx="283.03" cy="292.61" r="2.2" fill="#294f9b"/><circle cx="292.61" cy="283.03" r="2.2" fill="#294f9b" opacity="0.58"/><circle cx="292.61" cy="302.19" r="2.2" fill="#294f9b"/><circle cx="302.19" cy="292.61" r="2.2" fill="#294f9b" opacity="0.58"/><circle cx="304.59" cy="352.48" r="2.2" fill="#294f9b"/><circle cx="352.48" cy="304.59" r="2.2" fill="#294f9b" opacity="0.58"/><circle cx="316.56" cy="326.14" r="2.2" fill="#294f9b"/><circle cx="326.14" cy="316.56" r="2.2" fill="#294f9b" opacity="0.58"/><circle cx="340.50" cy="350.08" r="2.2" fill="#294f9b"/><circle cx="350.08" cy="340.50" r="2.2" fill="#294f9b" opacity="0.58"/><circle cx="364.45" cy="374.03" r="2.2" fill="#294f9b"/><circle cx="374.03" cy="364.45" r="2.2" fill="#294f9b" opacity="0.58"/><circle cx="369.24" cy="378.82" r="2.2" fill="#294f9b"/><circle cx="378.82" cy="369.24" r="2.2" fill="#294f9b" opacity="0.58"/>
  <text x="34" y="412" font-family="Arial, sans-serif" font-size="11" fill="#58635e">row: visual_012_arch_calmodulin | contacts: 41</text>
</svg>
