<svg xmlns="http://www.w3.org/2000/svg" width="420" height="420" viewBox="0 0 420 420" role="img" aria-label="Locked coarse native contact target">
  <rect width="420" height="420" fill="#f8faf7"/>
  <text x="34" y="22" font-family="Arial, sans-serif" font-size="14" fill="#22302d">Locked coarse native contact target</text>
  <line x1="34" y1="34" x2="34" y2="386" stroke="#9aa69f"/>
  <line x1="34" y1="386" x2="386" y2="386" stroke="#9aa69f"/>
  <line x1="34" y1="34" x2="386" y2="386" stroke="#cfd8d2" stroke-dasharray="4 4"/>
  <circle cx="40.40" cy="66.00" r="2.2" fill="#294f9b"/><circle cx="66.00" cy="40.40" r="2.2" fill="#294f9b" opacity="0.58"/><circle cx="59.60" cy="85.20" r="2.2" fill="#294f9b"/><circle cx="85.20" cy="59.60" r="2.2" fill="#294f9b" opacity="0.58"/><circle cx="78.80" cy="104.40" r="2.2" fill="#294f9b"/><circle cx="104.40" cy="78.80" r="2.2" fill="#294f9b" opacity="0.58"/><circle cx="78.80" cy="258.00" r="2.2" fill="#294f9b"/><circle cx="258.00" cy="78.80" r="2.2" fill="#294f9b" opacity="0.58"/><circle cx="98.00" cy="123.60" r="2.2" fill="#294f9b"/><circle cx="123.60" cy="98.00" r="2.2" fill="#294f9b" opacity="0.58"/><circle cx="117.20" cy="142.80" r="2.2" fill="#294f9b"/><circle cx="142.80" cy="117.20" r="2.2" fill="#294f9b" opacity="0.58"/><circle cx="136.40" cy="162.00" r="2.2" fill="#294f9b"/><circle cx="162.00" cy="136.40" r="2.2" fill="#294f9b" opacity="0.58"/><circle cx="142.80" cy="258.00" r="2.2" fill="#294f9b"/><circle cx="258.00" cy="142.80" r="2.2" fill="#294f9b" opacity="0.58"/><circle cx="149.20" cy="251.60" r="2.2" fill="#294f9b"/><circle cx="251.60" cy="149.20" r="2.2" fill="#294f9b" opacity="0.58"/><circle cx="155.60" cy="181.20" r="2.2" fill="#294f9b"/><circle cx="181.20" cy="155.60" r="2.2" fill="#294f9b" opacity="0.58"/><circle cx="155.60" cy="245.20" r="2.2" fill="#294f9b"/><circle cx="245.20" cy="155.60" r="2.2" fill="#294f9b" opacity="0.58"/><circle cx="162.00" cy="238.80" r="2.2" fill="#294f9b"/><circle cx="238.80" cy="162.00" r="2.2" fill="#294f9b" opacity="0.58"/><circle cx="168.40" cy="232.40" r="2.2" fill="#294f9b"/><circle cx="232.40" cy="168.40" r="2.2" fill="#294f9b" opacity="0.58"/><circle cx="174.80" cy="200.40" r="2.2" fill="#294f9b"/><circle cx="200.40" cy="174.80" r="2.2" fill="#294f9b" opacity="0.58"/><circle cx="194.00" cy="219.60" r="2.2" fill="#294f9b"/><circle cx="219.60" cy="194.00" r="2.2" fill="#294f9b" opacity="0.58"/><circle cx="232.40" cy="347.60" r="2.2" fill="#294f9b"/><circle cx="347.60" cy="232.40" r="2.2" fill="#294f9b" opacity="0.58"/><circle cx="238.80" cy="341.20" r="2.2" fill="#294f9b"/><circle cx="341.20" cy="238.80" r="2.2" fill="#294f9b" opacity="0.58"/><circle cx="245.20" cy="334.80" r="2.2" fill="#294f9b"/><circle cx="334.80" cy="245.20" r="2.2" fill="#294f9b" opacity="0.58"/><circle cx="251.60" cy="328.40" r="2.2" fill="#294f9b"/><circle cx="328.40" cy="251.60" r="2.2" fill="#294f9b" opacity="0.58"/><circle cx="258.00" cy="322.00" r="2.2" fill="#294f9b"/><circle cx="322.00" cy="258.00" r="2.2" fill="#294f9b" opacity="0.58"/>
  <text x="34" y="412" font-family="Arial, sans-serif" font-size="11" fill="#58635e">row: visual_007_mixed_protein_g | contacts: 20</text>
</svg>
