<svg xmlns="http://www.w3.org/2000/svg" width="760" height="260" viewBox="0 0 760 260" role="img" aria-label="Repaired coarse-grain final collapse">
  <rect width="760" height="260" fill="#f8faf7"/>
  <text x="34" y="24" font-family="Arial, sans-serif" font-size="15" fill="#22302d">Repaired coarse-grain final collapse</text>
<line x1="44.95" y1="120.53" x2="118.11" y2="127.93" stroke="#25636a" stroke-opacity="0.22" stroke-width="1.2"/><line x1="258.24" y1="118.94" x2="306.22" y2="128.26" stroke="#25636a" stroke-opacity="0.22" stroke-width="1.2"/><line x1="258.24" y1="118.94" x2="388.56" y2="118.00" stroke="#25636a" stroke-opacity="0.22" stroke-width="1.2"/><line x1="258.24" y1="118.94" x2="400.81" y2="117.67" stroke="#25636a" stroke-opacity="0.22" stroke-width="1.2"/><line x1="258.24" y1="118.94" x2="407.83" y2="113.29" stroke="#25636a" stroke-opacity="0.22" stroke-width="1.2"/><line x1="258.24" y1="118.94" x2="475.81" y2="104.37" stroke="#25636a" stroke-opacity="0.22" stroke-width="1.2"/><line x1="258.24" y1="118.94" x2="512.23" y2="103.91" stroke="#25636a" stroke-opacity="0.22" stroke-width="1.2"/><line x1="258.24" y1="118.94" x2="523.09" y2="105.63" stroke="#25636a" stroke-opacity="0.22" stroke-width="1.2"/><line x1="258.24" y1="118.94" x2="584.31" y2="112.96" stroke="#25636a" stroke-opacity="0.22" stroke-width="1.2"/><line x1="201.34" y1="127.70" x2="400.81" y2="117.67" stroke="#25636a" stroke-opacity="0.22" stroke-width="1.2"/><line x1="201.34" y1="127.70" x2="584.31" y2="112.96" stroke="#25636a" stroke-opacity="0.22" stroke-width="1.2"/><line x1="227.96" y1="137.70" x2="267.23" y2="135.58" stroke="#25636a" stroke-opacity="0.22" stroke-width="1.2"/><line x1="267.23" y1="135.58" x2="312.41" y2="131.60" stroke="#25636a" stroke-opacity="0.22" stroke-width="1.2"/><line x1="294.10" y1="132.59" x2="324.87" y2="129.69" stroke="#25636a" stroke-opacity="0.22" stroke-width="1.2"/><line x1="306.22" y1="128.26" x2="512.23" y2="103.91" stroke="#25636a" stroke-opacity="0.22" stroke-width="1.2"/><line x1="306.22" y1="128.26" x2="523.09" y2="105.63" stroke="#25636a" stroke-opacity="0.22" stroke-width="1.2"/><line x1="312.41" y1="131.60" x2="361.56" y2="123.36" stroke="#25636a" stroke-opacity="0.22" stroke-width="1.2"/><line x1="324.87" y1="129.69" x2="373.87" y2="121.12" stroke="#25636a" stroke-opacity="0.22" stroke-width="1.2"/><line x1="361.56" y1="123.36" x2="390.38" y2="116.31" stroke="#25636a" stroke-opacity="0.22" stroke-width="1.2"/><line x1="373.87" y1="121.12" x2="418.93" y2="113.48" stroke="#25636a" stroke-opacity="0.22" stroke-width="1.2"/><line x1="388.56" y1="118.00" x2="523.09" y2="105.63" stroke="#25636a" stroke-opacity="0.22" stroke-width="1.2"/><line x1="400.81" y1="117.67" x2="584.31" y2="112.96" stroke="#25636a" stroke-opacity="0.22" stroke-width="1.2"/><line x1="400.81" y1="117.67" x2="618.57" y2="116.56" stroke="#25636a" stroke-opacity="0.22" stroke-width="1.2"/><line x1="407.83" y1="113.29" x2="584.31" y2="112.96" stroke="#25636a" stroke-opacity="0.22" stroke-width="1.2"/><line x1="201.34" y1="127.70" x2="618.57" y2="116.56" stroke="#25636a" stroke-opacity="0.22" stroke-width="1.2"/><line x1="306.22" y1="128.26" x2="475.81" y2="104.37" stroke="#25636a" stroke-opacity="0.22" stroke-width="1.2"/><line x1="258.24" y1="118.94" x2="618.57" y2="116.56" stroke="#25636a" stroke-opacity="0.22" stroke-width="1.2"/><line x1="201.34" y1="127.70" x2="407.83" y2="113.29" stroke="#25636a" stroke-opacity="0.22" stroke-width="1.2"/><line x1="306.22" y1="128.26" x2="388.56" y2="118.00" stroke="#25636a" stroke-opacity="0.22" stroke-width="1.2"/><line x1="407.83" y1="113.29" x2="512.23" y2="103.91" stroke="#25636a" stroke-opacity="0.22" stroke-width="1.2"/><line x1="242.17" y1="137.48" x2="407.83" y2="113.29" stroke="#25636a" stroke-opacity="0.22" stroke-width="1.2"/><line x1="118.11" y1="127.93" x2="294.10" y2="132.59" stroke="#25636a" stroke-opacity="0.22" stroke-width="1.2"/><line x1="294.10" y1="132.59" x2="400.81" y2="117.67" stroke="#25636a" stroke-opacity="0.22" stroke-width="1.2"/><line x1="93.38" y1="126.82" x2="306.22" y2="128.26" stroke="#25636a" stroke-opacity="0.22" stroke-width="1.2"/><line x1="118.11" y1="127.93" x2="390.38" y2="116.31" stroke="#25636a" stroke-opacity="0.22" stroke-width="1.2"/><line x1="201.34" y1="127.70" x2="267.23" y2="135.58" stroke="#25636a" stroke-opacity="0.22" stroke-width="1.2"/>
  <polyline points="44.95,120.53 54.29,122.28 258.24,118.94 93.38,126.82 118.11,127.93 201.34,127.70 123.86,133.02 155.53,132.76 146.29,135.96 156.48,137.29 164.91,138.19 177.20,139.02 189.49,139.60 201.78,139.93 227.96,137.70 233.68,137.78 242.17,137.48 253.46,136.75 267.23,135.58 294.10,132.59 306.22,128.26 300.11,133.52 312.41,131.60 324.87,129.69 336.98,127.79 349.27,125.63 361.56,123.36 373.87,121.12 388.56,118.00 400.81,117.67 390.38,116.31 418.93,113.48 407.83,113.29 441.02,109.53 450.40,107.97 451.97,106.66 484.47,103.49 496.76,102.31 475.81,104.37 521.35,100.66 528.32,100.70 539.23,100.62 512.23,103.91 560.83,101.23 523.09,105.63 573.90,105.58 600.15,104.67 619.67,104.16 631.96,105.66 644.25,107.34 656.55,109.19 584.31,112.96 681.13,113.28 618.57,116.56 698.97,116.89 708.80,119.08" fill="none" stroke="#7d8f86" stroke-width="3"/>
  <circle cx="44.95" cy="120.53" r="3.2" fill="#22302d"/><circle cx="54.29" cy="122.28" r="3.2" fill="#22302d"/><circle cx="258.24" cy="118.94" r="3.2" fill="#22302d"/><circle cx="93.38" cy="126.82" r="3.2" fill="#22302d"/><circle cx="118.11" cy="127.93" r="3.2" fill="#22302d"/><circle cx="201.34" cy="127.70" r="3.2" fill="#22302d"/><circle cx="123.86" cy="133.02" r="3.2" fill="#22302d"/><circle cx="155.53" cy="132.76" r="3.2" fill="#22302d"/><circle cx="146.29" cy="135.96" r="3.2" fill="#22302d"/><circle cx="156.48" cy="137.29" r="3.2" fill="#22302d"/><circle cx="164.91" cy="138.19" r="3.2" fill="#22302d"/><circle cx="177.20" cy="139.02" r="3.2" fill="#22302d"/><circle cx="189.49" cy="139.60" r="3.2" fill="#22302d"/><circle cx="201.78" cy="139.93" r="3.2" fill="#22302d"/><circle cx="227.96" cy="137.70" r="3.2" fill="#22302d"/><circle cx="233.68" cy="137.78" r="3.2" fill="#22302d"/><circle cx="242.17" cy="137.48" r="3.2" fill="#22302d"/><circle cx="253.46" cy="136.75" r="3.2" fill="#22302d"/><circle cx="267.23" cy="135.58" r="3.2" fill="#22302d"/><circle cx="294.10" cy="132.59" r="3.2" fill="#22302d"/><circle cx="306.22" cy="128.26" r="3.2" fill="#22302d"/><circle cx="300.11" cy="133.52" r="3.2" fill="#22302d"/><circle cx="312.41" cy="131.60" r="3.2" fill="#22302d"/><circle cx="324.87" cy="129.69" r="3.2" fill="#22302d"/><circle cx="336.98" cy="127.79" r="3.2" fill="#22302d"/><circle cx="349.27" cy="125.63" r="3.2" fill="#22302d"/><circle cx="361.56" cy="123.36" r="3.2" fill="#22302d"/><circle cx="373.87" cy="121.12" r="3.2" fill="#22302d"/><circle cx="388.56" cy="118.00" r="3.2" fill="#22302d"/><circle cx="400.81" cy="117.67" r="3.2" fill="#22302d"/><circle cx="390.38" cy="116.31" r="3.2" fill="#22302d"/><circle cx="418.93" cy="113.48" r="3.2" fill="#22302d"/><circle cx="407.83" cy="113.29" r="3.2" fill="#22302d"/><circle cx="441.02" cy="109.53" r="3.2" fill="#22302d"/><circle cx="450.40" cy="107.97" r="3.2" fill="#22302d"/><circle cx="451.97" cy="106.66" r="3.2" fill="#22302d"/><circle cx="484.47" cy="103.49" r="3.2" fill="#22302d"/><circle cx="496.76" cy="102.31" r="3.2" fill="#22302d"/><circle cx="475.81" cy="104.37" r="3.2" fill="#22302d"/><circle cx="521.35" cy="100.66" r="3.2" fill="#22302d"/><circle cx="528.32" cy="100.70" r="3.2" fill="#22302d"/><circle cx="539.23" cy="100.62" r="3.2" fill="#22302d"/><circle cx="512.23" cy="103.91" r="3.2" fill="#22302d"/><circle cx="560.83" cy="101.23" r="3.2" fill="#22302d"/><circle cx="523.09" cy="105.63" r="3.2" fill="#22302d"/><circle cx="573.90" cy="105.58" r="3.2" fill="#22302d"/><circle cx="600.15" cy="104.67" r="3.2" fill="#22302d"/><circle cx="619.67" cy="104.16" r="3.2" fill="#22302d"/><circle cx="631.96" cy="105.66" r="3.2" fill="#22302d"/><circle cx="644.25" cy="107.34" r="3.2" fill="#22302d"/><circle cx="656.55" cy="109.19" r="3.2" fill="#22302d"/><circle cx="584.31" cy="112.96" r="3.2" fill="#22302d"/><circle cx="681.13" cy="113.28" r="3.2" fill="#22302d"/><circle cx="618.57" cy="116.56" r="3.2" fill="#22302d"/><circle cx="698.97" cy="116.89" r="3.2" fill="#22302d"/><circle cx="708.80" cy="119.08" r="3.2" fill="#22302d"/>
  <text x="34" y="248" font-family="Arial, sans-serif" font-size="11" fill="#58635e">row: visual_007_mixed_protein_g | coarse beads, not atomic structure</text>
</svg>
