<svg xmlns="http://www.w3.org/2000/svg" width="420" height="420" viewBox="0 0 420 420" role="img" aria-label="contact map overlay">
  <rect width="420" height="420" fill="#f8faf7"/>
  <text x="34" y="22" font-family="Arial, sans-serif" font-size="14" fill="#22302d">Contact map overlay</text>
  <line x1="34" y1="34" x2="34" y2="386" stroke="#9aa69f"/>
  <line x1="34" y1="386" x2="386" y2="386" stroke="#9aa69f"/>
  <line x1="34" y1="34" x2="386" y2="386" stroke="#cfd8d2" stroke-dasharray="4 4"/>
  <circle cx="34.00" cy="59.60" r="2.0" fill="#c44b3a" opacity="0.88"/><circle cx="59.60" cy="34.00" r="2.0" fill="#c44b3a" opacity="0.46"/><circle cx="40.40" cy="66.00" r="2.4" fill="#294f9b" opacity="0.88"/><circle cx="66.00" cy="40.40" r="2.4" fill="#294f9b" opacity="0.46"/><circle cx="46.80" cy="162.00" r="2.0" fill="#c44b3a" opacity="0.88"/><circle cx="162.00" cy="46.80" r="2.0" fill="#c44b3a" opacity="0.46"/><circle cx="46.80" cy="213.20" r="2.0" fill="#c44b3a" opacity="0.88"/><circle cx="213.20" cy="46.80" r="2.0" fill="#c44b3a" opacity="0.46"/><circle cx="46.80" cy="219.60" r="2.0" fill="#c44b3a" opacity="0.88"/><circle cx="219.60" cy="46.80" r="2.0" fill="#c44b3a" opacity="0.46"/><circle cx="46.80" cy="238.80" r="2.0" fill="#c44b3a" opacity="0.88"/><circle cx="238.80" cy="46.80" r="2.0" fill="#c44b3a" opacity="0.46"/><circle cx="46.80" cy="277.20" r="2.0" fill="#c44b3a" opacity="0.88"/><circle cx="277.20" cy="46.80" r="2.0" fill="#c44b3a" opacity="0.46"/><circle cx="46.80" cy="302.80" r="2.0" fill="#c44b3a" opacity="0.88"/><circle cx="302.80" cy="46.80" r="2.0" fill="#c44b3a" opacity="0.46"/><circle cx="46.80" cy="315.60" r="2.0" fill="#c44b3a" opacity="0.88"/><circle cx="315.60" cy="46.80" r="2.0" fill="#c44b3a" opacity="0.46"/><circle cx="46.80" cy="360.40" r="2.0" fill="#c44b3a" opacity="0.88"/><circle cx="360.40" cy="46.80" r="2.0" fill="#c44b3a" opacity="0.46"/><circle cx="46.80" cy="373.20" r="2.0" fill="#c44b3a" opacity="0.88"/><circle cx="373.20" cy="46.80" r="2.0" fill="#c44b3a" opacity="0.46"/><circle cx="53.20" cy="162.00" r="2.0" fill="#c44b3a" opacity="0.88"/><circle cx="162.00" cy="53.20" r="2.0" fill="#c44b3a" opacity="0.46"/><circle cx="59.60" cy="85.20" r="2.4" fill="#294f9b" opacity="0.88"/><circle cx="85.20" cy="59.60" r="2.4" fill="#294f9b" opacity="0.46"/><circle cx="59.60" cy="155.60" r="2.0" fill="#c44b3a" opacity="0.88"/><circle cx="155.60" cy="59.60" r="2.0" fill="#c44b3a" opacity="0.46"/><circle cx="59.60" cy="226.00" r="2.0" fill="#c44b3a" opacity="0.88"/><circle cx="226.00" cy="59.60" r="2.0" fill="#c44b3a" opacity="0.46"/><circle cx="66.00" cy="149.20" r="2.0" fill="#c44b3a" opacity="0.88"/><circle cx="149.20" cy="66.00" r="2.0" fill="#c44b3a" opacity="0.46"/><circle cx="66.00" cy="219.60" r="2.0" fill="#c44b3a" opacity="0.88"/><circle cx="219.60" cy="66.00" r="2.0" fill="#c44b3a" opacity="0.46"/><circle cx="66.00" cy="238.80" r="2.0" fill="#c44b3a" opacity="0.88"/><circle cx="238.80" cy="66.00" r="2.0" fill="#c44b3a" opacity="0.46"/><circle cx="66.00" cy="360.40" r="2.0" fill="#c44b3a" opacity="0.88"/><circle cx="360.40" cy="66.00" r="2.0" fill="#c44b3a" opacity="0.46"/><circle cx="66.00" cy="373.20" r="2.0" fill="#c44b3a" opacity="0.88"/><circle cx="373.20" cy="66.00" r="2.0" fill="#c44b3a" opacity="0.46"/><circle cx="72.40" cy="142.80" r="2.0" fill="#c44b3a" opacity="0.88"/><circle cx="142.80" cy="72.40" r="2.0" fill="#c44b3a" opacity="0.46"/><circle cx="78.80" cy="104.40" r="2.4" fill="#294f9b" opacity="0.88"/><circle cx="104.40" cy="78.80" r="2.4" fill="#294f9b" opacity="0.46"/><circle cx="78.80" cy="136.40" r="2.0" fill="#c44b3a" opacity="0.88"/><circle cx="136.40" cy="78.80" r="2.0" fill="#c44b3a" opacity="0.46"/><circle cx="78.80" cy="258.00" r="2.8" fill="#218a5a" opacity="0.88"/><circle cx="258.00" cy="78.80" r="2.8" fill="#218a5a" opacity="0.46"/><circle cx="85.20" cy="130.00" r="2.0" fill="#c44b3a" opacity="0.88"/><circle cx="130.00" cy="85.20" r="2.0" fill="#c44b3a" opacity="0.46"/><circle cx="91.60" cy="123.60" r="2.0" fill="#c44b3a" opacity="0.88"/><circle cx="123.60" cy="91.60" r="2.0" fill="#c44b3a" opacity="0.46"/><circle cx="98.00" cy="123.60" r="2.4" fill="#294f9b" opacity="0.88"/><circle cx="123.60" cy="98.00" r="2.4" fill="#294f9b" opacity="0.46"/><circle cx="117.20" cy="142.80" r="2.4" fill="#294f9b" opacity="0.88"/><circle cx="142.80" cy="117.20" r="2.4" fill="#294f9b" opacity="0.46"/><circle cx="123.60" cy="149.20" r="2.0" fill="#c44b3a" opacity="0.88"/><circle cx="149.20" cy="123.60" r="2.0" fill="#c44b3a" opacity="0.46"/><circle cx="123.60" cy="251.60" r="2.0" fill="#c44b3a" opacity="0.88"/><circle cx="251.60" cy="123.60" r="2.0" fill="#c44b3a" opacity="0.46"/><circle cx="130.00" cy="245.20" r="2.0" fill="#c44b3a" opacity="0.88"/><circle cx="245.20" cy="130.00" r="2.0" fill="#c44b3a" opacity="0.46"/><circle cx="136.40" cy="162.00" r="2.4" fill="#294f9b" opacity="0.88"/><circle cx="162.00" cy="136.40" r="2.4" fill="#294f9b" opacity="0.46"/><circle cx="136.40" cy="238.80" r="2.0" fill="#c44b3a" opacity="0.88"/><circle cx="238.80" cy="136.40" r="2.0" fill="#c44b3a" opacity="0.46"/><circle cx="142.80" cy="232.40" r="2.0" fill="#c44b3a" opacity="0.88"/><circle cx="232.40" cy="142.80" r="2.0" fill="#c44b3a" opacity="0.46"/><circle cx="142.80" cy="258.00" r="2.4" fill="#294f9b" opacity="0.88"/><circle cx="258.00" cy="142.80" r="2.4" fill="#294f9b" opacity="0.46"/><circle cx="149.20" cy="174.80" r="2.0" fill="#c44b3a" opacity="0.88"/><circle cx="174.80" cy="149.20" r="2.0" fill="#c44b3a" opacity="0.46"/><circle cx="149.20" cy="226.00" r="2.0" fill="#c44b3a" opacity="0.88"/><circle cx="226.00" cy="149.20" r="2.0" fill="#c44b3a" opacity="0.46"/><circle cx="149.20" cy="251.60" r="2.4" fill="#294f9b" opacity="0.88"/><circle cx="251.60" cy="149.20" r="2.4" fill="#294f9b" opacity="0.46"/><circle cx="155.60" cy="181.20" r="2.8" fill="#218a5a" opacity="0.88"/><circle cx="181.20" cy="155.60" r="2.8" fill="#218a5a" opacity="0.46"/><circle cx="155.60" cy="219.60" r="2.0" fill="#c44b3a" opacity="0.88"/><circle cx="219.60" cy="155.60" r="2.0" fill="#c44b3a" opacity="0.46"/><circle cx="155.60" cy="245.20" r="2.4" fill="#294f9b" opacity="0.88"/><circle cx="245.20" cy="155.60" r="2.4" fill="#294f9b" opacity="0.46"/><circle cx="155.60" cy="322.00" r="2.0" fill="#c44b3a" opacity="0.88"/><circle cx="322.00" cy="155.60" r="2.0" fill="#c44b3a" opacity="0.46"/><circle cx="162.00" cy="213.20" r="2.0" fill="#c44b3a" opacity="0.88"/><circle cx="213.20" cy="162.00" r="2.0" fill="#c44b3a" opacity="0.46"/><circle cx="162.00" cy="238.80" r="2.4" fill="#294f9b" opacity="0.88"/><circle cx="238.80" cy="162.00" r="2.4" fill="#294f9b" opacity="0.46"/><circle cx="162.00" cy="277.20" r="2.0" fill="#c44b3a" opacity="0.88"/><circle cx="277.20" cy="162.00" r="2.0" fill="#c44b3a" opacity="0.46"/><circle cx="162.00" cy="302.80" r="2.0" fill="#c44b3a" opacity="0.88"/><circle cx="302.80" cy="162.00" r="2.0" fill="#c44b3a" opacity="0.46"/><circle cx="162.00" cy="315.60" r="2.0" fill="#c44b3a" opacity="0.88"/><circle cx="315.60" cy="162.00" r="2.0" fill="#c44b3a" opacity="0.46"/><circle cx="168.40" cy="232.40" r="2.4" fill="#294f9b" opacity="0.88"/><circle cx="232.40" cy="168.40" r="2.4" fill="#294f9b" opacity="0.46"/><circle cx="174.80" cy="200.40" r="2.8" fill="#218a5a" opacity="0.88"/><circle cx="200.40" cy="174.80" r="2.8" fill="#218a5a" opacity="0.46"/><circle cx="181.20" cy="206.80" r="2.0" fill="#c44b3a" opacity="0.88"/><circle cx="206.80" cy="181.20" r="2.0" fill="#c44b3a" opacity="0.46"/><circle cx="194.00" cy="219.60" r="2.4" fill="#294f9b" opacity="0.88"/><circle cx="219.60" cy="194.00" r="2.4" fill="#294f9b" opacity="0.46"/><circle cx="200.40" cy="226.00" r="2.0" fill="#c44b3a" opacity="0.88"/><circle cx="226.00" cy="200.40" r="2.0" fill="#c44b3a" opacity="0.46"/><circle cx="206.80" cy="232.40" r="2.0" fill="#c44b3a" opacity="0.88"/><circle cx="232.40" cy="206.80" r="2.0" fill="#c44b3a" opacity="0.46"/><circle cx="213.20" cy="315.60" r="2.0" fill="#c44b3a" opacity="0.88"/><circle cx="315.60" cy="213.20" r="2.0" fill="#c44b3a" opacity="0.46"/><circle cx="213.20" cy="328.40" r="2.0" fill="#c44b3a" opacity="0.88"/><circle cx="328.40" cy="213.20" r="2.0" fill="#c44b3a" opacity="0.46"/><circle cx="219.60" cy="322.00" r="2.0" fill="#c44b3a" opacity="0.88"/><circle cx="322.00" cy="219.60" r="2.0" fill="#c44b3a" opacity="0.46"/><circle cx="219.60" cy="360.40" r="2.0" fill="#c44b3a" opacity="0.88"/><circle cx="360.40" cy="219.60" r="2.0" fill="#c44b3a" opacity="0.46"/><circle cx="219.60" cy="373.20" r="2.0" fill="#c44b3a" opacity="0.88"/><circle cx="373.20" cy="219.60" r="2.0" fill="#c44b3a" opacity="0.46"/><circle cx="226.00" cy="315.60" r="2.0" fill="#c44b3a" opacity="0.88"/><circle cx="315.60" cy="226.00" r="2.0" fill="#c44b3a" opacity="0.46"/><circle cx="232.40" cy="309.20" r="2.0" fill="#c44b3a" opacity="0.88"/><circle cx="309.20" cy="232.40" r="2.0" fill="#c44b3a" opacity="0.46"/><circle cx="232.40" cy="347.60" r="2.4" fill="#294f9b" opacity="0.88"/><circle cx="347.60" cy="232.40" r="2.4" fill="#294f9b" opacity="0.46"/><circle cx="238.80" cy="302.80" r="2.0" fill="#c44b3a" opacity="0.88"/><circle cx="302.80" cy="238.80" r="2.0" fill="#c44b3a" opacity="0.46"/><circle cx="238.80" cy="341.20" r="2.4" fill="#294f9b" opacity="0.88"/><circle cx="341.20" cy="238.80" r="2.4" fill="#294f9b" opacity="0.46"/><circle cx="238.80" cy="360.40" r="2.0" fill="#c44b3a" opacity="0.88"/><circle cx="360.40" cy="238.80" r="2.0" fill="#c44b3a" opacity="0.46"/><circle cx="245.20" cy="296.40" r="2.0" fill="#c44b3a" opacity="0.88"/><circle cx="296.40" cy="245.20" r="2.0" fill="#c44b3a" opacity="0.46"/><circle cx="245.20" cy="334.80" r="2.4" fill="#294f9b" opacity="0.88"/><circle cx="334.80" cy="245.20" r="2.4" fill="#294f9b" opacity="0.46"/><circle cx="251.60" cy="290.00" r="2.0" fill="#c44b3a" opacity="0.88"/><circle cx="290.00" cy="251.60" r="2.0" fill="#c44b3a" opacity="0.46"/><circle cx="251.60" cy="328.40" r="2.4" fill="#294f9b" opacity="0.88"/><circle cx="328.40" cy="251.60" r="2.4" fill="#294f9b" opacity="0.46"/><circle cx="258.00" cy="322.00" r="2.4" fill="#294f9b" opacity="0.88"/><circle cx="322.00" cy="258.00" r="2.4" fill="#294f9b" opacity="0.46"/><circle cx="322.00" cy="386.00" r="2.0" fill="#c44b3a" opacity="0.88"/><circle cx="386.00" cy="322.00" r="2.0" fill="#c44b3a" opacity="0.46"/><circle cx="328.40" cy="379.60" r="2.0" fill="#c44b3a" opacity="0.88"/><circle cx="379.60" cy="328.40" r="2.0" fill="#c44b3a" opacity="0.46"/>
  <g font-family="Arial, sans-serif" font-size="11" fill="#34423d">
    <rect x="34" y="372" width="250" height="32" fill="#ffffff" stroke="#d5ddd5"/>
    <circle cx="46" cy="384" r="4" fill="#218a5a"/><text x="56" y="388">native + predicted</text>
    <circle cx="156" cy="384" r="4" fill="#294f9b"/><text x="166" y="388">native only</text>
    <circle cx="236" cy="384" r="4" fill="#c44b3a"/><text x="246" y="388">predicted only</text>
  </g>
  <text x="34" y="412" font-family="Arial, sans-serif" font-size="11" fill="#58635e">row: visual_007_mixed_protein_g</text>
</svg>
