<svg xmlns="http://www.w3.org/2000/svg" width="420" height="420" viewBox="0 0 420 420" role="img" aria-label="Sequence-only predicted contact candidates">
  <rect width="420" height="420" fill="#f8faf7"/>
  <text x="34" y="22" font-family="Arial, sans-serif" font-size="14" fill="#22302d">Sequence-only predicted contact candidates</text>
  <line x1="34" y1="34" x2="34" y2="386" stroke="#9aa69f"/>
  <line x1="34" y1="386" x2="386" y2="386" stroke="#9aa69f"/>
  <line x1="34" y1="34" x2="386" y2="386" stroke="#cfd8d2" stroke-dasharray="4 4"/>
  <circle cx="34.00" cy="59.60" r="2.2" fill="#c44b3a"/><circle cx="59.60" cy="34.00" r="2.2" fill="#c44b3a" opacity="0.58"/><circle cx="46.80" cy="162.00" r="2.2" fill="#c44b3a"/><circle cx="162.00" cy="46.80" r="2.2" fill="#c44b3a" opacity="0.58"/><circle cx="46.80" cy="213.20" r="2.2" fill="#c44b3a"/><circle cx="213.20" cy="46.80" r="2.2" fill="#c44b3a" opacity="0.58"/><circle cx="46.80" cy="219.60" r="2.2" fill="#c44b3a"/><circle cx="219.60" cy="46.80" r="2.2" fill="#c44b3a" opacity="0.58"/><circle cx="46.80" cy="238.80" r="2.2" fill="#c44b3a"/><circle cx="238.80" cy="46.80" r="2.2" fill="#c44b3a" opacity="0.58"/><circle cx="46.80" cy="277.20" r="2.2" fill="#c44b3a"/><circle cx="277.20" cy="46.80" r="2.2" fill="#c44b3a" opacity="0.58"/><circle cx="46.80" cy="302.80" r="2.2" fill="#c44b3a"/><circle cx="302.80" cy="46.80" r="2.2" fill="#c44b3a" opacity="0.58"/><circle cx="46.80" cy="315.60" r="2.2" fill="#c44b3a"/><circle cx="315.60" cy="46.80" r="2.2" fill="#c44b3a" opacity="0.58"/><circle cx="46.80" cy="360.40" r="2.2" fill="#c44b3a"/><circle cx="360.40" cy="46.80" r="2.2" fill="#c44b3a" opacity="0.58"/><circle cx="46.80" cy="373.20" r="2.2" fill="#c44b3a"/><circle cx="373.20" cy="46.80" r="2.2" fill="#c44b3a" opacity="0.58"/><circle cx="66.00" cy="219.60" r="2.2" fill="#c44b3a"/><circle cx="219.60" cy="66.00" r="2.2" fill="#c44b3a" opacity="0.58"/><circle cx="66.00" cy="238.80" r="2.2" fill="#c44b3a"/><circle cx="238.80" cy="66.00" r="2.2" fill="#c44b3a" opacity="0.58"/><circle cx="66.00" cy="360.40" r="2.2" fill="#c44b3a"/><circle cx="360.40" cy="66.00" r="2.2" fill="#c44b3a" opacity="0.58"/><circle cx="66.00" cy="373.20" r="2.2" fill="#c44b3a"/><circle cx="373.20" cy="66.00" r="2.2" fill="#c44b3a" opacity="0.58"/><circle cx="123.60" cy="149.20" r="2.2" fill="#c44b3a"/><circle cx="149.20" cy="123.60" r="2.2" fill="#c44b3a" opacity="0.58"/><circle cx="149.20" cy="174.80" r="2.2" fill="#c44b3a"/><circle cx="174.80" cy="149.20" r="2.2" fill="#c44b3a" opacity="0.58"/><circle cx="155.60" cy="181.20" r="2.2" fill="#c44b3a"/><circle cx="181.20" cy="155.60" r="2.2" fill="#c44b3a" opacity="0.58"/><circle cx="162.00" cy="277.20" r="2.2" fill="#c44b3a"/><circle cx="277.20" cy="162.00" r="2.2" fill="#c44b3a" opacity="0.58"/><circle cx="162.00" cy="302.80" r="2.2" fill="#c44b3a"/><circle cx="302.80" cy="162.00" r="2.2" fill="#c44b3a" opacity="0.58"/><circle cx="162.00" cy="315.60" r="2.2" fill="#c44b3a"/><circle cx="315.60" cy="162.00" r="2.2" fill="#c44b3a" opacity="0.58"/><circle cx="174.80" cy="200.40" r="2.2" fill="#c44b3a"/><circle cx="200.40" cy="174.80" r="2.2" fill="#c44b3a" opacity="0.58"/><circle cx="181.20" cy="206.80" r="2.2" fill="#c44b3a"/><circle cx="206.80" cy="181.20" r="2.2" fill="#c44b3a" opacity="0.58"/><circle cx="200.40" cy="226.00" r="2.2" fill="#c44b3a"/><circle cx="226.00" cy="200.40" r="2.2" fill="#c44b3a" opacity="0.58"/><circle cx="206.80" cy="232.40" r="2.2" fill="#c44b3a"/><circle cx="232.40" cy="206.80" r="2.2" fill="#c44b3a" opacity="0.58"/><circle cx="213.20" cy="315.60" r="2.2" fill="#c44b3a"/><circle cx="315.60" cy="213.20" r="2.2" fill="#c44b3a" opacity="0.58"/><circle cx="219.60" cy="360.40" r="2.2" fill="#c44b3a"/><circle cx="360.40" cy="219.60" r="2.2" fill="#c44b3a" opacity="0.58"/><circle cx="219.60" cy="373.20" r="2.2" fill="#c44b3a"/><circle cx="373.20" cy="219.60" r="2.2" fill="#c44b3a" opacity="0.58"/><circle cx="238.80" cy="360.40" r="2.2" fill="#c44b3a"/><circle cx="360.40" cy="238.80" r="2.2" fill="#c44b3a" opacity="0.58"/>
  <text x="34" y="412" font-family="Arial, sans-serif" font-size="11" fill="#58635e">row: visual_007_mixed_protein_g | contacts: 28</text>
</svg>
