<svg xmlns="http://www.w3.org/2000/svg" width="760" height="260" viewBox="0 0 760 260" role="img" aria-label="native coordinate trace">
  <rect width="760" height="260" fill="#f8faf7"/>
  <text x="34" y="24" font-family="Arial, sans-serif" font-size="15" fill="#22302d">Native C-alpha Coordinate Trace</text>
  <line x1="133.15" y1="165.46" x2="228.10" y2="156.49" stroke="#326e8f" stroke-width="1" stroke-opacity="0.22"/><line x1="133.15" y1="165.46" x2="252.75" y2="149.66" stroke="#326e8f" stroke-width="1" stroke-opacity="0.22"/><line x1="133.15" y1="165.46" x2="228.84" y2="144.95" stroke="#326e8f" stroke-width="1" stroke-opacity="0.22"/><line x1="127.34" y1="137.26" x2="155.61" y2="77.02" stroke="#326e8f" stroke-width="1" stroke-opacity="0.22"/><line x1="127.34" y1="137.26" x2="228.10" y2="156.49" stroke="#326e8f" stroke-width="1" stroke-opacity="0.22"/><line x1="127.34" y1="137.26" x2="252.75" y2="149.66" stroke="#326e8f" stroke-width="1" stroke-opacity="0.22"/><line x1="127.34" y1="137.26" x2="228.84" y2="144.95" stroke="#326e8f" stroke-width="1" stroke-opacity="0.22"/><line x1="149.80" y1="132.57" x2="155.61" y2="77.02" stroke="#326e8f" stroke-width="1" stroke-opacity="0.22"/><line x1="149.80" y1="132.57" x2="264.37" y2="127.43" stroke="#326e8f" stroke-width="1" stroke-opacity="0.22"/><line x1="149.80" y1="132.57" x2="278.14" y2="142.39" stroke="#326e8f" stroke-width="1" stroke-opacity="0.22"/><line x1="149.80" y1="132.57" x2="228.10" y2="156.49" stroke="#326e8f" stroke-width="1" stroke-opacity="0.22"/><line x1="149.80" y1="132.57" x2="252.75" y2="149.66" stroke="#326e8f" stroke-width="1" stroke-opacity="0.22"/><line x1="197.65" y1="106.93" x2="313.66" y2="78.72" stroke="#326e8f" stroke-width="1" stroke-opacity="0.22"/><line x1="197.65" y1="106.93" x2="235.36" y2="65.06" stroke="#326e8f" stroke-width="1" stroke-opacity="0.22"/><line x1="197.65" y1="106.93" x2="155.61" y2="77.02" stroke="#326e8f" stroke-width="1" stroke-opacity="0.22"/><line x1="197.65" y1="106.93" x2="72.97" y2="62.49" stroke="#326e8f" stroke-width="1" stroke-opacity="0.22"/><line x1="197.65" y1="106.93" x2="264.37" y2="127.43" stroke="#326e8f" stroke-width="1" stroke-opacity="0.22"/><line x1="197.65" y1="106.93" x2="278.14" y2="142.39" stroke="#326e8f" stroke-width="1" stroke-opacity="0.22"/><line x1="197.65" y1="106.93" x2="228.10" y2="156.49" stroke="#326e8f" stroke-width="1" stroke-opacity="0.22"/><line x1="197.65" y1="106.93" x2="252.75" y2="149.66" stroke="#326e8f" stroke-width="1" stroke-opacity="0.22"/><line x1="260.01" y1="94.11" x2="313.66" y2="78.72" stroke="#326e8f" stroke-width="1" stroke-opacity="0.22"/><line x1="260.01" y1="94.11" x2="235.36" y2="65.06" stroke="#326e8f" stroke-width="1" stroke-opacity="0.22"/><line x1="260.01" y1="94.11" x2="155.61" y2="77.02" stroke="#326e8f" stroke-width="1" stroke-opacity="0.22"/><line x1="260.01" y1="94.11" x2="420.23" y2="76.59" stroke="#326e8f" stroke-width="1" stroke-opacity="0.22"/><line x1="260.01" y1="94.11" x2="334.67" y2="84.28" stroke="#326e8f" stroke-width="1" stroke-opacity="0.22"/><line x1="260.01" y1="94.11" x2="337.58" y2="114.19" stroke="#326e8f" stroke-width="1" stroke-opacity="0.22"/><line x1="260.01" y1="94.11" x2="264.37" y2="127.43" stroke="#326e8f" stroke-width="1" stroke-opacity="0.22"/><line x1="260.01" y1="94.11" x2="278.14" y2="142.39" stroke="#326e8f" stroke-width="1" stroke-opacity="0.22"/><line x1="349.19" y1="87.70" x2="511.58" y2="72.32" stroke="#326e8f" stroke-width="1" stroke-opacity="0.22"/><line x1="349.19" y1="87.70" x2="483.31" y2="66.76" stroke="#326e8f" stroke-width="1" stroke-opacity="0.22"/><line x1="349.19" y1="87.70" x2="389.78" y2="62.07" stroke="#326e8f" stroke-width="1" stroke-opacity="0.22"/><line x1="349.19" y1="87.70" x2="313.66" y2="78.72" stroke="#326e8f" stroke-width="1" stroke-opacity="0.22"/><line x1="349.19" y1="87.70" x2="235.36" y2="65.06" stroke="#326e8f" stroke-width="1" stroke-opacity="0.22"/><line x1="349.19" y1="87.70" x2="489.83" y2="121.88" stroke="#326e8f" stroke-width="1" stroke-opacity="0.22"/><line x1="349.19" y1="87.70" x2="468.80" y2="103.51" stroke="#326e8f" stroke-width="1" stroke-opacity="0.22"/><line x1="349.19" y1="87.70" x2="420.23" y2="76.59" stroke="#326e8f" stroke-width="1" stroke-opacity="0.22"/><line x1="349.19" y1="87.70" x2="334.67" y2="84.28" stroke="#326e8f" stroke-width="1" stroke-opacity="0.22"/><line x1="349.19" y1="87.70" x2="337.58" y2="114.19" stroke="#326e8f" stroke-width="1" stroke-opacity="0.22"/><line x1="349.19" y1="87.70" x2="264.37" y2="127.43" stroke="#326e8f" stroke-width="1" stroke-opacity="0.22"/><line x1="349.19" y1="87.70" x2="278.14" y2="142.39" stroke="#326e8f" stroke-width="1" stroke-opacity="0.22"/><line x1="349.19" y1="56.08" x2="483.31" y2="66.76" stroke="#326e8f" stroke-width="1" stroke-opacity="0.22"/><line x1="349.19" y1="56.08" x2="389.78" y2="62.07" stroke="#326e8f" stroke-width="1" stroke-opacity="0.22"/>
  <polyline points="133.15,165.46 127.34,137.26 149.80,132.57 197.65,106.93 260.01,94.11 349.19,87.70 349.19,56.08 441.24,54.80 511.58,72.32 598.56,64.63 639.89,90.69 724.00,83.00 697.90,75.31 634.82,98.81 555.81,83.86 483.31,66.76 389.78,62.07 313.66,78.72 235.36,65.06 155.61,77.02 72.97,62.49 36.00,50.95 113.57,52.24 191.87,36.00 267.98,45.83 304.24,70.60 398.49,70.60 436.91,97.53 520.28,109.06 560.87,132.14 558.71,152.22 465.89,153.07 474.60,164.18 447.05,194.09 483.31,212.89 567.39,224.00 634.09,206.05 660.19,176.14 596.40,159.91 568.85,134.27 489.83,121.88 468.80,103.51 420.23,76.59 334.67,84.28 337.58,114.19 264.37,127.43 278.14,142.39 228.10,156.49 252.75,149.66 228.84,144.95 244.07,119.75 283.92,127.86 288.28,105.65 341.93,106.50 380.36,83.00 428.92,73.17 349.90,65.91 309.31,81.29 360.77,96.24 342.64,118.03 354.97,148.37 350.64,174.01 358.61,159.06 341.22,178.71 351.35,170.17 262.91,171.87 238.98,161.19" fill="none" stroke="#7d8f86" stroke-width="2.6"/>
  <circle cx="133.15" cy="165.46" r="3" fill="#22302d"/><circle cx="127.34" cy="137.26" r="3" fill="#22302d"/><circle cx="149.80" cy="132.57" r="3" fill="#22302d"/><circle cx="197.65" cy="106.93" r="3" fill="#22302d"/><circle cx="260.01" cy="94.11" r="3" fill="#22302d"/><circle cx="349.19" cy="87.70" r="3" fill="#22302d"/><circle cx="349.19" cy="56.08" r="3" fill="#22302d"/><circle cx="441.24" cy="54.80" r="3" fill="#22302d"/><circle cx="511.58" cy="72.32" r="3" fill="#22302d"/><circle cx="598.56" cy="64.63" r="3" fill="#22302d"/><circle cx="639.89" cy="90.69" r="3" fill="#22302d"/><circle cx="724.00" cy="83.00" r="3" fill="#22302d"/><circle cx="697.90" cy="75.31" r="3" fill="#22302d"/><circle cx="634.82" cy="98.81" r="3" fill="#22302d"/><circle cx="555.81" cy="83.86" r="3" fill="#22302d"/><circle cx="483.31" cy="66.76" r="3" fill="#22302d"/><circle cx="389.78" cy="62.07" r="3" fill="#22302d"/><circle cx="313.66" cy="78.72" r="3" fill="#22302d"/><circle cx="235.36" cy="65.06" r="3" fill="#22302d"/><circle cx="155.61" cy="77.02" r="3" fill="#22302d"/><circle cx="72.97" cy="62.49" r="3" fill="#22302d"/><circle cx="36.00" cy="50.95" r="3" fill="#22302d"/><circle cx="113.57" cy="52.24" r="3" fill="#22302d"/><circle cx="191.87" cy="36.00" r="3" fill="#22302d"/><circle cx="267.98" cy="45.83" r="3" fill="#22302d"/><circle cx="304.24" cy="70.60" r="3" fill="#22302d"/><circle cx="398.49" cy="70.60" r="3" fill="#22302d"/><circle cx="436.91" cy="97.53" r="3" fill="#22302d"/><circle cx="520.28" cy="109.06" r="3" fill="#22302d"/><circle cx="560.87" cy="132.14" r="3" fill="#22302d"/><circle cx="558.71" cy="152.22" r="3" fill="#22302d"/><circle cx="465.89" cy="153.07" r="3" fill="#22302d"/><circle cx="474.60" cy="164.18" r="3" fill="#22302d"/><circle cx="447.05" cy="194.09" r="3" fill="#22302d"/><circle cx="483.31" cy="212.89" r="3" fill="#22302d"/><circle cx="567.39" cy="224.00" r="3" fill="#22302d"/><circle cx="634.09" cy="206.05" r="3" fill="#22302d"/><circle cx="660.19" cy="176.14" r="3" fill="#22302d"/><circle cx="596.40" cy="159.91" r="3" fill="#22302d"/><circle cx="568.85" cy="134.27" r="3" fill="#22302d"/><circle cx="489.83" cy="121.88" r="3" fill="#22302d"/><circle cx="468.80" cy="103.51" r="3" fill="#22302d"/><circle cx="420.23" cy="76.59" r="3" fill="#22302d"/><circle cx="334.67" cy="84.28" r="3" fill="#22302d"/><circle cx="337.58" cy="114.19" r="3" fill="#22302d"/><circle cx="264.37" cy="127.43" r="3" fill="#22302d"/><circle cx="278.14" cy="142.39" r="3" fill="#22302d"/><circle cx="228.10" cy="156.49" r="3" fill="#22302d"/><circle cx="252.75" cy="149.66" r="3" fill="#22302d"/><circle cx="228.84" cy="144.95" r="3" fill="#22302d"/><circle cx="244.07" cy="119.75" r="3" fill="#22302d"/><circle cx="283.92" cy="127.86" r="3" fill="#22302d"/><circle cx="288.28" cy="105.65" r="3" fill="#22302d"/><circle cx="341.93" cy="106.50" r="3" fill="#22302d"/><circle cx="380.36" cy="83.00" r="3" fill="#22302d"/><circle cx="428.92" cy="73.17" r="3" fill="#22302d"/><circle cx="349.90" cy="65.91" r="3" fill="#22302d"/><circle cx="309.31" cy="81.29" r="3" fill="#22302d"/><circle cx="360.77" cy="96.24" r="3" fill="#22302d"/><circle cx="342.64" cy="118.03" r="3" fill="#22302d"/><circle cx="354.97" cy="148.37" r="3" fill="#22302d"/><circle cx="350.64" cy="174.01" r="3" fill="#22302d"/><circle cx="358.61" cy="159.06" r="3" fill="#22302d"/><circle cx="341.22" cy="178.71" r="3" fill="#22302d"/><circle cx="351.35" cy="170.17" r="3" fill="#22302d"/><circle cx="262.91" cy="171.87" r="3" fill="#22302d"/><circle cx="238.98" cy="161.19" r="3" fill="#22302d"/>
  <text x="34" y="248" font-family="Arial, sans-serif" font-size="11" fill="#58635e">row: coord_004_pdb_1CSP_A_cold_shock_protein | projected coordinates, not full atomic folding</text>
</svg>
