<svg xmlns="http://www.w3.org/2000/svg" width="420" height="420" viewBox="0 0 420 420" role="img" aria-label="contact map overlay">
  <rect width="420" height="420" fill="#f8faf7"/>
  <text x="34" y="22" font-family="Arial, sans-serif" font-size="14" fill="#22302d">Contact map overlay</text>
  <line x1="34" y1="34" x2="34" y2="386" stroke="#9aa69f"/>
  <line x1="34" y1="386" x2="386" y2="386" stroke="#9aa69f"/>
  <line x1="34" y1="34" x2="386" y2="386" stroke="#cfd8d2" stroke-dasharray="4 4"/>
  <circle cx="34.00" cy="49.30" r="2.4" fill="#294f9b" opacity="0.88"/><circle cx="49.30" cy="34.00" r="2.4" fill="#294f9b" opacity="0.46"/><circle cx="41.65" cy="56.96" r="2.4" fill="#294f9b" opacity="0.88"/><circle cx="56.96" cy="41.65" r="2.4" fill="#294f9b" opacity="0.46"/><circle cx="45.48" cy="114.35" r="2.0" fill="#c44b3a" opacity="0.88"/><circle cx="114.35" cy="45.48" r="2.0" fill="#c44b3a" opacity="0.46"/><circle cx="45.48" cy="144.96" r="2.0" fill="#c44b3a" opacity="0.88"/><circle cx="144.96" cy="45.48" r="2.0" fill="#c44b3a" opacity="0.46"/><circle cx="45.48" cy="252.09" r="2.0" fill="#c44b3a" opacity="0.88"/><circle cx="252.09" cy="45.48" r="2.0" fill="#c44b3a" opacity="0.46"/><circle cx="45.48" cy="313.30" r="2.0" fill="#c44b3a" opacity="0.88"/><circle cx="313.30" cy="45.48" r="2.0" fill="#c44b3a" opacity="0.46"/><circle cx="49.30" cy="64.61" r="2.8" fill="#218a5a" opacity="0.88"/><circle cx="64.61" cy="49.30" r="2.8" fill="#218a5a" opacity="0.46"/><circle cx="53.13" cy="114.35" r="2.0" fill="#c44b3a" opacity="0.88"/><circle cx="114.35" cy="53.13" r="2.0" fill="#c44b3a" opacity="0.46"/><circle cx="53.13" cy="122.00" r="2.0" fill="#c44b3a" opacity="0.88"/><circle cx="122.00" cy="53.13" r="2.0" fill="#c44b3a" opacity="0.46"/><circle cx="53.13" cy="129.65" r="2.8" fill="#218a5a" opacity="0.88"/><circle cx="129.65" cy="53.13" r="2.8" fill="#218a5a" opacity="0.46"/><circle cx="53.13" cy="133.48" r="2.0" fill="#c44b3a" opacity="0.88"/><circle cx="133.48" cy="53.13" r="2.0" fill="#c44b3a" opacity="0.46"/><circle cx="53.13" cy="144.96" r="2.0" fill="#c44b3a" opacity="0.88"/><circle cx="144.96" cy="53.13" r="2.0" fill="#c44b3a" opacity="0.46"/><circle cx="53.13" cy="164.09" r="2.0" fill="#c44b3a" opacity="0.88"/><circle cx="164.09" cy="53.13" r="2.0" fill="#c44b3a" opacity="0.46"/><circle cx="53.13" cy="252.09" r="2.0" fill="#c44b3a" opacity="0.88"/><circle cx="252.09" cy="53.13" r="2.0" fill="#c44b3a" opacity="0.46"/><circle cx="53.13" cy="313.30" r="2.0" fill="#c44b3a" opacity="0.88"/><circle cx="313.30" cy="53.13" r="2.0" fill="#c44b3a" opacity="0.46"/><circle cx="53.13" cy="320.96" r="2.0" fill="#c44b3a" opacity="0.88"/><circle cx="320.96" cy="53.13" r="2.0" fill="#c44b3a" opacity="0.46"/><circle cx="56.96" cy="72.26" r="2.4" fill="#294f9b" opacity="0.88"/><circle cx="72.26" cy="56.96" r="2.4" fill="#294f9b" opacity="0.46"/><circle cx="56.96" cy="133.48" r="2.0" fill="#c44b3a" opacity="0.88"/><circle cx="133.48" cy="56.96" r="2.0" fill="#c44b3a" opacity="0.46"/><circle cx="56.96" cy="141.13" r="2.0" fill="#c44b3a" opacity="0.88"/><circle cx="141.13" cy="56.96" r="2.0" fill="#c44b3a" opacity="0.46"/><circle cx="56.96" cy="144.96" r="2.0" fill="#c44b3a" opacity="0.88"/><circle cx="144.96" cy="56.96" r="2.0" fill="#c44b3a" opacity="0.46"/><circle cx="56.96" cy="164.09" r="2.0" fill="#c44b3a" opacity="0.88"/><circle cx="164.09" cy="56.96" r="2.0" fill="#c44b3a" opacity="0.46"/><circle cx="56.96" cy="202.35" r="2.0" fill="#c44b3a" opacity="0.88"/><circle cx="202.35" cy="56.96" r="2.0" fill="#c44b3a" opacity="0.46"/><circle cx="56.96" cy="252.09" r="2.0" fill="#c44b3a" opacity="0.88"/><circle cx="252.09" cy="56.96" r="2.0" fill="#c44b3a" opacity="0.46"/><circle cx="56.96" cy="263.57" r="2.0" fill="#c44b3a" opacity="0.88"/><circle cx="263.57" cy="56.96" r="2.0" fill="#c44b3a" opacity="0.46"/><circle cx="56.96" cy="313.30" r="2.0" fill="#c44b3a" opacity="0.88"/><circle cx="313.30" cy="56.96" r="2.0" fill="#c44b3a" opacity="0.46"/><circle cx="56.96" cy="317.13" r="2.0" fill="#c44b3a" opacity="0.88"/><circle cx="317.13" cy="56.96" r="2.0" fill="#c44b3a" opacity="0.46"/><circle cx="56.96" cy="363.04" r="2.0" fill="#c44b3a" opacity="0.88"/><circle cx="363.04" cy="56.96" r="2.0" fill="#c44b3a" opacity="0.46"/><circle cx="64.61" cy="79.91" r="2.8" fill="#218a5a" opacity="0.88"/><circle cx="79.91" cy="64.61" r="2.8" fill="#218a5a" opacity="0.46"/><circle cx="68.43" cy="83.74" r="2.0" fill="#c44b3a" opacity="0.88"/><circle cx="83.74" cy="68.43" r="2.0" fill="#c44b3a" opacity="0.46"/><circle cx="72.26" cy="87.57" r="2.8" fill="#218a5a" opacity="0.88"/><circle cx="87.57" cy="72.26" r="2.8" fill="#218a5a" opacity="0.46"/><circle cx="76.09" cy="144.96" r="2.0" fill="#c44b3a" opacity="0.88"/><circle cx="144.96" cy="76.09" r="2.0" fill="#c44b3a" opacity="0.46"/><circle cx="76.09" cy="167.91" r="2.0" fill="#c44b3a" opacity="0.88"/><circle cx="167.91" cy="76.09" r="2.0" fill="#c44b3a" opacity="0.46"/><circle cx="76.09" cy="252.09" r="2.0" fill="#c44b3a" opacity="0.88"/><circle cx="252.09" cy="76.09" r="2.0" fill="#c44b3a" opacity="0.46"/><circle cx="76.09" cy="313.30" r="2.0" fill="#c44b3a" opacity="0.88"/><circle cx="313.30" cy="76.09" r="2.0" fill="#c44b3a" opacity="0.46"/><circle cx="79.91" cy="95.22" r="2.4" fill="#294f9b" opacity="0.88"/><circle cx="95.22" cy="79.91" r="2.4" fill="#294f9b" opacity="0.46"/><circle cx="87.57" cy="102.87" r="2.8" fill="#218a5a" opacity="0.88"/><circle cx="102.87" cy="87.57" r="2.8" fill="#218a5a" opacity="0.46"/><circle cx="102.87" cy="118.17" r="2.8" fill="#218a5a" opacity="0.88"/><circle cx="118.17" cy="102.87" r="2.8" fill="#218a5a" opacity="0.46"/><circle cx="110.52" cy="125.83" r="2.4" fill="#294f9b" opacity="0.88"/><circle cx="125.83" cy="110.52" r="2.4" fill="#294f9b" opacity="0.46"/><circle cx="114.35" cy="252.09" r="2.0" fill="#c44b3a" opacity="0.88"/><circle cx="252.09" cy="114.35" r="2.0" fill="#c44b3a" opacity="0.46"/><circle cx="114.35" cy="313.30" r="2.0" fill="#c44b3a" opacity="0.88"/><circle cx="313.30" cy="114.35" r="2.0" fill="#c44b3a" opacity="0.46"/><circle cx="114.35" cy="320.96" r="2.0" fill="#c44b3a" opacity="0.88"/><circle cx="320.96" cy="114.35" r="2.0" fill="#c44b3a" opacity="0.46"/><circle cx="118.17" cy="133.48" r="2.4" fill="#294f9b" opacity="0.88"/><circle cx="133.48" cy="118.17" r="2.4" fill="#294f9b" opacity="0.46"/><circle cx="122.00" cy="198.52" r="2.8" fill="#218a5a" opacity="0.88"/><circle cx="198.52" cy="122.00" r="2.8" fill="#218a5a" opacity="0.46"/><circle cx="122.00" cy="252.09" r="2.0" fill="#c44b3a" opacity="0.88"/><circle cx="252.09" cy="122.00" r="2.0" fill="#c44b3a" opacity="0.46"/><circle cx="122.00" cy="313.30" r="2.0" fill="#c44b3a" opacity="0.88"/><circle cx="313.30" cy="122.00" r="2.0" fill="#c44b3a" opacity="0.46"/><circle cx="125.83" cy="141.13" r="2.4" fill="#294f9b" opacity="0.88"/><circle cx="141.13" cy="125.83" r="2.4" fill="#294f9b" opacity="0.46"/><circle cx="133.48" cy="202.35" r="2.0" fill="#c44b3a" opacity="0.88"/><circle cx="202.35" cy="133.48" r="2.0" fill="#c44b3a" opacity="0.46"/><circle cx="133.48" cy="252.09" r="2.0" fill="#c44b3a" opacity="0.88"/><circle cx="252.09" cy="133.48" r="2.0" fill="#c44b3a" opacity="0.46"/><circle cx="133.48" cy="263.57" r="2.0" fill="#c44b3a" opacity="0.88"/><circle cx="263.57" cy="133.48" r="2.0" fill="#c44b3a" opacity="0.46"/><circle cx="133.48" cy="313.30" r="2.0" fill="#c44b3a" opacity="0.88"/><circle cx="313.30" cy="133.48" r="2.0" fill="#c44b3a" opacity="0.46"/><circle cx="133.48" cy="317.13" r="2.0" fill="#c44b3a" opacity="0.88"/><circle cx="317.13" cy="133.48" r="2.0" fill="#c44b3a" opacity="0.46"/><circle cx="133.48" cy="363.04" r="2.0" fill="#c44b3a" opacity="0.88"/><circle cx="363.04" cy="133.48" r="2.0" fill="#c44b3a" opacity="0.46"/><circle cx="137.30" cy="152.61" r="2.0" fill="#c44b3a" opacity="0.88"/><circle cx="152.61" cy="137.30" r="2.0" fill="#c44b3a" opacity="0.46"/><circle cx="144.96" cy="252.09" r="2.0" fill="#c44b3a" opacity="0.88"/><circle cx="252.09" cy="144.96" r="2.0" fill="#c44b3a" opacity="0.46"/><circle cx="144.96" cy="313.30" r="2.0" fill="#c44b3a" opacity="0.88"/><circle cx="313.30" cy="144.96" r="2.0" fill="#c44b3a" opacity="0.46"/><circle cx="144.96" cy="320.96" r="2.0" fill="#c44b3a" opacity="0.88"/><circle cx="320.96" cy="144.96" r="2.0" fill="#c44b3a" opacity="0.46"/><circle cx="156.43" cy="171.74" r="2.4" fill="#294f9b" opacity="0.88"/><circle cx="171.74" cy="156.43" r="2.4" fill="#294f9b" opacity="0.46"/><circle cx="164.09" cy="179.39" r="2.4" fill="#294f9b" opacity="0.88"/><circle cx="179.39" cy="164.09" r="2.4" fill="#294f9b" opacity="0.46"/><circle cx="171.74" cy="187.04" r="2.4" fill="#294f9b" opacity="0.88"/><circle cx="187.04" cy="171.74" r="2.4" fill="#294f9b" opacity="0.46"/><circle cx="179.39" cy="194.70" r="2.4" fill="#294f9b" opacity="0.88"/><circle cx="194.70" cy="179.39" r="2.4" fill="#294f9b" opacity="0.46"/><circle cx="190.87" cy="267.39" r="2.8" fill="#218a5a" opacity="0.88"/><circle cx="267.39" cy="190.87" r="2.8" fill="#218a5a" opacity="0.46"/><circle cx="194.70" cy="210.00" r="2.4" fill="#294f9b" opacity="0.88"/><circle cx="210.00" cy="194.70" r="2.4" fill="#294f9b" opacity="0.46"/><circle cx="202.35" cy="217.65" r="2.4" fill="#294f9b" opacity="0.88"/><circle cx="217.65" cy="202.35" r="2.4" fill="#294f9b" opacity="0.46"/><circle cx="210.00" cy="225.30" r="2.4" fill="#294f9b" opacity="0.88"/><circle cx="225.30" cy="210.00" r="2.4" fill="#294f9b" opacity="0.46"/><circle cx="217.65" cy="232.96" r="2.4" fill="#294f9b" opacity="0.88"/><circle cx="232.96" cy="217.65" r="2.4" fill="#294f9b" opacity="0.46"/><circle cx="221.48" cy="313.30" r="2.0" fill="#c44b3a" opacity="0.88"/><circle cx="313.30" cy="221.48" r="2.0" fill="#c44b3a" opacity="0.46"/><circle cx="240.61" cy="255.91" r="2.4" fill="#294f9b" opacity="0.88"/><circle cx="255.91" cy="240.61" r="2.4" fill="#294f9b" opacity="0.46"/><circle cx="255.91" cy="271.22" r="2.4" fill="#294f9b" opacity="0.88"/><circle cx="271.22" cy="255.91" r="2.4" fill="#294f9b" opacity="0.46"/><circle cx="259.74" cy="336.26" r="2.8" fill="#218a5a" opacity="0.88"/><circle cx="336.26" cy="259.74" r="2.8" fill="#218a5a" opacity="0.46"/><circle cx="271.22" cy="286.52" r="2.4" fill="#294f9b" opacity="0.88"/><circle cx="286.52" cy="271.22" r="2.4" fill="#294f9b" opacity="0.46"/><circle cx="278.87" cy="294.17" r="2.4" fill="#294f9b" opacity="0.88"/><circle cx="294.17" cy="278.87" r="2.4" fill="#294f9b" opacity="0.46"/><circle cx="286.52" cy="301.83" r="2.4" fill="#294f9b" opacity="0.88"/><circle cx="301.83" cy="286.52" r="2.4" fill="#294f9b" opacity="0.46"/><circle cx="294.17" cy="309.48" r="2.4" fill="#294f9b" opacity="0.88"/><circle cx="309.48" cy="294.17" r="2.4" fill="#294f9b" opacity="0.46"/><circle cx="317.13" cy="332.43" r="2.4" fill="#294f9b" opacity="0.88"/><circle cx="332.43" cy="317.13" r="2.4" fill="#294f9b" opacity="0.46"/><circle cx="332.43" cy="347.74" r="2.4" fill="#294f9b" opacity="0.88"/><circle cx="347.74" cy="332.43" r="2.4" fill="#294f9b" opacity="0.46"/><circle cx="355.39" cy="370.70" r="2.4" fill="#294f9b" opacity="0.88"/><circle cx="370.70" cy="355.39" r="2.4" fill="#294f9b" opacity="0.46"/>
  <g font-family="Arial, sans-serif" font-size="11" fill="#34423d">
    <rect x="34" y="372" width="250" height="32" fill="#ffffff" stroke="#d5ddd5"/>
    <circle cx="46" cy="384" r="4" fill="#218a5a"/><text x="56" y="388">native + predicted</text>
    <circle cx="156" cy="384" r="4" fill="#294f9b"/><text x="166" y="388">native only</text>
    <circle cx="236" cy="384" r="4" fill="#c44b3a"/><text x="246" y="388">predicted only</text>
  </g>
  <text x="34" y="412" font-family="Arial, sans-serif" font-size="11" fill="#58635e">row: visual_003_alpha_cytochrome</text>
</svg>
