<svg xmlns="http://www.w3.org/2000/svg" width="760" height="260" viewBox="0 0 760 260" role="img" aria-label="Coarse-grain final collapse">
  <rect width="760" height="260" fill="#f8faf7"/>
  <text x="34" y="24" font-family="Arial, sans-serif" font-size="15" fill="#22302d">Coarse-grain final collapse</text>
<line x1="53.18" y1="122.06" x2="84.90" y2="127.75" stroke="#25636a" stroke-opacity="0.22" stroke-width="1.2"/><line x1="147.42" y1="120.86" x2="366.77" y2="115.42" stroke="#25636a" stroke-opacity="0.22" stroke-width="1.2"/><line x1="147.42" y1="120.86" x2="434.95" y2="110.20" stroke="#25636a" stroke-opacity="0.22" stroke-width="1.2"/><line x1="199.45" y1="122.15" x2="255.44" y2="136.58" stroke="#25636a" stroke-opacity="0.22" stroke-width="1.2"/><line x1="199.45" y1="122.15" x2="290.04" y2="132.63" stroke="#25636a" stroke-opacity="0.22" stroke-width="1.2"/><line x1="199.45" y1="122.15" x2="341.68" y2="124.28" stroke="#25636a" stroke-opacity="0.22" stroke-width="1.2"/><line x1="199.45" y1="122.15" x2="410.40" y2="112.00" stroke="#25636a" stroke-opacity="0.22" stroke-width="1.2"/><line x1="199.45" y1="122.15" x2="366.77" y2="115.42" stroke="#25636a" stroke-opacity="0.22" stroke-width="1.2"/><line x1="199.45" y1="122.15" x2="434.95" y2="110.20" stroke="#25636a" stroke-opacity="0.22" stroke-width="1.2"/><line x1="199.45" y1="122.15" x2="634.27" y2="111.12" stroke="#25636a" stroke-opacity="0.22" stroke-width="1.2"/><line x1="154.62" y1="123.64" x2="366.77" y2="115.42" stroke="#25636a" stroke-opacity="0.22" stroke-width="1.2"/><line x1="154.62" y1="123.64" x2="434.95" y2="110.20" stroke="#25636a" stroke-opacity="0.22" stroke-width="1.2"/><line x1="134.30" y1="135.08" x2="166.02" y2="138.22" stroke="#25636a" stroke-opacity="0.22" stroke-width="1.2"/><line x1="203.36" y1="131.79" x2="366.77" y2="115.42" stroke="#25636a" stroke-opacity="0.22" stroke-width="1.2"/><line x1="203.36" y1="131.79" x2="434.95" y2="110.20" stroke="#25636a" stroke-opacity="0.22" stroke-width="1.2"/><line x1="230.28" y1="134.23" x2="366.77" y2="115.42" stroke="#25636a" stroke-opacity="0.22" stroke-width="1.2"/><line x1="230.28" y1="134.23" x2="434.95" y2="110.20" stroke="#25636a" stroke-opacity="0.22" stroke-width="1.2"/><line x1="242.88" y1="134.50" x2="366.77" y2="115.42" stroke="#25636a" stroke-opacity="0.22" stroke-width="1.2"/><line x1="242.88" y1="134.50" x2="434.95" y2="110.20" stroke="#25636a" stroke-opacity="0.22" stroke-width="1.2"/><line x1="251.47" y1="138.55" x2="283.20" y2="135.61" stroke="#25636a" stroke-opacity="0.22" stroke-width="1.2"/><line x1="278.51" y1="136.14" x2="310.24" y2="132.04" stroke="#25636a" stroke-opacity="0.22" stroke-width="1.2"/><line x1="296.54" y1="133.97" x2="328.26" y2="129.22" stroke="#25636a" stroke-opacity="0.22" stroke-width="1.2"/><line x1="413.71" y1="113.86" x2="447.73" y2="108.30" stroke="#25636a" stroke-opacity="0.22" stroke-width="1.2"/><line x1="366.77" y1="115.42" x2="480.05" y2="107.98" stroke="#25636a" stroke-opacity="0.22" stroke-width="1.2"/><line x1="447.73" y1="108.30" x2="483.66" y2="103.69" stroke="#25636a" stroke-opacity="0.22" stroke-width="1.2"/><line x1="483.66" y1="103.69" x2="517.41" y2="100.93" stroke="#25636a" stroke-opacity="0.22" stroke-width="1.2"/><line x1="602.99" y1="102.52" x2="637.01" y2="106.41" stroke="#25636a" stroke-opacity="0.22" stroke-width="1.2"/><line x1="612.00" y1="103.38" x2="646.02" y2="107.68" stroke="#25636a" stroke-opacity="0.22" stroke-width="1.2"/><line x1="637.01" y1="106.41" x2="670.64" y2="111.52" stroke="#25636a" stroke-opacity="0.22" stroke-width="1.2"/><line x1="646.02" y1="107.68" x2="679.65" y2="113.06" stroke="#25636a" stroke-opacity="0.22" stroke-width="1.2"/><line x1="657.07" y1="109.30" x2="688.80" y2="114.66" stroke="#25636a" stroke-opacity="0.22" stroke-width="1.2"/><line x1="366.77" y1="115.42" x2="434.95" y2="110.20" stroke="#25636a" stroke-opacity="0.22" stroke-width="1.2"/><line x1="147.42" y1="120.86" x2="242.88" y2="134.50" stroke="#25636a" stroke-opacity="0.22" stroke-width="1.2"/><line x1="147.42" y1="120.86" x2="480.05" y2="107.98" stroke="#25636a" stroke-opacity="0.22" stroke-width="1.2"/><line x1="154.62" y1="123.64" x2="242.88" y2="134.50" stroke="#25636a" stroke-opacity="0.22" stroke-width="1.2"/><line x1="154.62" y1="123.64" x2="480.05" y2="107.98" stroke="#25636a" stroke-opacity="0.22" stroke-width="1.2"/>
  <polyline points="42.00,120.00 53.18,122.06 147.42,120.86 199.45,122.15 154.62,123.64 84.90,127.75 96.08,129.64 105.09,131.07 114.11,132.42 123.12,133.69 134.30,135.08 141.15,135.93 203.36,131.79 159.17,137.72 166.02,138.22 177.20,139.02 230.28,134.23 195.23,139.79 204.24,139.96 213.25,140.00 222.27,139.89 231.28,139.65 242.88,134.50 251.47,138.55 258.32,138.10 255.44,136.58 278.51,136.14 283.20,135.61 296.54,133.97 290.04,132.63 310.24,132.04 321.41,130.36 328.26,129.22 339.44,127.36 348.45,125.78 341.68,124.28 366.48,122.51 375.49,120.84 384.51,119.16 393.52,117.49 402.53,115.84 413.71,113.86 420.56,112.64 410.40,112.00 366.77,115.42 447.73,108.30 456.61,106.93 465.63,105.71 474.64,104.59 483.66,103.69 492.67,102.68 501.68,101.90 510.69,101.25 517.41,100.93 528.72,100.35 537.73,100.11 546.75,100.00 555.76,100.04 434.95,110.20 573.79,100.53 480.05,107.98 591.81,101.56 602.99,102.52 612.00,103.38 618.85,104.07 627.87,105.14 637.01,106.41 646.02,107.68 657.07,109.30 634.27,111.12 670.64,111.52 679.65,113.06 688.80,114.66 699.97,116.66 708.99,118.33 718.00,120.00" fill="none" stroke="#7d8f86" stroke-width="3"/>
  <circle cx="42.00" cy="120.00" r="3.2" fill="#22302d"/><circle cx="147.42" cy="120.86" r="3.2" fill="#22302d"/><circle cx="154.62" cy="123.64" r="3.2" fill="#22302d"/><circle cx="96.08" cy="129.64" r="3.2" fill="#22302d"/><circle cx="114.11" cy="132.42" r="3.2" fill="#22302d"/><circle cx="134.30" cy="135.08" r="3.2" fill="#22302d"/><circle cx="203.36" cy="131.79" r="3.2" fill="#22302d"/><circle cx="166.02" cy="138.22" r="3.2" fill="#22302d"/><circle cx="230.28" cy="134.23" r="3.2" fill="#22302d"/><circle cx="204.24" cy="139.96" r="3.2" fill="#22302d"/><circle cx="222.27" cy="139.89" r="3.2" fill="#22302d"/><circle cx="242.88" cy="134.50" r="3.2" fill="#22302d"/><circle cx="258.32" cy="138.10" r="3.2" fill="#22302d"/><circle cx="278.51" cy="136.14" r="3.2" fill="#22302d"/><circle cx="296.54" cy="133.97" r="3.2" fill="#22302d"/><circle cx="310.24" cy="132.04" r="3.2" fill="#22302d"/><circle cx="328.26" cy="129.22" r="3.2" fill="#22302d"/><circle cx="348.45" cy="125.78" r="3.2" fill="#22302d"/><circle cx="366.48" cy="122.51" r="3.2" fill="#22302d"/><circle cx="384.51" cy="119.16" r="3.2" fill="#22302d"/><circle cx="402.53" cy="115.84" r="3.2" fill="#22302d"/><circle cx="420.56" cy="112.64" r="3.2" fill="#22302d"/><circle cx="366.77" cy="115.42" r="3.2" fill="#22302d"/><circle cx="456.61" cy="106.93" r="3.2" fill="#22302d"/><circle cx="474.64" cy="104.59" r="3.2" fill="#22302d"/><circle cx="492.67" cy="102.68" r="3.2" fill="#22302d"/><circle cx="510.69" cy="101.25" r="3.2" fill="#22302d"/><circle cx="528.72" cy="100.35" r="3.2" fill="#22302d"/><circle cx="546.75" cy="100.00" r="3.2" fill="#22302d"/><circle cx="434.95" cy="110.20" r="3.2" fill="#22302d"/><circle cx="480.05" cy="107.98" r="3.2" fill="#22302d"/><circle cx="602.99" cy="102.52" r="3.2" fill="#22302d"/><circle cx="618.85" cy="104.07" r="3.2" fill="#22302d"/><circle cx="637.01" cy="106.41" r="3.2" fill="#22302d"/><circle cx="657.07" cy="109.30" r="3.2" fill="#22302d"/><circle cx="670.64" cy="111.52" r="3.2" fill="#22302d"/><circle cx="688.80" cy="114.66" r="3.2" fill="#22302d"/><circle cx="708.99" cy="118.33" r="3.2" fill="#22302d"/>
  <text x="34" y="248" font-family="Arial, sans-serif" font-size="11" fill="#58635e">row: visual_008_mixed_ubiquitin | coarse beads, not atomic structure</text>
</svg>
