<svg xmlns="http://www.w3.org/2000/svg" width="420" height="420" viewBox="0 0 420 420" role="img" aria-label="Sequence-only predicted contact candidates">
  <rect width="420" height="420" fill="#f8faf7"/>
  <text x="34" y="22" font-family="Arial, sans-serif" font-size="14" fill="#22302d">Sequence-only predicted contact candidates</text>
  <line x1="34" y1="34" x2="34" y2="386" stroke="#9aa69f"/>
  <line x1="34" y1="386" x2="386" y2="386" stroke="#9aa69f"/>
  <line x1="34" y1="34" x2="386" y2="386" stroke="#cfd8d2" stroke-dasharray="4 4"/>
  <circle cx="38.69" cy="57.47" r="2.2" fill="#c44b3a"/><circle cx="57.47" cy="38.69" r="2.2" fill="#c44b3a" opacity="0.58"/><circle cx="43.39" cy="137.25" r="2.2" fill="#c44b3a"/><circle cx="137.25" cy="43.39" r="2.2" fill="#c44b3a" opacity="0.58"/><circle cx="43.39" cy="240.51" r="2.2" fill="#c44b3a"/><circle cx="240.51" cy="43.39" r="2.2" fill="#c44b3a" opacity="0.58"/><circle cx="43.39" cy="306.21" r="2.2" fill="#c44b3a"/><circle cx="306.21" cy="43.39" r="2.2" fill="#c44b3a" opacity="0.58"/><circle cx="43.39" cy="315.60" r="2.2" fill="#c44b3a"/><circle cx="315.60" cy="43.39" r="2.2" fill="#c44b3a" opacity="0.58"/><circle cx="48.08" cy="151.33" r="2.2" fill="#c44b3a"/><circle cx="151.33" cy="48.08" r="2.2" fill="#c44b3a" opacity="0.58"/><circle cx="48.08" cy="170.11" r="2.2" fill="#c44b3a"/><circle cx="170.11" cy="48.08" r="2.2" fill="#c44b3a" opacity="0.58"/><circle cx="48.08" cy="198.27" r="2.2" fill="#c44b3a"/><circle cx="198.27" cy="48.08" r="2.2" fill="#c44b3a" opacity="0.58"/><circle cx="48.08" cy="235.81" r="2.2" fill="#c44b3a"/><circle cx="235.81" cy="48.08" r="2.2" fill="#c44b3a" opacity="0.58"/><circle cx="48.08" cy="240.51" r="2.2" fill="#c44b3a"/><circle cx="240.51" cy="48.08" r="2.2" fill="#c44b3a" opacity="0.58"/><circle cx="48.08" cy="306.21" r="2.2" fill="#c44b3a"/><circle cx="306.21" cy="48.08" r="2.2" fill="#c44b3a" opacity="0.58"/><circle cx="48.08" cy="357.84" r="2.2" fill="#c44b3a"/><circle cx="357.84" cy="48.08" r="2.2" fill="#c44b3a" opacity="0.58"/><circle cx="52.77" cy="137.25" r="2.2" fill="#c44b3a"/><circle cx="137.25" cy="52.77" r="2.2" fill="#c44b3a" opacity="0.58"/><circle cx="52.77" cy="240.51" r="2.2" fill="#c44b3a"/><circle cx="240.51" cy="52.77" r="2.2" fill="#c44b3a" opacity="0.58"/><circle cx="52.77" cy="306.21" r="2.2" fill="#c44b3a"/><circle cx="306.21" cy="52.77" r="2.2" fill="#c44b3a" opacity="0.58"/><circle cx="52.77" cy="315.60" r="2.2" fill="#c44b3a"/><circle cx="315.60" cy="52.77" r="2.2" fill="#c44b3a" opacity="0.58"/><circle cx="80.93" cy="99.71" r="2.2" fill="#c44b3a"/><circle cx="99.71" cy="80.93" r="2.2" fill="#c44b3a" opacity="0.58"/><circle cx="90.32" cy="240.51" r="2.2" fill="#c44b3a"/><circle cx="240.51" cy="90.32" r="2.2" fill="#c44b3a" opacity="0.58"/><circle cx="90.32" cy="306.21" r="2.2" fill="#c44b3a"/><circle cx="306.21" cy="90.32" r="2.2" fill="#c44b3a" opacity="0.58"/><circle cx="90.32" cy="315.60" r="2.2" fill="#c44b3a"/><circle cx="315.60" cy="90.32" r="2.2" fill="#c44b3a" opacity="0.58"/><circle cx="109.09" cy="240.51" r="2.2" fill="#c44b3a"/><circle cx="240.51" cy="109.09" r="2.2" fill="#c44b3a" opacity="0.58"/><circle cx="109.09" cy="306.21" r="2.2" fill="#c44b3a"/><circle cx="306.21" cy="109.09" r="2.2" fill="#c44b3a" opacity="0.58"/><circle cx="109.09" cy="315.60" r="2.2" fill="#c44b3a"/><circle cx="315.60" cy="109.09" r="2.2" fill="#c44b3a" opacity="0.58"/><circle cx="137.25" cy="240.51" r="2.2" fill="#c44b3a"/><circle cx="240.51" cy="137.25" r="2.2" fill="#c44b3a" opacity="0.58"/><circle cx="137.25" cy="306.21" r="2.2" fill="#c44b3a"/><circle cx="306.21" cy="137.25" r="2.2" fill="#c44b3a" opacity="0.58"/><circle cx="141.95" cy="160.72" r="2.2" fill="#c44b3a"/><circle cx="160.72" cy="141.95" r="2.2" fill="#c44b3a" opacity="0.58"/><circle cx="156.03" cy="174.80" r="2.2" fill="#c44b3a"/><circle cx="174.80" cy="156.03" r="2.2" fill="#c44b3a" opacity="0.58"/><circle cx="165.41" cy="184.19" r="2.2" fill="#c44b3a"/><circle cx="184.19" cy="165.41" r="2.2" fill="#c44b3a" opacity="0.58"/><circle cx="226.43" cy="245.20" r="2.2" fill="#c44b3a"/><circle cx="245.20" cy="226.43" r="2.2" fill="#c44b3a" opacity="0.58"/><circle cx="240.51" cy="306.21" r="2.2" fill="#c44b3a"/><circle cx="306.21" cy="240.51" r="2.2" fill="#c44b3a" opacity="0.58"/><circle cx="240.51" cy="315.60" r="2.2" fill="#c44b3a"/><circle cx="315.60" cy="240.51" r="2.2" fill="#c44b3a" opacity="0.58"/><circle cx="245.20" cy="263.97" r="2.2" fill="#c44b3a"/><circle cx="263.97" cy="245.20" r="2.2" fill="#c44b3a" opacity="0.58"/><circle cx="263.97" cy="282.75" r="2.2" fill="#c44b3a"/><circle cx="282.75" cy="263.97" r="2.2" fill="#c44b3a" opacity="0.58"/><circle cx="324.99" cy="343.76" r="2.2" fill="#c44b3a"/><circle cx="343.76" cy="324.99" r="2.2" fill="#c44b3a" opacity="0.58"/><circle cx="329.68" cy="348.45" r="2.2" fill="#c44b3a"/><circle cx="348.45" cy="329.68" r="2.2" fill="#c44b3a" opacity="0.58"/><circle cx="343.76" cy="362.53" r="2.2" fill="#c44b3a"/><circle cx="362.53" cy="343.76" r="2.2" fill="#c44b3a" opacity="0.58"/><circle cx="348.45" cy="367.23" r="2.2" fill="#c44b3a"/><circle cx="367.23" cy="348.45" r="2.2" fill="#c44b3a" opacity="0.58"/><circle cx="353.15" cy="371.92" r="2.2" fill="#c44b3a"/><circle cx="371.92" cy="353.15" r="2.2" fill="#c44b3a" opacity="0.58"/>
  <text x="34" y="412" font-family="Arial, sans-serif" font-size="11" fill="#58635e">row: visual_008_mixed_ubiquitin | contacts: 38</text>
</svg>
