<svg xmlns="http://www.w3.org/2000/svg" width="760" height="260" viewBox="0 0 760 260" role="img" aria-label="Coarse-grain final collapse">
  <rect width="760" height="260" fill="#f8faf7"/>
  <text x="34" y="24" font-family="Arial, sans-serif" font-size="15" fill="#22302d">Coarse-grain final collapse</text>
<line x1="42.76" y1="120.14" x2="53.93" y2="122.21" stroke="#25636a" stroke-opacity="0.22" stroke-width="1.2"/><line x1="66.06" y1="122.46" x2="172.93" y2="130.26" stroke="#25636a" stroke-opacity="0.22" stroke-width="1.2"/><line x1="66.06" y1="122.46" x2="343.44" y2="123.27" stroke="#25636a" stroke-opacity="0.22" stroke-width="1.2"/><line x1="80.85" y1="127.06" x2="92.83" y2="129.09" stroke="#25636a" stroke-opacity="0.22" stroke-width="1.2"/><line x1="92.83" y1="129.09" x2="104.67" y2="131.00" stroke="#25636a" stroke-opacity="0.22" stroke-width="1.2"/><line x1="172.93" y1="130.26" x2="186.67" y2="135.45" stroke="#25636a" stroke-opacity="0.22" stroke-width="1.2"/><line x1="172.93" y1="130.26" x2="261.91" y2="133.32" stroke="#25636a" stroke-opacity="0.22" stroke-width="1.2"/><line x1="172.93" y1="130.26" x2="272.97" y2="133.12" stroke="#25636a" stroke-opacity="0.22" stroke-width="1.2"/><line x1="172.93" y1="130.26" x2="298.50" y2="131.20" stroke="#25636a" stroke-opacity="0.22" stroke-width="1.2"/><line x1="172.93" y1="130.26" x2="343.44" y2="123.27" stroke="#25636a" stroke-opacity="0.22" stroke-width="1.2"/><line x1="172.93" y1="130.26" x2="301.17" y2="131.83" stroke="#25636a" stroke-opacity="0.22" stroke-width="1.2"/><line x1="172.93" y1="130.26" x2="424.46" y2="116.87" stroke="#25636a" stroke-opacity="0.22" stroke-width="1.2"/><line x1="172.93" y1="130.26" x2="422.15" y2="116.73" stroke="#25636a" stroke-opacity="0.22" stroke-width="1.2"/><line x1="165.60" y1="133.02" x2="343.44" y2="123.27" stroke="#25636a" stroke-opacity="0.22" stroke-width="1.2"/><line x1="165.60" y1="133.02" x2="424.46" y2="116.87" stroke="#25636a" stroke-opacity="0.22" stroke-width="1.2"/><line x1="165.60" y1="133.02" x2="422.15" y2="116.73" stroke="#25636a" stroke-opacity="0.22" stroke-width="1.2"/><line x1="186.67" y1="135.45" x2="343.44" y2="123.27" stroke="#25636a" stroke-opacity="0.22" stroke-width="1.2"/><line x1="186.67" y1="135.45" x2="424.46" y2="116.87" stroke="#25636a" stroke-opacity="0.22" stroke-width="1.2"/><line x1="186.67" y1="135.45" x2="422.15" y2="116.73" stroke="#25636a" stroke-opacity="0.22" stroke-width="1.2"/><line x1="182.40" y1="139.29" x2="194.38" y2="139.75" stroke="#25636a" stroke-opacity="0.22" stroke-width="1.2"/><line x1="194.38" y1="139.75" x2="207.04" y2="139.97" stroke="#25636a" stroke-opacity="0.22" stroke-width="1.2"/><line x1="207.04" y1="139.97" x2="218.92" y2="139.94" stroke="#25636a" stroke-opacity="0.22" stroke-width="1.2"/><line x1="261.91" y1="133.32" x2="343.44" y2="123.27" stroke="#25636a" stroke-opacity="0.22" stroke-width="1.2"/><line x1="261.91" y1="133.32" x2="424.46" y2="116.87" stroke="#25636a" stroke-opacity="0.22" stroke-width="1.2"/><line x1="261.91" y1="133.32" x2="422.15" y2="116.73" stroke="#25636a" stroke-opacity="0.22" stroke-width="1.2"/><line x1="261.91" y1="133.32" x2="401.12" y2="115.16" stroke="#25636a" stroke-opacity="0.22" stroke-width="1.2"/><line x1="261.91" y1="133.32" x2="411.51" y2="113.77" stroke="#25636a" stroke-opacity="0.22" stroke-width="1.2"/><line x1="239.53" y1="139.29" x2="251.51" y2="138.58" stroke="#25636a" stroke-opacity="0.22" stroke-width="1.2"/><line x1="272.97" y1="133.12" x2="343.44" y2="123.27" stroke="#25636a" stroke-opacity="0.22" stroke-width="1.2"/><line x1="272.97" y1="133.12" x2="424.46" y2="116.87" stroke="#25636a" stroke-opacity="0.22" stroke-width="1.2"/><line x1="272.97" y1="133.12" x2="422.15" y2="116.73" stroke="#25636a" stroke-opacity="0.22" stroke-width="1.2"/><line x1="272.97" y1="133.12" x2="401.12" y2="115.16" stroke="#25636a" stroke-opacity="0.22" stroke-width="1.2"/><line x1="272.97" y1="133.12" x2="411.51" y2="113.77" stroke="#25636a" stroke-opacity="0.22" stroke-width="1.2"/><line x1="251.51" y1="138.58" x2="264.16" y2="137.59" stroke="#25636a" stroke-opacity="0.22" stroke-width="1.2"/><line x1="258.57" y1="138.07" x2="269.75" y2="137.09" stroke="#25636a" stroke-opacity="0.22" stroke-width="1.2"/><line x1="264.16" y1="137.59" x2="276.04" y2="136.45" stroke="#25636a" stroke-opacity="0.22" stroke-width="1.2"/>
  <polyline points="42.76,120.14 51.52,121.77 61.04,123.52 70.56,125.25 80.85,127.06 89.61,128.56 172.93,130.26 108.65,131.61 118.17,133.01 127.69,134.30 137.21,135.48 146.73,136.54 156.25,137.47 165.77,138.26 175.30,138.91 184.82,139.41 194.38,139.75 203.86,139.96 213.38,140.00 222.90,139.88 232.42,139.60 241.94,139.18 251.51,138.58 260.99,137.88 269.75,137.09 280.03,136.02 289.55,134.90 299.07,133.67 308.59,132.32 318.11,130.88 327.63,129.35 337.15,127.76 345.91,126.23 356.20,124.39 391.09,119.92 375.24,120.88 422.15,116.73 394.28,117.35 404.56,115.48 413.32,113.90 408.85,114.11 432.37,110.65 441.89,109.12 451.41,107.68 401.12,115.16 470.45,105.10 479.97,103.98 489.49,102.98 499.01,102.12 508.54,101.40 518.06,100.82 527.58,100.40 537.10,100.12 546.62,100.00 556.14,100.04 565.66,100.24 548.64,103.09 584.70,101.09 594.23,101.74 603.75,102.53 552.21,107.72 622.79,104.52 632.31,105.70 641.83,106.99 623.16,109.43 660.87,109.87 670.39,111.44 679.92,113.07 689.44,114.75 698.96,116.48 708.48,118.23 718.00,120.00" fill="none" stroke="#7d8f86" stroke-width="3"/>
  <circle cx="42.76" cy="120.14" r="3.2" fill="#22302d"/><circle cx="57.87" cy="122.94" r="3.2" fill="#22302d"/><circle cx="73.74" cy="125.81" r="3.2" fill="#22302d"/><circle cx="89.61" cy="128.56" r="3.2" fill="#22302d"/><circle cx="104.67" cy="131.00" r="3.2" fill="#22302d"/><circle cx="121.34" cy="133.45" r="3.2" fill="#22302d"/><circle cx="137.21" cy="135.48" r="3.2" fill="#22302d"/><circle cx="153.08" cy="137.17" r="3.2" fill="#22302d"/><circle cx="168.95" cy="138.49" r="3.2" fill="#22302d"/><circle cx="184.82" cy="139.41" r="3.2" fill="#22302d"/><circle cx="200.69" cy="139.91" r="3.2" fill="#22302d"/><circle cx="216.55" cy="139.97" r="3.2" fill="#22302d"/><circle cx="232.42" cy="139.60" r="3.2" fill="#22302d"/><circle cx="248.29" cy="138.81" r="3.2" fill="#22302d"/><circle cx="264.16" cy="137.59" r="3.2" fill="#22302d"/><circle cx="280.03" cy="136.02" r="3.2" fill="#22302d"/><circle cx="343.44" cy="123.27" r="3.2" fill="#22302d"/><circle cx="301.17" cy="131.83" r="3.2" fill="#22302d"/><circle cx="327.63" cy="129.35" r="3.2" fill="#22302d"/><circle cx="343.50" cy="126.66" r="3.2" fill="#22302d"/><circle cx="388.12" cy="120.60" r="3.2" fill="#22302d"/><circle cx="375.24" cy="120.88" r="3.2" fill="#22302d"/><circle cx="404.97" cy="116.91" r="3.2" fill="#22302d"/><circle cx="406.98" cy="115.04" r="3.2" fill="#22302d"/><circle cx="408.85" cy="114.11" r="3.2" fill="#22302d"/><circle cx="438.71" cy="109.62" r="3.2" fill="#22302d"/><circle cx="454.58" cy="107.22" r="3.2" fill="#22302d"/><circle cx="470.45" cy="105.10" r="3.2" fill="#22302d"/><circle cx="486.32" cy="103.30" r="3.2" fill="#22302d"/><circle cx="502.19" cy="101.86" r="3.2" fill="#22302d"/><circle cx="518.06" cy="100.82" r="3.2" fill="#22302d"/><circle cx="533.92" cy="100.20" r="3.2" fill="#22302d"/><circle cx="549.79" cy="100.00" r="3.2" fill="#22302d"/><circle cx="565.66" cy="100.24" r="3.2" fill="#22302d"/><circle cx="513.48" cy="107.26" r="3.2" fill="#22302d"/><circle cx="597.40" cy="101.99" r="3.2" fill="#22302d"/><circle cx="552.21" cy="107.72" r="3.2" fill="#22302d"/><circle cx="629.14" cy="105.30" r="3.2" fill="#22302d"/><circle cx="645.00" cy="107.45" r="3.2" fill="#22302d"/><circle cx="660.87" cy="109.87" r="3.2" fill="#22302d"/><circle cx="676.74" cy="112.52" r="3.2" fill="#22302d"/><circle cx="692.61" cy="115.32" r="3.2" fill="#22302d"/><circle cx="708.48" cy="118.23" r="3.2" fill="#22302d"/>
  <text x="34" y="248" font-family="Arial, sans-serif" font-size="11" fill="#58635e">row: coord_007_pdb_4AKE_A_adenylate_kinase | coarse beads, not atomic structure</text>
</svg>
