<svg xmlns="http://www.w3.org/2000/svg" width="760" height="260" viewBox="0 0 760 260" role="img" aria-label="native coordinate trace">
  <rect width="760" height="260" fill="#f8faf7"/>
  <text x="34" y="24" font-family="Arial, sans-serif" font-size="15" fill="#22302d">Native C-alpha Coordinate Trace</text>
  <line x1="203.53" y1="62.90" x2="87.25" y2="71.44" stroke="#326e8f" stroke-width="1" stroke-opacity="0.22"/><line x1="203.53" y1="62.90" x2="102.64" y2="83.68" stroke="#326e8f" stroke-width="1" stroke-opacity="0.22"/><line x1="203.53" y1="62.90" x2="99.02" y2="65.79" stroke="#326e8f" stroke-width="1" stroke-opacity="0.22"/><line x1="203.53" y1="62.90" x2="174.66" y2="70.90" stroke="#326e8f" stroke-width="1" stroke-opacity="0.22"/><line x1="203.53" y1="62.90" x2="199.52" y2="83.36" stroke="#326e8f" stroke-width="1" stroke-opacity="0.22"/><line x1="203.53" y1="62.90" x2="362.92" y2="65.29" stroke="#326e8f" stroke-width="1" stroke-opacity="0.22"/><line x1="203.53" y1="62.90" x2="342.06" y2="58.09" stroke="#326e8f" stroke-width="1" stroke-opacity="0.22"/><line x1="265.82" y1="70.28" x2="174.66" y2="70.90" stroke="#326e8f" stroke-width="1" stroke-opacity="0.22"/><line x1="265.82" y1="70.28" x2="199.52" y2="83.36" stroke="#326e8f" stroke-width="1" stroke-opacity="0.22"/><line x1="265.82" y1="70.28" x2="239.28" y2="91.51" stroke="#326e8f" stroke-width="1" stroke-opacity="0.22"/><line x1="265.82" y1="70.28" x2="302.24" y2="97.58" stroke="#326e8f" stroke-width="1" stroke-opacity="0.22"/><line x1="265.82" y1="70.28" x2="385.20" y2="60.96" stroke="#326e8f" stroke-width="1" stroke-opacity="0.22"/><line x1="265.82" y1="70.28" x2="362.92" y2="65.29" stroke="#326e8f" stroke-width="1" stroke-opacity="0.22"/><line x1="265.82" y1="70.28" x2="342.06" y2="58.09" stroke="#326e8f" stroke-width="1" stroke-opacity="0.22"/><line x1="265.82" y1="70.28" x2="366.93" y2="67.14" stroke="#326e8f" stroke-width="1" stroke-opacity="0.22"/><line x1="304.86" y1="78.29" x2="174.66" y2="70.90" stroke="#326e8f" stroke-width="1" stroke-opacity="0.22"/><line x1="304.86" y1="78.29" x2="199.52" y2="83.36" stroke="#326e8f" stroke-width="1" stroke-opacity="0.22"/><line x1="304.86" y1="78.29" x2="239.28" y2="91.51" stroke="#326e8f" stroke-width="1" stroke-opacity="0.22"/><line x1="304.86" y1="78.29" x2="302.24" y2="97.58" stroke="#326e8f" stroke-width="1" stroke-opacity="0.22"/><line x1="304.86" y1="78.29" x2="362.92" y2="65.29" stroke="#326e8f" stroke-width="1" stroke-opacity="0.22"/><line x1="304.86" y1="78.29" x2="342.06" y2="58.09" stroke="#326e8f" stroke-width="1" stroke-opacity="0.22"/><line x1="304.86" y1="78.29" x2="366.93" y2="67.14" stroke="#326e8f" stroke-width="1" stroke-opacity="0.22"/><line x1="304.86" y1="78.29" x2="419.00" y2="77.18" stroke="#326e8f" stroke-width="1" stroke-opacity="0.22"/><line x1="304.86" y1="78.29" x2="404.50" y2="83.62" stroke="#326e8f" stroke-width="1" stroke-opacity="0.22"/><line x1="364.48" y1="87.61" x2="239.28" y2="91.51" stroke="#326e8f" stroke-width="1" stroke-opacity="0.22"/><line x1="364.48" y1="87.61" x2="302.24" y2="97.58" stroke="#326e8f" stroke-width="1" stroke-opacity="0.22"/><line x1="364.48" y1="87.61" x2="321.86" y2="108.07" stroke="#326e8f" stroke-width="1" stroke-opacity="0.22"/><line x1="364.48" y1="87.61" x2="401.25" y2="112.08" stroke="#326e8f" stroke-width="1" stroke-opacity="0.22"/><line x1="364.48" y1="87.61" x2="423.70" y2="106.04" stroke="#326e8f" stroke-width="1" stroke-opacity="0.22"/><line x1="364.48" y1="87.61" x2="477.42" y2="101.04" stroke="#326e8f" stroke-width="1" stroke-opacity="0.22"/><line x1="364.48" y1="87.61" x2="362.92" y2="65.29" stroke="#326e8f" stroke-width="1" stroke-opacity="0.22"/><line x1="364.48" y1="87.61" x2="366.93" y2="67.14" stroke="#326e8f" stroke-width="1" stroke-opacity="0.22"/><line x1="364.48" y1="87.61" x2="419.00" y2="77.18" stroke="#326e8f" stroke-width="1" stroke-opacity="0.22"/><line x1="364.48" y1="87.61" x2="404.50" y2="83.62" stroke="#326e8f" stroke-width="1" stroke-opacity="0.22"/><line x1="362.57" y1="96.57" x2="325.82" y2="114.39" stroke="#326e8f" stroke-width="1" stroke-opacity="0.22"/><line x1="362.57" y1="96.57" x2="239.28" y2="91.51" stroke="#326e8f" stroke-width="1" stroke-opacity="0.22"/><line x1="362.57" y1="96.57" x2="302.24" y2="97.58" stroke="#326e8f" stroke-width="1" stroke-opacity="0.22"/><line x1="362.57" y1="96.57" x2="321.86" y2="108.07" stroke="#326e8f" stroke-width="1" stroke-opacity="0.22"/><line x1="362.57" y1="96.57" x2="401.25" y2="112.08" stroke="#326e8f" stroke-width="1" stroke-opacity="0.22"/><line x1="362.57" y1="96.57" x2="423.70" y2="106.04" stroke="#326e8f" stroke-width="1" stroke-opacity="0.22"/><line x1="362.57" y1="96.57" x2="419.00" y2="77.18" stroke="#326e8f" stroke-width="1" stroke-opacity="0.22"/><line x1="362.57" y1="96.57" x2="404.50" y2="83.62" stroke="#326e8f" stroke-width="1" stroke-opacity="0.22"/>
  <polyline points="203.53,62.90 265.82,70.28 304.86,78.29 364.48,87.61 362.57,96.57 434.83,102.70 448.40,112.81 491.78,124.03 456.14,135.93 418.50,139.57 412.87,127.16 331.53,126.33 325.82,114.39 256.08,118.98 220.57,117.11 212.29,103.89 188.86,104.76 106.93,105.27 112.81,94.26 152.94,87.38 99.24,90.84 36.00,88.02 66.37,76.07 87.25,71.44 39.66,78.50 102.64,83.68 118.90,96.44 181.75,104.67 227.32,107.50 283.94,117.14 328.34,121.23 304.45,134.09 225.28,130.41 238.42,121.55 279.41,130.47 220.94,139.83 166.35,130.22 205.20,125.91 208.17,138.34 127.16,140.51 105.48,128.68 148.45,131.21 178.28,118.83 249.17,116.67 295.93,117.09 250.82,127.19 266.03,134.91 346.55,131.71 345.21,135.34 299.92,146.59 356.57,151.81 419.15,148.92 382.56,154.92 357.95,165.36 435.24,167.04 460.13,167.08 501.77,155.65 508.27,145.60 469.45,133.87 520.80,123.67 518.03,112.08 498.06,106.15 429.64,113.43 412.15,112.26 415.68,98.65 368.38,98.95 310.26,106.26 312.38,97.69 302.37,86.98 240.80,93.33 207.13,97.41 208.67,85.80 172.64,80.31 104.38,87.29 45.30,79.55 45.63,86.24 119.79,80.47 86.64,68.21 99.02,65.79 174.66,70.90 199.52,83.36 239.28,91.51 302.24,97.58 321.86,108.07 401.25,112.08 423.70,106.04 477.42,101.04 531.95,110.27 600.78,104.18 631.67,91.68 629.18,94.71 548.01,97.08 535.57,86.11 577.19,78.05 533.10,82.32 462.64,79.50 489.74,66.94 512.20,66.01 438.14,70.14 404.71,60.03 374.41,68.10 385.20,60.96 362.92,65.29 342.06,58.09 366.93,67.14 419.00,77.18 404.50,83.62 455.46,92.90 418.00,101.43 477.42,104.63 480.76,116.34 554.28,121.10 582.29,132.11 585.15,139.15 507.10,136.44 485.45,140.17 531.88,151.50 492.60,154.32 419.15,151.69 433.59,160.91 484.90,171.02 439.05,174.06 371.20,177.46 337.53,189.71 278.59,192.04 222.46,201.65 241.30,204.88 167.33,209.75 121.28,199.10 174.48,188.87 163.02,186.18 227.10,179.45 256.73,178.93 319.69,172.82 356.37,179.23 354.29,167.44 294.80,159.79 234.77,168.87 257.99,181.18 208.20,191.58 164.47,196.27 204.55,207.99 278.52,202.89 308.29,208.38 232.45,212.73 174.53,206.99 109.47,203.60 51.93,206.98 79.49,219.13 131.54,223.04 184.67,224.00 264.34,220.61 289.19,208.41 354.48,205.21 404.02,194.94 402.29,189.39 473.67,189.60 469.86,176.10 462.86,175.10 537.37,180.84 589.46,172.79 649.25,174.13 597.24,170.87 565.27,160.39 637.28,154.83 662.84,155.94 596.01,149.76 608.10,139.39 687.86,137.48 668.72,138.19 609.90,128.89 660.18,120.53 724.00,120.42 668.59,117.54 622.89,108.24 680.14,101.61 701.15,93.14 621.76,91.45 603.05,86.94 668.61,78.84 643.14,75.01 568.82,71.74 600.76,64.69 646.65,57.20 578.66,55.18 536.91,51.95 595.90,42.95 592.43,38.27 512.24,36.00 487.94,44.60 446.21,52.88 436.63,55.30 472.35,66.01 451.43,70.98 473.57,81.63 413.73,88.10 426.98,95.69 386.09,106.85 399.84,111.78 339.40,104.10 260.31,107.28 218.08,106.92 173.64,97.04 241.10,89.94 274.23,91.66 202.65,87.72 205.23,76.79 281.58,74.19 259.55,75.42 202.15,65.92 257.32,57.39 306.92,59.64 251.88,59.20 189.53,51.22" fill="none" stroke="#7d8f86" stroke-width="2.6"/>
  <circle cx="203.53" cy="62.90" r="3" fill="#22302d"/><circle cx="362.57" cy="96.57" r="3" fill="#22302d"/><circle cx="456.14" cy="135.93" r="3" fill="#22302d"/><circle cx="325.82" cy="114.39" r="3" fill="#22302d"/><circle cx="188.86" cy="104.76" r="3" fill="#22302d"/><circle cx="99.24" cy="90.84" r="3" fill="#22302d"/><circle cx="39.66" cy="78.50" r="3" fill="#22302d"/><circle cx="227.32" cy="107.50" r="3" fill="#22302d"/><circle cx="225.28" cy="130.41" r="3" fill="#22302d"/><circle cx="166.35" cy="130.22" r="3" fill="#22302d"/><circle cx="105.48" cy="128.68" r="3" fill="#22302d"/><circle cx="295.93" cy="117.09" r="3" fill="#22302d"/><circle cx="345.21" cy="135.34" r="3" fill="#22302d"/><circle cx="382.56" cy="154.92" r="3" fill="#22302d"/><circle cx="501.77" cy="155.65" r="3" fill="#22302d"/><circle cx="518.03" cy="112.08" r="3" fill="#22302d"/><circle cx="415.68" cy="98.65" r="3" fill="#22302d"/><circle cx="302.37" cy="86.98" r="3" fill="#22302d"/><circle cx="172.64" cy="80.31" r="3" fill="#22302d"/><circle cx="119.79" cy="80.47" r="3" fill="#22302d"/><circle cx="199.52" cy="83.36" r="3" fill="#22302d"/><circle cx="401.25" cy="112.08" r="3" fill="#22302d"/><circle cx="600.78" cy="104.18" r="3" fill="#22302d"/><circle cx="535.57" cy="86.11" r="3" fill="#22302d"/><circle cx="489.74" cy="66.94" r="3" fill="#22302d"/><circle cx="374.41" cy="68.10" r="3" fill="#22302d"/><circle cx="366.93" cy="67.14" r="3" fill="#22302d"/><circle cx="418.00" cy="101.43" r="3" fill="#22302d"/><circle cx="582.29" cy="132.11" r="3" fill="#22302d"/><circle cx="531.88" cy="151.50" r="3" fill="#22302d"/><circle cx="484.90" cy="171.02" r="3" fill="#22302d"/><circle cx="278.59" cy="192.04" r="3" fill="#22302d"/><circle cx="121.28" cy="199.10" r="3" fill="#22302d"/><circle cx="256.73" cy="178.93" r="3" fill="#22302d"/><circle cx="294.80" cy="159.79" r="3" fill="#22302d"/><circle cx="164.47" cy="196.27" r="3" fill="#22302d"/><circle cx="232.45" cy="212.73" r="3" fill="#22302d"/><circle cx="79.49" cy="219.13" r="3" fill="#22302d"/><circle cx="289.19" cy="208.41" r="3" fill="#22302d"/><circle cx="473.67" cy="189.60" r="3" fill="#22302d"/><circle cx="589.46" cy="172.79" r="3" fill="#22302d"/><circle cx="637.28" cy="154.83" r="3" fill="#22302d"/><circle cx="687.86" cy="137.48" r="3" fill="#22302d"/><circle cx="724.00" cy="120.42" r="3" fill="#22302d"/><circle cx="701.15" cy="93.14" r="3" fill="#22302d"/><circle cx="643.14" cy="75.01" r="3" fill="#22302d"/><circle cx="578.66" cy="55.18" r="3" fill="#22302d"/><circle cx="512.24" cy="36.00" r="3" fill="#22302d"/><circle cx="472.35" cy="66.01" r="3" fill="#22302d"/><circle cx="426.98" cy="95.69" r="3" fill="#22302d"/><circle cx="260.31" cy="107.28" r="3" fill="#22302d"/><circle cx="274.23" cy="91.66" r="3" fill="#22302d"/><circle cx="259.55" cy="75.42" r="3" fill="#22302d"/><circle cx="251.88" cy="59.20" r="3" fill="#22302d"/>
  <text x="34" y="248" font-family="Arial, sans-serif" font-size="11" fill="#58635e">row: coord_007_pdb_4AKE_A_adenylate_kinase | projected coordinates, not full atomic folding</text>
</svg>
