<svg xmlns="http://www.w3.org/2000/svg" width="420" height="420" viewBox="0 0 420 420" role="img" aria-label="Sequence-only predicted contact candidates">
  <rect width="420" height="420" fill="#f8faf7"/>
  <text x="34" y="22" font-family="Arial, sans-serif" font-size="14" fill="#22302d">Sequence-only predicted contact candidates</text>
  <line x1="34" y1="34" x2="34" y2="386" stroke="#9aa69f"/>
  <line x1="34" y1="386" x2="386" y2="386" stroke="#9aa69f"/>
  <line x1="34" y1="34" x2="386" y2="386" stroke="#cfd8d2" stroke-dasharray="4 4"/>
  <circle cx="34.00" cy="40.61" r="2.2" fill="#c44b3a"/><circle cx="40.61" cy="34.00" r="2.2" fill="#c44b3a" opacity="0.58"/><circle cx="37.31" cy="63.75" r="2.2" fill="#c44b3a"/><circle cx="63.75" cy="37.31" r="2.2" fill="#c44b3a" opacity="0.58"/><circle cx="37.31" cy="166.21" r="2.2" fill="#c44b3a"/><circle cx="166.21" cy="37.31" r="2.2" fill="#c44b3a" opacity="0.58"/><circle cx="53.83" cy="60.44" r="2.2" fill="#c44b3a"/><circle cx="60.44" cy="53.83" r="2.2" fill="#c44b3a" opacity="0.58"/><circle cx="60.44" cy="67.05" r="2.2" fill="#c44b3a"/><circle cx="67.05" cy="60.44" r="2.2" fill="#c44b3a" opacity="0.58"/><circle cx="63.75" cy="96.80" r="2.2" fill="#c44b3a"/><circle cx="96.80" cy="63.75" r="2.2" fill="#c44b3a" opacity="0.58"/><circle cx="63.75" cy="129.85" r="2.2" fill="#c44b3a"/><circle cx="129.85" cy="63.75" r="2.2" fill="#c44b3a" opacity="0.58"/><circle cx="63.75" cy="139.77" r="2.2" fill="#c44b3a"/><circle cx="139.77" cy="63.75" r="2.2" fill="#c44b3a" opacity="0.58"/><circle cx="63.75" cy="159.60" r="2.2" fill="#c44b3a"/><circle cx="159.60" cy="63.75" r="2.2" fill="#c44b3a" opacity="0.58"/><circle cx="63.75" cy="166.21" r="2.2" fill="#c44b3a"/><circle cx="166.21" cy="63.75" r="2.2" fill="#c44b3a" opacity="0.58"/><circle cx="63.75" cy="174.47" r="2.2" fill="#c44b3a"/><circle cx="174.47" cy="63.75" r="2.2" fill="#c44b3a" opacity="0.58"/><circle cx="63.75" cy="205.87" r="2.2" fill="#c44b3a"/><circle cx="205.87" cy="63.75" r="2.2" fill="#c44b3a" opacity="0.58"/><circle cx="63.75" cy="212.48" r="2.2" fill="#c44b3a"/><circle cx="212.48" cy="63.75" r="2.2" fill="#c44b3a" opacity="0.58"/><circle cx="80.27" cy="166.21" r="2.2" fill="#c44b3a"/><circle cx="166.21" cy="80.27" r="2.2" fill="#c44b3a" opacity="0.58"/><circle cx="80.27" cy="205.87" r="2.2" fill="#c44b3a"/><circle cx="205.87" cy="80.27" r="2.2" fill="#c44b3a" opacity="0.58"/><circle cx="80.27" cy="212.48" r="2.2" fill="#c44b3a"/><circle cx="212.48" cy="80.27" r="2.2" fill="#c44b3a" opacity="0.58"/><circle cx="96.80" cy="166.21" r="2.2" fill="#c44b3a"/><circle cx="166.21" cy="96.80" r="2.2" fill="#c44b3a" opacity="0.58"/><circle cx="96.80" cy="205.87" r="2.2" fill="#c44b3a"/><circle cx="205.87" cy="96.80" r="2.2" fill="#c44b3a" opacity="0.58"/><circle cx="96.80" cy="212.48" r="2.2" fill="#c44b3a"/><circle cx="212.48" cy="96.80" r="2.2" fill="#c44b3a" opacity="0.58"/><circle cx="106.71" cy="113.32" r="2.2" fill="#c44b3a"/><circle cx="113.32" cy="106.71" r="2.2" fill="#c44b3a" opacity="0.58"/><circle cx="113.32" cy="119.93" r="2.2" fill="#c44b3a"/><circle cx="119.93" cy="113.32" r="2.2" fill="#c44b3a" opacity="0.58"/><circle cx="119.93" cy="126.54" r="2.2" fill="#c44b3a"/><circle cx="126.54" cy="119.93" r="2.2" fill="#c44b3a" opacity="0.58"/><circle cx="129.85" cy="166.21" r="2.2" fill="#c44b3a"/><circle cx="166.21" cy="129.85" r="2.2" fill="#c44b3a" opacity="0.58"/><circle cx="129.85" cy="205.87" r="2.2" fill="#c44b3a"/><circle cx="205.87" cy="129.85" r="2.2" fill="#c44b3a" opacity="0.58"/><circle cx="129.85" cy="212.48" r="2.2" fill="#c44b3a"/><circle cx="212.48" cy="129.85" r="2.2" fill="#c44b3a" opacity="0.58"/><circle cx="129.85" cy="252.14" r="2.2" fill="#c44b3a"/><circle cx="252.14" cy="129.85" r="2.2" fill="#c44b3a" opacity="0.58"/><circle cx="129.85" cy="258.75" r="2.2" fill="#c44b3a"/><circle cx="258.75" cy="129.85" r="2.2" fill="#c44b3a" opacity="0.58"/><circle cx="136.46" cy="143.07" r="2.2" fill="#c44b3a"/><circle cx="143.07" cy="136.46" r="2.2" fill="#c44b3a" opacity="0.58"/><circle cx="139.77" cy="166.21" r="2.2" fill="#c44b3a"/><circle cx="166.21" cy="139.77" r="2.2" fill="#c44b3a" opacity="0.58"/><circle cx="139.77" cy="205.87" r="2.2" fill="#c44b3a"/><circle cx="205.87" cy="139.77" r="2.2" fill="#c44b3a" opacity="0.58"/><circle cx="139.77" cy="212.48" r="2.2" fill="#c44b3a"/><circle cx="212.48" cy="139.77" r="2.2" fill="#c44b3a" opacity="0.58"/><circle cx="139.77" cy="252.14" r="2.2" fill="#c44b3a"/><circle cx="252.14" cy="139.77" r="2.2" fill="#c44b3a" opacity="0.58"/><circle cx="139.77" cy="258.75" r="2.2" fill="#c44b3a"/><circle cx="258.75" cy="139.77" r="2.2" fill="#c44b3a" opacity="0.58"/><circle cx="143.07" cy="149.68" r="2.2" fill="#c44b3a"/><circle cx="149.68" cy="143.07" r="2.2" fill="#c44b3a" opacity="0.58"/><circle cx="146.38" cy="152.99" r="2.2" fill="#c44b3a"/><circle cx="152.99" cy="146.38" r="2.2" fill="#c44b3a" opacity="0.58"/><circle cx="149.68" cy="156.29" r="2.2" fill="#c44b3a"/><circle cx="156.29" cy="149.68" r="2.2" fill="#c44b3a" opacity="0.58"/><circle cx="159.60" cy="205.87" r="2.2" fill="#c44b3a"/><circle cx="205.87" cy="159.60" r="2.2" fill="#c44b3a" opacity="0.58"/><circle cx="159.60" cy="212.48" r="2.2" fill="#c44b3a"/><circle cx="212.48" cy="159.60" r="2.2" fill="#c44b3a" opacity="0.58"/><circle cx="159.60" cy="252.14" r="2.2" fill="#c44b3a"/><circle cx="252.14" cy="159.60" r="2.2" fill="#c44b3a" opacity="0.58"/><circle cx="159.60" cy="258.75" r="2.2" fill="#c44b3a"/><circle cx="258.75" cy="159.60" r="2.2" fill="#c44b3a" opacity="0.58"/><circle cx="166.21" cy="199.26" r="2.2" fill="#c44b3a"/><circle cx="199.26" cy="166.21" r="2.2" fill="#c44b3a" opacity="0.58"/><circle cx="166.21" cy="202.56" r="2.2" fill="#c44b3a"/><circle cx="202.56" cy="166.21" r="2.2" fill="#c44b3a" opacity="0.58"/><circle cx="166.21" cy="205.87" r="2.2" fill="#c44b3a"/><circle cx="205.87" cy="166.21" r="2.2" fill="#c44b3a" opacity="0.58"/><circle cx="166.21" cy="212.48" r="2.2" fill="#c44b3a"/><circle cx="212.48" cy="166.21" r="2.2" fill="#c44b3a" opacity="0.58"/><circle cx="166.21" cy="215.78" r="2.2" fill="#c44b3a"/><circle cx="215.78" cy="166.21" r="2.2" fill="#c44b3a" opacity="0.58"/><circle cx="166.21" cy="225.70" r="2.2" fill="#c44b3a"/><circle cx="225.70" cy="166.21" r="2.2" fill="#c44b3a" opacity="0.58"/><circle cx="166.21" cy="232.31" r="2.2" fill="#c44b3a"/><circle cx="232.31" cy="166.21" r="2.2" fill="#c44b3a" opacity="0.58"/><circle cx="166.21" cy="238.92" r="2.2" fill="#c44b3a"/><circle cx="238.92" cy="166.21" r="2.2" fill="#c44b3a" opacity="0.58"/><circle cx="166.21" cy="252.14" r="2.2" fill="#c44b3a"/><circle cx="252.14" cy="166.21" r="2.2" fill="#c44b3a" opacity="0.58"/><circle cx="166.21" cy="255.45" r="2.2" fill="#c44b3a"/><circle cx="255.45" cy="166.21" r="2.2" fill="#c44b3a" opacity="0.58"/><circle cx="166.21" cy="258.75" r="2.2" fill="#c44b3a"/><circle cx="258.75" cy="166.21" r="2.2" fill="#c44b3a" opacity="0.58"/><circle cx="166.21" cy="314.94" r="2.2" fill="#c44b3a"/><circle cx="314.94" cy="166.21" r="2.2" fill="#c44b3a" opacity="0.58"/><circle cx="186.04" cy="192.65" r="2.2" fill="#c44b3a"/><circle cx="192.65" cy="186.04" r="2.2" fill="#c44b3a" opacity="0.58"/><circle cx="189.34" cy="195.95" r="2.2" fill="#c44b3a"/><circle cx="195.95" cy="189.34" r="2.2" fill="#c44b3a" opacity="0.58"/><circle cx="199.26" cy="252.14" r="2.2" fill="#c44b3a"/><circle cx="252.14" cy="199.26" r="2.2" fill="#c44b3a" opacity="0.58"/><circle cx="199.26" cy="258.75" r="2.2" fill="#c44b3a"/><circle cx="258.75" cy="199.26" r="2.2" fill="#c44b3a" opacity="0.58"/><circle cx="199.26" cy="314.94" r="2.2" fill="#c44b3a"/><circle cx="314.94" cy="199.26" r="2.2" fill="#c44b3a" opacity="0.58"/><circle cx="199.26" cy="331.46" r="2.2" fill="#c44b3a"/><circle cx="331.46" cy="199.26" r="2.2" fill="#c44b3a" opacity="0.58"/><circle cx="202.56" cy="252.14" r="2.2" fill="#c44b3a"/><circle cx="252.14" cy="202.56" r="2.2" fill="#c44b3a" opacity="0.58"/><circle cx="202.56" cy="258.75" r="2.2" fill="#c44b3a"/><circle cx="258.75" cy="202.56" r="2.2" fill="#c44b3a" opacity="0.58"/><circle cx="202.56" cy="314.94" r="2.2" fill="#c44b3a"/><circle cx="314.94" cy="202.56" r="2.2" fill="#c44b3a" opacity="0.58"/><circle cx="202.56" cy="331.46" r="2.2" fill="#c44b3a"/><circle cx="331.46" cy="202.56" r="2.2" fill="#c44b3a" opacity="0.58"/><circle cx="205.87" cy="232.31" r="2.2" fill="#c44b3a"/><circle cx="232.31" cy="205.87" r="2.2" fill="#c44b3a" opacity="0.58"/><circle cx="205.87" cy="238.92" r="2.2" fill="#c44b3a"/><circle cx="238.92" cy="205.87" r="2.2" fill="#c44b3a" opacity="0.58"/><circle cx="205.87" cy="252.14" r="2.2" fill="#c44b3a"/><circle cx="252.14" cy="205.87" r="2.2" fill="#c44b3a" opacity="0.58"/><circle cx="205.87" cy="255.45" r="2.2" fill="#c44b3a"/><circle cx="255.45" cy="205.87" r="2.2" fill="#c44b3a" opacity="0.58"/><circle cx="205.87" cy="258.75" r="2.2" fill="#c44b3a"/><circle cx="258.75" cy="205.87" r="2.2" fill="#c44b3a" opacity="0.58"/><circle cx="205.87" cy="311.63" r="2.2" fill="#c44b3a"/><circle cx="311.63" cy="205.87" r="2.2" fill="#c44b3a" opacity="0.58"/><circle cx="205.87" cy="314.94" r="2.2" fill="#c44b3a"/><circle cx="314.94" cy="205.87" r="2.2" fill="#c44b3a" opacity="0.58"/><circle cx="205.87" cy="328.16" r="2.2" fill="#c44b3a"/><circle cx="328.16" cy="205.87" r="2.2" fill="#c44b3a" opacity="0.58"/><circle cx="205.87" cy="331.46" r="2.2" fill="#c44b3a"/><circle cx="331.46" cy="205.87" r="2.2" fill="#c44b3a" opacity="0.58"/><circle cx="205.87" cy="333.12" r="2.2" fill="#c44b3a"/><circle cx="333.12" cy="205.87" r="2.2" fill="#c44b3a" opacity="0.58"/><circle cx="205.87" cy="351.30" r="2.2" fill="#c44b3a"/><circle cx="351.30" cy="205.87" r="2.2" fill="#c44b3a" opacity="0.58"/><circle cx="212.48" cy="238.92" r="2.2" fill="#c44b3a"/><circle cx="238.92" cy="212.48" r="2.2" fill="#c44b3a" opacity="0.58"/><circle cx="212.48" cy="252.14" r="2.2" fill="#c44b3a"/><circle cx="252.14" cy="212.48" r="2.2" fill="#c44b3a" opacity="0.58"/><circle cx="212.48" cy="255.45" r="2.2" fill="#c44b3a"/><circle cx="255.45" cy="212.48" r="2.2" fill="#c44b3a" opacity="0.58"/><circle cx="212.48" cy="258.75" r="2.2" fill="#c44b3a"/><circle cx="258.75" cy="212.48" r="2.2" fill="#c44b3a" opacity="0.58"/><circle cx="212.48" cy="311.63" r="2.2" fill="#c44b3a"/><circle cx="311.63" cy="212.48" r="2.2" fill="#c44b3a" opacity="0.58"/><circle cx="212.48" cy="314.94" r="2.2" fill="#c44b3a"/><circle cx="314.94" cy="212.48" r="2.2" fill="#c44b3a" opacity="0.58"/><circle cx="212.48" cy="328.16" r="2.2" fill="#c44b3a"/><circle cx="328.16" cy="212.48" r="2.2" fill="#c44b3a" opacity="0.58"/><circle cx="212.48" cy="331.46" r="2.2" fill="#c44b3a"/><circle cx="331.46" cy="212.48" r="2.2" fill="#c44b3a" opacity="0.58"/><circle cx="212.48" cy="333.12" r="2.2" fill="#c44b3a"/><circle cx="333.12" cy="212.48" r="2.2" fill="#c44b3a" opacity="0.58"/><circle cx="212.48" cy="351.30" r="2.2" fill="#c44b3a"/><circle cx="351.30" cy="212.48" r="2.2" fill="#c44b3a" opacity="0.58"/><circle cx="215.78" cy="252.14" r="2.2" fill="#c44b3a"/><circle cx="252.14" cy="215.78" r="2.2" fill="#c44b3a" opacity="0.58"/><circle cx="215.78" cy="258.75" r="2.2" fill="#c44b3a"/><circle cx="258.75" cy="215.78" r="2.2" fill="#c44b3a" opacity="0.58"/><circle cx="215.78" cy="314.94" r="2.2" fill="#c44b3a"/><circle cx="314.94" cy="215.78" r="2.2" fill="#c44b3a" opacity="0.58"/><circle cx="215.78" cy="331.46" r="2.2" fill="#c44b3a"/><circle cx="331.46" cy="215.78" r="2.2" fill="#c44b3a" opacity="0.58"/><circle cx="222.39" cy="229.00" r="2.2" fill="#c44b3a"/><circle cx="229.00" cy="222.39" r="2.2" fill="#c44b3a" opacity="0.58"/><circle cx="225.70" cy="252.14" r="2.2" fill="#c44b3a"/><circle cx="252.14" cy="225.70" r="2.2" fill="#c44b3a" opacity="0.58"/><circle cx="225.70" cy="258.75" r="2.2" fill="#c44b3a"/><circle cx="258.75" cy="225.70" r="2.2" fill="#c44b3a" opacity="0.58"/>
  <text x="34" y="412" font-family="Arial, sans-serif" font-size="11" fill="#58635e">row: coord_007_pdb_4AKE_A_adenylate_kinase | contacts: 90</text>
</svg>
